<mxfile host="65bd71144e">
    <diagram id="pyFOITWGm1L5QSNy7el4" name="Page-1">
        <mxGraphModel dx="2193" dy="967" grid="0" gridSize="10" guides="1" tooltips="1" connect="1" arrows="1" fold="1" page="0" pageScale="1" pageWidth="850" pageHeight="1100" background="#ffffff" math="0" shadow="0">
            <root>
                <mxCell id="0"/>
                <mxCell id="1" parent="0"/>
                <mxCell id="18" value="&lt;span style=&quot;font-size: 12px; font-weight: 700;&quot;&gt;API群 専門家AI MicroService&lt;/span&gt;" style="rounded=0;whiteSpace=wrap;html=1;fontSize=14;fillColor=#dae8fc;verticalAlign=top;strokeColor=#6c8ebf;" parent="1" vertex="1">
                    <mxGeometry x="468" y="104" width="647" height="715" as="geometry"/>
                </mxCell>
                <mxCell id="17" value="&lt;span style=&quot;font-size: 12px; font-weight: 700;&quot;&gt;AIオーケストレーター&lt;/span&gt;" style="rounded=0;whiteSpace=wrap;html=1;fontSize=14;fillColor=#ffe6cc;strokeColor=#d79b00;verticalAlign=top;fontColor=#000000;" parent="1" vertex="1">
                    <mxGeometry x="86" y="104" width="336" height="398" as="geometry"/>
                </mxCell>
                <mxCell id="58" style="edgeStyle=none;hachureGap=4;html=1;entryX=-0.038;entryY=0.524;entryDx=0;entryDy=0;entryPerimeter=0;fontFamily=Architects Daughter;fontSource=https%3A%2F%2Ffonts.googleapis.com%2Fcss%3Ffamily%3DArchitects%2BDaughter;fontSize=16;" parent="1" source="2" target="29" edge="1">
                    <mxGeometry relative="1" as="geometry"/>
                </mxCell>
                <mxCell id="2" value="User" style="shape=umlActor;verticalLabelPosition=bottom;verticalAlign=top;html=1;outlineConnect=0;fontStyle=1" parent="1" vertex="1">
                    <mxGeometry x="-13" y="259" width="30" height="60" as="geometry"/>
                </mxCell>
                <mxCell id="38" style="edgeStyle=none;hachureGap=4;html=1;entryX=0.054;entryY=0.478;entryDx=0;entryDy=0;entryPerimeter=0;fontFamily=Architects Daughter;fontSource=https%3A%2F%2Ffonts.googleapis.com%2Fcss%3Ffamily%3DArchitects%2BDaughter;fontSize=16;fontColor=#000000;" parent="1" source="29" target="30" edge="1">
                    <mxGeometry relative="1" as="geometry"/>
                </mxCell>
                <mxCell id="29" value="Static Web Apps&lt;br&gt;&lt;b&gt;Webアプリ配信&lt;/b&gt;" style="aspect=fixed;html=1;points=[];align=center;image;fontSize=12;image=img/lib/azure2/preview/Static_Apps.svg;sketch=1;hachureGap=4;jiggle=2;curveFitting=1;fontFamily=Helvetica;labelBackgroundColor=none;" parent="1" vertex="1">
                    <mxGeometry x="132" y="260" width="70" height="56.00000000000001" as="geometry"/>
                </mxCell>
                <mxCell id="30" value="Durable Functions&lt;br&gt;&lt;b&gt;AIオーケストレーション&lt;/b&gt;" style="aspect=fixed;html=1;points=[];align=center;image;fontSize=12;image=img/lib/azure2/compute/Function_Apps.svg;sketch=1;hachureGap=4;jiggle=2;curveFitting=1;fontFamily=Helvetica;labelBackgroundColor=none;" parent="1" vertex="1">
                    <mxGeometry x="297" y="259" width="68" height="60" as="geometry"/>
                </mxCell>
                <mxCell id="40" value="" style="rounded=0;whiteSpace=wrap;html=1;fontSize=14;fillColor=#99CCFF;strokeColor=#6c8ebf;verticalAlign=top;" parent="1" vertex="1">
                    <mxGeometry x="625" y="170" width="409" height="156" as="geometry"/>
                </mxCell>
                <mxCell id="41" value="専門領域Aについての質問に回答する&lt;br&gt;&lt;br&gt;■Input Params&lt;br&gt;・messages: [ { role, content } ]&lt;br&gt;&lt;br&gt;■Output Params&lt;br&gt;・content" style="text;html=1;strokeColor=none;fillColor=none;align=left;verticalAlign=top;whiteSpace=wrap;rounded=0;labelBackgroundColor=none;sketch=0;hachureGap=4;jiggle=2;curveFitting=1;fontFamily=Helvetica;fontSize=16;fontColor=#000000;" parent="1" vertex="1">
                    <mxGeometry x="712" y="177" width="296" height="131" as="geometry"/>
                </mxCell>
                <mxCell id="43" value="質問回答&#10;専門家A" style="shape=image;verticalLabelPosition=bottom;labelBackgroundColor=none;verticalAlign=top;aspect=fixed;imageAspect=0;image=data:image/png,iVBORw0KGgoAAAANSUhEUgAABJ0AAAU4CAYAAAAFFqauAAABU2lDQ1BBZG9iZSBSR0IgKDE5OTgpAAAoFa3Bv2sTUQDA8e87pZUOMcJRHDq8qShUTJoOvfEuCaEgGK8Z3ntb7gdpCckd715i+0d07JbBxd2/wMmx4KD4F/gfKE4ZGi6bnQQ/H/BaYS/qe02YzZ2NB5FU2sjdr+zwiNo4rcpwOHzDxryY5zzw5weCjW+vwl7U59/spaV1wBo4zvIqBdECpu9d6UCsAD+Zlg7EJ8C3o7gL4gvQmIziLojvQCMZxV0QP4GGVdqA+A34E6UNeE8AP1HagHcA+C6/cmx0i/LaXk4unGwHQSDDrEhyeX5duXxWybN5WtiysGOXZ0CWVylbz8KsSHIZDyL5oh0Epy/5z5Q2ktqvdwhA7N8pbSR/SRd2yZbwOpAu7JIt4XUgXdglW8LrgNJGUls9h7cf4fFaaSOpndzAhyN4equ0kdQO29B8DZ9X98DGT/0wYTt4AAAACXBIWXMAAC4jAAAuIwF4pT92AAAOgmlUWHRYTUw6Y29tLmFkb2JlLnhtcAAAAAAAPD94cGFja2V0IGJlZ2luPSLvu78iIGlkPSJXNU0wTXBDZWhpSHpyZVN6TlRjemtjOWQiPz4gPHg6eG1wbWV0YSB4bWxuczp4PSJhZG9iZTpuczptZXRhLyIgeDp4bXB0az0iQWRvYmUgWE1QIENvcmUgNS42LWMxNDUgNzkuMTYzNDk5LCAyMDE4LzA4LzEzLTE2OjQwOjIyICAgICAgICAiPiA8cmRmOlJERiB4bWxuczpyZGY9Imh0dHA6Ly93d3cudzMub3JnLzE5OTkvMDIvMjItcmRmLXN5bnRheC1ucyMiPiA8cmRmOkRlc2NyaXB0aW9uIHJkZjphYm91dD0iIiB4bWxuczp4bXA9Imh0dHA6Ly9ucy5hZG9iZS5jb20veGFwLzEuMC8iIHhtbG5zOnhtcFRQZz0iaHR0cDovL25zLmFkb2JlLmNvbS94YXAvMS4wL3QvcGcvIiB4bWxuczpzdERpbT0iaHR0cDovL25zLmFkb2JlLmNvbS94YXAvMS4wL3NUeXBlL0RpbWVuc2lvbnMjIiB4bWxuczp4bXBHPSJodHRwOi8vbnMuYWRvYmUuY29tL3hhcC8xLjAvZy8iIHhtbG5zOmRjPSJodHRwOi8vcHVybC5vcmcvZGMvZWxlbWVudHMvMS4xLyIgeG1sbnM6eG1wTU09Imh0dHA6Ly9ucy5hZG9iZS5jb20veGFwLzEuMC9tbS8iIHhtbG5zOnN0RXZ0PSJodHRwOi8vbnMuYWRvYmUuY29tL3hhcC8xLjAvc1R5cGUvUmVzb3VyY2VFdmVudCMiIHhtbG5zOnN0UmVmPSJodHRwOi8vbnMuYWRvYmUuY29tL3hhcC8xLjAvc1R5cGUvUmVzb3VyY2VSZWYjIiB4bWxuczpwZGY9Imh0dHA6Ly9ucy5hZG9iZS5jb20vcGRmLzEuMy8iIHhtbG5zOnBkZnhpZD0iaHR0cDovL3d3dy5ucGVzLm9yZy9wZGZ4L25zL2lkLyIgeG1sbnM6cGRmeD0iaHR0cDovL25zLmFkb2JlLmNvbS9wZGZ4LzEuMy8iIHhtbG5zOnBob3Rvc2hvcD0iaHR0cDovL25zLmFkb2JlLmNvbS9waG90b3Nob3AvMS4wLyIgeG1sbnM6dGlmZj0iaHR0cDovL25zLmFkb2JlLmNvbS90aWZmLzEuMC8iIHhtbG5zOmV4aWY9Imh0dHA6Ly9ucy5hZG9iZS5jb20vZXhpZi8xLjAvIiB4bXA6Q3JlYXRvclRvb2w9IkFkb2JlIFBob3Rvc2hvcCBDQyAyMDE3IChNYWNpbnRvc2gpIiB4bXA6Q3JlYXRlRGF0ZT0iMjAxNy0wOS0xOVQxMzozNjoyNCswMjowMCIgeG1wOk1vZGlmeURhdGU9IjIwMTktMDQtMThUMTE6MzU6MTArMDU6MzAiIHhtcDpNZXRhZGF0YURhdGU9IjIwMTktMDQtMThUMTE6MzU6MTArMDU6MzAiIHhtcFRQZzpOUGFnZXM9IjEiIHhtcFRQZzpIYXNWaXNpYmxlVHJhbnNwYXJlbmN5PSJGYWxzZSIgeG1wVFBnOkhhc1Zpc2libGVPdmVycHJpbnQ9IkZhbHNlIiBkYzpmb3JtYXQ9ImltYWdlL3BuZyIgeG1wTU06UmVuZGl0aW9uQ2xhc3M9InByb29mOnBkZiIgeG1wTU06VmVyc2lvbklEPSIxIiB4bXBNTTpEb2N1bWVudElEPSJhZG9iZTpkb2NpZDpwaG90b3Nob3A6NDBiMjZiMmYtZGRiZC0xMTdhLTljNmUtZjlkNjFkZmE2MzUyIiB4bXBNTTpJbnN0YW5jZUlEPSJ4bXAuaWlkOjNjMTllOWNlLWZkMGUtZGE0MS05ZmIwLWE5MjRiMTg1MWE1NiIgeG1wTU06T3JpZ2luYWxEb2N1bWVudElEPSJ1dWlkOmEzZDlmZDBkLTlhODEtYTM0ZS1iMjA0LTRlYWNmYzAxZTM1MiIgcGRmOlByb2R1Y2VyPSJBZG9iZSBQREYgbGlicmFyeSAxNS4wMCIgcGRmOlRyYXBwZWQ9IkZhbHNlIiBwZGZ4aWQ6R1RTX1BERlhWZXJzaW9uPSJQREYvWC00IiBwZGZ4OkdUU19QREZYVmVyc2lvbj0iUERGL1gtNCIgcGhvdG9zaG9wOkNvbG9yTW9kZT0iMyIgcGhvdG9zaG9wOklDQ1Byb2ZpbGU9IkFkb2JlIFJHQiAoMTk5OCkiIHRpZmY6T3JpZW50YXRpb249IjEiIHRpZmY6WFJlc29sdXRpb249IjMwMDAwMDAvMTAwMDAiIHRpZmY6WVJlc29sdXRpb249IjMwMDAwMDAvMTAwMDAiIHRpZmY6UmVzb2x1dGlvblVuaXQ9IjIiIGV4aWY6Q29sb3JTcGFjZT0iNjU1MzUiIGV4aWY6UGl4ZWxYRGltZW5zaW9uPSIxMTgxIiBleGlmOlBpeGVsWURpbWVuc2lvbj0iMTMzNiI+IDx4bXBUUGc6TWF4UGFnZVNpemUgc3REaW06dz0iNi41OTY5NDQiIHN0RGltOmg9IjcuNDYxMjUwIiBzdERpbTp1bml0PSJDZW50aW1ldGVycyIvPiA8eG1wVFBnOlBsYXRlTmFtZXM+IDxyZGY6U2VxPiA8cmRmOmxpPkN5YW48L3JkZjpsaT4gPHJkZjpsaT5NYWdlbnRhPC9yZGY6bGk+IDxyZGY6bGk+WWVsbG93PC9yZGY6bGk+IDxyZGY6bGk+QmxhY2s8L3JkZjpsaT4gPC9yZGY6U2VxPiA8L3htcFRQZzpQbGF0ZU5hbWVzPiA8eG1wVFBnOlN3YXRjaEdyb3Vwcz4gPHJkZjpTZXE+IDxyZGY6bGkgeG1wRzpncm91cE5hbWU9IkdydXBvIGRlIG11ZXN0cmFzIHBvciBkZWZlY3RvIiB4bXBHOmdyb3VwVHlwZT0iMCIvPiA8L3JkZjpTZXE+IDwveG1wVFBnOlN3YXRjaEdyb3Vwcz4gPGRjOnRpdGxlPiA8cmRmOkFsdD4gPHJkZjpsaSB4bWw6bGFuZz0ieC1kZWZhdWx0Ij5pY29uc19wcm9kdWN0cyBwaWxsYXJzPC9yZGY6bGk+IDwvcmRmOkFsdD4gPC9kYzp0aXRsZT4gPHhtcE1NOkhpc3Rvcnk+IDxyZGY6U2VxPiA8cmRmOmxpIHN0RXZ0OmFjdGlvbj0iY29udmVydGVkIiBzdEV2dDpwYXJhbWV0ZXJzPSJmcm9tIGFwcGxpY2F0aW9uL3BkZiB0byBhcHBsaWNhdGlvbi92bmQuYWRvYmUucGhvdG9zaG9wIi8+IDxyZGY6bGkgc3RFdnQ6YWN0aW9uPSJzYXZlZCIgc3RFdnQ6aW5zdGFuY2VJRD0ieG1wLmlpZDo4Yjk2ZDA1My02ZTA0LTQyOWMtODIwYS1iMGU2MDhkZTRlNmMiIHN0RXZ0OndoZW49IjIwMTctMDktMTlUMTM6Mzc6NTMrMDI6MDAiIHN0RXZ0OnNvZnR3YXJlQWdlbnQ9IkFkb2JlIFBob3Rvc2hvcCBDQyAyMDE3IChNYWNpbnRvc2gpIiBzdEV2dDpjaGFuZ2VkPSIvIi8+IDxyZGY6bGkgc3RFdnQ6YWN0aW9uPSJjb252ZXJ0ZWQiIHN0RXZ0OnBhcmFtZXRlcnM9ImZyb20gYXBwbGljYXRpb24vcGRmIHRvIGltYWdlL3BuZyIvPiA8cmRmOmxpIHN0RXZ0OmFjdGlvbj0iZGVyaXZlZCIgc3RFdnQ6cGFyYW1ldGVycz0iY29udmVydGVkIGZyb20gYXBwbGljYXRpb24vdm5kLmFkb2JlLnBob3Rvc2hvcCB0byBpbWFnZS9wbmciLz4gPHJkZjpsaSBzdEV2dDphY3Rpb249InNhdmVkIiBzdEV2dDppbnN0YW5jZUlEPSJ4bXAuaWlkOmMwODgzNTZjLTUyMWUtNDg2Zi1hY2JhLTY2NzY3NGNhYmM0MiIgc3RFdnQ6d2hlbj0iMjAxNy0wOS0xOVQxMzozNzo1MyswMjowMCIgc3RFdnQ6c29mdHdhcmVBZ2VudD0iQWRvYmUgUGhvdG9zaG9wIENDIDIwMTcgKE1hY2ludG9zaCkiIHN0RXZ0OmNoYW5nZWQ9Ii8iLz4gPHJkZjpsaSBzdEV2dDphY3Rpb249InNhdmVkIiBzdEV2dDppbnN0YW5jZUlEPSJ4bXAuaWlkOjNjMTllOWNlLWZkMGUtZGE0MS05ZmIwLWE5MjRiMTg1MWE1NiIgc3RFdnQ6d2hlbj0iMjAxOS0wNC0xOFQxMTozNToxMCswNTozMCIgc3RFdnQ6c29mdHdhcmVBZ2VudD0iQWRvYmUgUGhvdG9zaG9wIENDIDIwMTkgKFdpbmRvd3MpIiBzdEV2dDpjaGFuZ2VkPSIvIi8+IDwvcmRmOlNlcT4gPC94bXBNTTpIaXN0b3J5PiA8eG1wTU06RGVyaXZlZEZyb20gc3RSZWY6aW5zdGFuY2VJRD0ieG1wLmlpZDo4Yjk2ZDA1My02ZTA0LTQyOWMtODIwYS1iMGU2MDhkZTRlNmMiIHN0UmVmOmRvY3VtZW50SUQ9InhtcC5kaWQ6OGI5NmQwNTMtNmUwNC00MjljLTgyMGEtYjBlNjA4ZGU0ZTZjIiBzdFJlZjpvcmlnaW5hbERvY3VtZW50SUQ9InV1aWQ6YTNkOWZkMGQtOWE4MS1hMzRlLWIyMDQtNGVhY2ZjMDFlMzUyIiBzdFJlZjp2ZXJzaW9uSUQ9IjEiIHN0UmVmOnJlbmRpdGlvbkNsYXNzPSJwcm9vZjpwZGYiLz4gPC9yZGY6RGVzY3JpcHRpb24+IDwvcmRmOlJERj4gPC94OnhtcG1ldGE+IDw/eHBhY2tldCBlbmQ9InIiPz4v4W/MAACciklEQVR4AezBB+D/hYD4/8f39f20U2lQSSmldEVZlWRvkb3D4XD2WXfOPO5scc6IO3uLs3J2Qigrq6wkkdCgtMf3+/85f2c1vuPz+Xxf7/f7+Xgs2frAt0iSJBmhTbARNsJG2AgbYSNsiPWxNjbEHDbCgE0wYCOshQ2wDtbzRxtjiT+3Fta34s7w1y7AOf7oDCzDGbgYv8WFOBvn41yci/NxNi7AGTgDZ+JMnIkzcSbOliRJ1oiT3nKgrJw5SZIkC2d9bIEtsBk2wxbYApthM2yCjbARNsJGuILx29jiW4YzcQbOwJk4E7/BqTgFp+I0nIpTcBpOxYWSJEkW0ZwkSZKVsxG2xtbYEttgS2yFzbE5tsBmWFfm04BNsImVdyZOwWk4Fb/CL3ASfoGTcDJOxvmSJElW05wkSZLfm8PWuBq2wTbYEltja2yJbbCeTKKNsBGu7vKdhl/gJJyMk3ESTsZP8BOcIkmS5DLMSZIks2JtbIttcTVcDdthO1wN22CphM2wGf7GpTsXJ+AE/AQ/wQk4AT/BL7BckiSZWXOSJMk02Rg7YmfshB2xA7bD1lgimR/r4Zq4pkt2AX6CE3A8fogf4Ic4HhdIkiRTbU6SJJk0G2BH7ISdsSN2xC7YXDIOa2Mn7OSvLcNP8AP8EMfh+/ghfoKLJEmSiTcnSZKM1abYDbtiV+yGnbG1ZLIN2B7b4zb+3EU4Ht/FMTgWx+B7OE+SJJkYc5IkyZq2Cf4Gu2I37I5dcWXJ7JnDNXANHOCPluF4fAffxrE4Ft/DBZIkyejMSZIki2UOO+M62BO7Y1dsLcnlGbAjdsSd/dHFOA7H4hs4GkfjZ5IkyRo1J0mSLIT1cG3sgT2xJ3bHupLMp6XYGTvjLv7oVHwDX8fR+AZ+gGWSJMmimJMkSVbXFXEd7Ik9sQd2wSDJmrI5bolb+qNz8E0cjaNxNL6FCyVJknk3J0mSrIy1sAdugL1xA1xDkkmwPvbBPv7ofByNo3AUvowfSZIkq21OkiS5LFfHDbAX9sKeWEeSabEO9sbe/ug0fBlH4Sh8GadLkiQrZU6SJPmDDbAP9sHeuAE2l2TWbIbb4Xb+6If4Mr6EL+BbWCZJklyqOUmSzK4tsC9uhP1wXSyVJH9tJ+yE+/m9M/FFfA6fx1dxniRJ8n/mJEkyO66G/XAj3Bi7SJJVsxFui9v6vfPxFRyBz+GLOEOSJDNsTpIk02tn3Aw3wX64iiRZGOvgRrgR/gnL8G0cgcPxGZwmSZIZMidJkumxDW6Bm+MWuIokWTMGXBvXxqOwHN/Ep/FpfB5nSZJkis1JkmRybYqb4+a4Ba4hScZpCfbAHngiLsSX8SkchiNxgSRJpsicJEkmx/q4MW6Jm2MPLJEkk2ct7It98Syci8/h0zgMR2OZJEkm2JwkScZtZ9wOt8NNsI4kmT7r4Ta4jd87BR/DR/EJnCZJkgkzJ0mScdkAN8dtcHtsL0lmzxY4EAdiGb6Mj+J/8HUskyTJyM1JkmTNuyZuh9tjP6wtSfIHA/bG3vgXnIJP4GP4GE6VJMkIzUmSZPGtg5viANwe20mSrKgtcD/cD8vxFRyKD+JbkiQZiTlJkiyOTXB7HIDbYiNJktW1BDfADfAcnIAP4gP4PC6WJMkaMidJkoWzLe6EA3BTzEmSLKSr4XF4HH6NQ/EhfAxnSZJkEc1JkmR+7YEDcGfsIUmyplwRB+JAnI9P44P4ME6WJMkCm5MkyepZgr1wD9wd20qSjM06uD1uj4PxZRyCQ3CiJEkWwJwkSVbeEuyFe+AeuKokyaRYgr2wF16Co3AIDsGJkiSZJ3OSJFkxS7AX7oF74KqSJNNgL+yFl+AoHIJDcKIkSVbDnCRJLt0S7IV74B64qiTJNNsLe+ElOAqH4BCcKEmSlTQnSZK/tisOxH2xrSTJLNoLe+El+CLehvfgNEmSrIA5SZL83ta4L+6HPSRJ8kc3xA3xCnwUb8OHca4kSS7FnCTJLNsId8X9cAsskSTJpZvDHXFHnIn/xttxGJZJkuRPzEmSzJq1cFvcH3fCupIkWXkb4UF4EH6Od+Dt+IYkSf6fQZJkVlwPr8bJ+BDuiXUlSbL6tsaTcDSOwVOwpSTJTBskSabZ5ngcvoWv4O+xmSSX5wycgTNwBs7AGThXksuzK16In+HDuAvWkiSZOXOSJNNmKW6Nh+BOWEsymc7FmTgTZ+JMnIkzcCbOxDk4G+fjXJyL83E2LsRZuAhnYhl+48+djQutvg2wlj9aCxtgHayH9bAONsBa2BBz2AgDNsH62AgbYSNcARtjY2yEjTAnmRxLsT/2x6/wVrwBx0qSzIQ5SZJpsSMehAfhKpLxOAen4hSchtNwGn6F03AaTsOp+A3OwG9xkclxtr92ivm3HjbCFbApNsNm2AKbYzNshs2xBTbDZlhLsmZdCU/EE3EUXo9340xJkqk1J0kyydbH3fEQ3FiyeC7Gr3ASfomTcDJOxkn4BU7GaThP5su5OBe/tHKugCvjStgGW2JrbI0tsQ2ujE0lC28v7IWX4714Az6H5ZIkU2VOkmQS7Yq/xwOwkWR+LcPP8RP8BD/BT/BT/AI/x6+wTCbFb/FbHOeyrYOtsBWugm1wNWyLq2E7bCqZH+vjAXgAfoCD8WacLkkyFeYkSSbF2rgrHoGbSFbdxfgJfowTcQJOxAn4CX6GC2UWnY8TcIJLtyG2w3bYDtvhatgO2+PKkpV3DRyE5+HdeDW+LEky0eYkScbuangYHootJCtmGU7EcfgejsNx+AFOwIWSVXMWjsExLtkVsCN2xC7YETviGthcctnWxQPxQByN1+AdOFuSZOLMSZKM0YA74BG4HZZILtmpOAbH4oc4Dj/E8bhAsvh+i6NxtL+2MXbETtgJO2E37IL1JH9uT7wOL8WbcTCOkSSZGHOSJGNyJfwdHoZtJX90Ko7BMTgWx+AYnCKZHGfga/iaPzfgatgNu2JX7IZdsJ7Muivg0Xg0Po/X4H24QJJk1OYkScZgDzwO98XaMsvOwrfwTRyDY3AMTpFMr2U4HsfjQ/5owNWwG3bFbtgTO2OpzKL9sB9+jtfgtThFkmSU5iRJ1pQBB+BxuInMol/gGzga38A3cByWSfI7y3A8jseH/NF62A17Yg/sgWtjfZkVW+O5eDrejpfj25IkozInSbLYNsZD8BhcTWbFD3E0jsY38A38QpJVcS6+gq/4owE7YU/sgT1wXWwu02wdPBgPxmfwchyKZZIka9ycJMli2QmPxYOwoUyzX+LLOApfwZfxG0kW0jJ8H9/Hu/zR9rgBro+9sSfWl2l0M9wMx+MVeCPOlCRZY+YkSRbaLfF43B5LZNqcja/hy/gyjsKJkozFj/FjvNvvzWE33AA3wF7YFYNMix3wcjwXb8ArcLwkyaJbsvWBb5EkmXdzuBv+EXvKNDkeR+AIHIljcbEkk2wDXA/74Ea4Ia4o0+JivA8vwtckySo66S0HysqZkySZT+vhwXgitpdJtwzfwBE4AkfgZEmmzdn4LD7r9wbsihthP9wI28qkWop74p74NF6IT0qSLLg5SZL5sBkehcdiM5lU5+AoHIEj8EWcJcmsWYbv4Ds42O9dFftiP9wIu2OJTJpb4BY4Gi/GIbhIkmRBLNn6wLdIkqyy7fBEPBgbyKQ5H0fgcHwKX8VFkuTybYyb4Oa4OXaXSXQCXorX41xJchlOesuBsnLmJElWxbXxFNwLS2VSXIwjcTg+hSNxniRZeWfgQ/iQ39sCN8PNcQvsKJPgavgPPBuvwKtxqiTJvFiy9YFvkSRZYXvjadhfJsFyHI3P4NP4PM6SJAtvG9wCN8MtsI1MgrPxGhyEkyXJnzjpLQfKylmy9YFvkSS5XDfEM3EbGbuT8XF8DJ/E6ZJkzdsJt8NtcVOsJ2N2Hl6LF+JkSfL/nPSWA2XlzEmSXJab4tm4iYzVhfgiPoqP4VtYLknG5Yf4IV6BdXFj3Ba3wy4yNuvicfh7vBHPw4mSJCtlydYHvkWS5K/cFk/FjWWMfoKP4uP4NH4rSSbXtrgdboNb4goyNhfijXgxjpNkJp30lgNl5QySJH+wBLfFkfgobixjsQyfxROxC66Gv8cH8FtJMtlOxGtxV2yGm+Il+KGMxVp4GL6HN2FHSZLLNUiS/M6d8HV8FHvJGJyF9+IB2AI3xUH4viSZXhfis3gyroFd8I/4ApbJmrYUD8T38S7sJElyqQZJMttugSPxQewha9rP8BrcFpvjHngrTpcks+n7eBFuhC3xt/gAzpE1acC98F28CdtKkvyVQZLMpn1wOD6FvWRN+gb+BdfFtngkPo7zJUn+1Cl4E+6CzbA//hMny5qyFA/EcXgVtpIk+T9zkmS27Inn4bayJn0dh+AQ/EiSZGWdh4/gIxiwL+6Ju2ErWWxr4ZF4MF6JF+JUSTLjBkkyG3bF+/B13FbWhKPwJFwd18UL8CNJktW1DJ/HY7ANboyX46ey2NbFk3AC/gWbSJIZNkiS6bYj3oLv4K6y2I7Ck7Ad9sZLcbwkyUJZhs/jH7Ad9sFB+Kkspg3wTPwY/4QNJckMGiTJdLoyXoPv4UAskcVyFB6HbbE3XooTJUkW23IciSdiO+yDl+IkWSyb4Pk4Do/CnCSZIYMkmS4b4pn4ER6BpbIYvo9nYSfsjVfgp5IkY7EcR+JJ2BY3w3/hN7IYroxX4ljcVZLMiEGSTIc5PAw/xL9gA1loJ+NluD52wXNwnCTJ2C3D4fg7bIm74r04TxbaTngfvoB9JcmUGyTJ5LsTvo3XYktZSGfijbgVroon4KuSJJPqfLwf98CWeDA+hWWykG6II/DfuIYkmVKDJJlce+Hz+CB2kYVyMQ7FPXBlPBifwsWSJNPkDLwRt8JV8UR8WxbSXXAsXoUrS5IpM0iSybMjDsGRuJEslO/iKdgGd8R7cZ4kySz4OQ7CtXA9vAq/loWwFI/Ej/AMbCBJpsQgSSbHJjgIx+LushDOxGuxD3bFi/ELSZJZ9jU8GlvhXvg4lsl82wDPwQ/xQCyRJBNukCTjtxQPxw/wD1hL5tNyfBr3x5Z4BI6UJMmfOx/vwW2xHZ6G42S+bYU34SjsLUkm2CBJxu2m+BoOxhYyn07Es7A9bom341xJkly+n+F5uAb2wxtxrsyn6+NLeBuuIkkm0CBJxml7HILP4NoyX5bhUNwJ2+M5+IkkSVbNchyBB2NrPBbHyHy6H36AZ2A9STJBBkkyLhvg33As7i7z5WT8K7bHHfFhLJMkyfz5Df4Du+HGeBvOl/mwPp6D7+KekmRCDJJkHJbgQPwA/4x1ZXUtxydxN2yLZ+BESZIsvM/jQGyDJ+GHMh+2w7vxOewhSUZukCRr3p74It6CrWV1nYIXY0fcGv+NiyRJsvhOxUuxM26JQ3ChrK798HUcjE0lyUgNkmTN2Rj/ga9ib1ldX8eDcFU8BcdLkmQcluPTuCe2w3PwK1kdS/BwfB8PxhJJMjKDJFl8S3A//ACPxiCr6mK8B/viungzzpckyXidjGdhWzwIX5fVsTlejyNwbUkyIoMkWVy74jN4G64kq+pUPB9Xw73wRUmSTJbz8WZcF/viPbhYVtUN8TUchI0kyQgMkmRxbIAX4Zu4iayqb+GhuCr+GT+TJMnk+yLuhavh+ThVVsVS/AO+h3tLkjVskCQL7274Hp6MOVlZy/EB3BTXxutxniRJps/P8M+4Kh6KY2RVbIV34lPYRZKsIYMkWTg74GN4L7aRlXUe/hO74C74rCRJZsN5eD12xx3wGVkVt8C38G9YV5IsskGSzL85PAnfwW1kZZ2Of8N2eBh+IEmS2bQc/4Ob4/o4BBfLylgL/4xv4+aSZBENkmR+XQdH4cVYT1bGCXgstsPT8StJkuQPvop7Yie8CufIytgRn8brcUVJsggGSTI/1scL8WVcR1bG13Af7IT/wFmSJMml+TEejW3xTJwiK+PB+C7uKUkW2CBJVt8t8G08BUtlRX0at8T18C5cJEmSrKjT8Fxsh7/HT2RFXRnvxodwVUmyQAZJsuo2wxvxKewgK+p/sA9uiU9LkiSr41wcjB3xt/ihrKg74hg8CoMkmWeDJFk198axeJCsiOV4H66DO+BISZJkPl2EN2EX3AffkRVxBbwSR2BXSTKPBkmycrbEh/FOXEkuz8V4B3bD3XG0JEmykJbhXbgW7oKvyYrYB0fjaZiTJPNgkCQr7n44BvvL5bkQb8AuuB+OlSRJFtNyfADXw+3wRbk8a+NfcSR2kySraZAkl29LfABvw6ZyWS7Ea7EjHoLjJEmSNe1j2Bc3w2fl8lwXX8PTsFSSrKJBkly2e+IYHCCX5WK8GTviEThRkiQZm8NxU9waR8llWRv/ii9gF0myCgZJcsm2wCF4NzaVS7Mcb8MueBBOlCRJxu6T2Bu3xzfksuyFb+DJWCpJVsIgSf7aPXAs7i6XZjnejd1wII6TJEkmzUdxHdwF35ZLsw5ehC9gZ0myggZJ8keb4V14DzaXS/NBXBf3xrGSJMkkW44PYA/cB9+VS7MXjsbjMUiSyzFIkt+7Lb6De8ml+QSujzvjaEmSZJosw7uwO/4WP5ZLsh5ehsNwVUlyGQZJZt26eAU+ii3lknwNt8Bt8FVJkmSaXYw3YRc8DqfJJbkJvo17S5JLMUgyy/bA1/EYuSQ/wr1xfRwmSZLMkgvwCuyAf8M58pc2xjvxdmwsSf7CIMksGvBkHIVryl86BY/Brng3lkuSJLPqTDwdO+J1uFj+0n3xLdxYkvyJQZJZsw0+hRdhbflTZ+O52AGvxAWSJEl+72Q8HH+D98tf2hafwfOxliT5fwZJZsm98G3cTP7UxXg1dsQzcZYkSZJL9n3cFTfEEfKnBvwTjsTOksy8QZJZsBHeindhE/lTH8bf4FH4hSRJkhXzJeyHu+BH8qeug6PxCCyRZGYNkky76+No3F/+1Hdwa9wJ35ckSbJqPoBd8RScKX+wHl6D/8YVJZlJgyTTagn+AV/ADvIHp+KR2BOflCRJsvouwIuxE16HZfIHd8Y3sY8kM2eQZBptig/hIKwlv3MhXoad8BpcJEmSZH79Cg/HHviU/MFV8Tn8E5ZIMjMGSabNjfAt7C9/8GHshifgN5IkSRbWt3ErHIAfyu/M4fn4GK4kyUwYJJkWA56Ow3EV+Z1jcEvcCT+QJEmyuD6E3fBEnCm/c2t8AzeXZOoNkkyDLfFxPBdL5bd4IvbApyVJkqw5F+AgXANvld/ZCp/Ev2CpJFNrkGTS3QrfwC3ld96BnXEQLpIkSTIOv8QDsB++JQOeicOwtSRTaZBkUg34F3wcV5ZjcFPcDydLkiQZpyNwXTwOZ8qN8U3cUpKpM0gyiTbF/+CZWGK2/RZPxB74rCRJkvG7CK/ANfBW2Rwfxz9jiSRTY5Bk0lwPX8dt5B3YGQfhIkmSJJPll3gA9sO3zLYB/4YP4oqSTIVBkknyUByB7cy27+KmuB9OliRJMtmOwHXxeJxltt0RX8W1JZl4gySTYD28Ef+Jdcyu8/Es7IHPSpIkmR4X4d+xKz5stu2AI/FASSbaIMnY7YAv4kFm2+dwbTwHF0iSJJlOP8WdcHecbHatizfhYKwjyUQaJBmzO+Br2MPs+jUeipvi+5IkSWbD+3BNHIzlZtfD8XlsK8nEGSQZoyV4Dg7FJmbXu3BNvB7LJUmSzJYz8Pe4EY41u66Pr+MWkkyUQZKxuQI+gGeYXT/B7XAf/FKSJMls+yL2wDNxvtm0GT6Bx0syMQZJxuTqOBJ3MpuW4SDsio9JkiTJH1yI5+Ja+KzZNOBleCPWkWT0BknG4pb4CnY1m76PffFEnCNJkiSX5Ae4GR6Ns82mB+Gz2EqSURskGYPH4+O4otmzDC/BHjhSkiRJLs9yvAq743CzaS98FTeQZLQGSdakdfBGvAyD2XMM9sWTcZ4kSZKsjB/j5ng0zjZ7tsbncKAkozRIsqZshc/iQWbPxXgerosjJUmSZFUtx6uwOw43e9bBW/ASLJVkVAZJ1oQb4KvYy+w5BnvjaThfkiRJ5sOPcXM8DL81e56I/8EVJRmNQZLFdm98DlubLRfjebguvipJkiTzbTn+E7vhk2bPrXEkdpRkFAZJFtPT8E6sY7Ych33xNJwvSZIkC+lE3AaPxXlmyzVwJPaTZI0bJFkMa+NN+Fez53XYE0dJkiTJYlmO/8B18HWzZTN8GveXZI0aJFlom+KTeKDZ8ivcEQ/HWZIkSbImfBd743lYZnashbfi2VgiyRoxSLKQdsSXcGOz5YPYDYdKkiTJmnYhnob9cLzZ8iy8DetIsugGSRbKjXAkrmF2nI2H4s44RZIkScbki7g23mC23BefxuaSLKpBkoVwfxyGzcyOL+JaeL0kSZKM1Vl4CA7AqWbHvjgSO0uyaAZJ5tMSPBtvxVpmwzI8EzfG8ZIkSTIJPoTd8Amz4+r4Em4iyaIYJJkva+MNeJbZ8TPcBM/FxZIkSTJJfonb4im4yGy4Ij6J+0qy4AZJ5sMV8GE8yOz4IK6NIyRJkmRSLceLsS+ONxvWwtvxZEkW1CDJ6toKn8WtzYbz8WjcGadLkiTJNPgyroN3mx0vwn9gqSQLYpBkdeyCL2FPs+H72AuvkiRJkmlzBu6Nh+Ics+HReA/Wk2TeDZKsqr1xBLYzG96A6+KbkiRJMs1ej+vh22bDXfEJbCzJvBokWRW3w2HYzPQ7C/fFQ3C2JEmSzILv4gZ4jdlwIxyBq0gybwZJVtYD8SGsZ/p9B9fBOyVJkmTWnIdH4t44y/TbDV/EzpLMi0GSlfFEvAlzpt9bsBd+KEmSJLPs3bg+jjX9tsURuIEkq22QZEUswYvwEtPvfDwcD8Q5kiRJEr6HG+Adpt/mOAy3kGS1DJJcnqV4LZ5s+v0YN8TrJEmSJH/ubNwPj8IFptsG+CjuKskqGyS5LGvjnfg70+/DuC6+LkmSJLl0r8Z++InpthYOwYMlWSWDJJdmfXwY9zDdluGfcQB+LUmSJLl8X8Z18FHTbcDr8URJVtogySXZGJ/CrU23X+GWeD6WS5IkSVbc6bgDnonlpttL8FxJVsogyV/aAp/GPqbb13A9fEaSJEmyapbjubgTzjDdno6DsESSFTJI8qe2xmG4run2NuyHn0qSJElW36G4Ab5vuv0DDsZSSS7XIMkfbIvPYTfTaxmegANxriRJkmT+/AA3wIdNt4fhLVgqyWUaJPmdHfFFXN30Oh23xsskSZIkC+NMHIB/Nd3ui/djbUku1SDJjjgcVzG9vo3r4dOSJEmShbUcz8BdcZbpdUe8F2tLcokGyWzbHV/AVUyv92Af/FiSJEmyeN6PffAj0+uO+BDWl+SvDJLZtTsOw5VMr6fh3jhbkiRJsvi+g+vjk6bXbXAo1pfkzwyS2bQ7DsPmptO5uCueh+WSJEmSNefXuB1eY3rdDIdifUn+zyCZPbvjMGxuOp2MG+H9kiRJknG4GI/E47DMdLoZDsX6kvyvQTJbdsdh2Nx0OhrXx9clSZIk4/MK7I/fmk43w6FYXxKDZHbsjsOwuen0QeyHkyRJkiTj9VHcED8xnW6GQ7G+ZMYNktmwOw7D5qbTi3FXnC1JkiQZv+9gLxxpOt0Mh2J9yQwbJNNvdxyGzU2fC/EQPAXLJEmSJJPjl7gZ3mU63QyHYn3JjBok0213HIbNTZ9f49Z4gyRJkmQynYf74jmm081wKNaRzKBBMr12xMewuelzIvbF4ZIkSZLJthzPwoNxkelzMxyCtSUzZpBMpx1xOLY2fb6BffBdSZIkyfR4I+6Is0yfO+K9WFsyQwbJ9NkGn8JVTJ9P4ib4uSRJkmT6fAw3wS9NnzviTVgqmRGDZLpcCYdjO9PnrdgfZ0qSJEmm19exD35g+twH/4klkhkwSKbHFvg0rm76PA8PxAWSJEmS6fdj7Isvmj5/i1dKZsAgmQ4b41DsZroswyPxNCyXJEmSzI5TcSu83/R5JF4gmXKDZPKtjw/hBqbLubgbXiNJkiSZTefgHni16fOPeKpkis1JJtvaeA9ubLqcidvhi5Iks2wH7IJtsCGW4rf4Bb6PH+BiSTLdLsaj8As8x3R5Hn6NgyVTaE4yuQa8EXcwXX6FW+FbkiSzZg63xv1wC1zZZfsNDscheD/OlSTT67k4Ha80XV6F3+BdkikzSCbXK3Ff0+UE7ItvSZLMknXwGByPj+C+uLLLtwnujLfjJDwbG0uS6fUq3B8Xmh4D3oLbS6bMIJlMz8Hfmy7HYD8cJ0kyS26Bb+MVuKpVd0U8Cz/A/SXJ9Ho77opzTY+18F7sK5kig2TyPAbPMF2+jJvhZ5Iks2IpXoBPYSfz50p4K96GDSXJdDoUt8WZpsd6OBS7SabEIJks98TLTZfP4JY4RZJkVqyP9+EfLZz74TPYQpJMp8/hZjjV9NgEH8O2kikwSCbHLfE2DKbHB3Bb/FaSZFasjf/GARbe9XAYrihJptPXsS9+ZnpcBZ/AFpIJN0gmw3Xw31jL9Hgb7o4LJElmyWtxG4tnN3wIa0mS6fQD7IMfmR4748NYXzLBBsn4bY//wRVMj4PxAFwsSTJLHoIHWXw3wr9Kkun1M+yH75gee+E9WCqZUINk3DbHx3Bl0+NgPBLLJUlmyVZ4mTXnybi+JJleJ+Pm+I7pcQccLJlQg2S81seHcA3T4yA8EsslSWbNC3AFa84S/IckmW6n4OY42vR4KJ4lmUCDZJyW4u3Yx/R4IZ6I5ZIks2ZH3M+atxduK0mm2ym4Gb5sejwbfyuZMINknF6OO5sez8M/SZLMqkdhqXF4nCSZfmfg1viy6fE63FoyQQbJ+DwejzY9noqnSZLMqqW4r/G4NbaUJNPvDNwSnzEd5nAIdpdMiEEyLnfGS02Pp+IFkiSz7Pq4kvEYcFtJMht+i/3xGdNhI3wEW0smwCAZj+vjHRhMh6fiBZIks+6mxufGkmR2nIP98RnT4ao4FBtIRm6QjMN2OBTrmQ5PxQskScJuxufakmS2nIP98RnTYU+8G0slIzZI1rwr4FBcyXR4Bl4gSZLfu4bx2VGSzJ5zsD+OMh3ugBdLRmyQrFlL8S7sZjq8EP8qSZI/2sT4bCRJZtM5uA2+bDr8Ax4uGalBsmYdhNubDi/EP0mS5M+tbZw2kSSz6QzcGl82HV6JW0hGaJCsOY/AY02Hf8c/SZIkSTIJzsDt8R2Tbw7vxS6SkRkka8bN8R+mw8H4B0mSJEkmyWm4Ob5j8m2CD+GKkhEZJIvv6jgEcybfwXgklkuSJEkyaU7BzXGsybcT3oOlkpEYJItrI3wIm5p878CjsFySJEmSSXUKboMfm3y3xEGSkRgki2cp3o5dTb6P4G+xTJIkSZJJ9zPcGr80+R6Lh0pGYJAsnudif5Pv87gnLpAkSZJkWhyHW+EMk+/V2Feyhg2SxXE3PNXkOxp3xDmSJEmSTJtv43Y412RbC+/FVpI1aJAsvF3xJpPvh7gNzpAkSZJkWn0Jd8GFJtuWeB/Wlqwhg2RhbYQPYEOT7STcHKdIkiRJMu0+jvthmcm2D14uWUMGycJZgrdhJ5PtVNwCP5MkSZJkVhyCR5h8f48HSdaAQbJwno47mmxn4jb4viRJkiSz5j/xFJPvYFxfssgGycK4A/7FZLsQd8HXJUmSJJlVL8bLTbZ18F5sIVlEg2T+7Yi3YYnJ9iAcJkmSJMmsewIOMdm2xXuwVLJIBsn82gAfwCYm21PwDkmSJEnCctwfnzfZbooXSRbJIJlf/4W/MdleiRdLkiRJkj+6AHfCsSbbE3BPySIYJPPnUbi3yfbfeLwkSZIk+Wu/wW1xksn2euwkWWCDZH5cFweZbF/A/XGxJEmSJLlkP8UdcKbJtSEOwbqSBTRIVt/GeA/WNrm+jwNwriRJkiS5bN/EXXGhyXVt/LtkAQ2S1fd67GBy/QK3xWmSJEmSZMV8Gg8y2R6G+0sWyCBZPY/G3Uyuc7E/TpAkSZIkK+cdeLrJdjB2kSyAQbLqrouXmmwH4muSJEmSZNU8D28zuTbAIVhPMs8Gyaq5It6LtU2uf8b7JEmSJMmqW46H4gsm1274D8k8GyQrbwnegKuZXG/F8yVJkiTJ6jsfd8UJJtdDcH/JPBokK+9xuLPJ9QU8VJIkSZLMn1/hDjjT5DoY15TMk0GycvbEC02uH+POuECSJEmSzK9jcS8sM5k2wLuwjmQeDJIVtz7egbVNpjNxB5wqSZIkSRbGx/A4k+taeIFkHgySFXcQdjGZluEe+K4kSZIkWVivxKtNrsfjNpLVNEhWzAF4uMn1eHxCkiRJkiyOx+LTJtebsIVkNQySy7c1Xm9yvRn/IUmSJEkWz8W4J35sMm2JN2CJZBUNksu2BG/GZibTV/EISZIkSbL4TsedcY7JtD/+XrKKBslleyJuaTL9EnfBeZIkSZJkzfgWHmxyvRS7SlbBILl0e+LfTKYLcXf8TJIkSZKsWe/Gi02mdfFOrCNZSYPkkq2Pd2Btk+nxOEKSJEmSjMNT8UmT6Vp4gWQlDZJL9mLsYjK9Aa+WJEmSJONxMe6NH5tMj8etJCthkPy1W+CRJtOX8UhJkiRJMj6n4844x2R6PTaSrKBB8uc2whtNpl/irjhfkiRJkozTt/Bgk+mqeLlkBQ2SP3cQrmryLMO9cZIkSZIkGbd3499Npr/FHSQrYJD80R3wEJPpmThckiRJkkyGJ+NIk+l12ExyOQbJ722C15lMH8PzJEmSJMnkuBD3wmkmz9Z4heRyDJLfexW2Nnl+ivthuSRJkiSZLCfiQCw3ee6Lu0guwyDhzrivyXMh7onTJUmSJMlk+iieZzK9DltILsUgs24LvM5kegqOlCRJkiST7Vn4jMmzOV4tuRSDzLpXYwuT5314uSRJkiSZfBfjvviFyXN33E9yCQaZZXfD3U2e4/BgSZIkSTI9foF7Y5nJ8+/YQvIXBplVm+CVJs8FuAfOlCRJkiTT5bN4hsmzGV4u+QuDzKoXY0uT5yn4hiRJkiSZTi/E4SbPfXE7yZ8YZBbdBA81eT6KV0iSJEmS6XUxDsTpJs/B2FDy/xtk1qyL/zR5fokHYbkkSZIkmW4/w0NMnm3xr5L/3yCz5pnYyeR5IH4lSZIkSWbDB3CwyfMY3EDy/wwyS66FJ5s8L8XHJUmSJMlseQKONVkGvB5rycwbZFYsxesxZ7IcjX+WJEmSJLPnXNwH55ssu+EfZeYNMisei+uZLGfj3rhAkiRJksymb+FJJs/TsbPMtEFmwdXwXJPnsfiBJEmSJJltr8JHTJZ18DoskZk1yCx4BTYwWd6PN0iSJEmSLMff4lST5cY4UGbWINPuDrijyXIKHi5JkiRJ8gen4O9MnpfgijKTBplm6+EVJs/DcIokSZIkyZ/6AN5qsmyBf5WZNMg0eyp2MFnejA9IkiRJklySx+JnJssjsKfMnEGm1dXxFJPlp3icJEmSJMml+Q0ebLIMeDUGmSmDTKtXYB2T5W9xhiRJkiTJZfkkXm2y7I2HyEwZZBrdFbc3WV6FT0uSJEmSrIgn4ziT5fnYVGbGINNmfbzMZDkOT5EkSZIkWVHn4AFYZnJshufJzBhk2jwN25ocy3AgzpEkSZIkWRlfwotMlodhL5kJg0yTa+BJJsvLcaQkSZIkyap4Nr5vcizBqzDI1BtkmrwEa5scx+MZkiRJkiSr6nw8BMtNjuvigTL1BpkWt8IdTZa/wzmSJEmSJKvjC3iVyfJv2FCm2iDTYA4HmSyvx2GSJEmSJPPhqfipybEVnipTbZBp8BDsZnKcjCdJkiRJksyXs/Awk+UJ2E6m1iCTbmM812R5JH4jSZIkSTKfPoa3mhzr4gUytQaZdE/HFibHe/EBSZIkSZKF8A841eS4N24oU2mQSbYDHmdynI7HSJIkSZIslNPwGJPl5VgiU2eQSfYSrGVyPBG/kCRJkiRZSO/Ch02O6+O+MnUGmVQ3xV1Mjs/izZIkSZIki+HROMfkeCHWl6kyyCQa8DKT4yI8EsslSZIkSRbDifgXk+MqeLJMlUEm0X2xh8nxUhwrSZIkSbKYXoZjTY4n40oyNQaZNGvjOSbHiXiOJEmSJMliuxCPNDk2wDNkagwyaR6O7U2Ox+IcSZIkSZI14bN4q8nxcOwgU2GQSbIhnmFyfAQflCRJkiRZk56E35gMa+E5MhUGmSRPxBYmw7l4jCRJkiTJmvYr/LPJcV9cWybeIJNiczzJ5Pg3/FiSJEmSZAxei6+YDEvwPJl4g0yKp2NDk+H7eLEkSZIkyVgswyOxzGS4PW4iE22QSXA1PNLkeBwukCRJkiQZk6/iv0yOF8hEG2QSPAdrmQz/g49LkiRJkozRM3CmybA37iwTa5Cx2x33NxkuxD9IkiRJkozVr/AvJsfzsFQm0iBj91wsMRleiR9IkiRJkozZK/FDk+GaOFAm0iBjticOMBlOwXMkSZIkScbuAjzB5Hg65mTiDDJmzzI5noHfSJIkSZJMgkPxCZPh6ri/TJxBxmpPHGAyfBv/JUmSJEkySZ6Ai02Gp2NOJsogY/Usk+OxuFiSJEmSZJIcg1ebDFfH/WWiDDJGe+IAk+H9OFySJEmSZBI9G782GZ6OOZkYg4zRs0yGC/FkSZIkSZJJdTqeYzJcHfeXiTHI2OyJA0yG1+JHkiRJkiST7NX4scnwdMzJRBhkbJ5lMpyF50iSJEmSTLoL8AyT4eq4v0yEQcZkTxxgMrwYp0iSJEmSTIN34hsmw9MxJ6M3yJg8w2T4JQ6SJEmSJJkWy/AUk+HquLeM3pyMxS64s8nwHJwlSZJVtw1ugt2wIzbBWqbTlpIkmQyfxKdxC+P3j3g7lstozclYPBlLjN9xeJ0kSVbe5vhb3B/XkiRJxugf8VXjtxtuj4/IaA0yBlfBgSbDU3GRJElW3EZ4Pk7Ai3AtSZJkrL6Gd5oMT5VRG2QMnoC1jN9X8D5Jkqy4/fE9/BM2kCRJJsEzcKHx2xf7ymgNsqZdEQ83Gf4RyyVJcvmW4IX4MLaSJEkmyY/wWpPhn2S0BlnTHoUNjN9n8RlJkly+tfFOPEWSJJlUz8N5xm9//I2M0iBr0np4nMnwTEmSXL4l+E/cS5IkmWQn47Umwz/KKA2yJj0Emxu/j+NzkiS5fE/DAyRJkmnwQpxn/O6LbWV0BllT5vAkk+HZkiS5fPviXyRJkmlxMl5h/JbiSTI6g6wp98J2xu/jOFKSJJdtLfwnBkmSZJq8GGcbv4dgcxmVQdaUJ5gMz5YkyeV7CK4pSZJMm1PxSuO3Ph4mozLImnAjXMf4fRRHSpLksq2Ff5YkSabVS3C28XsU1pLRGGRNeJzJ8DRJkly+W+OqkiTJtDoVrzR+W+PuMhqDLLZtcRfj90EcLUmSy3d/SZJk2r0QZxi/x8loDLLYHo2lxu9fJUly+ZbglpIkybT7NV5t/PbC3jIKgyymDfB3xu+T+KokSS7fzthckiSZBS/Decbv8TIKgyymB2AT4/d8SZKsmGtKkiSz4hS83vjdDdvIGjfIYlmCxxq/o/AZSZKsmG0lSZJZ8iJcbNzm8EhZ4wZZLLfBLsbv+ZIkWXFXlCRJZsmJeLvxezjWkzVqkMXyOOP3XXxIkiSZBRdKkmTVvBDLjdumuL+sUYMshp1wW+P3fCyXJElmwdmSJFk1x+JDxu8xskYNshgeYfx+gndKkiSz4BeSJFk9zzd+u+OGssYMstDWwQON34txkSRJMgt+IEmS1XMUDjN+D5M1ZpCFdjdsZtxOwRskSZJZ8XVJkqy+5xu/e2FTWSMGWWgPN36vxrmSJMms+LQkSVbfp/Bt47YuHiBrxCALaVfc2LhdgNdIkiSz4kx8SpIk8+Plxu9hskYMspAeZvzejl9KkiSz4l04T5Ik8+PtOMW4XRP7yaIbZKGsiwcYv5dLkiSzYjleKkmS+XM+Xm38/l4W3SAL5V64onE7DN+SJElmxVvxA0mSzK/X4ALjdjdsLotqkIXycOP3MkmSZFb8Gk+WJMn8+yXeYdzWxgNlUQ2yEHbHPsbth/gfSZJkVvwdfiVJkoXxMuP3MCyRRTPIQniI8ft3LJMkSWbBi/A+SZIsnG/hM8btGthPFs0g820t3M+4/QZvliRJZsEb8E+SJFl4LzN+D5JFM8h8ux02N27/hbMkSZJpdxAeiuWSJFl4H8GPjNvdsb4sikHm24OM32slSZJpdjYOxBOxXJIki2MZXmvcroC7yqIYZD5thjsYt0/iOEmSZFq9H7vibZIkWXxvxAXG7QGyKAaZT/fB2sbtYEmSZNpchPdhb9wVJ0qSZM04FYcYt1tiG1lwg8ynBxq3k/EhSZJk0i3Dj/Fu/B22wt1xlCRJ1ryDjdsSHCgLbk7my664nnH7T1wkSZLp9xK83fS5CL/FL3C+JEnG6Qh8B7sZrwfi+bKg5mS+PMi4XYz/kiTJbDgJ35AkSdaUg/FK47Uz9saRsmAGmQ9LcT/jdih+KkmSJEmShfdWnGPcHiALapD5cCtsbdwOliRJkiTJ4jgTbzdu98E6smAGmQ/3M24/xickSZIkSbJ4DjZum+A2smAGWV3r4E7G7fVYJkmSJEmSxfN1fM243VcWzCCr63bYyHgtx5slSZIkSbL43mTc9sd6siAGWV33Nm6fws8kSZIkSbL43okLjNcG2F8WxCCrYz3sb9zeJEmSJEmSNeM0fNi43VsWxCCr447YwHidgf+WJEmSJMma8ybjdntsKPNukNVxL+P2LpwnSZIkSZI156P4hfFaF3eSeTfIqtoQtzdub5IkSZIkyZp1Md5q3O4j826QVXUA1jVe38eRkiRJkiRZ895k3G6NjWVeDbKq7m3c3iRJkiRJknE4Fl8xXmvjrjKvBlkVG+PWxmsZ3ipJkiRJkvF4k3G7l8yrQVbF/ljbeH0aJ0mSJEmSZDzehYuM182xscybQVbFAcbt3ZIkSZIkGZfT8XHjtRZuJ/NmkJW1Dm5nvC7A+yRJkiRJMj7vNm4HyLwZZGXdHBsar0/gN5IkSZIkGZ/34zzjdXusLfNikJV1gHF7hyRJkiRJxuks/I/x2gg3lXkxyMpYgjsZr/PwYUmSJEmSjNc7jNsBMi8GWRk3wFbG64M4S5IkSZIk4/U/OMt4HYAlstoGWRkHGLf3SJIkSZJk3M7FB4zXVXBdWW2DrIwDjNeZ+IgkSZIkScbvXcbtzrLaBllRO2FX4/VBnC9JkiRJkvH7BH5tvO4kq22QFXUn4/ZuSZIkSZJMhgvxfuO1O3aQ1TLIirqD8Tobn5IkSZIkyeT4gHG7vayWQVbEBriR8foozpckSZIkyeT4FM42XreR1TLIirgF1jJeH5AkSZIkyWQ5Fx83XjfHOrLKBlkRtzZeF+FQSZIkSZJMng8Yr/Wxr6yyQVbE7YzXZ3CGJEmSJEkmz6G4yHjdVlbZIJfn6tjBeH1AkiRJkiST6df4rPG6rayyQS7P7YzbByVJkiRJMrk+YLx2x9aySga5PLc2Xl/GSZIkSZIkmVwfNG63kVUyJ5dlbdzCeH1AkiRJkiST7af4Kq5nnG6DN17lAW+VlTPIZbkR1jdeH5YkSZIkyeT7kPG6FZbKShvkstzGeP0U35EkSZIkyeT7qPHaFNeTlTbIZbmF8fqoJEmSJEmmw9dxivG6lay0QS7NxtjTeH1ckiRJkiTTYRk+brxuKittkEuzHwbjdBE+JUmSJEmS6fFx43VDrC0rZZBLc1Pj9QWcKUmSJEmS6fExLDdO6+EGslIGuTQ3NV4flyRJkiTJdDkVXzNe+8lKGeSSbIw9jddHJUmSJEkyfT5qvG4iK2WQS7IfBuN0Mr4pSZIkSZLp81HjdSPMyQob5JLc1Hh9AsslSZIkSTJ9vozfGKcNcD1ZYYNckpsar49LkiRJkmQ6XYxPGq+bygob5C9tjD2N16clSZIkSTK9DjNeN5UVNshf2g+DcToGv5IkSZIkyfQ63HjdCHOyQgb5S/sZr8MlSZIkSTLdvodfGqcNcF1ZIYP8pb2N1+GSJEmSJJl+hxuvvWSFDPKn5nA94/VZSZIkSZJMv08Zr31khQzyp66F9Y3TMThFkiRJkiTT73DjtbeskEH+1F7G63BJkiRJksyG43CScboariyXa5A/tY/xOkySJEmSJLPjcOO1j1yuQf7U3sZpOQ6XJEmSJMnsONx47SWXa5A/2Aw7Gadv4XRJkiRJksyOw43XPnK5BvmDvYzXFyVJkiRJMluOwy+M0/WxVC7TIH+wj/H6oiRJkiRJZs+XjNP62F0u0yB/sJfxOlKSJEmSJLPnSOO1j1ymQX5nCfYyTqfgOEmSJEmSzJ4vGq8byGUa5Heujo2M05GSJEmSJJlNX8NFxum6cpkG+Z09jdeXJEmSJEkym87F0cbpmlhHLtUgv7OH8fqSJEmSJElm15HGaQ67yaUa5Hf2ME4X4yuSJEmSJJldXzJee8ilGuR39jRO38LZkiRJkiSZXV8yXnvKpRrkytjKOB0pSZIkSZLZdgJ+YZz2lEs1yJ7G60hJkiRJkuQrxulaGOQSDbKH8TpakiRJkiT5mnHaEDvKJRpkD+N0Hr4rSZIkSZIcbbz2kEs0yJ7G6Tu4SJIkSZIkOdp47SmXaDDbNsROxuloSZIkSZLkd36KU43TnnKJBrNtVywxTl+XJEmSJEn+4BvGaTe5RIPZtqvx+oYkSZIkSfIHXzdOV8FG8lcGs+2axmkZvilJkiRJkvzB0cZrF/krg9l2TeP0PZwrSZIkSZL8wTeM167yVwaz7ZrG6WhJkiRJkuRP/QBnG6dd5K8MZtfa2ME4HS1JkiRJkvypZfimcdpV/spgdu2CwTh9R5IkSZIk+UvfMU7XlL8ymF07G6/vSpIkSZIkf+m7xmkHrC1/ZjC7djVOZ+FESZIkSZLkLx1jnAbsIn9mMLuuaZy+J0mSJEmSXJLvG6+d5c8MZtc1jdMxkiRJkiTJJTkRvzVOu8qfGcymATsbp+9JkiRJkiSX5nvGaWf5M4PZtDXWMU7HSpIkSZIkl+ZY47Sj/JnBbNrBeB0rSZIkSZJcmmON0w7yZwazaXvjdD5+LEmSJEmSXJrvGafNcAX5P4PZtL1x+j4uliRJkiRJLs13jNf28n8Gs2kH4/R9SZIkSZLksvwEFxinHeT/zJlNOxin42TWXQFXwmbYDOtgE7+3HtaRJOOyt3G6iSTJpDsLF+FCnI2zcApOxWk4T2bVxTgB1zA+O8j/mTObtjdOx8u0Wwe7Yjdsj6the2yPrbGWJMl8uDPuLEkyzc7GT/BjnIATcBy+jeOxXKbZj3AN47O9/J85s2cdbG2cjpdpsi6ujxtiT1wL18BSSZIkSVbXBtgVu/prZ+Pb+Da+giPwPSyXaXG8cdpe/s+c2bOD8TpeJtm6uAluiRvhulhLkiRJksW2AfbG3vg7v3c6vogj8HF8E8tlUv3YOO0g/2fO7NneOF2En8mk2QH743a4CdaTJEmSZIw2xf7YHy/AyfgEPoqP4QyZJMcbp+3l/8yZPTsYpxNxkUyCbXEf3BPXkSRJkmQSbYUH4oG4AJ/A23EozpKxO944rYut8XMxZ/Zsa5yOlzHbCPfGg7GXJEmSJNNkbeyP/XEeDsV/4lNYJmN0vPHaFj8Xg9mzjXE6XsZoH7weJ+O12EuSJEmSabYu7o6P48d4BraRsfktTjVOV5H/NZg9Wxqn42Us5nBffBVfxIOxviRJkiSzZls8ByfgXbi+jMmPjdNW8r8Gs2dr43S8rGkb4on4Ed6O60qSJEkSluJe+DI+iztiiaxpPzJOV5H/NZg92xinE2VN2RD/hBPwEmwrSZIkSS7ZjfEhfB13xhJZU35inLaS/zWYLRtiA+P0M1ls6+HxOA7Px2aSJEmSZMXsgffjS7itrAk/N05by/8azJarGKfl+KUsliW4D76Pl+HKkiRJkmTV7IWP4tPYXRbTz43TNvK/BrNla+P0S1wki+F6+DzegatKkiRJkvlxcxyN12BzWQwnGact5X8NZstWxukkWWib4HX4MvaVJEmSJPNvKR6BH+IRWCIL6STjdEWsKwazZRvjdLIspLvhe/g7LJEkSZIkC2sTvAafxc6yUH5hvLYRg9mypXE6SRbCVng/3osrS5IkSZLFtR++iadhTubbBfiVcdpSDGbLVYzTSTLfDsC3cWdJkiRJsuasg3/F53F1mW8nG6eriMFs2cI4nSzzZQMcjA9gM0mSJEkyDnvjG3igzKefG6ctxGC2bG6cTpL5sBu+jodLkiRJkvHZEG/CO7GhzIefGadNxWC2bGqcTpLVdW8chWtIkiRJknG7N47CNWR1nWycNheD2bKZcTpFVtUcDsI7sb4kSZIkmQy74qu4s6yOXxmnzcRgdqyHdY3T6bIqNsHH8Q+SJEmSZPJcAe/HM7BEVsVpxmlTMZgdmxqns3G+rKyr4Uu4uSRJkiSZbM/BG7G2rKzTjdOmYjA7NjVOp8nKuj6Owi6SJEmSZDo8EB/FxrIyTjdOm4rB7NjCOJ0qK+NW+CyuJEmSJEmmy81xBK4sK+pU47SZGMyOTY3T6bKi7oSPYD1JkiRJMp12wxewjayIU43TFTGYcYPZsalxOk1WxP3w31hLkiRJkky3q+OL2FEuz1m40DhtasYNZsemxul0uTz3w1uwVJIkSZLMhqvicOwol+d047SZGTeYHZsZp9PkstwDb8EgSZIkSWbLVXA4tpHLcppx2tSMG8yODY3TaXJp7oi3Y5AkSZIks+kqOBxby6U53ThtYMYNZsd6xuk0uSQ3wbuxliRJkiSZbVfHx7GpXJLTjdOGZtxgdmxinH4rf+ma+CDWkyRJkiT5nd3wAawtf+nXxukKZtxgdqxvnM6SP3VlfBQbS5IkSZL8qf3wRiyRP3WucVrPjBvMjvWM07nyB+vjUGwnSZIkSXJJ7ovnyp861zitb8YNZscVjNPZ8gdvxPUkSZIkSS7L03Bv+YMzjdPGZtxgdmxonM6Q33kC7ilJkiRJsiJej93kd84yTuubcYPZsZ5xOlduihdJkiRJkqyo9fF+bCLnGqf1zLg5s2MD43Su2bY13o2l8gfLcRJOwmk4HadjOc7HuZJkOlwBV8KmWBdLcRHOw2n4Fc6WJJlFG2HA2tgUm2ILbIcryh/siDfjzlhudp1tnDYy4+bMjo2M0xlm1xK8GVcyu36GL+Fb+BaOxYm4QJIkSZJLshF2wG64FvbAPtjQbLoTHoVXml1nGqcNzLg5s2EdLDE+55htT8AtzZbT8DF8HJ/FiZIkSZKsjDPxDXzDHy3FtXAz3B77YW2z48U4DMeaTecYp/XMuDmzYT3jdK7ZdW08z2w4Ge/De/AFLJMkSZJkPl2Mo3E0DsKG2B/3wO2xrum2Lt6JG+B8s+dc47ShGTeYDUuM01lm0zp4O9Y2vS7GB3FHXBWPweexTJIkSZKFdhbehbthKzwG3zTdroXnmk1nyCgNZsPGMiZPxd+YTr/FS7E97oxDcbEkSZIka8pv8ErsgRvjQ1huOj0B15WxWNeMG2RNOsfs2RVPNX3OwL9gWzwJP5UkSZJkbD6PA7Ab3o3lpstS/BfmzJblxmldM26QNekCs2XAf2Ft0+NCvARXw7PxG0mSJEnG7ljcG3vgE6bLHnii2XKGjNIgWTx/h31Mjw9jVzwZv5EkSZJk0nwLt8H+OM70eDauJlnDBrNhQ1nTNsZzTYdf4G64E46TJEmSZNJ9BLvjBbjI5FsXL5Q1bakZN5gNc8bpArPjWdjC5Hsnron/liRJkmSanIen4vr4rsl3T9xI1qQrmHGDrEnnmA3XwKNNtt/i/rgvfiNJkiTJtPoGrovXmHyvwGD6/VZGaZAsvBdiLZPrWFwPb5ckSZJkFpyLR+I+OMfk2hP3N/0ullEazIZ1ZE3ZE3c2ud6PvfADSZIkSWbNu7AXTjC5nok5yRowmA3rGadlpt9zTK6X4u44S5IkSZJZ9R3shS+bTFfHgbImbGTGDbImnWm67Y39TabH4klYJkmSJMms+xVuhkNNpn/B2qbXucZpMOMGycJ5psmzDA/Ff0iSJEmSPzoHd8N7TZ6r4oGm1/kySoNkYfwNbmfyPACvlyRJkiR/7QLcG+8xeZ6IJZJFNEgWxhNMnkfi7ZIkSZLk0l2MA/Fhk2Vn3EGyiAbJ/NsS9zdZno7XSJIkSZLLdwHuiS+YLE+WLKJBMv8eibVNjjfg3yRJkiTJijsPd8YPTY4b4zqSRTJI5tccHmpyfA5/L0mSJElW3qm4I840OR4mWSSDZH7dDluZDD/HvXCBJEmSJFk138cDTI77YgPJIhgk8+thJsMy3BO/kCRJkiSr54N4kclwBdxLsggGyfzZGrc3Gf4VX5AkSZIk8+Pp+JrJ8BDJIhgk8+c+GIzfUXiuJEmSJJk/F+K+ONf43RBXlyywQTJ/7mH8LsRDcJEkSZIkmV8/wLNNhntIFtggmR/bYi/j93wcI0mSJEkWxkE42vjdQ7LABsn8uJfxOwHPlyRJkiQL5yI8yvhdB1eXLKBBMj/uavyegvMkSZIkycL6Et5h/O4mWUCDZPVthhsYty/iEEmSJEmyOJ6KC4zbbSULaJCsvltjMG5PkyRJkiSL50S8xrjdCFeQLJBBsvpuY9w+i8MlSZIkyeJ6Ic4zXmvhFpIFMkhW322N2/MlSZIkyeI7GW82breRLJBBsnp2xpWN13fwCUmSJEmyZhyE5cbrJpIFMkhWz77G7eVYLkmSJEnWjB/gf4zXNbGpZAEMktWzr/E6C++WJEmSJGvWfxm3fSQLYJCsnn2N1ztxliRJkiRZsw7FL4zXjSQLYJCsuo2xs/F6qyRJkiRZ8y7CO4zXXpIFMEhW3bWM18n4giRJkiQZh0OM17UkC2CQrLrdjdd/Y5kkSZIkGYej8DPjtBm2lsyzQbLqrmW8PiJJkiRJxmM5/sd47S6ZZ4Nk1V3LOJ2HwyVJkiTJuHzMeF1LMs8Gyaq7hnH6As6VJEmSJONyGJYbp50k82yQrJoNsZlx+oIkSZIkGZ8z8B3jtL1kng2SVXM14/UFSZIkSTJOXzBO20vm2SBZNdsbr69JkiRJknH6qnHaFoNkHg2SVbOdcfo5TpMkSZIk4/Rt47QWtpTMo0Gyaq5snL4tSZIkScbrO8ZrK8k8GiSrZjPjdJwkSZIkGa9zcJJx2kwyjwbJqtnMOJ0gSZIkScbtBOO0qWQeDZJVs5lxOlGSJEmSjNuJxmkzyTwaJKtmM+P0C0mSJEkybr80TptJ5tEgWTVzxuk0SZIkSTJupxqnpZJ5NEhWzRWM0+mSJEmSZNx+Y5w2lsyjQTJdzpUkSZIk43a2ZAYMklWzoSRJkiTJNFlPMo8GyaqZM05nSJIkSZJx+61xWkcyjwbJdFkuSZIkScbtYskMGCRJkiRJkiTzbJAkSZIkSZLMs0GSJEmSJEkyzwZJkiRJkiTJPBskSZIkSZIk82yQJEmSJEmSzLNBkiRJkiRJMs8GSZIkSZIkyTwbJEmSJEmSJPNskCRJkiRJksyzQZIkSZIkSTLPBkmSJEmSJMk8GyRJkiRJkiTzbJAkSZIkSZLMs0GSJEmSJEkyzwZJkiRJkiTJPBskSZIkSZIk82yQJEmSJEmSzLNBkiRJkiRJMs8GSZIkSZIkyTwbJEmSJEmSJPNskCRJkiRJksyzQZIkSZIkSTLPBkmSJEmSJMk8GyRJkiRJkiTzbJAkSZIkSZLMs0GSJEmSJEkyzwZJkiRJkiTJPBskSZIkSZIk82yQJEmSJEmSzLNBkiRJkiRJMs8GSZIkSZIkyTwbJEmSJEmSJPNskCRJkiRJksyzQZIkSZIkSTLPBkmSJEmSJMk8GyRJkiRJkiTzbJAkSZIkSZLMs0GSJEmSJEkyzwZJkiRJkiTJPBskSZIkSZIk82yQJEmSJEmSzLNBkiRJkiRJMs8GSZIkSZIkyTwbJEmSJEmSJPNskCRJkiRJksyzQZIkSZIkSTLPBkmSJEmSJMk8GyRJkiRJkiTzbJAkSZIkSZLMs0GSJEmSJEkyzwZJkiRJkiTJPBskSZIkSZIk82yQJEmSJEmSzLNBkiRJkiRJMs8Gs+FiSZIkSZIkWTSD2fBb43SWJEmSJEmSKTSYDScbp1MkSZIkSZJMocFs+KX/jz34ANz8EAz//7rPfbMXuRArcYkZJBExk1ihiNWYpUq1tDWq9s9oVRRFa5ZaNWrUDKpUYsVKRJAgQUIjOUJi5GTKvNz9219+/qgkcnfP9+7zPM/79eJs4/NdSZIkSZIkM2gwP44xPl+RJEmSJEkygwbz49PG5Sx8TZIkSZIkyQxasO42xc1wY1wD2xq3HYzLCjzH9NpckiRJkmSW3BwHyaRsjoNMp7PxY5yAb+Ii62DB2tkWD8Af4A7YQtbVnthTkiRJkiTjsCf2lEnZDM81/c7HF/BeHIyzXUmDK2cZXowf4i24O7aQJEmSJEmSWbYF7oY340d4MZa5Ega/26PwHTwD20iSJEmSJMk82hrPwHfwKL/D4PJti4PxJiyTJEmSJEmSsAxvwsHY1uUYXLYd8Tk8QJIkSZIkSfLbHoDPYUeXYcFvW4bPYDdJknmzDbbFJliKbYzfBbjApc7EObhEkmx822AbbIoB2xq/C3G+S52Fs3GJJEku383xGdweK/2aBb9pE3wYu0mSzJKlWI5dsQuWYzmujR2wDNtjE7Ph51iJlfgpTsYKrMAK/Bd+IUnWzYBdsAuWYzl2xTVxNSzDMmxiNpyBlViJn2IFVuBknIwTca4kyTzbDR/GnXGx/2fBb/p77CtJMs22wq2xJ/bE7rgpNjc/tsf2uIHLtgYn4Vgci2PxJZwqSX7Tlrgl9sIe2B03wxbmx1VxVVzf5TsJx+EbOA5H4RRJknmyL/4eT/f/LLnWw9/u/7kVjsISyfRaIpk/O2B/7It9sBeWyrpYgS/icHwe35Jk3izDnbAv9sUtsCDr4hQcjsPxBRwnyS8diA9JZs8a3BZf9t+WXOvhb/f/HInbSqbbEsnsW4pb4wAcgL2xRBbDKTgEh+LTOFuSWTPgVjgAd8etMchi+BE+jkPwKZwpmV8H4kOS2fQl3M5/W3Kth7/df7sHDpFMvyWS2bQUd8KDcH9cTTa0Vfg03oUP4yxJptWA/fCHuD+uJhvaKnwa78eH8HPJfDkQH5LMrgNw6JJrPfzt/ttHcS/J9FsimS23xiPxQFxNxuIifALvxL/jQkmmwd74YzwQ15SxWIVP4t/wAVwgmX0H4kOS2fUx3GvJtR7+9qvjR1iQTL8lkul3FTwcj8YeMnYr8Ta8CcdLMjbb4mF4NG4hY3cG3oE34TjJ7DoQH5LMrktwrQF3w4IkycZ2U7wZp+KfsIdMg2V4Cr6Nz+NADJJsbDfCG3AaXotbyDS4Kv4Kx+IIPAhLJUmmzVLcbcAdJUk2prvgY/gm/hRbyLS6PT6EE/BYbCHJhnZ7/AeOx59jS5lW++B9+C/8JbaWJJkmdxpwM0mSjeEe+Ao+hQNkltwAr8Up+D/YQpLF9nv4Ej6P+2CJzIpd8Gp8H8/E1pIk02D3AdeXJNmQ9seXcAhuKbNsGV6Ck/AkbCHJpN0Jn8UncBuZZdvjRViBp2ILSZIx23XAVSVJNoQ9cRg+jdvIPLkGXoHv4BFYIsn6uikOxWdwR5kny/BSnIQ/xSBJMkbbD1gqSbKYro434BjcWebZTngbjsRtJVkX2+M1+AbuLvPsGngzvor9JEnGZhgkSRbLUjwR/4U/xyC51G1wJN6Jq0tyZQx4HE7E47FUcqm98AW8F9eSJBmNQZJkMeyBL+GV2FZy2R6G4/FILJHk8twEX8A/46qSy/ZgfBt/jiWSJBvdIEkySZvjhTgat5T8btvjrfgEdpHk122K5+Jr2Efyu22HN+AzuKEkyUY1SJJMyh74Kp6NBcnauSuOw6Ml+R+74SgchE0la+eO+AYehyWSJBvFIEmyvpbgyfgKbipZd1vhX3Awlknm0xI8Dsfg5pJ1tzn+Gf+Bq0mSbHCDJMn62BGH4uXYVDIZD8CxuJNkvizDf+CfsblkMu6Nb+JukiQb1CBJsq5ug6NxN8nkXQufxtOwRDL79sbRuLdk8q6OQ/A3WCJJskEMkiTr4jH4Aq4tWTwD/hHvw9aS2fUnOALXlSyeAc/Hv2M7SZJFN0iSrI1N8Wa8DptINowH4svYVTJbluKf8RZsJtkw7ouv4EaSJItqkCS5srbDIfhTyYa3G76E20pmwzb4KB4n2fBugCNxe0mSRTNIklwZ18WR2F+y8VwNh+EBkul2bXwe95BsPFfFp/GHkiSLYpAk+V12x1HYTbLxbYH344mS6XQzfAk3l2x8m+Df8HRJkokbJEmuyG1wOHaUjMcSvBLPlkyXvfAZXEcyLv+Av5ckmahBkuTy7I9PYFvJOL0QL5ZMh9vgs9hBMk7PwiuxRJJkIgZJksuyPz6KbSXj9gy8RjJu++MwbCsZtyfitVgiSbLeBkmS/+1O+Ci2kEyHx+PFknG6Df4dW0qmw2PwakmS9TZIkvy62+DD2EIyXZ6Bv5GMy+74BLaRTJfH48WSJOtlkCT5pd1xCLaVTKfn4ymScdgNh2FbyXR6Bp4lSbLOFozTBXiWjNmLsLlkduyEQ3FVyXR7GU7FeyQbzzVwCHaQTLe/x2n4V8l8+AreJdPoRdjcyCwYpwvxShmzg7C5ZDZsi4/iWpLZ8K/4IQ6XbHhb4qO4rmQ2vBGn4NOS2fdtvFKm0UHY3MgMkmS+LeD92EMyOzbDv+OGkg1rKd6NvSWzYxN8EDeRJFkrgySZb6/C3SSzZxk+iqtINpyX4L6S2bMtDsEySZIrbZAk8+uP8TjJ7LoB3oElksX3YDxVMrt2xnuwVJLkShkkyXzaC6+XzL574zmSxXVTvEUy++6KF0iSXCkLkmT+bI8PYnO5LGfidPwCq3G28doCm2FTLMP2WJD/7SB8GYdKJm9bfAhbyWU5EytxLtbgLOO1OTbHJliGZViQ/+2Z+DI+JElyhRYkyfx5M5abbz/AsTgWJ+BkrMCPscp0W4brYjmujz2wO26KpebTErwDe+A0yWS9Djcw336Er+M4HI8VOBmnYZXptj12xnLcALtjD9wUC+bXW/BVnCJJcrkWJMl8eTQONH++i0NxOA7HaWbXSqzEMX7TlrgN9sVdsS8WzI8d8FYcgDWSyfhD/KH58z0cii/gcPzI7Po5fo6v+01b4FbYF7+H/bCJ+XEVvBP74xJJksu05FoPf/sa43MWriJjdia2Mz5LJJfvhjgGW5kPR+Ld+E+cJP/btrgbHoh7Yyvz4Ul4lWT9Lcc3sK35cBTejw/jRPnftsFd8GDcF1uZD8/CiyVr70B8yPi8DY+UaXQmtjMygySZDwv4N2xltn0ff4vrYh+8GifJZTkbB+MhuBoejs+ZfS/BzSTrZ8A7sK3Z9kM8D8txW7wMJ8plOQf/jj/E1fAQHGb2PR97S5JcpkGSzIen4JZm16dxT+yK5+MHsjbOxztxJ+yG1+J8s2kzvAmDZN09HvuZXZ/HfbEcB+H7sjbOx3txF1wPr8YvzKYFvBkLkiS/ZZAks+/6OMhs+nfshbviEKyW9XUCHo+d8TycY/bcBk+QrJud8UKz6cO4Fe6Ij+ASWV8n4a+wE56Hs8yePfE0SZLfMkiS2bYEb8AWZsuhuAXuh6/LYjgdB2FX/AMuNFteiJ0la++12MZs+TRuhwPxVVkMZ+AgLMfzcb7ZchBuIEnyGwZJMtsegf3NjhNwTxyAr8mGcDqegd1wsNmxFV4nWTsPxr3Mju/h93FXfEk2hDPxt7gh3mN2bIY3SJL8hkGSzK5t8BKz4SL8LfbAIbIxnIwH4R5YYTbcEwdIrpwt8I9mwyo8HzfFf8jG8EM8FPvjRLPhzri/JMn/b5Aks+vZ2NH0Owp74vm4WDa2j+NmeLXZ8HIsSH63p2Nn0+9r2At/iwtlY/sM9sDLsMb0eyk2lyT5vwZJMpt2wZNNt9V4IfbDCTImv8Bf4Z74sel2Y/yl5IpdG88w3dbgH3FbfFPG5Hw8Db+HH5luu+DJkiT/1yBJZtM/YDPT62e4K/4Gq2SsDsHN8TnT7bm4iuTyvQBbml5n4J74P7hIxurT2BOfNN2ejR0kSQySZPbshQeaXl/B3viMTIOf4K54hel1FTxFctlugoebXt/A3jhUpsFKHIAXm15b468lSQySZPY81/T6EO6EU2SarMJT8BisNp2egh0kv+1vsdR0OgT74WSZJpfgWXgkLjadHoNrSpI5N0iS2XIb/L7p9Eo8COfJtHoD7oXzTZ+t8DTJb7oZHmw6/Qvug3NlWr0N98DZps/meJYkmXODJJktzzWdXogn4xKZdofi7jjb9HkCrib5ledhienzUvwFLpFpdxjuhjNNn8fg2pJkjg2SZHbcDAeYPs/C38gs+QLuhrNNly3xeMmlro/7mT4vwdOxRmbFUbgDTjddNsETJckcGyTJ7Hiq6fMivFhm0VE4AOebLo/HFhKejCWmyyvwTJlFx+HeONt0+XNsI0nm1CBJZsM18TDT5Z/xbJllX8Tv42LTYwc8QubdMvyJ6fJWPFVm2VG4Ny4yPbbDoyXJnBokyWx4AjYxPT6KJ8o8+CT+wnR5CpbIPHsstjA9Pom/wBqZdV/AH5suT8JSSTKHBkky/TbBn5oe38BDcInMi7fiRabHDbG/zKsBf2Z6HI8H4WKZF+/Bc0yPnXFPSTKHBkky/e6LHU2HM3B//ELmzXPwCdPj0TKv7oGdTYdzcD+cJfPmhfiw6fEoSTKHBkky/R5tevwRTpJ5dAkeilNMh/tjB5lHjzI9HonvyDxag0fgRNPh3riWJJkzgySZbtfF3U2HV+JjMs9+jodhtfHbFA+XeXMN3Nd0eAM+KPPsbDwMq4zfUvyJJJkzgySZbg/FEuN3LJ4p4Qt4kenwRzJvHooF4/ddPEXCl/Fc0+HhkmTODJJkuj3U+F2CP8WFkkv9Hb5l/G6BG8g8+QPjtwZ/ivMkl/oHHGP8boTdJckcGSTJ9Lox9jB+r8DRkl+5CI/GGuP3EJkXO+M2xu+1OELyK6vwaFxi/B4qSebIIEmm14OM34/wXMlv+xL+xfg9WObFg4zfT/FsyW/7Gl5t/P5AksyRQZJMrwcav6fjPMll+xucZdxuhhvKPHig8ftrnC25bM/D6cZtV9xcksyJQZJMp+tgD+P2ZbxHcvl+hucbv3vKrNsBtzFu38BbJJfvTBxk/A6QJHNikCTT6R7G79lYI7lir8WPjdsBMuvuhiXG7blYLbli/4IfGLcDJMmcGCTJdLqHcfscPi353c7HC4zbHbGlzLJ7GLej8GHJ73YRnmvc9sFVJMkcGCTJ9FnAXY3bCyVX3pvxU+O1Ge4os2rAPYzbiyRX3jvxQ+O1FHeVJHNgkCTT5xbYzngdh09JrrwL8GrjdmeZVbvhasbru/iI5MpbhVcZtztKkjkwSJLps69xeznWSNbO63Gh8dpPZtV+xu2fsFqydt6Ic43XvpJkDgySZPrsY7zOwvska+90HGy89sbmMov2NV7n4R2StXc23mu89sTWkmTGDZJk+uxnvN6J8yTr5k3Ga1PsLbNoX+P1XpwtWTdvNF4DbidJZtwgSabLclzDeL1Tsu4+h1OM1z4ya66OXY3X2yTr7sv4jvG6rSSZcYMkmS57Gq+TcJRk3a3Be4zXHjJr9jRep+ELkvXzfuN1c0ky4wZJMl12N14HY41k/bzPeO0hs2YP4/UBrJasn/cYrz0kyYwbJMl02cN4/adk/R2Nnxin3bCJzJLdjddHJevvW1hhnK6HrSTJDBskyXTZ3TidhS9K1t8aHGqcNsGNZZbsaZzOx+ckk3GocVqCm0qSGTZIkumxgBsYp8OwSjIZHzdeN5ZZciPj9HlcIJmMjxuvG0uSGTZIkumxE5Yap8Mlk3O48dpFZsU1sIVx+oJkco4wXrtKkhk2SJLpsYvxOkIyOafgFOO0XGbFcuP1Rcnk/AzfNU7LJckMGyTJ9FhunFbha5LJ+rJxWi6zYrlxWoOvSCbry8ZpuSSZYYMkmR7LjdMJuEgyWccZp11lViw3TifjXMlkfcM47SJJZtggSabHNYzTcZLJ+4Zx2lFmxTWN07GSyTvOOF1DksywQZJMj2XG6TuSyfuucboKFmQW7GCcviOZvO8Yp02xtSSZUYMkmR5XN04nSyZvhfFaJrNgmXFaIZm8H+IS47SDJJlRgySZHsuM0wrJ5J2HnxmnZTILlhmnFZLJW4UfGqcdJMmMGiTJ9NjeOP1Esjh+Ypy2l1mwzDj9RLI4fmyclkmSGTVIkumxuXFaKVkcPzVOm8ks2MI4/UyyOFYapy0kyYwaJMn02Mw4rZQsjpXGaRuZBVsYp5WSxbHSOC2VJDNqkCTTY3Pjcx7WSBbHeZL5c75kcZxvnLaRJDNqkCRZHxdL5s/WMgu2Mz6rJYvnfEmSDWqQJNPhKpL5c5ZxWpAsjnMk82drSTKjBkmSZKzWSJLMugVJMqMGSZIkSZIkyYQNkiRJkiRJkgkbJEmSJEmSJBM2SJIkSZIkSSZskCRJkiRJkkzYIEmSJEmSJJmwQZIkSZIkSTJhgyRJkiRJkmTCBkmSJEmSJMmEDZIkSZIkSZIJGyRJkiRJkiQTNkiSJEmSJEkmbJAkSZIkSZJM2CBJkiRJkiSZsEGSJEmSJEkyYYMkSZIkSZJkwgZJkiRJkiTJhA2SJEmSJEmSCRskSZIkSZIkEzZIkiRJkiRJJmyQJEmSJEmSTNggSZIkSZIkmbBBkiRJkiRJMmGDJEmSJEmSZMIGSZIkSZIkyYQNkiRJkiRJkgkbJEmSJEmSJBM2SJIkSZIkSSZskCRJkiRJkkzYIEmSJEmSJJmwQZIkSZIkSTJhgyRJkiRJkmTCBkmSJEmSJMmEDZIkSZIkSZIJGyRJkiRJkiQTNkiSJEmSJEkmbJAkSZIk2VgukSQzapAk0+Esyfy5inG6RLI4tpbMn3MkyYwaJMl0WGOcFiTz5xyZBWcZn6WSxbO5JMkGNUiS6XGh8dlKsni2kMyfzSWLY0vjdK4kmVGDJJkeFxinZZLFscw4nSuz4ALjtEyyOLY3TqskyYwaJMn0uNA4LZMsjqsZpwtlFpxvnHaQLI5lxukCSTKjBkkyPX5unK4uWRw7GqefyyxYaZyuIVkcOxqnlZJkRg2SZHqsNE7LJZO3OXY0TitlFqw0TteVTN5S7GScVkqSGTVIkunxM+O0q2TylhuvlTILVhqn5ZLJuzYWjNPPJMmMGiTJ9DjdON1AMnk3NE5n42KZBSuN040kk3dD43QxzpEkM2qQJNPjJ8Zpd8nk7WGcfiyz4lTjtLtk8vYwTj+WJDNskCTTY4Vxugk2kUzW7sbpZJkV3zdO18eWksnawzitkCQzbJAk02OFcdoEN5dM1q2N0wqZFSuM0xLsLZmsWxunFZJkhg2SZHqcZLz2kUzOtbDcOK2QWbHCeO0rmZztsZtxWiFJZtggSabHKVhtnPaTTM5+xutkmRWn4kLjtJ9kcvYxXidJkhk2SJLpcTG+Z5z2x1LJZNzNeH1HZskJxulO2FQyGXczXt+RJDNskCTT5TjjtD1uLZmMexinVfi2zJLjjNNW2E8yGfc0Xt+UJDNskCTT5VjjdS/J+tsT1zZO38FFMkuONV73lqy/G+N6xulknCNJZtggSabLscbrQZL19xDjdazMmmON1wOxRLJ+HmS8jpUkM26QJNPlWON1Q+wtWT8PNl7Hyqw51njthNtJ1s+DjdfXJcmMGyTJdPkefma8/kiy7vbBrsbrSJk1p+EHxuuPJevu5riZ8fqSJJlxgySZPkcYr4djM8m6+TPjtQpfkVl0hPF6KLaSrJs/M15rcKQkmXGDJJk+XzRey/BAydq7Ch5svI7BeTKLDjde2+ChkrW3NR5mvL6JsyTJjBskyfQ53Lg9SbL2/hxbGq8jZFYdYdyehCWStfNIbGe8jpAkc2CQJNPnaJxrvG6JO0quvE3xV8btszKrvomfG6+b4u6SK28pnmLcPiNJ5sAgSabPRfi0cXuW5Mp7BK5tvC7Gp2VWXYJPGLdnSq68B2EX47Uan5Ykc2CQJNPpUON2d+wn+d02xd8at8PxC5llhxi3O+Lukt9tAS8wbl/GSkkyBwZJMp0ONX4vlPxuf4adjNvHZNZ93Pj9HZZIrtgjcD3jdogkmRODJJlOK3C8cbsD7ie5fFfFQcbvEJl1P8HRxu3W+EPJ5dsaLzB+H5Mkc2KQJNPrA8bvZdhMctmeix2M23fwLZkHBxu/l2BLyWX7a1zTuJ2CoyXJnBgkyfR6n/HbBc+W/La98JfG7/0yL95v/K6N50l+2254ivF7D9ZIkjkxSJLpdRyON37Pws0kv7KAN2Gp8XuXzIvv4Rjj92TsLfmVAW/CpsbvvZJkjgySZLq92/htgrdgE8mlno5bGL9v4niZJ+8xfkvxFmwmudRfYR/jdxKOliRzZJAk0+3dpsOt8FwJt8TfmQ7vkHnzbqw2fnvgRRL2wItNh3dIkjkzSJLpdiIOMx2ehTvJPNsG78aC8VuFt8u8+SE+Zjo8GXeXebYV3oXNjN8avFWSzJlBkky/N5kOA96Da8s8WoK34fqmw3/gxzKP3mR6vBvLZV69ETc1HQ7F9yXJnBkkyfT7IFaaDjviYGwm8+ZZuJ/p8SaZV/+J00yHq+KD2FLmzZPxh6bHmyXJHBokyfS7EG81PW6Lf8USmRcPwgtNjxX4uMyrVXiT6bEX3oWlMi/ug5eaHqfiPyTJHBokyWx4NS4xPR6CF8o82BdvN11ejtUyz/4ZF5oev4+XyTy4Jd6DwfR4NS6WJHNokCSz4Qd4r+nyLDxTZtle+Bg2Nz3OxFtl3v0E7zRdnoiDZJbtjkOwpenxC7xeksypQZLMjpebPi/CY2UW7Y5PYFvT5XU4V8LLTJ/n4pkyi66Pj2MH0+XNOFOSzKlBksyOo3GY6fNaPF1myd44DDuYLhfgNZJLHY+PmT4vwt/ILNkdR+CapssleIUkmWODJJktzzOd/gHPxRKZdrfHYdjB9HkDTpX8ynNMp+fjpVgi0+62OAxXN33eghWSZI4NkmS2fB4fN50Owr9iU5lWD8WnsK3pcwFeIvlNx+DDptNT8W5sJtPq/jgMO5g+F+MFkmTODZJk9hxkej0Cn8DVZJoswUF4FzY1nV6N0yS/7SCsMZ3+AIfhmjJNluCZeD+2MJ3ehB9Ikjk3SJLZ8yV8xPS6I47BrWUaXBUfwXNNr3PxD5LL9nW81/TaB8dgP5kG2+BgvAiD6XQBni9JYpAks+npWGV6XQdfwNMwyFjti6/hXqbbC3C65PI9GxeaXtfAZ/BsLJWxujW+hvubbv+A0yRJDJJkNn0H/2y6bYp/xCexs4zJZvg7fB7XNd1OxislV+xkvMJ0W8AL8VnsKmOygL/BEbie6fYjvESS5P8aJMnseh5ON/32x7fwVxhkY7sdjsFzMJh+T8WFkt/thTjN9NsP38RTsVQ2tlviaDwfC6bfM3CeJMn/NUiS2XUGnmM2bI1X4cvYRzaGHfEmHIGbmA2H4UOSK+dcPMts2AIvxdG4k2wMV8PrcBT2MBu+iHdJkvz/Bkky296II82OvXEE3o3ry4awNZ6N/8KjsMRsuBCPkaydt+Mws2NPfAYfwE1kQ9gCT8V38RgMZsPF+AuskST5/w2SZLatxqNxkdnyEJyAf8X1ZTFsjSdhBV6IbcyWg/BfkrWzBn+B882W++ObeBtuJIthSzwJJ+GluIrZ8mJ8U5LkNwySZPZ9G39v9izFH+O7OBj7yiRcG3+PU/AKLDN7voGXStbNiTjI7FmCR+B4/AfuKJNwDTwfP8ArcA2z5wS8UJLktwySZD68GMeZTUvwAByO4/AEbC9rYxPcBx/G9/EsXMVsWoVHY5Vk3b0cXzWbluA++Cy+jSfjarI2luIAfACn4G+wzGxajUfhQkmS3zJIkvlwIf4IF5ptN8M/4Sc4FH+MHeSybIq74vU4Df+B+2Kp2fZcfFWyflbhYTjPbNsNL8epOBSPwtXlsmyC/fF6nIaP4f5YMNtehC9KklymBUkyP47FM/BKs28Bd8fdsQZfwcdxOI7EOebPUuyJffF7uDO2Nl8+j5dIJuO7eDLeYPYt4O64O9bgGByKL+BInG3+LMXNsC/uirtiG/PlyzhIkuRyLUiS+fJPOAB3Nz+W4Na4tUutxrdwLI7FCViBk3Cu6bcJdsIuuAFuhj1wC2xlfp2Fh+MSyeS8EQfgQPNjCfbG3i61GsfjWByL43EyVuBs028BO2M5roc9sDtugW3Mr1/gYVglSXK5FiTJfFmDR+IYXNN8GrA7dsfD/KZf4HScjnNd6kzjtRU2waZYhmVYJpflUfiBZPIejb1wXfNpwE1xUzzUbzoPp+NnONelzsIa47QlNsWmWIZl2B5L5H/7C5woSXKFFiTJ/PkxHojPYhP5dVthK1xXZsk/4AOSxbESD8AR2Ex+3ZbYGTvLLHk1/k2S5HcaJMl8+iKeIpl9h+HZksV1NB4rmX1H4KmSJFfKIEnm12vwDsns+gEegkski++teL1kdv0YD8LFkiRXyiBJ5tuf4XDJ7Dkb98HPJBvOE/Epyew5H/fGaZIkV9ogSebbhTgQ35XMjlV4MI6VbFgX4YH4lmR2rMZDcLQkyVoZJElW4p44XTIbHouPSzaOs3BP/FgyG56E/5AkWWuDJMn/+B7ujXMk0+0gvEmycf0AB+BsyXR7MV4tSbJOBkmSXzoKB+J8yXT6RzxPMg5fx91wnmQ6vR7PkiRZZ4Mkya87DA/ExZLp8no8QzIuR+E+OF8yXd6Gx0mSrJdBkuR/+xgeiIsl0+HteBzWSMbnMPwBLpJMh3fhUVgjSbJeBkmSy/IfeADOl4zb6/FIrJGM10dwAM6XjNtb8QhcIkmy3gZJksvzEdwb50vG6SV4HNZIxu8w3BVnS8bptXgULpEkmYhBkuSKHIY74wzJuDwXz8QayfT4Iu6K0yXj8vd4PNZIkkzMIEnyuxyFfXCyZOO7GH+Cv5NMp6/gtviuZONbjcfiryVJJm6QJLkyTsBtcZRk4zkbB+BfJdPte9gHh0s2nnNxb7xekmRRDJIkV9ZPsT/eL9nwVuB2+LRkNqzEXfAuyYb3Q9wBh0iSLJpBkmRtnIc/wLOwWrJhfBx749uS2XIRHoYnY5Vkw/gsboGvSZIsqkGSZG2twYtxd6yULK4X4F74uWR2vRJ3wU8ki+tluCt+Jkmy6AZJknX1KeyNIyWTtxL3wXNwiWT2fR63wOclk3cmHoSn4RJJkg1ikCRZH9/HHXAQLpFMxqewBz4qmS+nYn88C6skk/F57IGDJUk2qEGSZH2twvNwB5wsWXcX4am4G06VzKdL8GLcDv8lWXer8Gzsj1MkSTa4QZJkUr6Im+OfsUaydo7C3ng51kjyVeyFV2C1ZO0cg1vhRbhEkmSjGCRJJuls/CX2w/GS3+0XeBL2wTcl+XW/wFNwWxwn+d3Ox9NxG3xdkmSjGiRJFsMXsRcOwgWSy/YR3ASvwmpJLs9XsDeejfMkl+3j2B0vxSpJko1ukCRZLBfiebgR3iv5lW/j7rgvfiDJlXExXoQb4h2SX/ku7o174HuSJKMxSJIsth/gIbg9jpZ5thJPwJ74hCTr4kd4BG6HI2WenYWn4mb4T0mS0RkkSTaUw3Er3A/Hyzw5C8/DLngNVkmyvr6EfXA/fF3myS/wd1iOl+NiSZJRGiRJNqQ1+HfcDA/FCTLLfoEXYjkOwjmSTNq/4xZ4II6XWfYLvATL8VycKUkyaoMkycawGu/BTfEAfFFmyal4Fq6Dv8GZkiymNfgAbob74PMyS36K5+C6eCZOlySZCoMkyca0Gh/EvtgHH8AlMq2OwyOxC16MMyXZkFbjo7gjbo33YpVMq2/jz7AzXoCVkiRTZZAkGYsj8UDsjOfgZJkG5+EtuC32wNtwkSQb21fwEOyEZ+J7Mg3Ox9twe9wUb8KFkiRTaZAkGZtT8QJcH3fDO/ELGZM1OBx/gWvgUThKkjH6MV6CG2B/vANny9gcjsfhWngkDpckmXoLkiRjtRqfxCexBe6JB+He2Eo2hi/iPfgATpVkmqzBZ/AZbIa74aG4L7aSjeEovB/vxw8kSWbOgiTJNDgfH8AHsAXuhLvjANxQFsuZ+AQOwaH4sSSz4EJ8BB/B5tgP98QBuLEslrPwKXwMh+JUSZKZtiBJMm3OxyE4BE/CrrgL9sG+uIGsq5/jizgCX8CXcIkks+wCfAqfwlOwHPtjX+yLG8m6OhNH4nB8AUdilSTJ3FiQJJl2J+Ek/ItLXR23w17YA3tgVyyRX/czHIdjcSy+hBOwRpJ5tgJvwVtcagfcDrfA7tgD18Mgv24ljsM3cBy+hOOxWpJkbi1Iksyan+LD+LBf2Qo3xi5Yjl2wC66Jq2EZNjc7LsFK/Bw/wQqswMk4Gd/FjyXJ73Y6PoKP+JUtcWMsx65YjuW4NnbAMmxhdqzGSqzET/F9nIQVWIHv4lRJkvwvC5Ik8+AXOBpHu3xbYhm2wuZYgu2M33m4CKtxNs7CGZJk8ZyHY3CMy7cFlmFrbO5SVzF+5+NCrMbZOAcrJUmyDhYkSXKp83CeJMkknI8fSpJkjg2SJEmSJEmSCRskSZIkSZIkEzZIkiRJkiRJJmyQJEmSJEmSTNggSZIkSZIkmbBBkiRJkiRJMmGDJEmSJEmSZMIGSZIkSZIkyYQNkiRJkiRJkgkbJEmSJEmSJBM2SJIkSZIkSSZskCRJkiRJkkzYIEmSJEmSJJmwQZIkSZIkSTJhgyRJkiRJkmTCBkmSJEmSJMmEDZIkSZIkSZIJGyRJkiRJkiQTNkiSJEmSJEkmbJAkSZIkSZJM2CBJkiRJkiSZsEGSJEmSJEkyYYMkSZIkSZJkwgZJkiRJkiTJhA2SJEmSJEmSCRskSZIkSZIkEzZIkiRJkiRJJmyQJEmSJEmSTNggSZIkSZIkmbBBkiRJkiRJMmGDJEmSJEmSZMIGSZIkSZIkyYQNkiRJkiRJkgkbJEmSJEmSJBM2SJIkSZIkSSZskCRJkiRJkkzYIEmSJEmSJJmwQZIkSZIkSTJhgyRJkiRJkmTCBkmSJEmSJMmEDZIkSZIkSZIJGyRJkiRJkiQTNkiSJEmSJEkmbJAkSZIkSZJM2CBJkiRJkiSZsEGSJEmSJEkyYYMkSZIkSZJkwgZJkiRJkiTJhA2SJEmSJEmSCRskSZIkSZIkEzZIkiRJkiRJJmyQJEmSJEmSTNggSZIkSZIkmbBBkiRJkiRJMmGDJEmSJEmSZMIGSZIkSZIkyYQNkiRJkiRJkgkbJEmSJEmSJBM2SJIkSZIkSSZskCRJkiRJkkzYIEmSJEmSJJmwQZIkSZIkSTJhgyRJkiRJkmTCBkmSJEmSJMmEDZIkSZIkSZIJGyRJkiRJkiQTNkiSJEmSJEkmbME4bYIDZcw2kSTzZVMsx/WwObbAWfgJvouzJUmSTLedcaBMo02M0IJx2hIfkiTJxnVD/AHuhlthM5fvO/g0DsbnsFqSSVmCW+POuBWuj2thE5c6HafiWByBT+J0SZK1dWfcWTIhS6718LevkcyOJZJk/d0Vz8BdrZsVeAnegoskWVc74nH4E+zkyluNj+P1+AjWSJJxORAfksy4QZIk+aVd8Z/4JO5q3S3H63AiHoNNJVkbO+Bl+D7+FjtZOwMOwIdxDH5PkiTZ4AZJkuR//BG+gXuanJ3wOpyIJ2ILSa7IVvhrnIinYDPr7+b4BN6OrSVJkg1mkCTJfFuCF+Id2Nri2AmvxMl4Fq4qya/bFI/FiXgBtjN5D8eXcX1JkmSDGCRJMt/+Ec+2YeyIv8cpeA12lcy3TfEYnIjX4hoW1244HLtLkiSLbpAkyfx6Kp5qw9sKj8eJ+CD2k8yXTfEYnIjXYScbzo74BHaWJEkW1SBJkvl0e7zExrUE98MXcAz+HFtJZteWeAJOxOuwk43jGvgINpMkSRbNIEmS+bM53oylxmMvvAGn4bXYUzI7rorn4Af4J+xk49sDL5IkSRbNIEmS+fN03MA4bYPH4uv4Ih6JzSXTaRe8Aqfg77DMuDwRe0iSJItikCTJfNkaTzEdboe34lS8BreUTIc74kP4Hp6ErYzTgJdIkiSLYpAkyXz5U1zFdLkqHo+v4Jt4Gq4hGZct8Sgcg8/iQCwxfvfA7pIkycQNkiSZL4803W6Kf8SP8An8CbaTbDw3wT/hVLwJe5k+j5MkSSZukCTJ/LgO9jIbBvwe3oKf4gN4ILaQLL6t8Ah8Dt/CE7Cd6fX7GCRJkokaJEkyP+5iNm2K++P9+Bk+gIdga8nkLMF+eDN+jLfhDmbDNbG7JEkyUQuSJJkfe5p9W+H+uD8uwCfwQfwnTpesvRvjYXgIrm927YNvSJIkE7MgSZL5cSPzZXPcF/fFanwJH8ZH8W3J5dsZD8VDcHPz4UaSJMlELUiSZH5sb34N2Af74CU4Cf+JT+Az+IXMuxvjfngA9jZ/riNJkkzUgiRJ5scW8ku74gl4Ai7G4fg4Po5vYI3MuqW4Le6F38dNzLdtJEmSiVrAGiyRJMnsWyWXZRPcGXfGi3E6PofP4rP4FtbILNgBv4d74QBsL7+0RJIkmagFnIHtJUky+34uV8YOeAAe4FKn43P4LL6IY7FKpsEW2A+/h7vi5lgil+VcSZJkkn6+gBXYXpIks+9kWRc74AF4gEudh6/gSHwRR+J0GYOtsR/2wx1xK2wmV8YpkiTJJH1/Ad/ELSRJMvuOlUnYEnfEHf3KiTgGX8Mx+Bp+JotpCW6IW+N2uA32xFJZF9+VJEkm6VsL+AIeIUmS2XeELJbr4/p4sF85BV/H0TgO38F3cbGsrQE3xM1xC+yFvXFVmZQvSpIkk/S5BXwCa7BEkiSz7Rs4BTvJhrATdsJ9/MoqfBfH49v4Nk7ASThbBuyE3bA7boqbYjdsJYvlZzhWkiSZpE8s4Af4PO4oSZLZtgbvxdNkY1nATXATPMBvWomTcRK+h5NwMk7BD3Ge2bAllmM5dsb1cH3cENfHprKhfRCXSJIkk/I5/GDBpV6HO0qSZPb9M56MpTI2y7AMt3TZzsGpOBU/xg/xY/wUZ+BMnIEzcCbOt2EswXbYGjvgaliGHXAtXAPXwrVwTewgY/MvkiTJJL3ef1twqffjudhNkiSzbQXehYfLtNkGN8KNXDkX4kyciQtwEc7DKpyLNTjLFdsMW7jU5tgaW2M7bIWtsKVMs8/gaEmSZFKOx/v8twWXWo0n4eOSJJl9z8IDsKXMss2wI3aUXL5nSJIkk/RkrPbfBr/yCbxDkiSz70d4qiTz7rX4iiRJMinvwMf9P4Pf9DicIEmS2fcGvF+SeXUCniFJkkzKCXicXzP4TefiAJwqSZLZtgZ/jCMlmTen4z44V5IkmYTTcE+c69cMftsK3AWnSJJktp2PA/BZSebFGdgfJ0qSJJNwCvbHyf6XwWU7AbfDlyRJMtvOwgF4iySz7iTsi+MkSZJJ+BJuhxNchsHl+xHugBfgIkmSzK4L8Cg8FD+VZBYdjFvheEmSZH1dhBfgDviRyzG4YhfjOdgD78UaSZLMrvfgxngJzpJkFpyAA/Eg/FySJFkfa/Be7IHn4GJXYHDlfAcPwQ3wAvyXJElm0xl4JpbjeThLkml0Kv4Mu+PDkiTJ+vgvvAA3xEPwHVfCkms9/O3W0XVwG9wI18Q2xuce2NH4fAQ/N90eik2NzxJJMllXwWPwNCyTZOzOwovwTzhfkozTgfiQ8fkeDpdwDk7Dd3AUfmgdLFh3P8QPjdtnsaPx+Vt83XQ7EJtKktl3Jl6M1+Av8STsKMnYXIDX4O9xhiTJujgcj5RMyCBJklwZ5+LF2AV/ju9IMgYX4FXYFU/HGZIkySgMkiTJ2jgf/4Kb4L44XJKN4QK8CrviSThNkiQZlUGSJFkXq/ER3B63wcFYLcli+wVehl3xJJwmSZKM0iBJkqyvL+NBuAFegTMlmbQz8SIsx9NwmiRJMmqDJEkyKSfhKbg2/gzfkGR9/QBPxk54Nk6XJEmmwiBJkkzaeXgTbo798G5cLMna+Dr+CNfDK3GuJEkyVQZJkmQxHYE/xE54Dk6W5PKswSG4G/bCv2GVJEkylQZJkmRD+AlegOvhLvg3XCDJ/zgDL8cNcE98UpIkmXqDJEmyIa3BYfgjXBOPxzGS+fR1PArXwVPxPUmSZGYMkiTJxnImXou9cXO8EqdJZtv5eCf2wV54C86TJElmziBJkozBN/Bk7IS74i04WzI7jsJf4Bp4OI6UJElm2iBJkozJJfg0HoWr4wH4AC6QTJ+f4mW4KW6LN+JsSZJkLixIkiRjdSE+iA9iO9wH98MB2EIyTufhI3gXDsHFkiTJXFqQJEmmwVl4J96JLXAA7of7YDvJxnURPo534aM4V5IkmXsLkiTJtDkfH8QHsQnuggNxb1xbsmGswmfwXnwAZ0qSJPk1C5IkyTS7GIfiUJfaA/fEPbEPlkom5xc4FP+Oj+HnkiRJLseCJEkyS47FsXgxroK74l44ADtK1t5P8B/4MD6FCyVJklwJC5Ikyaw6EwfjYCzBTXFn3AV3wFUlv+0SHIlP4lB8FaslSZKspQVJkmQerME38U28GgP2wp2xP+6ArWRenYyP4xP4NM6WJEmynhYkSZJ5tBpH42i8FAvYE7fDvrgdriuz6vv4HL6Az+B7kiRJJmxBkiQJq3A0jsZrXOpa2Af74Ha4OTaXaXQCPocv4HP4oSRJkkW2IEmS5LKdioNxsEstYDfshVtiL9wcW8uYnIav4ih8FV/BzyVJkmxgC5IkSa6cVTgOx+HtLjXghtgLN8NNcVPsikEW2w/wTXwdX8WX8SNJkiQjsCBJkmTdrcYJOMFv2hw3xm7YDTfDDbArtpS19XN8E8fhmzgO38RZkiRJRmpBkiTJ5F2Ar+Prfts1cT1cD7tiV1wPy7EjBvPpdJyIE3EiTsR3cSLOkCRJMmUWJEmSbFin4TQc7rctYEdcB9fBtXBtXAc7YgdcDcuwuelwEVbiJzgVp+AU/BCn4hScgl9IkiSZIQuSJEnGYxV+hB/hKFdsSyzD1bEMy7AVtsZ22ApbYStcBVthE5faCpu41AK29tvO9JsuwTk4B+fhfJyJ83AezsZKrMRKnI6f4VxJkiRzaEGSJMl0Og/n4RRJkiQZnUGSJEmSJEkyYYMkSZIkSZJkwgZJkiRJkiTJhA2SJEmSJEmSCRskSZIkSZIkEzZIkiRJkiRJJmyQJEmSJEmSTNggSZIkSZIkmbBBkiRJkiRJMmGDJEmSJEmSZMIGSZIkSZIkyYQNkiRJkiRJkgkbJEmSJEmSJBM2SJIkSZIkSSZskCRJkiRJkkzYIEmSJEmSJJmwQZIkSZIkSTJhgyRJkiRJkmTCBkmSJEmSJMmEDZIkSZIkSZIJGyRJkiRJkiQTNkiSJEmSJEkmbJAkSZIkSZJM2CBJkiRJkiSZsEGSJEmSJEkyYYMkSZIkSZJkwgZJkiRJkiTJhA2SJEmSJEmSCRskSZIkSZIkEzZIkiRJkiRJJmyQJEmSJEmSTNggSZIkSZIkmbBBkiRJkiRJMmGDJEmSJEmyIS2RzIFBsm5WG6ftJEmSJMm4bWecVkkmaJCsm7ON0xJJkiRJknVxrmSCBsls2UySJEmSjNsWkjkwSNbNL4zT9pIkSZJk3K5inM6RTNAgWTcXG6dlkiRJkmTclhmnSyQTNEjWzRnG6eqSJEmSZNx2NE4rJRM0SNbN6cZpZ0mSJEkybjsZp59LJmiQrJuVxmm5JEmSJBm35cZppWSCBsm6+blx2lWSJEmSjNem2Mk4rZRM0CBZNz81TntIkiRJkvG6CQbj9BPJBA2SdfN943RdbCtJkiRJxmkP43QJTpVM0CBZNycbr70kSZIkyTjdwjj9EKskEzRI1s0K47WPJEmSJBmnfYzTCsmEDZJ1cybOMk77SZIkSZLx2RK3ME4nSSZskKy7E43T7bGJJEmSJBmXO2CpcfqeZMIGybo71jhtg30lSZIkybjcw3gdK5mwQbLujjVe95QkSZIk43JP43WcZMIGybo71ng9QJIkSZKMx+64gXE6GyskEzZI1t2xxmtX7C1JkiRJxuHBxus4ySIYJOvudKwwXn8oSZIkSTa+JXio8fqyZBEMkvXzReP1x9hUkiRJkmxc++N6xusIySIYJOvncOO1DAdKkiRJko3r0cbtCMkiGCTr5wjj9kRJkiRJsvFcGw8wXifhx5JFMEjWzzdxpvHaB7eVJEmSJBvHE7GJ8fqCZJEMkvWzGp80bs+UJEmSJBveVfDnxu3jkkUySNbfocbt97GXJEmSJNmwnoTtjNdqfEKySAbJ+jvU+P2dJEmSJNlwdsCTjdtXsFKySAbJ+jsV3zBu98adJUmSJMmG8bfY1rgdKllEg2QyPmz8XoWlkiRJkmRx7YbHGb8PShbRIJmMdxu/3fE4SZIkSbJ4luDVWGrcvoNjJYtokEzGCfim8XshdpYkSZIki+ORuIvxe79kkQ2SyXmf8dsGr8MSSZIkSTJZ18TLTIf3SRbZIJmcd5sO98RjJEmSJMnkLMG/4qrG7zgcJ1lkg2RyTsTnTIeX4SaSJEmSZDKejLuZDm+WbACDZLLeaDpsgYOxjSRJkiRZP/vgxabDhXiHZAMYJJP1QZxhOuyGt2KJJEmSJFk318DB2MR0OBg/l2wAg2SyLsDbTY8H4HmSJEmSZO1tiQ/jmqbHmyQbyCCZvH/CGtPjOXikJEmSJLnyluKduLXp8XV8VrKBDJLJOwkfNF3eiPtKkiRJkt9tCV6D+5kuL5VsQINkcbzUdNkEB2N/SZIkSXLFXorHmC4/xPskG9AgWRxfwhdNl03wUdxdkiRJkvy2JXg5nmL6vAoXSzagQbJ4nm/6bIGP4EBJkiRJ8itL8Vo82fRZiddLNrBBsngOxRdNn03wAfylJEmSJGFLHIzHmE4vwrmSDWyQLK6/Np0GvBqvxFJJkiRJ5tU18VkcaDr9GK+VbASDZHF9Fp8zvZ6IT+JqkiRJksyb/XAMbmV6vQTnSzaCQbL4noY1ptedcQxuL0mSJMk8GPA0fAbXML2+h9dKNpJBsvi+irebbtfBZ/FCbCJJkiTJrLo2Pol/xILp9lRcJNlIBsmG8Wyca7oNeDa+iltJkiRJMkuW4M/xLexv+n0KH5ZsRINkwzgVf2827IEv4VW4qiRJkiTTbg98Fm/AdqbfJXiKZCMbJBvOy3G82TDgr/BdPBYLkiRJkkybq+N1+BruYHa8CsdJNrJBsuFciD/DGrNjB7wWJ+CRWJAkSZJk7HbAi3ESHoPB7DgZz5GMwCDZsI7Aa82e6+Gt+C7+EltJkiRJMjbL8SqswDOwldnz5zhPMgKDZMN7Nk4xm3bBq3EKXombSpIkSbIxLcW98O84EX+Frcymt+FTkpEYJBve2Xgk1phdV8UT8U0chadiZ0mSJEk2hCW4LV6G7+Oj+H0sNbu+jydKRmRBsnEchpfi6WbfrXFrvBRH4xB8AkfhIkmSJEkmYXvcCQfgHriO+bEaD8NZkhFZkGw8f4O7Yi/zY2/sjb/BhfgKvohjcSy+g4skSZIkuSLbYXfsjr2wH3Yzv16EIyQjsyDZeC7CQ3E0tjJ/NsN+2M+vrMEPsQKnYiVOxxkudT4ulCRX7Gz8FMdjpWQ6bYEbYmdcBUslmSdbYwELWIZluBp2wi7YXn7pSzhIMkILko3rO/gTvE/+xxLshJ0kyWSchMPwPnwaqyXjdSM8DHfDLbFUkuSK/BQPxCrJCA2Sje/9eJkkyWLYFY/GJ3AyHo/NJeNyV3wGJ+A5uA2WSpJckUvwB/iRZKQGyTg8A5+VJFlMO+M1+BbuIdn4luOj+CTuJEmyNv4PPisZsUEyDpfgQfieJMli2xWH4JXYVLJxPBDfwL0kSdbW2/ByycgNkvE4HffEzyVJNoQn4hBsJ9mw/hrvx7aSJGvrMPy5ZAoMknH5Lg7ERZIkG8L++Di2lGwYf4cXSJKsi+Nxf1wkmQKDZHy+gEdgtSTJhnAbvB+DZHH9BZ4jSbIufoQDcJZkSgyScXovHidJsqHcE8+WLJ698U+SJOvidNwN35dMkUEyXm/AkyVJNpSDcDPJ5C3gX7GpJMnaOht3wbclU2aQjNsr8SxJkg1hKf5JMnmPw80kSdbW2bgbjpVMoUEyfi/GsyRJNoQ7406Sydkcz5IkWVtn4244SjKlBsl0eDH+UpJkQ3iiZHL+ANeQJFkbp+P2OEoyxQbJ9Phn/ClWS5IspntjB8lkPEKSZG38CHfAsZIpN0imy1txP5wvSbJYFnAPyfrbDneSJLmyvoV9cbxkBgyS6fMfuD1+IkmyWO4oWX/7YZAkuTI+hX3xfcmMGCTT6WjcBsdLkiyGvSTrb09JkivjLbgXzpLMkEEyvb6P2+BDkiSTdn3J+ruBJMkVWYUn4VG4SDJjBsl0OwcPwLOwWpJkUraTrL+rSpJcnp/gLniVZEYNkum3Bi/G3XG6JMmkXEWyfq4iSXJZvohb4POSGTZIZsensAc+LkkyCedI1s/ZkiS/7hI8D3fEqZIZN0hmy2k4AE/ChZIk6+p8XCJZP+dIkvzSybgDDsIqyRwYJLNnDV6FW+NoSZJ18V+S9XeiJMn/eAtuji9K5sggmV3H4rZ4Gs6XJFkb35Ksv29Jkvl2IvbHo3C2ZM4Mktm2Ci/DzfBpSZIr6/OS9fc5STKfLsFLsAc+I5lTg2Q+nIS74gE4WZLkd/mYZP39BEdLkvlyKHbHM3G+ZI4NkvnyQdwEz8a5kiSX5XP4gWQy3ilJ5sN3cS8cgOMlMUjmzwV4EW6AV+FCSZJf9xrJ5PwrzpUks+sUPBY3w8ck+f8Nkvn1YzwJN8QbcLEkybfxQcnknIlXS5LZ82M8GTfC63GxJL9hkOQHeAyuj9fgF5Jkfj0BqyWT9SKcKklmwwr8FXbFK3G+JJdpkOSXfoAnYGf8NX4sSebLm3CYZPLOwV9Ikun2FTwY18ercb4kV2iQ5H/7Of4e18XDcJgkmX3fwF9JFs9H8Q+SZLqch7dgH9wa78clklwpgySX5yK8C3fBDfASnCZJZs8PcG+cL1lcz8L7JMn4fRWPxTXxKBwpyVobJLkyTsQzcR3cEW/AzyTJ9DsRd8IPJYtvNR6Od0uS8fkm/gbXx63wepwtyTpbkGRtrMbn8Xk8HnfEvXEAbixJpssn8Yc4XbLhXISH4bt4DgZJsnGswhE4BB/GCZJM1IIk6+oSHIbD8BQsxwHYH/vhGpJknH6B5+IVWC3Z8NbgIHwWr8eNJMniW4Pj8Xl8Ep/C2ZIsmgVJJmUFXofXudSu2Bf74Ba4KbaSJBvPRXgrXoAfSja+z2JPPBb/B9eUJJPzExyLr+JwHIkzJNlgFiRZLCfhJLzDpQbsit2xO5ZjF+yC62CpJJm8S/AVvA//hp9KxuVCvBKvxX3wR9gf20qS3+18rMBJWIHv4Vgch59KslEtSLKhrMaJOBEf8psWsCN2wNWwPZZhC2zrUltiU0lyxS7BOTgN38HROEcyfhfhA/gAlmIP3AS7YGtsLsm8+QUuxiU4B+fiZ1iJlTgdP5NktBYkGYNV+BF+JEmSXIKv4Wtm0I/e/nBJksyDQZIkSZIkSTJhgyRJkiRJkmTCBkmSJEmSJMmEDZIkSZIkSZIJGyRJkiRJkiQTNkiSJEmSJEkmbJAkSZIkSZJM2CBJkiRJkiSZsEGSJEmSJEkyYYMkSZIkSZJkwgZJkiRJkiTJhA2SJEmSJEmSCRskSZIkSZIkEzZIkiRJkiRJJmyQJEmSJEmSTNggSZIkSZIkmbBBkiRJkiRJMmGDJEmSJEmSZMIGSZIkSZIkyYQNkiRJkiRJkgkbJEmSJEmSJBM2SJIkSZIkSSZskCRJkiRJkkzYIEmSJEmSJJmwQZIkSZIkSTJhgyRJkiRJkmTCBkmSJEmSJMmEDZIkSZIkSZIJGyRJkiRJkiQTNkiSJEmSJEkmbJAkSZIkSZJM2CBJkiRJkiSZsEGSJEmSJEkyYYMkSZIkSZJkwgZJkiRJkiTJhA2SJEmSJEmSCRskSZIkSZIkEzZIkiRJkiRJJmyQJEmSJEmSTNggSZIkSZIkmbBBkiRJkiRJMmGDJEmSJEmSZMIGSZIkSZIkyYQNkiRJkiRJkgkbJEmSJEmSJBM2SJIkSZIkSSZskCRJkiRJkkzYIEmSJEmSJJmwQZIkSZIkSTJhgyRJkiRJkmTCBtkYtpIkSZIkSTLDBrPtLOO0iSRJkiRJkhk2mG1rjNMmkiRJkiRJZthgtp1vnLaSJEmSJEkywwaz7ULjtKUkSZIkSZIZNphtq43TMkmSJEmSJDNsMNvOME5XlyRJkiRJMsMGs22lcVomSZIkSZJkhg1m20rjtEySJEmSJMkMG8y2lcbpmpIkSZIkSWbYYLb9zDjtKkmSJEmSZIYNZtvpxula2FSSJEmSJMmMGsy2lcZpCa4rSZIkSZJkRg1m28+wyjjtIkmSJEmSZEYNZtsl+IFx2k2SJEmSJMmMGsy+k43T7pIkSZIkSWbUYPatME57SJIkSZIkmVGD2XeycboZBkmSJEmSJDNoMPtONk5b4PqSJEmSJElm0GD2nWy8bitJkiRJkmQGDWbft43XvpIkSZIkSWbQYPadhR8Yp/0kSZIkSZLMoMF8ONY47YarSpIkSZIkmTGD+XCccVqC/SRJkiRJksyYwXz4hvG6uyRJkiRJkhkzmA/HGa97SpIkSZIkmTGD+fBdnG+cdsGNJEmSJEmSzJDBfFiFLxuvu0uSJEmSJJkhg/lxhPH6fUmSJEmSJDNkMD8ON153wtUlSZIkSZLMiMH8OBJrjNOAB0iSJEmSJJkRg/lxJr5lvP5QkiRJkiTJjBjMlyOM1764tiRJkiRJkhmwYL58Bn9hnJbgj/H3kiRjshWuia1xFUlmwbk4Fz/BGZIkyaJYMF8+gdUYjNOj8WKsliTZWJbh/rgL9sFOksyy0/FVfBofxEmSJMlEDObLGTjSeO2C/SVJNoa98D6chjfiD7CTJLNuB9wD/4jv4XM4AEskSZL1Mpg/hxq3P5ck2ZCuiX/DMXgQNpFknt0BH8MR2FOSJFlng/nzMeN2IK4lSbIhHIhv4Q8lyW+6HY7GM7FEkiRZa4P58zX8xHhtgr+SJFlsz8GHcFVJctmW4kV4HzaVJEnWymD+rMEhxu0x2FqSZLG8BH8nSa6cB+I/sakkSXKlDebTe43bdni0JMlieCr+jyRZO3fFO7BEkiS5Ugbz6dM4w7g9BZtKkkzSHfEPkmTdPBhPlSRJrpTBfLoYHzJuO+FPJUkmZSu8E4MkWXcvwk0kSZLfaTC/3mf8no3NJEkm4bm4jiRZPwv4Z0mS5HcazK9P4WfGbSc8VpJkfe2AJ0iSybgT7iRJklyhwfy6BB80fs/AlpIk6+MJ2FySTM4zJEmSKzSYb28xftfAMyVJ1tUSPEKSTNbdcE1JkuRyDebbl/FN4/d07CxJsi5ugeWSZLIG/L4kSXK5Bnmj8dsc/yhJsi7uLEkWx10kSZLLNcg7cKHxezBuL0mytm4hSRbHLSRJkss1yJl4v+nwemwmSbI2bixJFsdybCpJklymQf7HG02Hm+CZkiRrY5kkWRwDtpckSS7TIP/jCzjWdHg2biJJcmVtJ0kWz9aSJMllGuSX/tF02BRvwlJJkiTZ2LaWJEku0yC/9F78yHS4Hf6PJEmSJEmSkRrkly7Gq0yPv8MtJUmSJEmSjNAgv+6NOMd0WMC7sLUkSZIkSZKRGeTXnYV/MT1ugH+SJEmSJEkyMoP8by/FBabHn+BRkiRJkiRJRmSQ/+00vMF0+WfcSpIkSZIkyUgMclleiF+YHpvhYOwgSZIkSZJkBAa5LD/Da0yXnfE+bCpJkiRJkmQjG+TyvBRnmy53xhuxRJIkSZIkyUY0yOU5Ha8wff4Yz5EkSZIkSbIRDXJFXorTTJ/n4eGSJEmSJEk2kkGuyLl4tun0ZtxXkiRJkvx/7cEL/PeFYOjx9/N9/k9Kbp0OHdMrlctJKNeUciRGFO3FjrDULs7MYZuTRuaysQ2j3F82DC+SHMVZRoWSSxdNR1cKU6Qk9ozuPT23c7xaL42env/zPP/L7/J5v5NkEQyyPh/B142fZTgO+0iSJEmSJFlgg6zPGrzUeFqGz2BPSZIkSZIkC2iQ2TgDxxhPW+AE7CFJkiRJkmSBDDJbL8f1xtPdcAr2kSRJkiRJsgAGma3L8efG1xb4LJ4hSZIkSZJkns3Ihng3nofHGE+b4zgcgmMkSRbTlyXZEI/ClpIkydiYkQ2xBi/AN7DMeFqGj2F7vFGSZLHsLcmGOBe7SpIkY2OQDXUh3mT8vQHvx4wkSZIkSZI5NsjG+BtcbPy9ACdgK0mSJEmSJHNokI2xAr+L1cbfb+Js7CJJkiRJkmSODLKxzsIbTIYd8TUcJEmSJEmSZA4Msilej7NNhi1wFN6FzSVJkiRJkmyCQTbFKjwX15kcL8E/46GSJEmSJEk20iCb6l/wRybLQ/F1/CmWSJIkSZIk2UCDzIWj8WGT5U54Oz6HHSRJkiRJkmyAQebKi3CByfObuBCHYqkkSZIkSZJZGGSu3Ihn4VqT5844El/DrpIkSZIkSdZjkLn0XRxkcj0K38B7cU9JkiRJkiTrMMhc+zReZ3IN+EN8F4dimSRJkiRJkl8xyHx4Hf6PyXZ3HImL8HwMkiRJkiRJ/t0g82EtDsI5Jt/98BFciOdgiSRJkiRJMvUGmS83YH/8yHR4EI7BOTgIyyRJkiRJkqk1yHz6EfbDNabHrjgKl+Aw3E2SJEmSJJk6g8y3c/HbWGm6bIu34HK8C7tKkiRJkiRTY5CF8AUcYjrdFS/Bufhn/AHuKkmSJEmSTLRBFsox+GPT7dH4B1yJj+NZ2EKSJEmSJJk4gyykd+O1siUOxHH4KY7Cb+MekiRJkiTJRBhkof0V/lZutSUOwrH4V3wFr8IjsFSSJEmSJBlLM7IYDneLV8htLcXj8Dj8Na7FmTgdp+EsXC9JkiRJkoy8GVksh7vFK2Rd7oon48lusRbfw/k4H+fjYlyCFZIkSZIkyciYkcV0uFu8QmZjCe6P++OZ/qMrcSkuxRVYjuX4CZbjBlyDNbgJN0kyLZZIkiRJsuBmZLEdjpvwF7Ip7o1747GSJEmSJMmiG2QU/CX+VJIkSZIkyYQYZFS8E4dgpSRJkiRJkjE3yCj5CJ6O6yRJkiRJkoyxQUbN5/B4XCVJkiRJkmRMDTKKvoHdcL4kSZIkSZIxNMiougx74bOSJEmSJEnGzCCj7FocgDdKkiRJkiQZI4OMutX4cxyIGyRJkiRJkoyBQcbFJ7Abvi1JkiRJkmTEDTJOvolH4xOSJONukCRJkkywQcbNtTgQf4SbJEnG1b6SJEmSCTbIuHovHoULJUnG0YskSZIkE2yQcfZNPBpvw1pJknHyZGwpSZIkmVCDjLubcCieiB9IkoyLzbCPJEmSZEINMilOxUPwDqyRJBkHj5QkSZJMqEEmyXV4KR6LCyVJRt2DJUmSJBNqkEl0Fh6B1+JmSZJRtY0kSZJkQg0yqVbir7ALTpIkGUV3kyRJkkyoQSbdt/FUPA3fkSQZJfeQZNz9XJIkuV2DTIsT8RD8L1wtSZJkvCyTJEnGyiDTZCXejgfgPVgpSbKYNpdktrY0mm6UJElu1yDT6Kd4Me6P92G1JMliuIsks7W50bRCkiS5XYNMs8vwQuyED2O1JMlC2hJ3kmQ2tjaa1kqSJLdrkPAv+F08FB/FSkmShbK1JOtzd8wYTVdLkiS3a5D80kV4PnbEEbhGkmS+bSPJ+mxjNC2XJEnWaZD8usvxZ9gWh+GHkiTz5b6SrM99jablkiTJOg2SdbsWR2JHHIgvYK0kyVzaXpL12cFoWi5JkqzTIFm/VfgEnoz7429wpSTJXNhBkvXZ0WhaLkmSrNMg2TCX4NXYDr+FT+NmSZKNtYsk6/Ngo+lKSZJknQbJxlmF43EA7oWD8TmskiTZEA+VZH12MZoukyRJ1mmQbLqrcRT2xTZ4AT6HmyVJ1mdr3EeSdbkHtjOaLpUkSdZpkMytf8MHsC/+Ew7A3+MHkiTrsrsk67K70XWpJEmyToNk/lyPT+NF2B4742U4ET+XJLnVnpKsy55G1/clSZJ1mpEsnItwEd6KAQ/CXtgTe2JHSTKd9pJkXfYymm7AlZIkyTrNSBbHGnwT38R73WIbPAIPxS7YBQ/CjCSZbI/E1lguyW1ticcaTd/EWkmSZJ1mJKPjKpyIE/3SMuyMnbEDdsT22AHbYUaSjL8BT8YxktzWE7GZ0XS+JElyh2Yko20lzsN5ft1S3AfbYmvcC1tja2yNe+LubnF3LMEWuBOW4q6STJtluLPR9BQcI8ltPdXoukCSJLlDM5LxtRqX4TJJMju740yj6RnYDDdL8gtLcYDRdZ4kSXKHBkmSTI9zsNJo2gpPkeRWe+PeRtd5kiTJHRokSTI9VuBco+tASW71bKPrIvxMkiS5Q4MkSabL142uZ+IektwZzzG6TpMkSdZrkCTJdDnD6NoCz5Pk2bib0XW6JEmyXoMkSabLKUbbCyV5odF2hiRJsl6DJEmmy4/xLaNrFzxJMr12x+5G1xX4riRJsl6DJEmmz6lG26GS6XWY0fZ5SZJkVgZJkkyfLxhtT8XDJdPngXim0XaCJEkyK4MkSabPKVhhtP2FZPq8HkuMrtU4WZIkmZVBkiTT5zqcYrQdgEdLpsfOeLbRdgZ+LkmSzMogSZLpdLzR9xbJ9HgLlhhtx0uSJLM2SJJkOv0T1hptj8czJZPvKXia0XesJEkya4MkSabTlfiq0XcENpdMrmV4u9F3Fi6TJElmbZAkyfQ62ujbAX8hmVyHYyej72OSJMkGGSRJMr2Oxc1G359hV8nk2QmvNvrW4jhJkmSDDJIkmV4/wwlG31J8CJtJJscMPojNjL6T8CNJkmSDDJIkmW4fMh4ejr+WTI5XYQ/j4QOSJMkGGyRJMt0+i8uNh8PwJMn4eyxeYzxchU9LkiQbbJAkyXRbjfcZD0twNLaVjK9tcCyWGg8fxkpJkmSDDZIkyQewyni4Fz6JzSTjZwb/G79hPKzFeyVJko0ySJIkP8InjY/d8D4skYyXd+LxxsencIkkSbJRBkmS5BeOMF4OwWsk4+MwvMh4easkSbLRBkmS5BfOxheNl9fhEMnoey7ebLycgTMkSZKNNkiSJLd6s/HzQRwoGV3PwIexxHg5UpIk2SSDJElyq8/jXONlwFF4hmT0PAnHYpnxci7+UZIk2SSDJElyq7V4pfGzDMfhOZLR8QycgM2Mn9dhjSRJskkGSZLktk7CWcbPMhyN35MsvoNwHJYZP9/A8ZIkySYbJEmSX/Uq42nAB/F6LJEsjsNxFJYZT6/CWkmSZJMNkiTJrzoFnze+XoOPYHPJwtkM78Mbja8v4yRJkmRODJIkye05DKuNr4PwVdxXMv9+A1/C/zC+1uKlkiTJnBkkSZLbcwHeb7w9Cv8X+0rmzxPwDexhvP0DzpUkSebMIEmSrMtrcbXxtjVOxDuwuWTubIa/xSnYxni7Bq+WJEnm1CBJkqzLT/FKk+FPcDZ2k2y6h+MsvBxLjL+/xE8kSZI5NUiSJHfkvTjTZHgwzsTbsKVkw22BN+HreJjJcDbeKUmSzLlBkiS5I2vwQqwyGQa8FN/G72CJZHYOxEV4BZaaDKvwB1gtSZLMuUGSJFmfC/Bmk+U++CjOxN6SddsdX8HHcV+T5S04X5IkmReDJEkyG6/HeSbPY3AqTsYekl/aDSfhTDzO5LkYr5ckSebNIEmSzMYKPB83m0xPxBk4DQdgkGm0BPvhVJyFp5hMN+N5uEmSJJk3gyRJMlsX4DUm2574R3wHh+O/yDS4F16Gi/EZ7G2yvQbnSJIk82qQJEk2xBE4xeS7H96IH+Kf8DzcRSbJXfAcfAqX4wg80OT7Io6QJEnm3YwkSbIh1uB5OBf3NvlmsD/2x034Ak7Eifi+jJvtsC/2xb7YwnT5VxyMNZIkybybkSRJNtRP8Fx8EYPpsTmejqe7xfdwOk7HmbgYK2VUzGAnPAZ7Yk880PRagwNxhSRJsiBmJEmSjfFlvBpvML3uh/vhYLdYhW/hW/gevo/LcBWWYzlulLmyObbGf8a9sB12wPZ4CB6EzeRWh+OLkiTJgpmRJEk21puwC54jvzCDXbCLO7YSN8jG2gKbyYb4JI6QJEkW1IwkSbKx1uL38QA8UmZrGe4uWRjn4fewVpIkWVCDJEmyKW7EAfixJKPmR9gf10qSJAtukCRJNtUVeBqukWRUXIf9cLkkSbIoBkmSZC6cg2dhpSSLbQ3+O86VJEkWzSBJksyVk3GwJItpDQ7GSZIkyaIaJEmSufRx/E9JFstLcLQkSbLoBkmSZK79HV4syUI7DH8nSZKMhEGSJJkP78ErJVkor8SRkiTJyJiRJEnmy5twM46UZD4dirdJkiQjZZAkSebTW/ECrJFkrq3Bi/A2SZJk5AySJMl8+wCei5WSzJVVOBh/L0mSjKRBkiRZCJ/AfrhGkk11DfbD0ZIkycgaJEmShfIF7IHLJNlYP8Re+LwkSTLSBkmSZCF9C4/B2ZJsqHOwOy6QJElG3iBJkiy0H+O/4SOSzNbH8Dj8SJIkGQuDJEmyGG7EIfgTrJRkXVbhpfgdXC9JkoyNQZIkWUzvwj64QpJfdRX2wTskSZKxM0iSJIvtNOyK4yW51QnYBV+VJEnG0iBJkoyC5fgtvBgrJNNrBf4Y++MnkiTJ2BokSZJR8h48DGdJps95eATejbWSJMlYGyRJklFzMfbEy7FCMvlW4FV4NL4lSZJMhEGSJBlFq/EWPAynSibXV7Ar3oCVkiTJxBgkSZJRdjH2wUH4sWRy/BR/iL3xbUmSZOIMkiTJODga/xVvxUrJ+FqJt+EBeD/WSpIkE2mQJEnGxTV4GXbCJyTj5zN4CA7F1ZIkyUQbJEmScXMJDsRu+JJk9H0Ze+Dp+I4kSTIVBkmSZFx9HU/A4/E5yeg5HU/A3viaJEkyVQZJkmTcfQX7Yg98Fmsli+sE7IO98CVJkmQqDZIkyaT4GvbHTngPbpAsnBX4AHbGfjhVkiSZaoMkSTJpvoMXY1schosk8+c7eAW2wwtwkSRJkv9vkCRJJtXPcCR2xl74EK6XbLqb8FE8ATvhzfiJJEmS2xgkSZJpcDp+H/fEc/Ep3CSZvZvxGRyEe+L5+BLWSpIkuR0zkiTJNLkRH8fHcTc8HfthX2wl+Y+uxsk4Hp/G1ZIkSWZpRpIkmVbX4GgcjaXYA0/DPngUlsq0WYPzcRJOxBlYJUmSZCPMSJIkYTVOw2lucRfsjr3xGDwSW8mkuR5n4XScjjNxjSRJkjkwI0mS5Nddh5Nxsl/aEY/ErtgZD8QDsUxG3Sr8ABfiPFyA8/E9rJYkSTIPZiRJkszOJbgEx/qlpdge22FbbIvtcE/cA1thK2yFJbgrBtlUK3CTW/wcy/FvWI7luAqX4VJciiuwWpIkyQL6fy3BzI7jkxSDAAAAAElFTkSuQmCC;" parent="1" vertex="1">
                    <mxGeometry x="637.98" y="208" width="53.04" height="60" as="geometry"/>
                </mxCell>
                <mxCell id="45" value="" style="rounded=0;whiteSpace=wrap;html=1;fontSize=14;fillColor=#99CCFF;strokeColor=#6c8ebf;verticalAlign=top;" parent="1" vertex="1">
                    <mxGeometry x="625" y="334" width="410" height="199" as="geometry"/>
                </mxCell>
                <mxCell id="46" value="専門領域Aについての質問に回答する&lt;br style=&quot;border-color: var(--border-color);&quot;&gt;&lt;br style=&quot;border-color: var(--border-color);&quot;&gt;■Input Params&lt;br&gt;・category&lt;br&gt;・messages: [ { role, content } ]&lt;br&gt;&lt;br&gt;■Output Params&lt;br&gt;・inference&lt;br&gt;・reference: [ { file_path, download_url } ]" style="text;html=1;strokeColor=none;fillColor=none;align=left;verticalAlign=top;whiteSpace=wrap;rounded=0;labelBackgroundColor=none;sketch=0;hachureGap=4;jiggle=2;curveFitting=1;fontFamily=Helvetica;fontSize=16;fontColor=#000000;" parent="1" vertex="1">
                    <mxGeometry x="712" y="341" width="306" height="131" as="geometry"/>
                </mxCell>
                <mxCell id="47" value="質問回答&#10;専門家B" style="shape=image;verticalLabelPosition=bottom;labelBackgroundColor=none;verticalAlign=top;aspect=fixed;imageAspect=0;image=data:image/png,iVBORw0KGgoAAAANSUhEUgAABJ0AAAU4CAYAAAAFFqauAAABU2lDQ1BBZG9iZSBSR0IgKDE5OTgpAAAoFa3Bv2sTUQDA8e87pZUOMcJRHDq8qShUTJoOvfEuCaEgGK8Z3ntb7gdpCckd715i+0d07JbBxd2/wMmx4KD4F/gfKE4ZGi6bnQQ/H/BaYS/qe02YzZ2NB5FU2sjdr+zwiNo4rcpwOHzDxryY5zzw5weCjW+vwl7U59/spaV1wBo4zvIqBdECpu9d6UCsAD+Zlg7EJ8C3o7gL4gvQmIziLojvQCMZxV0QP4GGVdqA+A34E6UNeE8AP1HagHcA+C6/cmx0i/LaXk4unGwHQSDDrEhyeX5duXxWybN5WtiysGOXZ0CWVylbz8KsSHIZDyL5oh0Epy/5z5Q2ktqvdwhA7N8pbSR/SRd2yZbwOpAu7JIt4XUgXdglW8LrgNJGUls9h7cf4fFaaSOpndzAhyN4equ0kdQO29B8DZ9X98DGT/0wYTt4AAAACXBIWXMAAC4jAAAuIwF4pT92AAAOgmlUWHRYTUw6Y29tLmFkb2JlLnhtcAAAAAAAPD94cGFja2V0IGJlZ2luPSLvu78iIGlkPSJXNU0wTXBDZWhpSHpyZVN6TlRjemtjOWQiPz4gPHg6eG1wbWV0YSB4bWxuczp4PSJhZG9iZTpuczptZXRhLyIgeDp4bXB0az0iQWRvYmUgWE1QIENvcmUgNS42LWMxNDUgNzkuMTYzNDk5LCAyMDE4LzA4LzEzLTE2OjQwOjIyICAgICAgICAiPiA8cmRmOlJERiB4bWxuczpyZGY9Imh0dHA6Ly93d3cudzMub3JnLzE5OTkvMDIvMjItcmRmLXN5bnRheC1ucyMiPiA8cmRmOkRlc2NyaXB0aW9uIHJkZjphYm91dD0iIiB4bWxuczp4bXA9Imh0dHA6Ly9ucy5hZG9iZS5jb20veGFwLzEuMC8iIHhtbG5zOnhtcFRQZz0iaHR0cDovL25zLmFkb2JlLmNvbS94YXAvMS4wL3QvcGcvIiB4bWxuczpzdERpbT0iaHR0cDovL25zLmFkb2JlLmNvbS94YXAvMS4wL3NUeXBlL0RpbWVuc2lvbnMjIiB4bWxuczp4bXBHPSJodHRwOi8vbnMuYWRvYmUuY29tL3hhcC8xLjAvZy8iIHhtbG5zOmRjPSJodHRwOi8vcHVybC5vcmcvZGMvZWxlbWVudHMvMS4xLyIgeG1sbnM6eG1wTU09Imh0dHA6Ly9ucy5hZG9iZS5jb20veGFwLzEuMC9tbS8iIHhtbG5zOnN0RXZ0PSJodHRwOi8vbnMuYWRvYmUuY29tL3hhcC8xLjAvc1R5cGUvUmVzb3VyY2VFdmVudCMiIHhtbG5zOnN0UmVmPSJodHRwOi8vbnMuYWRvYmUuY29tL3hhcC8xLjAvc1R5cGUvUmVzb3VyY2VSZWYjIiB4bWxuczpwZGY9Imh0dHA6Ly9ucy5hZG9iZS5jb20vcGRmLzEuMy8iIHhtbG5zOnBkZnhpZD0iaHR0cDovL3d3dy5ucGVzLm9yZy9wZGZ4L25zL2lkLyIgeG1sbnM6cGRmeD0iaHR0cDovL25zLmFkb2JlLmNvbS9wZGZ4LzEuMy8iIHhtbG5zOnBob3Rvc2hvcD0iaHR0cDovL25zLmFkb2JlLmNvbS9waG90b3Nob3AvMS4wLyIgeG1sbnM6dGlmZj0iaHR0cDovL25zLmFkb2JlLmNvbS90aWZmLzEuMC8iIHhtbG5zOmV4aWY9Imh0dHA6Ly9ucy5hZG9iZS5jb20vZXhpZi8xLjAvIiB4bXA6Q3JlYXRvclRvb2w9IkFkb2JlIFBob3Rvc2hvcCBDQyAyMDE3IChNYWNpbnRvc2gpIiB4bXA6Q3JlYXRlRGF0ZT0iMjAxNy0wOS0xOVQxMzozNjoyNCswMjowMCIgeG1wOk1vZGlmeURhdGU9IjIwMTktMDQtMThUMTE6MzU6MTArMDU6MzAiIHhtcDpNZXRhZGF0YURhdGU9IjIwMTktMDQtMThUMTE6MzU6MTArMDU6MzAiIHhtcFRQZzpOUGFnZXM9IjEiIHhtcFRQZzpIYXNWaXNpYmxlVHJhbnNwYXJlbmN5PSJGYWxzZSIgeG1wVFBnOkhhc1Zpc2libGVPdmVycHJpbnQ9IkZhbHNlIiBkYzpmb3JtYXQ9ImltYWdlL3BuZyIgeG1wTU06UmVuZGl0aW9uQ2xhc3M9InByb29mOnBkZiIgeG1wTU06VmVyc2lvbklEPSIxIiB4bXBNTTpEb2N1bWVudElEPSJhZG9iZTpkb2NpZDpwaG90b3Nob3A6NDBiMjZiMmYtZGRiZC0xMTdhLTljNmUtZjlkNjFkZmE2MzUyIiB4bXBNTTpJbnN0YW5jZUlEPSJ4bXAuaWlkOjNjMTllOWNlLWZkMGUtZGE0MS05ZmIwLWE5MjRiMTg1MWE1NiIgeG1wTU06T3JpZ2luYWxEb2N1bWVudElEPSJ1dWlkOmEzZDlmZDBkLTlhODEtYTM0ZS1iMjA0LTRlYWNmYzAxZTM1MiIgcGRmOlByb2R1Y2VyPSJBZG9iZSBQREYgbGlicmFyeSAxNS4wMCIgcGRmOlRyYXBwZWQ9IkZhbHNlIiBwZGZ4aWQ6R1RTX1BERlhWZXJzaW9uPSJQREYvWC00IiBwZGZ4OkdUU19QREZYVmVyc2lvbj0iUERGL1gtNCIgcGhvdG9zaG9wOkNvbG9yTW9kZT0iMyIgcGhvdG9zaG9wOklDQ1Byb2ZpbGU9IkFkb2JlIFJHQiAoMTk5OCkiIHRpZmY6T3JpZW50YXRpb249IjEiIHRpZmY6WFJlc29sdXRpb249IjMwMDAwMDAvMTAwMDAiIHRpZmY6WVJlc29sdXRpb249IjMwMDAwMDAvMTAwMDAiIHRpZmY6UmVzb2x1dGlvblVuaXQ9IjIiIGV4aWY6Q29sb3JTcGFjZT0iNjU1MzUiIGV4aWY6UGl4ZWxYRGltZW5zaW9uPSIxMTgxIiBleGlmOlBpeGVsWURpbWVuc2lvbj0iMTMzNiI+IDx4bXBUUGc6TWF4UGFnZVNpemUgc3REaW06dz0iNi41OTY5NDQiIHN0RGltOmg9IjcuNDYxMjUwIiBzdERpbTp1bml0PSJDZW50aW1ldGVycyIvPiA8eG1wVFBnOlBsYXRlTmFtZXM+IDxyZGY6U2VxPiA8cmRmOmxpPkN5YW48L3JkZjpsaT4gPHJkZjpsaT5NYWdlbnRhPC9yZGY6bGk+IDxyZGY6bGk+WWVsbG93PC9yZGY6bGk+IDxyZGY6bGk+QmxhY2s8L3JkZjpsaT4gPC9yZGY6U2VxPiA8L3htcFRQZzpQbGF0ZU5hbWVzPiA8eG1wVFBnOlN3YXRjaEdyb3Vwcz4gPHJkZjpTZXE+IDxyZGY6bGkgeG1wRzpncm91cE5hbWU9IkdydXBvIGRlIG11ZXN0cmFzIHBvciBkZWZlY3RvIiB4bXBHOmdyb3VwVHlwZT0iMCIvPiA8L3JkZjpTZXE+IDwveG1wVFBnOlN3YXRjaEdyb3Vwcz4gPGRjOnRpdGxlPiA8cmRmOkFsdD4gPHJkZjpsaSB4bWw6bGFuZz0ieC1kZWZhdWx0Ij5pY29uc19wcm9kdWN0cyBwaWxsYXJzPC9yZGY6bGk+IDwvcmRmOkFsdD4gPC9kYzp0aXRsZT4gPHhtcE1NOkhpc3Rvcnk+IDxyZGY6U2VxPiA8cmRmOmxpIHN0RXZ0OmFjdGlvbj0iY29udmVydGVkIiBzdEV2dDpwYXJhbWV0ZXJzPSJmcm9tIGFwcGxpY2F0aW9uL3BkZiB0byBhcHBsaWNhdGlvbi92bmQuYWRvYmUucGhvdG9zaG9wIi8+IDxyZGY6bGkgc3RFdnQ6YWN0aW9uPSJzYXZlZCIgc3RFdnQ6aW5zdGFuY2VJRD0ieG1wLmlpZDo4Yjk2ZDA1My02ZTA0LTQyOWMtODIwYS1iMGU2MDhkZTRlNmMiIHN0RXZ0OndoZW49IjIwMTctMDktMTlUMTM6Mzc6NTMrMDI6MDAiIHN0RXZ0OnNvZnR3YXJlQWdlbnQ9IkFkb2JlIFBob3Rvc2hvcCBDQyAyMDE3IChNYWNpbnRvc2gpIiBzdEV2dDpjaGFuZ2VkPSIvIi8+IDxyZGY6bGkgc3RFdnQ6YWN0aW9uPSJjb252ZXJ0ZWQiIHN0RXZ0OnBhcmFtZXRlcnM9ImZyb20gYXBwbGljYXRpb24vcGRmIHRvIGltYWdlL3BuZyIvPiA8cmRmOmxpIHN0RXZ0OmFjdGlvbj0iZGVyaXZlZCIgc3RFdnQ6cGFyYW1ldGVycz0iY29udmVydGVkIGZyb20gYXBwbGljYXRpb24vdm5kLmFkb2JlLnBob3Rvc2hvcCB0byBpbWFnZS9wbmciLz4gPHJkZjpsaSBzdEV2dDphY3Rpb249InNhdmVkIiBzdEV2dDppbnN0YW5jZUlEPSJ4bXAuaWlkOmMwODgzNTZjLTUyMWUtNDg2Zi1hY2JhLTY2NzY3NGNhYmM0MiIgc3RFdnQ6d2hlbj0iMjAxNy0wOS0xOVQxMzozNzo1MyswMjowMCIgc3RFdnQ6c29mdHdhcmVBZ2VudD0iQWRvYmUgUGhvdG9zaG9wIENDIDIwMTcgKE1hY2ludG9zaCkiIHN0RXZ0OmNoYW5nZWQ9Ii8iLz4gPHJkZjpsaSBzdEV2dDphY3Rpb249InNhdmVkIiBzdEV2dDppbnN0YW5jZUlEPSJ4bXAuaWlkOjNjMTllOWNlLWZkMGUtZGE0MS05ZmIwLWE5MjRiMTg1MWE1NiIgc3RFdnQ6d2hlbj0iMjAxOS0wNC0xOFQxMTozNToxMCswNTozMCIgc3RFdnQ6c29mdHdhcmVBZ2VudD0iQWRvYmUgUGhvdG9zaG9wIENDIDIwMTkgKFdpbmRvd3MpIiBzdEV2dDpjaGFuZ2VkPSIvIi8+IDwvcmRmOlNlcT4gPC94bXBNTTpIaXN0b3J5PiA8eG1wTU06RGVyaXZlZEZyb20gc3RSZWY6aW5zdGFuY2VJRD0ieG1wLmlpZDo4Yjk2ZDA1My02ZTA0LTQyOWMtODIwYS1iMGU2MDhkZTRlNmMiIHN0UmVmOmRvY3VtZW50SUQ9InhtcC5kaWQ6OGI5NmQwNTMtNmUwNC00MjljLTgyMGEtYjBlNjA4ZGU0ZTZjIiBzdFJlZjpvcmlnaW5hbERvY3VtZW50SUQ9InV1aWQ6YTNkOWZkMGQtOWE4MS1hMzRlLWIyMDQtNGVhY2ZjMDFlMzUyIiBzdFJlZjp2ZXJzaW9uSUQ9IjEiIHN0UmVmOnJlbmRpdGlvbkNsYXNzPSJwcm9vZjpwZGYiLz4gPC9yZGY6RGVzY3JpcHRpb24+IDwvcmRmOlJERj4gPC94OnhtcG1ldGE+IDw/eHBhY2tldCBlbmQ9InIiPz4v4W/MAACciklEQVR4AezBB+D/hYD4/8f39f20U2lQSSmldEVZlWRvkb3D4XD2WXfOPO5scc6IO3uLs3J2Qigrq6wkkdCgtMf3+/85f2c1vuPz+Xxf7/f7+Xgs2frAt0iSJBmhTbARNsJG2AgbYSNsiPWxNjbEHDbCgE0wYCOshQ2wDtbzRxtjiT+3Fta34s7w1y7AOf7oDCzDGbgYv8WFOBvn41yci/NxNi7AGTgDZ+JMnIkzcSbOliRJ1oiT3nKgrJw5SZIkC2d9bIEtsBk2wxbYApthM2yCjbARNsJGuILx29jiW4YzcQbOwJk4E7/BqTgFp+I0nIpTcBpOxYWSJEkW0ZwkSZKVsxG2xtbYEttgS2yFzbE5tsBmWFfm04BNsImVdyZOwWk4Fb/CL3ASfoGTcDJOxvmSJElW05wkSZLfm8PWuBq2wTbYEltja2yJbbCeTKKNsBGu7vKdhl/gJJyMk3ESTsZP8BOcIkmS5DLMSZIks2JtbIttcTVcDdthO1wN22CphM2wGf7GpTsXJ+AE/AQ/wQk4AT/BL7BckiSZWXOSJMk02Rg7YmfshB2xA7bD1lgimR/r4Zq4pkt2AX6CE3A8fogf4Ic4HhdIkiRTbU6SJJk0G2BH7ISdsSN2xC7YXDIOa2Mn7OSvLcNP8AP8EMfh+/ghfoKLJEmSiTcnSZKM1abYDbtiV+yGnbG1ZLIN2B7b4zb+3EU4Ht/FMTgWx+B7OE+SJJkYc5IkyZq2Cf4Gu2I37I5dcWXJ7JnDNXANHOCPluF4fAffxrE4Ft/DBZIkyejMSZIki2UOO+M62BO7Y1dsLcnlGbAjdsSd/dHFOA7H4hs4GkfjZ5IkyRo1J0mSLIT1cG3sgT2xJ3bHupLMp6XYGTvjLv7oVHwDX8fR+AZ+gGWSJMmimJMkSVbXFXEd7Ik9sQd2wSDJmrI5bolb+qNz8E0cjaNxNL6FCyVJknk3J0mSrIy1sAdugL1xA1xDkkmwPvbBPv7ofByNo3AUvowfSZIkq21OkiS5LFfHDbAX9sKeWEeSabEO9sbe/ug0fBlH4Sh8GadLkiQrZU6SJPmDDbAP9sHeuAE2l2TWbIbb4Xb+6If4Mr6EL+BbWCZJklyqOUmSzK4tsC9uhP1wXSyVJH9tJ+yE+/m9M/FFfA6fx1dxniRJ8n/mJEkyO66G/XAj3Bi7SJJVsxFui9v6vfPxFRyBz+GLOEOSJDNsTpIk02tn3Aw3wX64iiRZGOvgRrgR/gnL8G0cgcPxGZwmSZIZMidJkumxDW6Bm+MWuIokWTMGXBvXxqOwHN/Ep/FpfB5nSZJkis1JkmRybYqb4+a4Ba4hScZpCfbAHngiLsSX8SkchiNxgSRJpsicJEkmx/q4MW6Jm2MPLJEkk2ct7It98Syci8/h0zgMR2OZJEkm2JwkScZtZ9wOt8NNsI4kmT7r4Ta4jd87BR/DR/EJnCZJkgkzJ0mScdkAN8dtcHtsL0lmzxY4EAdiGb6Mj+J/8HUskyTJyM1JkmTNuyZuh9tjP6wtSfIHA/bG3vgXnIJP4GP4GE6VJMkIzUmSZPGtg5viANwe20mSrKgtcD/cD8vxFRyKD+JbkiQZiTlJkiyOTXB7HIDbYiNJktW1BDfADfAcnIAP4gP4PC6WJMkaMidJkoWzLe6EA3BTzEmSLKSr4XF4HH6NQ/EhfAxnSZJkEc1JkmR+7YEDcGfsIUmyplwRB+JAnI9P44P4ME6WJMkCm5MkyepZgr1wD9wd20qSjM06uD1uj4PxZRyCQ3CiJEkWwJwkSVbeEuyFe+AeuKokyaRYgr2wF16Co3AIDsGJkiSZJ3OSJFkxS7AX7oF74KqSJNNgL+yFl+AoHIJDcKIkSVbDnCRJLt0S7IV74B64qiTJNNsLe+ElOAqH4BCcKEmSlTQnSZK/tisOxH2xrSTJLNoLe+El+CLehvfgNEmSrIA5SZL83ta4L+6HPSRJ8kc3xA3xCnwUb8OHca4kSS7FnCTJLNsId8X9cAsskSTJpZvDHXFHnIn/xttxGJZJkuRPzEmSzJq1cFvcH3fCupIkWXkb4UF4EH6Od+Dt+IYkSf6fQZJkVlwPr8bJ+BDuiXUlSbL6tsaTcDSOwVOwpSTJTBskSabZ5ngcvoWv4O+xmSSX5wycgTNwBs7AGThXksuzK16In+HDuAvWkiSZOXOSJNNmKW6Nh+BOWEsymc7FmTgTZ+JMnIkzcCbOxDk4G+fjXJyL83E2LsRZuAhnYhl+48+djQutvg2wlj9aCxtgHayH9bAONsBa2BBz2AgDNsH62AgbYSNcARtjY2yEjTAnmRxLsT/2x6/wVrwBx0qSzIQ5SZJpsSMehAfhKpLxOAen4hSchtNwGn6F03AaTsOp+A3OwG9xkclxtr92ivm3HjbCFbApNsNm2AKbYzNshs2xBTbDZlhLsmZdCU/EE3EUXo9340xJkqk1J0kyydbH3fEQ3FiyeC7Gr3ASfomTcDJOxkn4BU7GaThP5su5OBe/tHKugCvjStgGW2JrbI0tsQ2ujE0lC28v7IWX4714Az6H5ZIkU2VOkmQS7Yq/xwOwkWR+LcPP8RP8BD/BT/BT/AI/x6+wTCbFb/FbHOeyrYOtsBWugm1wNWyLq2E7bCqZH+vjAXgAfoCD8WacLkkyFeYkSSbF2rgrHoGbSFbdxfgJfowTcQJOxAn4CX6GC2UWnY8TcIJLtyG2w3bYDtvhatgO2+PKkpV3DRyE5+HdeDW+LEky0eYkScbuangYHootJCtmGU7EcfgejsNx+AFOwIWSVXMWjsExLtkVsCN2xC7YETviGthcctnWxQPxQByN1+AdOFuSZOLMSZKM0YA74BG4HZZILtmpOAbH4oc4Dj/E8bhAsvh+i6NxtL+2MXbETtgJO2E37IL1JH9uT7wOL8WbcTCOkSSZGHOSJGNyJfwdHoZtJX90Ko7BMTgWx+AYnCKZHGfga/iaPzfgatgNu2JX7IZdsJ7Muivg0Xg0Po/X4H24QJJk1OYkScZgDzwO98XaMsvOwrfwTRyDY3AMTpFMr2U4HsfjQ/5owNWwG3bFbtgTO2OpzKL9sB9+jtfgtThFkmSU5iRJ1pQBB+BxuInMol/gGzga38A3cByWSfI7y3A8jseH/NF62A17Yg/sgWtjfZkVW+O5eDrejpfj25IkozInSbLYNsZD8BhcTWbFD3E0jsY38A38QpJVcS6+gq/4owE7YU/sgT1wXWwu02wdPBgPxmfwchyKZZIka9ycJMli2QmPxYOwoUyzX+LLOApfwZfxG0kW0jJ8H9/Hu/zR9rgBro+9sSfWl2l0M9wMx+MVeCPOlCRZY+YkSRbaLfF43B5LZNqcja/hy/gyjsKJkozFj/FjvNvvzWE33AA3wF7YFYNMix3wcjwXb8ArcLwkyaJbsvWBb5EkmXdzuBv+EXvKNDkeR+AIHIljcbEkk2wDXA/74Ea4Ia4o0+JivA8vwtckySo66S0HysqZkySZT+vhwXgitpdJtwzfwBE4AkfgZEmmzdn4LD7r9wbsihthP9wI28qkWop74p74NF6IT0qSLLg5SZL5sBkehcdiM5lU5+AoHIEj8EWcJcmsWYbv4Ds42O9dFftiP9wIu2OJTJpb4BY4Gi/GIbhIkmRBLNn6wLdIkqyy7fBEPBgbyKQ5H0fgcHwKX8VFkuTybYyb4Oa4OXaXSXQCXorX41xJchlOesuBsnLmJElWxbXxFNwLS2VSXIwjcTg+hSNxniRZeWfgQ/iQ39sCN8PNcQvsKJPgavgPPBuvwKtxqiTJvFiy9YFvkSRZYXvjadhfJsFyHI3P4NP4PM6SJAtvG9wCN8MtsI1MgrPxGhyEkyXJnzjpLQfKylmy9YFvkSS5XDfEM3EbGbuT8XF8DJ/E6ZJkzdsJt8NtcVOsJ2N2Hl6LF+JkSfL/nPSWA2XlzEmSXJab4tm4iYzVhfgiPoqP4VtYLknG5Yf4IV6BdXFj3Ba3wy4yNuvicfh7vBHPw4mSJCtlydYHvkWS5K/cFk/FjWWMfoKP4uP4NH4rSSbXtrgdboNb4goyNhfijXgxjpNkJp30lgNl5QySJH+wBLfFkfgobixjsQyfxROxC66Gv8cH8FtJMtlOxGtxV2yGm+Il+KGMxVp4GL6HN2FHSZLLNUiS/M6d8HV8FHvJGJyF9+IB2AI3xUH4viSZXhfis3gyroFd8I/4ApbJmrYUD8T38S7sJElyqQZJMttugSPxQewha9rP8BrcFpvjHngrTpcks+n7eBFuhC3xt/gAzpE1acC98F28CdtKkvyVQZLMpn1wOD6FvWRN+gb+BdfFtngkPo7zJUn+1Cl4E+6CzbA//hMny5qyFA/EcXgVtpIk+T9zkmS27Inn4bayJn0dh+AQ/EiSZGWdh4/gIxiwL+6Ju2ErWWxr4ZF4MF6JF+JUSTLjBkkyG3bF+/B13FbWhKPwJFwd18UL8CNJktW1DJ/HY7ANboyX46ey2NbFk3AC/gWbSJIZNkiS6bYj3oLv4K6y2I7Ck7Ad9sZLcbwkyUJZhs/jH7Ad9sFB+Kkspg3wTPwY/4QNJckMGiTJdLoyXoPv4UAskcVyFB6HbbE3XooTJUkW23IciSdiO+yDl+IkWSyb4Pk4Do/CnCSZIYMkmS4b4pn4ER6BpbIYvo9nYSfsjVfgp5IkY7EcR+JJ2BY3w3/hN7IYroxX4ljcVZLMiEGSTIc5PAw/xL9gA1loJ+NluD52wXNwnCTJ2C3D4fg7bIm74r04TxbaTngfvoB9JcmUGyTJ5LsTvo3XYktZSGfijbgVroon4KuSJJPqfLwf98CWeDA+hWWykG6II/DfuIYkmVKDJJlce+Hz+CB2kYVyMQ7FPXBlPBifwsWSJNPkDLwRt8JV8UR8WxbSXXAsXoUrS5IpM0iSybMjDsGRuJEslO/iKdgGd8R7cZ4kySz4OQ7CtXA9vAq/loWwFI/Ej/AMbCBJpsQgSSbHJjgIx+LushDOxGuxD3bFi/ELSZJZ9jU8GlvhXvg4lsl82wDPwQ/xQCyRJBNukCTjtxQPxw/wD1hL5tNyfBr3x5Z4BI6UJMmfOx/vwW2xHZ6G42S+bYU34SjsLUkm2CBJxu2m+BoOxhYyn07Es7A9bom341xJkly+n+F5uAb2wxtxrsyn6+NLeBuuIkkm0CBJxml7HILP4NoyX5bhUNwJ2+M5+IkkSVbNchyBB2NrPBbHyHy6H36AZ2A9STJBBkkyLhvg33As7i7z5WT8K7bHHfFhLJMkyfz5Df4Du+HGeBvOl/mwPp6D7+KekmRCDJJkHJbgQPwA/4x1ZXUtxydxN2yLZ+BESZIsvM/jQGyDJ+GHMh+2w7vxOewhSUZukCRr3p74It6CrWV1nYIXY0fcGv+NiyRJsvhOxUuxM26JQ3ChrK798HUcjE0lyUgNkmTN2Rj/ga9ib1ldX8eDcFU8BcdLkmQcluPTuCe2w3PwK1kdS/BwfB8PxhJJMjKDJFl8S3A//ACPxiCr6mK8B/viungzzpckyXidjGdhWzwIX5fVsTlejyNwbUkyIoMkWVy74jN4G64kq+pUPB9Xw73wRUmSTJbz8WZcF/viPbhYVtUN8TUchI0kyQgMkmRxbIAX4Zu4iayqb+GhuCr+GT+TJMnk+yLuhavh+ThVVsVS/AO+h3tLkjVskCQL7274Hp6MOVlZy/EB3BTXxutxniRJps/P8M+4Kh6KY2RVbIV34lPYRZKsIYMkWTg74GN4L7aRlXUe/hO74C74rCRJZsN5eD12xx3wGVkVt8C38G9YV5IsskGSzL85PAnfwW1kZZ2Of8N2eBh+IEmS2bQc/4Ob4/o4BBfLylgL/4xv4+aSZBENkmR+XQdH4cVYT1bGCXgstsPT8StJkuQPvop7Yie8CufIytgRn8brcUVJsggGSTI/1scL8WVcR1bG13Af7IT/wFmSJMml+TEejW3xTJwiK+PB+C7uKUkW2CBJVt8t8G08BUtlRX0at8T18C5cJEmSrKjT8Fxsh7/HT2RFXRnvxodwVUmyQAZJsuo2wxvxKewgK+p/sA9uiU9LkiSr41wcjB3xt/ihrKg74hg8CoMkmWeDJFk198axeJCsiOV4H66DO+BISZJkPl2EN2EX3AffkRVxBbwSR2BXSTKPBkmycrbEh/FOXEkuz8V4B3bD3XG0JEmykJbhXbgW7oKvyYrYB0fjaZiTJPNgkCQr7n44BvvL5bkQb8AuuB+OlSRJFtNyfADXw+3wRbk8a+NfcSR2kySraZAkl29LfABvw6ZyWS7Ea7EjHoLjJEmSNe1j2Bc3w2fl8lwXX8PTsFSSrKJBkly2e+IYHCCX5WK8GTviEThRkiQZm8NxU9waR8llWRv/ii9gF0myCgZJcsm2wCF4NzaVS7Mcb8MueBBOlCRJxu6T2Bu3xzfksuyFb+DJWCpJVsIgSf7aPXAs7i6XZjnejd1wII6TJEkmzUdxHdwF35ZLsw5ehC9gZ0myggZJ8keb4V14DzaXS/NBXBf3xrGSJMkkW44PYA/cB9+VS7MXjsbjMUiSyzFIkt+7Lb6De8ml+QSujzvjaEmSZJosw7uwO/4WP5ZLsh5ehsNwVUlyGQZJZt26eAU+ii3lknwNt8Bt8FVJkmSaXYw3YRc8DqfJJbkJvo17S5JLMUgyy/bA1/EYuSQ/wr1xfRwmSZLMkgvwCuyAf8M58pc2xjvxdmwsSf7CIMksGvBkHIVryl86BY/Brng3lkuSJLPqTDwdO+J1uFj+0n3xLdxYkvyJQZJZsw0+hRdhbflTZ+O52AGvxAWSJEl+72Q8HH+D98tf2hafwfOxliT5fwZJZsm98G3cTP7UxXg1dsQzcZYkSZJL9n3cFTfEEfKnBvwTjsTOksy8QZJZsBHeindhE/lTH8bf4FH4hSRJkhXzJeyHu+BH8qeug6PxCCyRZGYNkky76+No3F/+1Hdwa9wJ35ckSbJqPoBd8RScKX+wHl6D/8YVJZlJgyTTagn+AV/ADvIHp+KR2BOflCRJsvouwIuxE16HZfIHd8Y3sY8kM2eQZBptig/hIKwlv3MhXoad8BpcJEmSZH79Cg/HHviU/MFV8Tn8E5ZIMjMGSabNjfAt7C9/8GHshifgN5IkSRbWt3ErHIAfyu/M4fn4GK4kyUwYJJkWA56Ow3EV+Z1jcEvcCT+QJEmyuD6E3fBEnCm/c2t8AzeXZOoNkkyDLfFxPBdL5bd4IvbApyVJkqw5F+AgXANvld/ZCp/Ev2CpJFNrkGTS3QrfwC3ld96BnXEQLpIkSTIOv8QDsB++JQOeicOwtSRTaZBkUg34F3wcV5ZjcFPcDydLkiQZpyNwXTwOZ8qN8U3cUpKpM0gyiTbF/+CZWGK2/RZPxB74rCRJkvG7CK/ANfBW2Rwfxz9jiSRTY5Bk0lwPX8dt5B3YGQfhIkmSJJPll3gA9sO3zLYB/4YP4oqSTIVBkknyUByB7cy27+KmuB9OliRJMtmOwHXxeJxltt0RX8W1JZl4gySTYD28Ef+Jdcyu8/Es7IHPSpIkmR4X4d+xKz5stu2AI/FASSbaIMnY7YAv4kFm2+dwbTwHF0iSJJlOP8WdcHecbHatizfhYKwjyUQaJBmzO+Br2MPs+jUeipvi+5IkSWbD+3BNHIzlZtfD8XlsK8nEGSQZoyV4Dg7FJmbXu3BNvB7LJUmSzJYz8Pe4EY41u66Pr+MWkkyUQZKxuQI+gGeYXT/B7XAf/FKSJMls+yL2wDNxvtm0GT6Bx0syMQZJxuTqOBJ3MpuW4SDsio9JkiTJH1yI5+Ja+KzZNOBleCPWkWT0BknG4pb4CnY1m76PffFEnCNJkiSX5Ae4GR6Ns82mB+Gz2EqSURskGYPH4+O4otmzDC/BHjhSkiRJLs9yvAq743CzaS98FTeQZLQGSdakdfBGvAyD2XMM9sWTcZ4kSZKsjB/j5ng0zjZ7tsbncKAkozRIsqZshc/iQWbPxXgerosjJUmSZFUtx6uwOw43e9bBW/ASLJVkVAZJ1oQb4KvYy+w5BnvjaThfkiRJ5sOPcXM8DL81e56I/8EVJRmNQZLFdm98DlubLRfjebguvipJkiTzbTn+E7vhk2bPrXEkdpRkFAZJFtPT8E6sY7Ych33xNJwvSZIkC+lE3AaPxXlmyzVwJPaTZI0bJFkMa+NN+Fez53XYE0dJkiTJYlmO/8B18HWzZTN8GveXZI0aJFlom+KTeKDZ8ivcEQ/HWZIkSbImfBd743lYZnashbfi2VgiyRoxSLKQdsSXcGOz5YPYDYdKkiTJmnYhnob9cLzZ8iy8DetIsugGSRbKjXAkrmF2nI2H4s44RZIkScbki7g23mC23BefxuaSLKpBkoVwfxyGzcyOL+JaeL0kSZKM1Vl4CA7AqWbHvjgSO0uyaAZJ5tMSPBtvxVpmwzI8EzfG8ZIkSTIJPoTd8Amz4+r4Em4iyaIYJJkva+MNeJbZ8TPcBM/FxZIkSTJJfonb4im4yGy4Ij6J+0qy4AZJ5sMV8GE8yOz4IK6NIyRJkmRSLceLsS+ONxvWwtvxZEkW1CDJ6toKn8WtzYbz8WjcGadLkiTJNPgyroN3mx0vwn9gqSQLYpBkdeyCL2FPs+H72AuvkiRJkmlzBu6Nh+Ics+HReA/Wk2TeDZKsqr1xBLYzG96A6+KbkiRJMs1ej+vh22bDXfEJbCzJvBokWRW3w2HYzPQ7C/fFQ3C2JEmSzILv4gZ4jdlwIxyBq0gybwZJVtYD8SGsZ/p9B9fBOyVJkmTWnIdH4t44y/TbDV/EzpLMi0GSlfFEvAlzpt9bsBd+KEmSJLPs3bg+jjX9tsURuIEkq22QZEUswYvwEtPvfDwcD8Q5kiRJEr6HG+Adpt/mOAy3kGS1DJJcnqV4LZ5s+v0YN8TrJEmSJH/ubNwPj8IFptsG+CjuKskqGyS5LGvjnfg70+/DuC6+LkmSJLl0r8Z++InpthYOwYMlWSWDJJdmfXwY9zDdluGfcQB+LUmSJLl8X8Z18FHTbcDr8URJVtogySXZGJ/CrU23X+GWeD6WS5IkSVbc6bgDnonlpttL8FxJVsogyV/aAp/GPqbb13A9fEaSJEmyapbjubgTzjDdno6DsESSFTJI8qe2xmG4run2NuyHn0qSJElW36G4Ab5vuv0DDsZSSS7XIMkfbIvPYTfTaxmegANxriRJkmT+/AA3wIdNt4fhLVgqyWUaJPmdHfFFXN30Oh23xsskSZIkC+NMHIB/Nd3ui/djbUku1SDJjjgcVzG9vo3r4dOSJEmShbUcz8BdcZbpdUe8F2tLcokGyWzbHV/AVUyv92Af/FiSJEmyeN6PffAj0+uO+BDWl+SvDJLZtTsOw5VMr6fh3jhbkiRJsvi+g+vjk6bXbXAo1pfkzwyS2bQ7DsPmptO5uCueh+WSJEmSNefXuB1eY3rdDIdifUn+zyCZPbvjMGxuOp2MG+H9kiRJknG4GI/E47DMdLoZDsX6kvyvQTJbdsdh2Nx0OhrXx9clSZIk4/MK7I/fmk43w6FYXxKDZHbsjsOwuen0QeyHkyRJkiTj9VHcED8xnW6GQ7G+ZMYNktmwOw7D5qbTi3FXnC1JkiQZv+9gLxxpOt0Mh2J9yQwbJNNvdxyGzU2fC/EQPAXLJEmSJJPjl7gZ3mU63QyHYn3JjBok0213HIbNTZ9f49Z4gyRJkmQynYf74jmm081wKNaRzKBBMr12xMewuelzIvbF4ZIkSZLJthzPwoNxkelzMxyCtSUzZpBMpx1xOLY2fb6BffBdSZIkyfR4I+6Is0yfO+K9WFsyQwbJ9NkGn8JVTJ9P4ib4uSRJkmT6fAw3wS9NnzviTVgqmRGDZLpcCYdjO9PnrdgfZ0qSJEmm19exD35g+twH/4klkhkwSKbHFvg0rm76PA8PxAWSJEmS6fdj7Isvmj5/i1dKZsAgmQ4b41DsZroswyPxNCyXJEmSzI5TcSu83/R5JF4gmXKDZPKtjw/hBqbLubgbXiNJkiSZTefgHni16fOPeKpkis1JJtvaeA9ubLqcidvhi5Iks2wH7IJtsCGW4rf4Bb6PH+BiSTLdLsaj8As8x3R5Hn6NgyVTaE4yuQa8EXcwXX6FW+FbkiSzZg63xv1wC1zZZfsNDscheD/OlSTT67k4Ha80XV6F3+BdkikzSCbXK3Ff0+UE7ItvSZLMknXwGByPj+C+uLLLtwnujLfjJDwbG0uS6fUq3B8Xmh4D3oLbS6bMIJlMz8Hfmy7HYD8cJ0kyS26Bb+MVuKpVd0U8Cz/A/SXJ9Ho77opzTY+18F7sK5kig2TyPAbPMF2+jJvhZ5Iks2IpXoBPYSfz50p4K96GDSXJdDoUt8WZpsd6OBS7SabEIJks98TLTZfP4JY4RZJkVqyP9+EfLZz74TPYQpJMp8/hZjjV9NgEH8O2kikwSCbHLfE2DKbHB3Bb/FaSZFasjf/GARbe9XAYrihJptPXsS9+ZnpcBZ/AFpIJN0gmw3Xw31jL9Hgb7o4LJElmyWtxG4tnN3wIa0mS6fQD7IMfmR4748NYXzLBBsn4bY//wRVMj4PxAFwsSTJLHoIHWXw3wr9Kkun1M+yH75gee+E9WCqZUINk3DbHx3Bl0+NgPBLLJUlmyVZ4mTXnybi+JJleJ+Pm+I7pcQccLJlQg2S81seHcA3T4yA8EsslSWbNC3AFa84S/IckmW6n4OY42vR4KJ4lmUCDZJyW4u3Yx/R4IZ6I5ZIks2ZH3M+atxduK0mm2ym4Gb5sejwbfyuZMINknF6OO5sez8M/SZLMqkdhqXF4nCSZfmfg1viy6fE63FoyQQbJ+DwejzY9noqnSZLMqqW4r/G4NbaUJNPvDNwSnzEd5nAIdpdMiEEyLnfGS02Pp+IFkiSz7Pq4kvEYcFtJMht+i/3xGdNhI3wEW0smwCAZj+vjHRhMh6fiBZIks+6mxufGkmR2nIP98RnT4ao4FBtIRm6QjMN2OBTrmQ5PxQskScJuxufakmS2nIP98RnTYU+8G0slIzZI1rwr4FBcyXR4Bl4gSZLfu4bx2VGSzJ5zsD+OMh3ugBdLRmyQrFlL8S7sZjq8EP8qSZI/2sT4bCRJZtM5uA2+bDr8Ax4uGalBsmYdhNubDi/EP0mS5M+tbZw2kSSz6QzcGl82HV6JW0hGaJCsOY/AY02Hf8c/SZIkSTIJzsDt8R2Tbw7vxS6SkRkka8bN8R+mw8H4B0mSJEkmyWm4Ob5j8m2CD+GKkhEZJIvv6jgEcybfwXgklkuSJEkyaU7BzXGsybcT3oOlkpEYJItrI3wIm5p878CjsFySJEmSSXUKboMfm3y3xEGSkRgki2cp3o5dTb6P4G+xTJIkSZJJ9zPcGr80+R6Lh0pGYJAsnudif5Pv87gnLpAkSZJkWhyHW+EMk+/V2Feyhg2SxXE3PNXkOxp3xDmSJEmSTJtv43Y412RbC+/FVpI1aJAsvF3xJpPvh7gNzpAkSZJkWn0Jd8GFJtuWeB/Wlqwhg2RhbYQPYEOT7STcHKdIkiRJMu0+jvthmcm2D14uWUMGycJZgrdhJ5PtVNwCP5MkSZJkVhyCR5h8f48HSdaAQbJwno47mmxn4jb4viRJkiSz5j/xFJPvYFxfssgGycK4A/7FZLsQd8HXJUmSJJlVL8bLTbZ18F5sIVlEg2T+7Yi3YYnJ9iAcJkmSJMmsewIOMdm2xXuwVLJIBsn82gAfwCYm21PwDkmSJEnCctwfnzfZbooXSRbJIJlf/4W/MdleiRdLkiRJkj+6AHfCsSbbE3BPySIYJPPnUbi3yfbfeLwkSZIk+Wu/wW1xksn2euwkWWCDZH5cFweZbF/A/XGxJEmSJLlkP8UdcKbJtSEOwbqSBTRIVt/GeA/WNrm+jwNwriRJkiS5bN/EXXGhyXVt/LtkAQ2S1fd67GBy/QK3xWmSJEmSZMV8Gg8y2R6G+0sWyCBZPY/G3Uyuc7E/TpAkSZIkK+cdeLrJdjB2kSyAQbLqrouXmmwH4muSJEmSZNU8D28zuTbAIVhPMs8Gyaq5It6LtU2uf8b7JEmSJMmqW46H4gsm1274D8k8GyQrbwnegKuZXG/F8yVJkiTJ6jsfd8UJJtdDcH/JPBokK+9xuLPJ9QU8VJIkSZLMn1/hDjjT5DoY15TMk0GycvbEC02uH+POuECSJEmSzK9jcS8sM5k2wLuwjmQeDJIVtz7egbVNpjNxB5wqSZIkSRbGx/A4k+taeIFkHgySFXcQdjGZluEe+K4kSZIkWVivxKtNrsfjNpLVNEhWzAF4uMn1eHxCkiRJkiyOx+LTJtebsIVkNQySy7c1Xm9yvRn/IUmSJEkWz8W4J35sMm2JN2CJZBUNksu2BG/GZibTV/EISZIkSbL4TsedcY7JtD/+XrKKBslleyJuaTL9EnfBeZIkSZJkzfgWHmxyvRS7SlbBILl0e+LfTKYLcXf8TJIkSZKsWe/Gi02mdfFOrCNZSYPkkq2Pd2Btk+nxOEKSJEmSjMNT8UmT6Vp4gWQlDZJL9mLsYjK9Aa+WJEmSJONxMe6NH5tMj8etJCthkPy1W+CRJtOX8UhJkiRJMj6n4844x2R6PTaSrKBB8uc2whtNpl/irjhfkiRJkozTt/Bgk+mqeLlkBQ2SP3cQrmryLMO9cZIkSZIkGbd3499Npr/FHSQrYJD80R3wEJPpmThckiRJkkyGJ+NIk+l12ExyOQbJ722C15lMH8PzJEmSJMnkuBD3wmkmz9Z4heRyDJLfexW2Nnl+ivthuSRJkiSZLCfiQCw3ee6Lu0guwyDhzrivyXMh7onTJUmSJMlk+iieZzK9DltILsUgs24LvM5kegqOlCRJkiST7Vn4jMmzOV4tuRSDzLpXYwuT5314uSRJkiSZfBfjvviFyXN33E9yCQaZZXfD3U2e4/BgSZIkSTI9foF7Y5nJ8+/YQvIXBplVm+CVJs8FuAfOlCRJkiTT5bN4hsmzGV4u+QuDzKoXY0uT5yn4hiRJkiSZTi/E4SbPfXE7yZ8YZBbdBA81eT6KV0iSJEmS6XUxDsTpJs/B2FDy/xtk1qyL/zR5fokHYbkkSZIkmW4/w0NMnm3xr5L/3yCz5pnYyeR5IH4lSZIkSWbDB3CwyfMY3EDy/wwyS66FJ5s8L8XHJUmSJMlseQKONVkGvB5rycwbZFYsxesxZ7IcjX+WJEmSJLPnXNwH55ssu+EfZeYNMisei+uZLGfj3rhAkiRJksymb+FJJs/TsbPMtEFmwdXwXJPnsfiBJEmSJJltr8JHTJZ18DoskZk1yCx4BTYwWd6PN0iSJEmSLMff4lST5cY4UGbWINPuDrijyXIKHi5JkiRJ8gen4O9MnpfgijKTBplm6+EVJs/DcIokSZIkyZ/6AN5qsmyBf5WZNMg0eyp2MFnejA9IkiRJklySx+JnJssjsKfMnEGm1dXxFJPlp3icJEmSJMml+Q0ebLIMeDUGmSmDTKtXYB2T5W9xhiRJkiTJZfkkXm2y7I2HyEwZZBrdFbc3WV6FT0uSJEmSrIgn4ziT5fnYVGbGINNmfbzMZDkOT5EkSZIkWVHn4AFYZnJshufJzBhk2jwN25ocy3AgzpEkSZIkWRlfwotMlodhL5kJg0yTa+BJJsvLcaQkSZIkyap4Nr5vcizBqzDI1BtkmrwEa5scx+MZkiRJkiSr6nw8BMtNjuvigTL1BpkWt8IdTZa/wzmSJEmSJKvjC3iVyfJv2FCm2iDTYA4HmSyvx2GSJEmSJPPhqfipybEVnipTbZBp8BDsZnKcjCdJkiRJksyXs/Awk+UJ2E6m1iCTbmM812R5JH4jSZIkSTKfPoa3mhzr4gUytQaZdE/HFibHe/EBSZIkSZKF8A841eS4N24oU2mQSbYDHmdynI7HSJIkSZIslNPwGJPl5VgiU2eQSfYSrGVyPBG/kCRJkiRZSO/Ch02O6+O+MnUGmVQ3xV1Mjs/izZIkSZIki+HROMfkeCHWl6kyyCQa8DKT4yI8EsslSZIkSRbDifgXk+MqeLJMlUEm0X2xh8nxUhwrSZIkSbKYXoZjTY4n40oyNQaZNGvjOSbHiXiOJEmSJMliuxCPNDk2wDNkagwyaR6O7U2Ox+IcSZIkSZI14bN4q8nxcOwgU2GQSbIhnmFyfAQflCRJkiRZk56E35gMa+E5MhUGmSRPxBYmw7l4jCRJkiTJmvYr/LPJcV9cWybeIJNiczzJ5Pg3/FiSJEmSZAxei6+YDEvwPJl4g0yKp2NDk+H7eLEkSZIkyVgswyOxzGS4PW4iE22QSXA1PNLkeBwukCRJkiQZk6/iv0yOF8hEG2QSPAdrmQz/g49LkiRJkozRM3CmybA37iwTa5Cx2x33NxkuxD9IkiRJkozVr/AvJsfzsFQm0iBj91wsMRleiR9IkiRJkozZK/FDk+GaOFAm0iBjticOMBlOwXMkSZIkScbuAjzB5Hg65mTiDDJmzzI5noHfSJIkSZJMgkPxCZPh6ri/TJxBxmpPHGAyfBv/JUmSJEkySZ6Ai02Gp2NOJsogY/Usk+OxuFiSJEmSZJIcg1ebDFfH/WWiDDJGe+IAk+H9OFySJEmSZBI9G782GZ6OOZkYg4zRs0yGC/FkSZIkSZJJdTqeYzJcHfeXiTHI2OyJA0yG1+JHkiRJkiST7NX4scnwdMzJRBhkbJ5lMpyF50iSJEmSTLoL8AyT4eq4v0yEQcZkTxxgMrwYp0iSJEmSTIN34hsmw9MxJ6M3yJg8w2T4JQ6SJEmSJJkWy/AUk+HquLeM3pyMxS64s8nwHJwlSZJVtw1ugt2wIzbBWqbTlpIkmQyfxKdxC+P3j3g7lstozclYPBlLjN9xeJ0kSVbe5vhb3B/XkiRJxugf8VXjtxtuj4/IaA0yBlfBgSbDU3GRJElW3EZ4Pk7Ai3AtSZJkrL6Gd5oMT5VRG2QMnoC1jN9X8D5Jkqy4/fE9/BM2kCRJJsEzcKHx2xf7ymgNsqZdEQ83Gf4RyyVJcvmW4IX4MLaSJEkmyY/wWpPhn2S0BlnTHoUNjN9n8RlJkly+tfFOPEWSJJlUz8N5xm9//I2M0iBr0np4nMnwTEmSXL4l+E/cS5IkmWQn47Umwz/KKA2yJj0Emxu/j+NzkiS5fE/DAyRJkmnwQpxn/O6LbWV0BllT5vAkk+HZkiS5fPviXyRJkmlxMl5h/JbiSTI6g6wp98J2xu/jOFKSJJdtLfwnBkmSZJq8GGcbv4dgcxmVQdaUJ5gMz5YkyeV7CK4pSZJMm1PxSuO3Ph4mozLImnAjXMf4fRRHSpLksq2Ff5YkSabVS3C28XsU1pLRGGRNeJzJ8DRJkly+W+OqkiTJtDoVrzR+W+PuMhqDLLZtcRfj90EcLUmSy3d/SZJk2r0QZxi/x8loDLLYHo2lxu9fJUly+ZbglpIkybT7NV5t/PbC3jIKgyymDfB3xu+T+KokSS7fzthckiSZBS/Decbv8TIKgyymB2AT4/d8SZKsmGtKkiSz4hS83vjdDdvIGjfIYlmCxxq/o/AZSZKsmG0lSZJZ8iJcbNzm8EhZ4wZZLLfBLsbv+ZIkWXFXlCRJZsmJeLvxezjWkzVqkMXyOOP3XXxIkiSZBRdKkmTVvBDLjdumuL+sUYMshp1wW+P3fCyXJElmwdmSJFk1x+JDxu8xskYNshgeYfx+gndKkiSz4BeSJFk9zzd+u+OGssYMstDWwQON34txkSRJMgt+IEmS1XMUDjN+D5M1ZpCFdjdsZtxOwRskSZJZ8XVJkqy+5xu/e2FTWSMGWWgPN36vxrmSJMms+LQkSVbfp/Bt47YuHiBrxCALaVfc2LhdgNdIkiSz4kx8SpIk8+Plxu9hskYMspAeZvzejl9KkiSz4l04T5Ik8+PtOMW4XRP7yaIbZKGsiwcYv5dLkiSzYjleKkmS+XM+Xm38/l4W3SAL5V64onE7DN+SJElmxVvxA0mSzK/X4ALjdjdsLotqkIXycOP3MkmSZFb8Gk+WJMn8+yXeYdzWxgNlUQ2yEHbHPsbth/gfSZJkVvwdfiVJkoXxMuP3MCyRRTPIQniI8ft3LJMkSWbBi/A+SZIsnG/hM8btGthPFs0g820t3M+4/QZvliRJZsEb8E+SJFl4LzN+D5JFM8h8ux02N27/hbMkSZJpdxAeiuWSJFl4H8GPjNvdsb4sikHm24OM32slSZJpdjYOxBOxXJIki2MZXmvcroC7yqIYZD5thjsYt0/iOEmSZFq9H7vibZIkWXxvxAXG7QGyKAaZT/fB2sbtYEmSZNpchPdhb9wVJ0qSZM04FYcYt1tiG1lwg8ynBxq3k/EhSZJk0i3Dj/Fu/B22wt1xlCRJ1ryDjdsSHCgLbk7my664nnH7T1wkSZLp9xK83fS5CL/FL3C+JEnG6Qh8B7sZrwfi+bKg5mS+PMi4XYz/kiTJbDgJ35AkSdaUg/FK47Uz9saRsmAGmQ9LcT/jdih+KkmSJEmShfdWnGPcHiALapD5cCtsbdwOliRJkiTJ4jgTbzdu98E6smAGmQ/3M24/xickSZIkSbJ4DjZum+A2smAGWV3r4E7G7fVYJkmSJEmSxfN1fM243VcWzCCr63bYyHgtx5slSZIkSbL43mTc9sd6siAGWV33Nm6fws8kSZIkSbL43okLjNcG2F8WxCCrYz3sb9zeJEmSJEmSNeM0fNi43VsWxCCr447YwHidgf+WJEmSJMma8ybjdntsKPNukNVxL+P2LpwnSZIkSZI156P4hfFaF3eSeTfIqtoQtzdub5IkSZIkyZp1Md5q3O4j826QVXUA1jVe38eRkiRJkiRZ895k3G6NjWVeDbKq7m3c3iRJkiRJknE4Fl8xXmvjrjKvBlkVG+PWxmsZ3ipJkiRJkvF4k3G7l8yrQVbF/ljbeH0aJ0mSJEmSZDzehYuM182xscybQVbFAcbt3ZIkSZIkGZfT8XHjtRZuJ/NmkJW1Dm5nvC7A+yRJkiRJMj7vNm4HyLwZZGXdHBsar0/gN5IkSZIkGZ/34zzjdXusLfNikJV1gHF7hyRJkiRJxuks/I/x2gg3lXkxyMpYgjsZr/PwYUmSJEmSjNc7jNsBMi8GWRk3wFbG64M4S5IkSZIk4/U/OMt4HYAlstoGWRkHGLf3SJIkSZJk3M7FB4zXVXBdWW2DrIwDjNeZ+IgkSZIkScbvXcbtzrLaBllRO2FX4/VBnC9JkiRJkvH7BH5tvO4kq22QFXUn4/ZuSZIkSZJMhgvxfuO1O3aQ1TLIirqD8Tobn5IkSZIkyeT4gHG7vayWQVbEBriR8foozpckSZIkyeT4FM42XreR1TLIirgF1jJeH5AkSZIkyWQ5Fx83XjfHOrLKBlkRtzZeF+FQSZIkSZJMng8Yr/Wxr6yyQVbE7YzXZ3CGJEmSJEkmz6G4yHjdVlbZIJfn6tjBeH1AkiRJkiST6df4rPG6rayyQS7P7YzbByVJkiRJMrk+YLx2x9aySga5PLc2Xl/GSZIkSZIkmVwfNG63kVUyJ5dlbdzCeH1AkiRJkiST7af4Kq5nnG6DN17lAW+VlTPIZbkR1jdeH5YkSZIkyeT7kPG6FZbKShvkstzGeP0U35EkSZIkyeT7qPHaFNeTlTbIZbmF8fqoJEmSJEmmw9dxivG6lay0QS7NxtjTeH1ckiRJkiTTYRk+brxuKittkEuzHwbjdBE+JUmSJEmS6fFx43VDrC0rZZBLc1Pj9QWcKUmSJEmS6fExLDdO6+EGslIGuTQ3NV4flyRJkiTJdDkVXzNe+8lKGeSSbIw9jddHJUmSJEkyfT5qvG4iK2WQS7IfBuN0Mr4pSZIkSZLp81HjdSPMyQob5JLc1Hh9AsslSZIkSTJ9vozfGKcNcD1ZYYNckpsar49LkiRJkmQ6XYxPGq+bygob5C9tjD2N16clSZIkSTK9DjNeN5UVNshf2g+DcToGv5IkSZIkyfQ63HjdCHOyQgb5S/sZr8MlSZIkSTLdvodfGqcNcF1ZIYP8pb2N1+GSJEmSJJl+hxuvvWSFDPKn5nA94/VZSZIkSZJMv08Zr31khQzyp66F9Y3TMThFkiRJkiTT73DjtbeskEH+1F7G63BJkiRJksyG43CScboariyXa5A/tY/xOkySJEmSJLPjcOO1j1yuQf7U3sZpOQ6XJEmSJMnsONx47SWXa5A/2Aw7Gadv4XRJkiRJksyOw43XPnK5BvmDvYzXFyVJkiRJMluOwy+M0/WxVC7TIH+wj/H6oiRJkiRJZs+XjNP62F0u0yB/sJfxOlKSJEmSJLPnSOO1j1ymQX5nCfYyTqfgOEmSJEmSzJ4vGq8byGUa5Heujo2M05GSJEmSJJlNX8NFxum6cpkG+Z09jdeXJEmSJEkym87F0cbpmlhHLtUgv7OH8fqSJEmSJElm15HGaQ67yaUa5Hf2ME4X4yuSJEmSJJldXzJee8ilGuR39jRO38LZkiRJkiSZXV8yXnvKpRrkytjKOB0pSZIkSZLZdgJ+YZz2lEs1yJ7G60hJkiRJkuQrxulaGOQSDbKH8TpakiRJkiT5mnHaEDvKJRpkD+N0Hr4rSZIkSZIcbbz2kEs0yJ7G6Tu4SJIkSZIkOdp47SmXaDDbNsROxuloSZIkSZLkd36KU43TnnKJBrNtVywxTl+XJEmSJEn+4BvGaTe5RIPZtqvx+oYkSZIkSfIHXzdOV8FG8lcGs+2axmkZvilJkiRJkvzB0cZrF/krg9l2TeP0PZwrSZIkSZL8wTeM167yVwaz7ZrG6WhJkiRJkuRP/QBnG6dd5K8MZtfa2ME4HS1JkiRJkvypZfimcdpV/spgdu2CwTh9R5IkSZIk+UvfMU7XlL8ymF07G6/vSpIkSZIkf+m7xmkHrC1/ZjC7djVOZ+FESZIkSZLkLx1jnAbsIn9mMLuuaZy+J0mSJEmSXJLvG6+d5c8MZtc1jdMxkiRJkiTJJTkRvzVOu8qfGcymATsbp+9JkiRJkiSX5nvGaWf5M4PZtDXWMU7HSpIkSZIkl+ZY47Sj/JnBbNrBeB0rSZIkSZJcmmON0w7yZwazaXvjdD5+LEmSJEmSXJrvGafNcAX5P4PZtL1x+j4uliRJkiRJLs13jNf28n8Gs2kH4/R9SZIkSZLksvwEFxinHeT/zJlNOxin42TWXQFXwmbYDOtgE7+3HtaRJOOyt3G6iSTJpDsLF+FCnI2zcApOxWk4T2bVxTgB1zA+O8j/mTObtjdOx8u0Wwe7Yjdsj6the2yPrbGWJMl8uDPuLEkyzc7GT/BjnIATcBy+jeOxXKbZj3AN47O9/J85s2cdbG2cjpdpsi6ujxtiT1wL18BSSZIkSVbXBtgVu/prZ+Pb+Da+giPwPSyXaXG8cdpe/s+c2bOD8TpeJtm6uAluiRvhulhLkiRJksW2AfbG3vg7v3c6vogj8HF8E8tlUv3YOO0g/2fO7NneOF2En8mk2QH743a4CdaTJEmSZIw2xf7YHy/AyfgEPoqP4QyZJMcbp+3l/8yZPTsYpxNxkUyCbXEf3BPXkSRJkmQSbYUH4oG4AJ/A23EozpKxO944rYut8XMxZ/Zsa5yOlzHbCPfGg7GXJEmSJNNkbeyP/XEeDsV/4lNYJmN0vPHaFj8Xg9mzjXE6XsZoH7weJ+O12EuSJEmSabYu7o6P48d4BraRsfktTjVOV5H/NZg9Wxqn42Us5nBffBVfxIOxviRJkiSzZls8ByfgXbi+jMmPjdNW8r8Gs2dr43S8rGkb4on4Ed6O60qSJEkSluJe+DI+iztiiaxpPzJOV5H/NZg92xinE2VN2RD/hBPwEmwrSZIkSS7ZjfEhfB13xhJZU35inLaS/zWYLRtiA+P0M1ls6+HxOA7Px2aSJEmSZMXsgffjS7itrAk/N05by/8azJarGKfl+KUsliW4D76Pl+HKkiRJkmTV7IWP4tPYXRbTz43TNvK/BrNla+P0S1wki+F6+DzegatKkiRJkvlxcxyN12BzWQwnGact5X8NZstWxukkWWib4HX4MvaVJEmSJPNvKR6BH+IRWCIL6STjdEWsKwazZRvjdLIspLvhe/g7LJEkSZIkC2sTvAafxc6yUH5hvLYRg9mypXE6SRbCVng/3osrS5IkSZLFtR++iadhTubbBfiVcdpSDGbLVYzTSTLfDsC3cWdJkiRJsuasg3/F53F1mW8nG6eriMFs2cI4nSzzZQMcjA9gM0mSJEkyDnvjG3igzKefG6ctxGC2bG6cTpL5sBu+jodLkiRJkvHZEG/CO7GhzIefGadNxWC2bGqcTpLVdW8chWtIkiRJknG7N47CNWR1nWycNheD2bKZcTpFVtUcDsI7sb4kSZIkmQy74qu4s6yOXxmnzcRgdqyHdY3T6bIqNsHH8Q+SJEmSZPJcAe/HM7BEVsVpxmlTMZgdmxqns3G+rKyr4Uu4uSRJkiSZbM/BG7G2rKzTjdOmYjA7NjVOp8nKuj6Owi6SJEmSZDo8EB/FxrIyTjdOm4rB7NjCOJ0qK+NW+CyuJEmSJEmmy81xBK4sK+pU47SZGMyOTY3T6bKi7oSPYD1JkiRJMp12wxewjayIU43TFTGYcYPZsalxOk1WxP3w31hLkiRJkky3q+OL2FEuz1m40DhtasYNZsemxul0uTz3w1uwVJIkSZLMhqvicOwol+d047SZGTeYHZsZp9PkstwDb8EgSZIkSWbLVXA4tpHLcppx2tSMG8yODY3TaXJp7oi3Y5AkSZIks+kqOBxby6U53ThtYMYNZsd6xuk0uSQ3wbuxliRJkiSZbVfHx7GpXJLTjdOGZtxgdmxinH4rf+ma+CDWkyRJkiT5nd3wAawtf+nXxukKZtxgdqxvnM6SP3VlfBQbS5IkSZL8qf3wRiyRP3WucVrPjBvMjvWM07nyB+vjUGwnSZIkSXJJ7ovnyp861zitb8YNZscVjNPZ8gdvxPUkSZIkSS7L03Bv+YMzjdPGZtxgdmxonM6Q33kC7ilJkiRJsiJej93kd84yTuubcYPZsZ5xOlduihdJkiRJkqyo9fF+bCLnGqf1zLg5s2MD43Su2bY13o2l8gfLcRJOwmk4HadjOc7HuZJkOlwBV8KmWBdLcRHOw2n4Fc6WJJlFG2HA2tgUm2ILbIcryh/siDfjzlhudp1tnDYy4+bMjo2M0xlm1xK8GVcyu36GL+Fb+BaOxYm4QJIkSZJLshF2wG64FvbAPtjQbLoTHoVXml1nGqcNzLg5s2EdLDE+55htT8AtzZbT8DF8HJ/FiZIkSZKsjDPxDXzDHy3FtXAz3B77YW2z48U4DMeaTecYp/XMuDmzYT3jdK7ZdW08z2w4Ge/De/AFLJMkSZJkPl2Mo3E0DsKG2B/3wO2xrum2Lt6JG+B8s+dc47ShGTeYDUuM01lm0zp4O9Y2vS7GB3FHXBWPweexTJIkSZKFdhbehbthKzwG3zTdroXnmk1nyCgNZsPGMiZPxd+YTr/FS7E97oxDcbEkSZIka8pv8ErsgRvjQ1huOj0B15WxWNeMG2RNOsfs2RVPNX3OwL9gWzwJP5UkSZJkbD6PA7Ab3o3lpstS/BfmzJblxmldM26QNekCs2XAf2Ft0+NCvARXw7PxG0mSJEnG7ljcG3vgE6bLHnii2XKGjNIgWTx/h31Mjw9jVzwZv5EkSZJk0nwLt8H+OM70eDauJlnDBrNhQ1nTNsZzTYdf4G64E46TJEmSZNJ9BLvjBbjI5FsXL5Q1bakZN5gNc8bpArPjWdjC5Hsnron/liRJkmSanIen4vr4rsl3T9xI1qQrmHGDrEnnmA3XwKNNtt/i/rgvfiNJkiTJtPoGrovXmHyvwGD6/VZGaZAsvBdiLZPrWFwPb5ckSZJkFpyLR+I+OMfk2hP3N/0ullEazIZ1ZE3ZE3c2ud6PvfADSZIkSWbNu7AXTjC5nok5yRowmA3rGadlpt9zTK6X4u44S5IkSZJZ9R3shS+bTFfHgbImbGTGDbImnWm67Y39TabH4klYJkmSJMms+xVuhkNNpn/B2qbXucZpMOMGycJ5psmzDA/Ff0iSJEmSPzoHd8N7TZ6r4oGm1/kySoNkYfwNbmfyPACvlyRJkiR/7QLcG+8xeZ6IJZJFNEgWxhNMnkfi7ZIkSZLk0l2MA/Fhk2Vn3EGyiAbJ/NsS9zdZno7XSJIkSZLLdwHuiS+YLE+WLKJBMv8eibVNjjfg3yRJkiTJijsPd8YPTY4b4zqSRTJI5tccHmpyfA5/L0mSJElW3qm4I840OR4mWSSDZH7dDluZDD/HvXCBJEmSJFk138cDTI77YgPJIhgk8+thJsMy3BO/kCRJkiSr54N4kclwBdxLsggGyfzZGrc3Gf4VX5AkSZIk8+Pp+JrJ8BDJIhgk8+c+GIzfUXiuJEmSJJk/F+K+ONf43RBXlyywQTJ/7mH8LsRDcJEkSZIkmV8/wLNNhntIFtggmR/bYi/j93wcI0mSJEkWxkE42vjdQ7LABsn8uJfxOwHPlyRJkiQL5yI8yvhdB1eXLKBBMj/uavyegvMkSZIkycL6Et5h/O4mWUCDZPVthhsYty/iEEmSJEmyOJ6KC4zbbSULaJCsvltjMG5PkyRJkiSL50S8xrjdCFeQLJBBsvpuY9w+i8MlSZIkyeJ6Ic4zXmvhFpIFMkhW322N2/MlSZIkyeI7GW82breRLJBBsnp2xpWN13fwCUmSJEmyZhyE5cbrJpIFMkhWz77G7eVYLkmSJEnWjB/gf4zXNbGpZAEMktWzr/E6C++WJEmSJGvWfxm3fSQLYJCsnn2N1ztxliRJkiRZsw7FL4zXjSQLYJCsuo2xs/F6qyRJkiRZ8y7CO4zXXpIFMEhW3bWM18n4giRJkiQZh0OM17UkC2CQrLrdjdd/Y5kkSZIkGYej8DPjtBm2lsyzQbLqrmW8PiJJkiRJxmM5/sd47S6ZZ4Nk1V3LOJ2HwyVJkiTJuHzMeF1LMs8Gyaq7hnH6As6VJEmSJONyGJYbp50k82yQrJoNsZlx+oIkSZIkGZ8z8B3jtL1kng2SVXM14/UFSZIkSTJOXzBO20vm2SBZNdsbr69JkiRJknH6qnHaFoNkHg2SVbOdcfo5TpMkSZIk4/Rt47QWtpTMo0Gyaq5snL4tSZIkScbrO8ZrK8k8GiSrZjPjdJwkSZIkGa9zcJJx2kwyjwbJqtnMOJ0gSZIkScbtBOO0qWQeDZJVs5lxOlGSJEmSjNuJxmkzyTwaJKtmM+P0C0mSJEkybr80TptJ5tEgWTVzxuk0SZIkSTJupxqnpZJ5NEhWzRWM0+mSJEmSZNx+Y5w2lsyjQTJdzpUkSZIk43a2ZAYMklWzoSRJkiTJNFlPMo8GyaqZM05nSJIkSZJx+61xWkcyjwbJdFkuSZIkScbtYskMGCRJkiRJkiTzbJAkSZIkSZLMs0GSJEmSJEkyzwZJkiRJkiTJPBskSZIkSZIk82yQJEmSJEmSzLNBkiRJkiRJMs8GSZIkSZIkyTwbJEmSJEmSJPNskCRJkiRJksyzQZIkSZIkSTLPBkmSJEmSJMk8GyRJkiRJkiTzbJAkSZIkSZLMs0GSJEmSJEkyzwZJkiRJkiTJPBskSZIkSZIk82yQJEmSJEmSzLNBkiRJkiRJMs8GSZIkSZIkyTwbJEmSJEmSJPNskCRJkiRJksyzQZIkSZIkSTLPBkmSJEmSJMk8GyRJkiRJkiTzbJAkSZIkSZLMs0GSJEmSJEkyzwZJkiRJkiTJPBskSZIkSZIk82yQJEmSJEmSzLNBkiRJkiRJMs8GSZIkSZIkyTwbJEmSJEmSJPNskCRJkiRJksyzQZIkSZIkSTLPBkmSJEmSJMk8GyRJkiRJkiTzbJAkSZIkSZLMs0GSJEmSJEkyzwZJkiRJkiTJPBskSZIkSZIk82yQJEmSJEmSzLNBkiRJkiRJMs8GSZIkSZIkyTwbJEmSJEmSJPNskCRJkiRJksyzQZIkSZIkSTLPBkmSJEmSJMk8GyRJkiRJkiTzbJAkSZIkSZLMs0GSJEmSJEkyzwZJkiRJkiTJPBskSZIkSZIk82yQJEmSJEmSzLNBkiRJkiRJMs8Gs+FiSZIkSZIkWTSD2fBb43SWJEmSJEmSKTSYDScbp1MkSZIkSZJMocFs+KX/jz34ANz8EAz//7rPfbMXuRArcYkZJBExk1ihiNWYpUq1tDWq9s9oVRRFa5ZaNWrUDKpUYsVKRJAgQUIjOUJi5GTKvNz9219+/qgkcnfP9+7zPM/79eJs4/NdSZIkSZIkM2gwP44xPl+RJEmSJEkygwbz49PG5Sx8TZIkSZIkyQxasO42xc1wY1wD2xq3HYzLCjzH9NpckiRJkmSW3BwHyaRsjoNMp7PxY5yAb+Ii62DB2tkWD8Af4A7YQtbVnthTkiRJkiTjsCf2lEnZDM81/c7HF/BeHIyzXUmDK2cZXowf4i24O7aQJEmSJEmSWbYF7oY340d4MZa5Ega/26PwHTwD20iSJEmSJMk82hrPwHfwKL/D4PJti4PxJiyTJEmSJEmSsAxvwsHY1uUYXLYd8Tk8QJIkSZIkSfLbHoDPYUeXYcFvW4bPYDdJknmzDbbFJliKbYzfBbjApc7EObhEkmx822AbbIoB2xq/C3G+S52Fs3GJJEku383xGdweK/2aBb9pE3wYu0mSzJKlWI5dsQuWYzmujR2wDNtjE7Ph51iJlfgpTsYKrMAK/Bd+IUnWzYBdsAuWYzl2xTVxNSzDMmxiNpyBlViJn2IFVuBknIwTca4kyTzbDR/GnXGx/2fBb/p77CtJMs22wq2xJ/bE7rgpNjc/tsf2uIHLtgYn4Vgci2PxJZwqSX7Tlrgl9sIe2B03wxbmx1VxVVzf5TsJx+EbOA5H4RRJknmyL/4eT/f/LLnWw9/u/7kVjsISyfRaIpk/O2B/7It9sBeWyrpYgS/icHwe35Jk3izDnbAv9sUtsCDr4hQcjsPxBRwnyS8diA9JZs8a3BZf9t+WXOvhb/f/HInbSqbbEsnsW4pb4wAcgL2xRBbDKTgEh+LTOFuSWTPgVjgAd8etMchi+BE+jkPwKZwpmV8H4kOS2fQl3M5/W3Kth7/df7sHDpFMvyWS2bQUd8KDcH9cTTa0Vfg03oUP4yxJptWA/fCHuD+uJhvaKnwa78eH8HPJfDkQH5LMrgNw6JJrPfzt/ttHcS/J9FsimS23xiPxQFxNxuIifALvxL/jQkmmwd74YzwQ15SxWIVP4t/wAVwgmX0H4kOS2fUx3GvJtR7+9qvjR1iQTL8lkul3FTwcj8YeMnYr8Ta8CcdLMjbb4mF4NG4hY3cG3oE34TjJ7DoQH5LMrktwrQF3w4IkycZ2U7wZp+KfsIdMg2V4Cr6Nz+NADJJsbDfCG3AaXotbyDS4Kv4Kx+IIPAhLJUmmzVLcbcAdJUk2prvgY/gm/hRbyLS6PT6EE/BYbCHJhnZ7/AeOx59jS5lW++B9+C/8JbaWJJkmdxpwM0mSjeEe+Ao+hQNkltwAr8Up+D/YQpLF9nv4Ej6P+2CJzIpd8Gp8H8/E1pIk02D3AdeXJNmQ9seXcAhuKbNsGV6Ck/AkbCHJpN0Jn8UncBuZZdvjRViBp2ILSZIx23XAVSVJNoQ9cRg+jdvIPLkGXoHv4BFYIsn6uikOxWdwR5kny/BSnIQ/xSBJMkbbD1gqSbKYro434BjcWebZTngbjsRtJVkX2+M1+AbuLvPsGngzvor9JEnGZhgkSRbLUjwR/4U/xyC51G1wJN6Jq0tyZQx4HE7E47FUcqm98AW8F9eSJBmNQZJkMeyBL+GV2FZy2R6G4/FILJHk8twEX8A/46qSy/ZgfBt/jiWSJBvdIEkySZvjhTgat5T8btvjrfgEdpHk122K5+Jr2Efyu22HN+AzuKEkyUY1SJJMyh74Kp6NBcnauSuOw6Ml+R+74SgchE0la+eO+AYehyWSJBvFIEmyvpbgyfgKbipZd1vhX3Awlknm0xI8Dsfg5pJ1tzn+Gf+Bq0mSbHCDJMn62BGH4uXYVDIZD8CxuJNkvizDf+CfsblkMu6Nb+JukiQb1CBJsq5ug6NxN8nkXQufxtOwRDL79sbRuLdk8q6OQ/A3WCJJskEMkiTr4jH4Aq4tWTwD/hHvw9aS2fUnOALXlSyeAc/Hv2M7SZJFN0iSrI1N8Wa8DptINowH4svYVTJbluKf8RZsJtkw7ouv4EaSJItqkCS5srbDIfhTyYa3G76E20pmwzb4KB4n2fBugCNxe0mSRTNIklwZ18WR2F+y8VwNh+EBkul2bXwe95BsPFfFp/GHkiSLYpAk+V12x1HYTbLxbYH344mS6XQzfAk3l2x8m+Df8HRJkokbJEmuyG1wOHaUjMcSvBLPlkyXvfAZXEcyLv+Av5ckmahBkuTy7I9PYFvJOL0QL5ZMh9vgs9hBMk7PwiuxRJJkIgZJksuyPz6KbSXj9gy8RjJu++MwbCsZtyfitVgiSbLeBkmS/+1O+Ci2kEyHx+PFknG6Df4dW0qmw2PwakmS9TZIkvy62+DD2EIyXZ6Bv5GMy+74BLaRTJfH48WSJOtlkCT5pd1xCLaVTKfn4ymScdgNh2FbyXR6Bp4lSbLOFozTBXiWjNmLsLlkduyEQ3FVyXR7GU7FeyQbzzVwCHaQTLe/x2n4V8l8+AreJdPoRdjcyCwYpwvxShmzg7C5ZDZsi4/iWpLZ8K/4IQ6XbHhb4qO4rmQ2vBGn4NOS2fdtvFKm0UHY3MgMkmS+LeD92EMyOzbDv+OGkg1rKd6NvSWzYxN8EDeRJFkrgySZb6/C3SSzZxk+iqtINpyX4L6S2bMtDsEySZIrbZAk8+uP8TjJ7LoB3oElksX3YDxVMrt2xnuwVJLkShkkyXzaC6+XzL574zmSxXVTvEUy++6KF0iSXCkLkmT+bI8PYnO5LGfidPwCq3G28doCm2FTLMP2WJD/7SB8GYdKJm9bfAhbyWU5EytxLtbgLOO1OTbHJliGZViQ/+2Z+DI+JElyhRYkyfx5M5abbz/AsTgWJ+BkrMCPscp0W4brYjmujz2wO26KpebTErwDe+A0yWS9Djcw336Er+M4HI8VOBmnYZXptj12xnLcALtjD9wUC+bXW/BVnCJJcrkWJMl8eTQONH++i0NxOA7HaWbXSqzEMX7TlrgN9sVdsS8WzI8d8FYcgDWSyfhD/KH58z0cii/gcPzI7Po5fo6v+01b4FbYF7+H/bCJ+XEVvBP74xJJksu05FoPf/sa43MWriJjdia2Mz5LJJfvhjgGW5kPR+Ld+E+cJP/btrgbHoh7Yyvz4Ul4lWT9Lcc3sK35cBTejw/jRPnftsFd8GDcF1uZD8/CiyVr70B8yPi8DY+UaXQmtjMygySZDwv4N2xltn0ff4vrYh+8GifJZTkbB+MhuBoejs+ZfS/BzSTrZ8A7sK3Z9kM8D8txW7wMJ8plOQf/jj/E1fAQHGb2PR97S5JcpkGSzIen4JZm16dxT+yK5+MHsjbOxztxJ+yG1+J8s2kzvAmDZN09HvuZXZ/HfbEcB+H7sjbOx3txF1wPr8YvzKYFvBkLkiS/ZZAks+/6OMhs+nfshbviEKyW9XUCHo+d8TycY/bcBk+QrJud8UKz6cO4Fe6Ij+ASWV8n4a+wE56Hs8yePfE0SZLfMkiS2bYEb8AWZsuhuAXuh6/LYjgdB2FX/AMuNFteiJ0la++12MZs+TRuhwPxVVkMZ+AgLMfzcb7ZchBuIEnyGwZJMtsegf3NjhNwTxyAr8mGcDqegd1wsNmxFV4nWTsPxr3Mju/h93FXfEk2hDPxt7gh3mN2bIY3SJL8hkGSzK5t8BKz4SL8LfbAIbIxnIwH4R5YYTbcEwdIrpwt8I9mwyo8HzfFf8jG8EM8FPvjRLPhzri/JMn/b5Aks+vZ2NH0Owp74vm4WDa2j+NmeLXZ8HIsSH63p2Nn0+9r2At/iwtlY/sM9sDLsMb0eyk2lyT5vwZJMpt2wZNNt9V4IfbDCTImv8Bf4Z74sel2Y/yl5IpdG88w3dbgH3FbfFPG5Hw8Db+HH5luu+DJkiT/1yBJZtM/YDPT62e4K/4Gq2SsDsHN8TnT7bm4iuTyvQBbml5n4J74P7hIxurT2BOfNN2ejR0kSQySZPbshQeaXl/B3viMTIOf4K54hel1FTxFctlugoebXt/A3jhUpsFKHIAXm15b468lSQySZPY81/T6EO6EU2SarMJT8BisNp2egh0kv+1vsdR0OgT74WSZJpfgWXgkLjadHoNrSpI5N0iS2XIb/L7p9Eo8COfJtHoD7oXzTZ+t8DTJb7oZHmw6/Qvug3NlWr0N98DZps/meJYkmXODJJktzzWdXogn4xKZdofi7jjb9HkCrib5ledhienzUvwFLpFpdxjuhjNNn8fg2pJkjg2SZHbcDAeYPs/C38gs+QLuhrNNly3xeMmlro/7mT4vwdOxRmbFUbgDTjddNsETJckcGyTJ7Hiq6fMivFhm0VE4AOebLo/HFhKejCWmyyvwTJlFx+HeONt0+XNsI0nm1CBJZsM18TDT5Z/xbJllX8Tv42LTYwc8QubdMvyJ6fJWPFVm2VG4Ny4yPbbDoyXJnBokyWx4AjYxPT6KJ8o8+CT+wnR5CpbIPHsstjA9Pom/wBqZdV/AH5suT8JSSTKHBkky/TbBn5oe38BDcInMi7fiRabHDbG/zKsBf2Z6HI8H4WKZF+/Bc0yPnXFPSTKHBkky/e6LHU2HM3B//ELmzXPwCdPj0TKv7oGdTYdzcD+cJfPmhfiw6fEoSTKHBkky/R5tevwRTpJ5dAkeilNMh/tjB5lHjzI9HonvyDxag0fgRNPh3riWJJkzgySZbtfF3U2HV+JjMs9+jodhtfHbFA+XeXMN3Nd0eAM+KPPsbDwMq4zfUvyJJJkzgySZbg/FEuN3LJ4p4Qt4kenwRzJvHooF4/ddPEXCl/Fc0+HhkmTODJJkuj3U+F2CP8WFkkv9Hb5l/G6BG8g8+QPjtwZ/ivMkl/oHHGP8boTdJckcGSTJ9Lox9jB+r8DRkl+5CI/GGuP3EJkXO+M2xu+1OELyK6vwaFxi/B4qSebIIEmm14OM34/wXMlv+xL+xfg9WObFg4zfT/FsyW/7Gl5t/P5AksyRQZJMrwcav6fjPMll+xucZdxuhhvKPHig8ftrnC25bM/D6cZtV9xcksyJQZJMp+tgD+P2ZbxHcvl+hucbv3vKrNsBtzFu38BbJJfvTBxk/A6QJHNikCTT6R7G79lYI7lir8WPjdsBMuvuhiXG7blYLbli/4IfGLcDJMmcGCTJdLqHcfscPi353c7HC4zbHbGlzLJ7GLej8GHJ73YRnmvc9sFVJMkcGCTJ9FnAXY3bCyVX3pvxU+O1Ge4os2rAPYzbiyRX3jvxQ+O1FHeVJHNgkCTT5xbYzngdh09JrrwL8GrjdmeZVbvhasbru/iI5MpbhVcZtztKkjkwSJLps69xeznWSNbO63Gh8dpPZtV+xu2fsFqydt6Ic43XvpJkDgySZPrsY7zOwvska+90HGy89sbmMov2NV7n4R2StXc23mu89sTWkmTGDZJk+uxnvN6J8yTr5k3Ga1PsLbNoX+P1XpwtWTdvNF4DbidJZtwgSabLclzDeL1Tsu4+h1OM1z4ya66OXY3X2yTr7sv4jvG6rSSZcYMkmS57Gq+TcJRk3a3Be4zXHjJr9jRep+ELkvXzfuN1c0ky4wZJMl12N14HY41k/bzPeO0hs2YP4/UBrJasn/cYrz0kyYwbJMl02cN4/adk/R2Nnxin3bCJzJLdjddHJevvW1hhnK6HrSTJDBskyXTZ3TidhS9K1t8aHGqcNsGNZZbsaZzOx+ckk3GocVqCm0qSGTZIkumxgBsYp8OwSjIZHzdeN5ZZciPj9HlcIJmMjxuvG0uSGTZIkumxE5Yap8Mlk3O48dpFZsU1sIVx+oJkco4wXrtKkhk2SJLpsYvxOkIyOafgFOO0XGbFcuP1Rcnk/AzfNU7LJckMGyTJ9FhunFbha5LJ+rJxWi6zYrlxWoOvSCbry8ZpuSSZYYMkmR7LjdMJuEgyWccZp11lViw3TifjXMlkfcM47SJJZtggSabHNYzTcZLJ+4Zx2lFmxTWN07GSyTvOOF1DksywQZJMj2XG6TuSyfuucboKFmQW7GCcviOZvO8Yp02xtSSZUYMkmR5XN04nSyZvhfFaJrNgmXFaIZm8H+IS47SDJJlRgySZHsuM0wrJ5J2HnxmnZTILlhmnFZLJW4UfGqcdJMmMGiTJ9NjeOP1Esjh+Ypy2l1mwzDj9RLI4fmyclkmSGTVIkumxuXFaKVkcPzVOm8ks2MI4/UyyOFYapy0kyYwaJMn02Mw4rZQsjpXGaRuZBVsYp5WSxbHSOC2VJDNqkCTTY3Pjcx7WSBbHeZL5c75kcZxvnLaRJDNqkCRZHxdL5s/WMgu2Mz6rJYvnfEmSDWqQJNPhKpL5c5ZxWpAsjnMk82drSTKjBkmSZKzWSJLMugVJMqMGSZIkSZIkyYQNkiRJkiRJkgkbJEmSJEmSJBM2SJIkSZIkSSZskCRJkiRJkkzYIEmSJEmSJJmwQZIkSZIkSTJhgyRJkiRJkmTCBkmSJEmSJMmEDZIkSZIkSZIJGyRJkiRJkiQTNkiSJEmSJEkmbJAkSZIkSZJM2CBJkiRJkiSZsEGSJEmSJEkyYYMkSZIkSZJkwgZJkiRJkiTJhA2SJEmSJEmSCRskSZIkSZIkEzZIkiRJkiRJJmyQJEmSJEmSTNggSZIkSZIkmbBBkiRJkiRJMmGDJEmSJEmSZMIGSZIkSZIkyYQNkiRJkiRJkgkbJEmSJEmSJBM2SJIkSZIkSSZskCRJkiRJkkzYIEmSJEmSJJmwQZIkSZIkSTJhgyRJkiRJkmTCBkmSJEmSJMmEDZIkSZIkSZIJGyRJkiRJkiQTNkiSJEmSJEkmbJAkSZIk2VgukSQzapAk0+Esyfy5inG6RLI4tpbMn3MkyYwaJMl0WGOcFiTz5xyZBWcZn6WSxbO5JMkGNUiS6XGh8dlKsni2kMyfzSWLY0vjdK4kmVGDJJkeFxinZZLFscw4nSuz4ALjtEyyOLY3TqskyYwaJMn0uNA4LZMsjqsZpwtlFpxvnHaQLI5lxukCSTKjBkkyPX5unK4uWRw7GqefyyxYaZyuIVkcOxqnlZJkRg2SZHqsNE7LJZO3OXY0TitlFqw0TteVTN5S7GScVkqSGTVIkunxM+O0q2TylhuvlTILVhqn5ZLJuzYWjNPPJMmMGiTJ9DjdON1AMnk3NE5n42KZBSuN040kk3dD43QxzpEkM2qQJNPjJ8Zpd8nk7WGcfiyz4lTjtLtk8vYwTj+WJDNskCTTY4Vxugk2kUzW7sbpZJkV3zdO18eWksnawzitkCQzbJAk02OFcdoEN5dM1q2N0wqZFSuM0xLsLZmsWxunFZJkhg2SZHqcZLz2kUzOtbDcOK2QWbHCeO0rmZztsZtxWiFJZtggSabHKVhtnPaTTM5+xutkmRWn4kLjtJ9kcvYxXidJkhk2SJLpcTG+Z5z2x1LJZNzNeH1HZskJxulO2FQyGXczXt+RJDNskCTT5TjjtD1uLZmMexinVfi2zJLjjNNW2E8yGfc0Xt+UJDNskCTT5VjjdS/J+tsT1zZO38FFMkuONV73lqy/G+N6xulknCNJZtggSabLscbrQZL19xDjdazMmmON1wOxRLJ+HmS8jpUkM26QJNPlWON1Q+wtWT8PNl7Hyqw51njthNtJ1s+DjdfXJcmMGyTJdPkefma8/kiy7vbBrsbrSJk1p+EHxuuPJevu5riZ8fqSJJlxgySZPkcYr4djM8m6+TPjtQpfkVl0hPF6KLaSrJs/M15rcKQkmXGDJJk+XzRey/BAydq7Ch5svI7BeTKLDjde2+ChkrW3NR5mvL6JsyTJjBskyfQ53Lg9SbL2/hxbGq8jZFYdYdyehCWStfNIbGe8jpAkc2CQJNPnaJxrvG6JO0quvE3xV8btszKrvomfG6+b4u6SK28pnmLcPiNJ5sAgSabPRfi0cXuW5Mp7BK5tvC7Gp2VWXYJPGLdnSq68B2EX47Uan5Ykc2CQJNPpUON2d+wn+d02xd8at8PxC5llhxi3O+Lukt9tAS8wbl/GSkkyBwZJMp0ONX4vlPxuf4adjNvHZNZ93Pj9HZZIrtgjcD3jdogkmRODJJlOK3C8cbsD7ie5fFfFQcbvEJl1P8HRxu3W+EPJ5dsaLzB+H5Mkc2KQJNPrA8bvZdhMctmeix2M23fwLZkHBxu/l2BLyWX7a1zTuJ2CoyXJnBgkyfR6n/HbBc+W/La98JfG7/0yL95v/K6N50l+2254ivF7D9ZIkjkxSJLpdRyON37Pws0kv7KAN2Gp8XuXzIvv4Rjj92TsLfmVAW/CpsbvvZJkjgySZLq92/htgrdgE8mlno5bGL9v4niZJ+8xfkvxFmwmudRfYR/jdxKOliRzZJAk0+3dpsOt8FwJt8TfmQ7vkHnzbqw2fnvgRRL2wItNh3dIkjkzSJLpdiIOMx2ehTvJPNsG78aC8VuFt8u8+SE+Zjo8GXeXebYV3oXNjN8avFWSzJlBkky/N5kOA96Da8s8WoK34fqmw3/gxzKP3mR6vBvLZV69ETc1HQ7F9yXJnBkkyfT7IFaaDjviYGwm8+ZZuJ/p8SaZV/+J00yHq+KD2FLmzZPxh6bHmyXJHBokyfS7EG81PW6Lf8USmRcPwgtNjxX4uMyrVXiT6bEX3oWlMi/ug5eaHqfiPyTJHBokyWx4NS4xPR6CF8o82BdvN11ejtUyz/4ZF5oev4+XyTy4Jd6DwfR4NS6WJHNokCSz4Qd4r+nyLDxTZtle+Bg2Nz3OxFtl3v0E7zRdnoiDZJbtjkOwpenxC7xeksypQZLMjpebPi/CY2UW7Y5PYFvT5XU4V8LLTJ/n4pkyi66Pj2MH0+XNOFOSzKlBksyOo3GY6fNaPF1myd44DDuYLhfgNZJLHY+PmT4vwt/ILNkdR+CapssleIUkmWODJJktzzOd/gHPxRKZdrfHYdjB9HkDTpX8ynNMp+fjpVgi0+62OAxXN33eghWSZI4NkmS2fB4fN50Owr9iU5lWD8WnsK3pcwFeIvlNx+DDptNT8W5sJtPq/jgMO5g+F+MFkmTODZJk9hxkej0Cn8DVZJoswUF4FzY1nV6N0yS/7SCsMZ3+AIfhmjJNluCZeD+2MJ3ehB9Ikjk3SJLZ8yV8xPS6I47BrWUaXBUfwXNNr3PxD5LL9nW81/TaB8dgP5kG2+BgvAiD6XQBni9JYpAks+npWGV6XQdfwNMwyFjti6/hXqbbC3C65PI9GxeaXtfAZ/BsLJWxujW+hvubbv+A0yRJDJJkNn0H/2y6bYp/xCexs4zJZvg7fB7XNd1OxislV+xkvMJ0W8AL8VnsKmOygL/BEbie6fYjvESS5P8aJMnseh5ON/32x7fwVxhkY7sdjsFzMJh+T8WFkt/thTjN9NsP38RTsVQ2tlviaDwfC6bfM3CeJMn/NUiS2XUGnmM2bI1X4cvYRzaGHfEmHIGbmA2H4UOSK+dcPMts2AIvxdG4k2wMV8PrcBT2MBu+iHdJkvz/Bkky296II82OvXEE3o3ry4awNZ6N/8KjsMRsuBCPkaydt+Mws2NPfAYfwE1kQ9gCT8V38RgMZsPF+AuskST5/w2SZLatxqNxkdnyEJyAf8X1ZTFsjSdhBV6IbcyWg/BfkrWzBn+B882W++ObeBtuJIthSzwJJ+GluIrZ8mJ8U5LkNwySZPZ9G39v9izFH+O7OBj7yiRcG3+PU/AKLDN7voGXStbNiTjI7FmCR+B4/AfuKJNwDTwfP8ArcA2z5wS8UJLktwySZD68GMeZTUvwAByO4/AEbC9rYxPcBx/G9/EsXMVsWoVHY5Vk3b0cXzWbluA++Cy+jSfjarI2luIAfACn4G+wzGxajUfhQkmS3zJIkvlwIf4IF5ptN8M/4Sc4FH+MHeSybIq74vU4Df+B+2Kp2fZcfFWyflbhYTjPbNsNL8epOBSPwtXlsmyC/fF6nIaP4f5YMNtehC9KklymBUkyP47FM/BKs28Bd8fdsQZfwcdxOI7EOebPUuyJffF7uDO2Nl8+j5dIJuO7eDLeYPYt4O64O9bgGByKL+BInG3+LMXNsC/uirtiG/PlyzhIkuRyLUiS+fJPOAB3Nz+W4Na4tUutxrdwLI7FCViBk3Cu6bcJdsIuuAFuhj1wC2xlfp2Fh+MSyeS8EQfgQPNjCfbG3i61GsfjWByL43EyVuBs028BO2M5roc9sDtugW3Mr1/gYVglSXK5FiTJfFmDR+IYXNN8GrA7dsfD/KZf4HScjnNd6kzjtRU2waZYhmVYJpflUfiBZPIejb1wXfNpwE1xUzzUbzoPp+NnONelzsIa47QlNsWmWIZl2B5L5H/7C5woSXKFFiTJ/PkxHojPYhP5dVthK1xXZsk/4AOSxbESD8AR2Ex+3ZbYGTvLLHk1/k2S5HcaJMl8+iKeIpl9h+HZksV1NB4rmX1H4KmSJFfKIEnm12vwDsns+gEegkski++teL1kdv0YD8LFkiRXyiBJ5tuf4XDJ7Dkb98HPJBvOE/Epyew5H/fGaZIkV9ogSebbhTgQ35XMjlV4MI6VbFgX4YH4lmR2rMZDcLQkyVoZJElW4p44XTIbHouPSzaOs3BP/FgyG56E/5AkWWuDJMn/+B7ujXMk0+0gvEmycf0AB+BsyXR7MV4tSbJOBkmSXzoKB+J8yXT6RzxPMg5fx91wnmQ6vR7PkiRZZ4Mkya87DA/ExZLp8no8QzIuR+E+OF8yXd6Gx0mSrJdBkuR/+xgeiIsl0+HteBzWSMbnMPwBLpJMh3fhUVgjSbJeBkmSy/IfeADOl4zb6/FIrJGM10dwAM6XjNtb8QhcIkmy3gZJksvzEdwb50vG6SV4HNZIxu8w3BVnS8bptXgULpEkmYhBkuSKHIY74wzJuDwXz8QayfT4Iu6K0yXj8vd4PNZIkkzMIEnyuxyFfXCyZOO7GH+Cv5NMp6/gtviuZONbjcfiryVJJm6QJLkyTsBtcZRk4zkbB+BfJdPte9gHh0s2nnNxb7xekmRRDJIkV9ZPsT/eL9nwVuB2+LRkNqzEXfAuyYb3Q9wBh0iSLJpBkmRtnIc/wLOwWrJhfBx749uS2XIRHoYnY5Vkw/gsboGvSZIsqkGSZG2twYtxd6yULK4X4F74uWR2vRJ3wU8ki+tluCt+Jkmy6AZJknX1KeyNIyWTtxL3wXNwiWT2fR63wOclk3cmHoSn4RJJkg1ikCRZH9/HHXAQLpFMxqewBz4qmS+nYn88C6skk/F57IGDJUk2qEGSZH2twvNwB5wsWXcX4am4G06VzKdL8GLcDv8lWXer8Gzsj1MkSTa4QZJkUr6Im+OfsUaydo7C3ng51kjyVeyFV2C1ZO0cg1vhRbhEkmSjGCRJJuls/CX2w/GS3+0XeBL2wTcl+XW/wFNwWxwn+d3Ox9NxG3xdkmSjGiRJFsMXsRcOwgWSy/YR3ASvwmpJLs9XsDeejfMkl+3j2B0vxSpJko1ukCRZLBfiebgR3iv5lW/j7rgvfiDJlXExXoQb4h2SX/ku7o174HuSJKMxSJIsth/gIbg9jpZ5thJPwJ74hCTr4kd4BG6HI2WenYWn4mb4T0mS0RkkSTaUw3Er3A/Hyzw5C8/DLngNVkmyvr6EfXA/fF3myS/wd1iOl+NiSZJRGiRJNqQ1+HfcDA/FCTLLfoEXYjkOwjmSTNq/4xZ4II6XWfYLvATL8VycKUkyaoMkycawGu/BTfEAfFFmyal4Fq6Dv8GZkiymNfgAbob74PMyS36K5+C6eCZOlySZCoMkyca0Gh/EvtgHH8AlMq2OwyOxC16MMyXZkFbjo7gjbo33YpVMq2/jz7AzXoCVkiRTZZAkGYsj8UDsjOfgZJkG5+EtuC32wNtwkSQb21fwEOyEZ+J7Mg3Ox9twe9wUb8KFkiRTaZAkGZtT8QJcH3fDO/ELGZM1OBx/gWvgUThKkjH6MV6CG2B/vANny9gcjsfhWngkDpckmXoLkiRjtRqfxCexBe6JB+He2Eo2hi/iPfgATpVkmqzBZ/AZbIa74aG4L7aSjeEovB/vxw8kSWbOgiTJNDgfH8AHsAXuhLvjANxQFsuZ+AQOwaH4sSSz4EJ8BB/B5tgP98QBuLEslrPwKXwMh+JUSZKZtiBJMm3OxyE4BE/CrrgL9sG+uIGsq5/jizgCX8CXcIkks+wCfAqfwlOwHPtjX+yLG8m6OhNH4nB8AUdilSTJ3FiQJJl2J+Ek/ItLXR23w17YA3tgVyyRX/czHIdjcSy+hBOwRpJ5tgJvwVtcagfcDrfA7tgD18Mgv24ljsM3cBy+hOOxWpJkbi1Iksyan+LD+LBf2Qo3xi5Yjl2wC66Jq2EZNjc7LsFK/Bw/wQqswMk4Gd/FjyXJ73Y6PoKP+JUtcWMsx65YjuW4NnbAMmxhdqzGSqzET/F9nIQVWIHv4lRJkvwvC5Ik8+AXOBpHu3xbYhm2wuZYgu2M33m4CKtxNs7CGZJk8ZyHY3CMy7cFlmFrbO5SVzF+5+NCrMbZOAcrJUmyDhYkSXKp83CeJMkknI8fSpJkjg2SJEmSJEmSCRskSZIkSZIkEzZIkiRJkiRJJmyQJEmSJEmSTNggSZIkSZIkmbBBkiRJkiRJMmGDJEmSJEmSZMIGSZIkSZIkyYQNkiRJkiRJkgkbJEmSJEmSJBM2SJIkSZIkSSZskCRJkiRJkkzYIEmSJEmSJJmwQZIkSZIkSTJhgyRJkiRJkmTCBkmSJEmSJMmEDZIkSZIkSZIJGyRJkiRJkiQTNkiSJEmSJEkmbJAkSZIkSZJM2CBJkiRJkiSZsEGSJEmSJEkyYYMkSZIkSZJkwgZJkiRJkiTJhA2SJEmSJEmSCRskSZIkSZIkEzZIkiRJkiRJJmyQJEmSJEmSTNggSZIkSZIkmbBBkiRJkiRJMmGDJEmSJEmSZMIGSZIkSZIkyYQNkiRJkiRJkgkbJEmSJEmSJBM2SJIkSZIkSSZskCRJkiRJkkzYIEmSJEmSJJmwQZIkSZIkSTJhgyRJkiRJkmTCBkmSJEmSJMmEDZIkSZIkSZIJGyRJkiRJkiQTNkiSJEmSJEkmbJAkSZIkSZJM2CBJkiRJkiSZsEGSJEmSJEkyYYMkSZIkSZJkwgZJkiRJkiTJhA2SJEmSJEmSCRskSZIkSZIkEzZIkiRJkiRJJmyQJEmSJEmSTNggSZIkSZIkmbBBkiRJkiRJMmGDJEmSJEmSZMIGSZIkSZIkyYQNkiRJkiRJkgkbJEmSJEmSJBM2SJIkSZIkSSZskCRJkiRJkkzYIEmSJEmSJJmwQZIkSZIkSTJhgyRJkiRJkmTCBkmSJEmSJMmEDZIkSZIkSZIJGyRJkiRJkiQTNkiSJEmSJEkmbME4bYIDZcw2kSTzZVMsx/WwObbAWfgJvouzJUmSTLedcaBMo02M0IJx2hIfkiTJxnVD/AHuhlthM5fvO/g0DsbnsFqSSVmCW+POuBWuj2thE5c6HafiWByBT+J0SZK1dWfcWTIhS6718LevkcyOJZJk/d0Vz8BdrZsVeAnegoskWVc74nH4E+zkyluNj+P1+AjWSJJxORAfksy4QZIk+aVd8Z/4JO5q3S3H63AiHoNNJVkbO+Bl+D7+FjtZOwMOwIdxDH5PkiTZ4AZJkuR//BG+gXuanJ3wOpyIJ2ILSa7IVvhrnIinYDPr7+b4BN6OrSVJkg1mkCTJfFuCF+Id2Nri2AmvxMl4Fq4qya/bFI/FiXgBtjN5D8eXcX1JkmSDGCRJMt/+Ec+2YeyIv8cpeA12lcy3TfEYnIjX4hoW1244HLtLkiSLbpAkyfx6Kp5qw9sKj8eJ+CD2k8yXTfEYnIjXYScbzo74BHaWJEkW1SBJkvl0e7zExrUE98MXcAz+HFtJZteWeAJOxOuwk43jGvgINpMkSRbNIEmS+bM53oylxmMvvAGn4bXYUzI7rorn4Af4J+xk49sDL5IkSRbNIEmS+fN03MA4bYPH4uv4Ih6JzSXTaRe8Aqfg77DMuDwRe0iSJItikCTJfNkaTzEdboe34lS8BreUTIc74kP4Hp6ErYzTgJdIkiSLYpAkyXz5U1zFdLkqHo+v4Jt4Gq4hGZct8Sgcg8/iQCwxfvfA7pIkycQNkiSZL4803W6Kf8SP8An8CbaTbDw3wT/hVLwJe5k+j5MkSSZukCTJ/LgO9jIbBvwe3oKf4gN4ILaQLL6t8Ah8Dt/CE7Cd6fX7GCRJkokaJEkyP+5iNm2K++P9+Bk+gIdga8nkLMF+eDN+jLfhDmbDNbG7JEkyUQuSJJkfe5p9W+H+uD8uwCfwQfwnTpesvRvjYXgIrm927YNvSJIkE7MgSZL5cSPzZXPcF/fFanwJH8ZH8W3J5dsZD8VDcHPz4UaSJMlELUiSZH5sb34N2Af74CU4Cf+JT+Az+IXMuxvjfngA9jZ/riNJkkzUgiRJ5scW8ku74gl4Ai7G4fg4Po5vYI3MuqW4Le6F38dNzLdtJEmSiVrAGiyRJMnsWyWXZRPcGXfGi3E6PofP4rP4FtbILNgBv4d74QBsL7+0RJIkmagFnIHtJUky+34uV8YOeAAe4FKn43P4LL6IY7FKpsEW2A+/h7vi5lgil+VcSZJkkn6+gBXYXpIks+9kWRc74AF4gEudh6/gSHwRR+J0GYOtsR/2wx1xK2wmV8YpkiTJJH1/Ad/ELSRJMvuOlUnYEnfEHf3KiTgGX8Mx+Bp+JotpCW6IW+N2uA32xFJZF9+VJEkm6VsL+AIeIUmS2XeELJbr4/p4sF85BV/H0TgO38F3cbGsrQE3xM1xC+yFvXFVmZQvSpIkk/S5BXwCa7BEkiSz7Rs4BTvJhrATdsJ9/MoqfBfH49v4Nk7ASThbBuyE3bA7boqbYjdsJYvlZzhWkiSZpE8s4Af4PO4oSZLZtgbvxdNkY1nATXATPMBvWomTcRK+h5NwMk7BD3Ge2bAllmM5dsb1cH3cENfHprKhfRCXSJIkk/I5/GDBpV6HO0qSZPb9M56MpTI2y7AMt3TZzsGpOBU/xg/xY/wUZ+BMnIEzcCbOt2EswXbYGjvgaliGHXAtXAPXwrVwTewgY/MvkiTJJL3ef1twqffjudhNkiSzbQXehYfLtNkGN8KNXDkX4kyciQtwEc7DKpyLNTjLFdsMW7jU5tgaW2M7bIWtsKVMs8/gaEmSZFKOx/v8twWXWo0n4eOSJJl9z8IDsKXMss2wI3aUXL5nSJIkk/RkrPbfBr/yCbxDkiSz70d4qiTz7rX4iiRJMinvwMf9P4Pf9DicIEmS2fcGvF+SeXUCniFJkkzKCXicXzP4TefiAJwqSZLZtgZ/jCMlmTen4z44V5IkmYTTcE+c69cMftsK3AWnSJJktp2PA/BZSebFGdgfJ0qSJJNwCvbHyf6XwWU7AbfDlyRJMtvOwgF4iySz7iTsi+MkSZJJ+BJuhxNchsHl+xHugBfgIkmSzK4L8Cg8FD+VZBYdjFvheEmSZH1dhBfgDviRyzG4YhfjOdgD78UaSZLMrvfgxngJzpJkFpyAA/Eg/FySJFkfa/Be7IHn4GJXYHDlfAcPwQ3wAvyXJElm0xl4JpbjeThLkml0Kv4Mu+PDkiTJ+vgvvAA3xEPwHVfCkms9/O3W0XVwG9wI18Q2xuce2NH4fAQ/N90eik2NzxJJMllXwWPwNCyTZOzOwovwTzhfkozTgfiQ8fkeDpdwDk7Dd3AUfmgdLFh3P8QPjdtnsaPx+Vt83XQ7EJtKktl3Jl6M1+Av8STsKMnYXIDX4O9xhiTJujgcj5RMyCBJklwZ5+LF2AV/ju9IMgYX4FXYFU/HGZIkySgMkiTJ2jgf/4Kb4L44XJKN4QK8CrviSThNkiQZlUGSJFkXq/ER3B63wcFYLcli+wVehl3xJJwmSZKM0iBJkqyvL+NBuAFegTMlmbQz8SIsx9NwmiRJMmqDJEkyKSfhKbg2/gzfkGR9/QBPxk54Nk6XJEmmwiBJkkzaeXgTbo798G5cLMna+Dr+CNfDK3GuJEkyVQZJkmQxHYE/xE54Dk6W5PKswSG4G/bCv2GVJEkylQZJkmRD+AlegOvhLvg3XCDJ/zgDL8cNcE98UpIkmXqDJEmyIa3BYfgjXBOPxzGS+fR1PArXwVPxPUmSZGYMkiTJxnImXou9cXO8EqdJZtv5eCf2wV54C86TJElmziBJkozBN/Bk7IS74i04WzI7jsJf4Bp4OI6UJElm2iBJkozJJfg0HoWr4wH4AC6QTJ+f4mW4KW6LN+JsSZJkLixIkiRjdSE+iA9iO9wH98MB2EIyTufhI3gXDsHFkiTJXFqQJEmmwVl4J96JLXAA7of7YDvJxnURPo534aM4V5IkmXsLkiTJtDkfH8QHsQnuggNxb1xbsmGswmfwXnwAZ0qSJPk1C5IkyTS7GIfiUJfaA/fEPbEPlkom5xc4FP+Oj+HnkiRJLseCJEkyS47FsXgxroK74l44ADtK1t5P8B/4MD6FCyVJklwJC5Ikyaw6EwfjYCzBTXFn3AV3wFUlv+0SHIlP4lB8FaslSZKspQVJkmQerME38U28GgP2wp2xP+6ArWRenYyP4xP4NM6WJEmynhYkSZJ5tBpH42i8FAvYE7fDvrgdriuz6vv4HL6Az+B7kiRJJmxBkiQJq3A0jsZrXOpa2Af74Ha4OTaXaXQCPocv4HP4oSRJkkW2IEmS5LKdioNxsEstYDfshVtiL9wcW8uYnIav4ih8FV/BzyVJkmxgC5IkSa6cVTgOx+HtLjXghtgLN8NNcVPsikEW2w/wTXwdX8WX8SNJkiQjsCBJkmTdrcYJOMFv2hw3xm7YDTfDDbArtpS19XN8E8fhmzgO38RZkiRJRmpBkiTJ5F2Ar+Prfts1cT1cD7tiV1wPy7EjBvPpdJyIE3EiTsR3cSLOkCRJMmUWJEmSbFin4TQc7rctYEdcB9fBtXBtXAc7YgdcDcuwuelwEVbiJzgVp+AU/BCn4hScgl9IkiSZIQuSJEnGYxV+hB/hKFdsSyzD1bEMy7AVtsZ22ApbYStcBVthE5faCpu41AK29tvO9JsuwTk4B+fhfJyJ83AezsZKrMRKnI6f4VxJkiRzaEGSJMl0Og/n4RRJkiQZnUGSJEmSJEkyYYMkSZIkSZJkwgZJkiRJkiTJhA2SJEmSJEmSCRskSZIkSZIkEzZIkiRJkiRJJmyQJEmSJEmSTNggSZIkSZIkmbBBkiRJkiRJMmGDJEmSJEmSZMIGSZIkSZIkyYQNkiRJkiRJkgkbJEmSJEmSJBM2SJIkSZIkSSZskCRJkiRJkkzYIEmSJEmSJJmwQZIkSZIkSTJhgyRJkiRJkmTCBkmSJEmSJMmEDZIkSZIkSZIJGyRJkiRJkiQTNkiSJEmSJEkmbJAkSZIkSZJM2CBJkiRJkiSZsEGSJEmSJEkyYYMkSZIkSZJkwgZJkiRJkiTJhA2SJEmSJEmSCRskSZIkSZIkEzZIkiRJkiRJJmyQJEmSJEmSTNggSZIkSZIkmbBBkiRJkiRJMmGDJEmSJEmyIS2RzIFBsm5WG6ftJEmSJMm4bWecVkkmaJCsm7ON0xJJkiRJknVxrmSCBsls2UySJEmSjNsWkjkwSNbNL4zT9pIkSZJk3K5inM6RTNAgWTcXG6dlkiRJkmTclhmnSyQTNEjWzRnG6eqSJEmSZNx2NE4rJRM0SNbN6cZpZ0mSJEkybjsZp59LJmiQrJuVxmm5JEmSJBm35cZppWSCBsm6+blx2lWSJEmSjNem2Mk4rZRM0CBZNz81TntIkiRJkvG6CQbj9BPJBA2SdfN943RdbCtJkiRJxmkP43QJTpVM0CBZNycbr70kSZIkyTjdwjj9EKskEzRI1s0K47WPJEmSJBmnfYzTCsmEDZJ1cybOMk77SZIkSZLx2RK3ME4nSSZskKy7E43T7bGJJEmSJBmXO2CpcfqeZMIGybo71jhtg30lSZIkybjcw3gdK5mwQbLujjVe95QkSZIk43JP43WcZMIGybo71ng9QJIkSZKMx+64gXE6GyskEzZI1t2xxmtX7C1JkiRJxuHBxus4ySIYJOvudKwwXn8oSZIkSTa+JXio8fqyZBEMkvXzReP1x9hUkiRJkmxc++N6xusIySIYJOvncOO1DAdKkiRJko3r0cbtCMkiGCTr5wjj9kRJkiRJsvFcGw8wXifhx5JFMEjWzzdxpvHaB7eVJEmSJBvHE7GJ8fqCZJEMkvWzGp80bs+UJEmSJBveVfDnxu3jkkUySNbfocbt97GXJEmSJNmwnoTtjNdqfEKySAbJ+jvU+P2dJEmSJNlwdsCTjdtXsFKySAbJ+jsV3zBu98adJUmSJMmG8bfY1rgdKllEg2QyPmz8XoWlkiRJkmRx7YbHGb8PShbRIJmMdxu/3fE4SZIkSbJ4luDVWGrcvoNjJYtokEzGCfim8XshdpYkSZIki+ORuIvxe79kkQ2SyXmf8dsGr8MSSZIkSTJZ18TLTIf3SRbZIJmcd5sO98RjJEmSJMnkLMG/4qrG7zgcJ1lkg2RyTsTnTIeX4SaSJEmSZDKejLuZDm+WbACDZLLeaDpsgYOxjSRJkiRZP/vgxabDhXiHZAMYJJP1QZxhOuyGt2KJJEmSJFk318DB2MR0OBg/l2wAg2SyLsDbTY8H4HmSJEmSZO1tiQ/jmqbHmyQbyCCZvH/CGtPjOXikJEmSJLnyluKduLXp8XV8VrKBDJLJOwkfNF3eiPtKkiRJkt9tCV6D+5kuL5VsQINkcbzUdNkEB2N/SZIkSXLFXorHmC4/xPskG9AgWRxfwhdNl03wUdxdkiRJkvy2JXg5nmL6vAoXSzagQbJ4nm/6bIGP4EBJkiRJ8itL8Vo82fRZiddLNrBBsngOxRdNn03wAfylJEmSJGFLHIzHmE4vwrmSDWyQLK6/Np0GvBqvxFJJkiRJ5tU18VkcaDr9GK+VbASDZHF9Fp8zvZ6IT+JqkiRJksyb/XAMbmV6vQTnSzaCQbL4noY1ptedcQxuL0mSJMk8GPA0fAbXML2+h9dKNpJBsvi+irebbtfBZ/FCbCJJkiTJrLo2Pol/xILp9lRcJNlIBsmG8Wyca7oNeDa+iltJkiRJMkuW4M/xLexv+n0KH5ZsRINkwzgVf2827IEv4VW4qiRJkiTTbg98Fm/AdqbfJXiKZCMbJBvOy3G82TDgr/BdPBYLkiRJkkybq+N1+BruYHa8CsdJNrJBsuFciD/DGrNjB7wWJ+CRWJAkSZJk7HbAi3ESHoPB7DgZz5GMwCDZsI7Aa82e6+Gt+C7+EltJkiRJMjbL8SqswDOwldnz5zhPMgKDZMN7Nk4xm3bBq3EKXombSpIkSbIxLcW98O84EX+Frcymt+FTkpEYJBve2Xgk1phdV8UT8U0chadiZ0mSJEk2hCW4LV6G7+Oj+H0sNbu+jydKRmRBsnEchpfi6WbfrXFrvBRH4xB8AkfhIkmSJEkmYXvcCQfgHriO+bEaD8NZkhFZkGw8f4O7Yi/zY2/sjb/BhfgKvohjcSy+g4skSZIkuSLbYXfsjr2wH3Yzv16EIyQjsyDZeC7CQ3E0tjJ/NsN+2M+vrMEPsQKnYiVOxxkudT4ulCRX7Gz8FMdjpWQ6bYEbYmdcBUslmSdbYwELWIZluBp2wi7YXn7pSzhIMkILko3rO/gTvE/+xxLshJ0kyWSchMPwPnwaqyXjdSM8DHfDLbFUkuSK/BQPxCrJCA2Sje/9eJkkyWLYFY/GJ3AyHo/NJeNyV3wGJ+A5uA2WSpJckUvwB/iRZKQGyTg8A5+VJFlMO+M1+BbuIdn4luOj+CTuJEmyNv4PPisZsUEyDpfgQfieJMli2xWH4JXYVLJxPBDfwL0kSdbW2/ByycgNkvE4HffEzyVJNoQn4hBsJ9mw/hrvx7aSJGvrMPy5ZAoMknH5Lg7ERZIkG8L++Di2lGwYf4cXSJKsi+Nxf1wkmQKDZHy+gEdgtSTJhnAbvB+DZHH9BZ4jSbIufoQDcJZkSgyScXovHidJsqHcE8+WLJ698U+SJOvidNwN35dMkUEyXm/AkyVJNpSDcDPJ5C3gX7GpJMnaOht3wbclU2aQjNsr8SxJkg1hKf5JMnmPw80kSdbW2bgbjpVMoUEyfi/GsyRJNoQ7406Sydkcz5IkWVtn4244SjKlBsl0eDH+UpJkQ3iiZHL+ANeQJFkbp+P2OEoyxQbJ9Phn/ClWS5IspntjB8lkPEKSZG38CHfAsZIpN0imy1txP5wvSbJYFnAPyfrbDneSJLmyvoV9cbxkBgyS6fMfuD1+IkmyWO4oWX/7YZAkuTI+hX3xfcmMGCTT6WjcBsdLkiyGvSTrb09JkivjLbgXzpLMkEEyvb6P2+BDkiSTdn3J+ruBJMkVWYUn4VG4SDJjBsl0OwcPwLOwWpJkUraTrL+rSpJcnp/gLniVZEYNkum3Bi/G3XG6JMmkXEWyfq4iSXJZvohb4POSGTZIZsensAc+LkkyCedI1s/ZkiS/7hI8D3fEqZIZN0hmy2k4AE/ChZIk6+p8XCJZP+dIkvzSybgDDsIqyRwYJLNnDV6FW+NoSZJ18V+S9XeiJMn/eAtuji9K5sggmV3H4rZ4Gs6XJFkb35Ksv29Jkvl2IvbHo3C2ZM4Mktm2Ci/DzfBpSZIr6/OS9fc5STKfLsFLsAc+I5lTg2Q+nIS74gE4WZLkd/mYZP39BEdLkvlyKHbHM3G+ZI4NkvnyQdwEz8a5kiSX5XP4gWQy3ilJ5sN3cS8cgOMlMUjmzwV4EW6AV+FCSZJf9xrJ5PwrzpUks+sUPBY3w8ck+f8Nkvn1YzwJN8QbcLEkybfxQcnknIlXS5LZ82M8GTfC63GxJL9hkOQHeAyuj9fgF5Jkfj0BqyWT9SKcKklmwwr8FXbFK3G+JJdpkOSXfoAnYGf8NX4sSebLm3CYZPLOwV9Ikun2FTwY18ercb4kV2iQ5H/7Of4e18XDcJgkmX3fwF9JFs9H8Q+SZLqch7dgH9wa78clklwpgySX5yK8C3fBDfASnCZJZs8PcG+cL1lcz8L7JMn4fRWPxTXxKBwpyVobJLkyTsQzcR3cEW/AzyTJ9DsRd8IPJYtvNR6Od0uS8fkm/gbXx63wepwtyTpbkGRtrMbn8Xk8HnfEvXEAbixJpssn8Yc4XbLhXISH4bt4DgZJsnGswhE4BB/GCZJM1IIk6+oSHIbD8BQsxwHYH/vhGpJknH6B5+IVWC3Z8NbgIHwWr8eNJMniW4Pj8Xl8Ep/C2ZIsmgVJJmUFXofXudSu2Bf74Ba4KbaSJBvPRXgrXoAfSja+z2JPPBb/B9eUJJPzExyLr+JwHIkzJNlgFiRZLCfhJLzDpQbsit2xO5ZjF+yC62CpJJm8S/AVvA//hp9KxuVCvBKvxX3wR9gf20qS3+18rMBJWIHv4Vgch59KslEtSLKhrMaJOBEf8psWsCN2wNWwPZZhC2zrUltiU0lyxS7BOTgN38HROEcyfhfhA/gAlmIP3AS7YGtsLsm8+QUuxiU4B+fiZ1iJlTgdP5NktBYkGYNV+BF+JEmSXIKv4Wtm0I/e/nBJksyDQZIkSZIkSTJhgyRJkiRJkmTCBkmSJEmSJMmEDZIkSZIkSZIJGyRJkiRJkiQTNkiSJEmSJEkmbJAkSZIkSZJM2CBJkiRJkiSZsEGSJEmSJEkyYYMkSZIkSZJkwgZJkiRJkiTJhA2SJEmSJEmSCRskSZIkSZIkEzZIkiRJkiRJJmyQJEmSJEmSTNggSZIkSZIkmbBBkiRJkiRJMmGDJEmSJEmSZMIGSZIkSZIkyYQNkiRJkiRJkgkbJEmSJEmSJBM2SJIkSZIkSSZskCRJkiRJkkzYIEmSJEmSJJmwQZIkSZIkSTJhgyRJkiRJkmTCBkmSJEmSJMmEDZIkSZIkSZIJGyRJkiRJkiQTNkiSJEmSJEkmbJAkSZIkSZJM2CBJkiRJkiSZsEGSJEmSJEkyYYMkSZIkSZJkwgZJkiRJkiTJhA2SJEmSJEmSCRskSZIkSZIkEzZIkiRJkiRJJmyQJEmSJEmSTNggSZIkSZIkmbBBkiRJkiRJMmGDJEmSJEmSZMIGSZIkSZIkyYQNkiRJkiRJkgkbJEmSJEmSJBM2SJIkSZIkSSZskCRJkiRJkkzYIEmSJEmSJJmwQZIkSZIkSTJhgyRJkiRJkmTCBtkYtpIkSZIkSTLDBrPtLOO0iSRJkiRJkhk2mG1rjNMmkiRJkiRJZthgtp1vnLaSJEmSJEkywwaz7ULjtKUkSZIkSZIZNphtq43TMkmSJEmSJDNsMNvOME5XlyRJkiRJMsMGs22lcVomSZIkSZJkhg1m20rjtEySJEmSJMkMG8y2lcbpmpIkSZIkSWbYYLb9zDjtKkmSJEmSZIYNZtvpxula2FSSJEmSJMmMGsy2lcZpCa4rSZIkSZJkRg1m28+wyjjtIkmSJEmSZEYNZtsl+IFx2k2SJEmSJMmMGsy+k43T7pIkSZIkSWbUYPatME57SJIkSZIkmVGD2XeycboZBkmSJEmSJDNoMPtONk5b4PqSJEmSJElm0GD2nWy8bitJkiRJkmQGDWbft43XvpIkSZIkSWbQYPadhR8Yp/0kSZIkSZLMoMF8ONY47YarSpIkSZIkmTGD+XCccVqC/SRJkiRJksyYwXz4hvG6uyRJkiRJkhkzmA/HGa97SpIkSZIkmTGD+fBdnG+cdsGNJEmSJEmSzJDBfFiFLxuvu0uSJEmSJJkhg/lxhPH6fUmSJEmSJDNkMD8ON153wtUlSZIkSZLMiMH8OBJrjNOAB0iSJEmSJJkRg/lxJr5lvP5QkiRJkiTJjBjMlyOM1764tiRJkiRJkhmwYL58Bn9hnJbgj/H3kiRjshWuia1xFUlmwbk4Fz/BGZIkyaJYMF8+gdUYjNOj8WKsliTZWJbh/rgL9sFOksyy0/FVfBofxEmSJMlEDObLGTjSeO2C/SVJNoa98D6chjfiD7CTJLNuB9wD/4jv4XM4AEskSZL1Mpg/hxq3P5ck2ZCuiX/DMXgQNpFknt0BH8MR2FOSJFlng/nzMeN2IK4lSbIhHIhv4Q8lyW+6HY7GM7FEkiRZa4P58zX8xHhtgr+SJFlsz8GHcFVJctmW4kV4HzaVJEnWymD+rMEhxu0x2FqSZLG8BH8nSa6cB+I/sakkSXKlDebTe43bdni0JMlieCr+jyRZO3fFO7BEkiS5Ugbz6dM4w7g9BZtKkkzSHfEPkmTdPBhPlSRJrpTBfLoYHzJuO+FPJUkmZSu8E4MkWXcvwk0kSZLfaTC/3mf8no3NJEkm4bm4jiRZPwv4Z0mS5HcazK9P4WfGbSc8VpJkfe2AJ0iSybgT7iRJklyhwfy6BB80fs/AlpIk6+MJ2FySTM4zJEmSKzSYb28xftfAMyVJ1tUSPEKSTNbdcE1JkuRyDebbl/FN4/d07CxJsi5ugeWSZLIG/L4kSXK5Bnmj8dsc/yhJsi7uLEkWx10kSZLLNcg7cKHxezBuL0mytm4hSRbHLSRJkss1yJl4v+nwemwmSbI2bixJFsdybCpJklymQf7HG02Hm+CZkiRrY5kkWRwDtpckSS7TIP/jCzjWdHg2biJJcmVtJ0kWz9aSJMllGuSX/tF02BRvwlJJkiTZ2LaWJEku0yC/9F78yHS4Hf6PJEmSJEmSkRrkly7Gq0yPv8MtJUmSJEmSjNAgv+6NOMd0WMC7sLUkSZIkSZKRGeTXnYV/MT1ugH+SJEmSJEkyMoP8by/FBabHn+BRkiRJkiRJRmSQ/+00vMF0+WfcSpIkSZIkyUgMclleiF+YHpvhYOwgSZIkSZJkBAa5LD/Da0yXnfE+bCpJkiRJkmQjG+TyvBRnmy53xhuxRJIkSZIkyUY0yOU5Ha8wff4Yz5EkSZIkSbIRDXJFXorTTJ/n4eGSJEmSJEk2kkGuyLl4tun0ZtxXkiRJkvx/7cEL/PeFYOjx9/N9/k9Kbp0OHdMrlctJKNeUciRGFO3FjrDULs7MYZuTRuaysQ2j3F82DC+SHMVZRoWSSxdNR1cKU6Qk9ozuPT23c7xaL42env/zPP/L7/J5v5NkEQyyPh/B142fZTgO+0iSJEmSJFlgg6zPGrzUeFqGz2BPSZIkSZIkC2iQ2TgDxxhPW+AE7CFJkiRJkmSBDDJbL8f1xtPdcAr2kSRJkiRJsgAGma3L8efG1xb4LJ4hSZIkSZJkns3Ihng3nofHGE+b4zgcgmMkSRbTlyXZEI/ClpIkydiYkQ2xBi/AN7DMeFqGj2F7vFGSZLHsLcmGOBe7SpIkY2OQDXUh3mT8vQHvx4wkSZIkSZI5NsjG+BtcbPy9ACdgK0mSJEmSJHNokI2xAr+L1cbfb+Js7CJJkiRJkmSODLKxzsIbTIYd8TUcJEmSJEmSZA4Msilej7NNhi1wFN6FzSVJkiRJkmyCQTbFKjwX15kcL8E/46GSJEmSJEk20iCb6l/wRybLQ/F1/CmWSJIkSZIk2UCDzIWj8WGT5U54Oz6HHSRJkiRJkmyAQebKi3CByfObuBCHYqkkSZIkSZJZGGSu3Ihn4VqT5844El/DrpIkSZIkSdZjkLn0XRxkcj0K38B7cU9JkiRJkiTrMMhc+zReZ3IN+EN8F4dimSRJkiRJkl8xyHx4Hf6PyXZ3HImL8HwMkiRJkiRJ/t0g82EtDsI5Jt/98BFciOdgiSRJkiRJMvUGmS83YH/8yHR4EI7BOTgIyyRJkiRJkqk1yHz6EfbDNabHrjgKl+Aw3E2SJEmSJJk6g8y3c/HbWGm6bIu34HK8C7tKkiRJkiRTY5CF8AUcYjrdFS/Bufhn/AHuKkmSJEmSTLRBFsox+GPT7dH4B1yJj+NZ2EKSJEmSJJk4gyykd+O1siUOxHH4KY7Cb+MekiRJkiTJRBhkof0V/lZutSUOwrH4V3wFr8IjsFSSJEmSJBlLM7IYDneLV8htLcXj8Dj8Na7FmTgdp+EsXC9JkiRJkoy8GVksh7vFK2Rd7oon48lusRbfw/k4H+fjYlyCFZIkSZIkyciYkcV0uFu8QmZjCe6P++OZ/qMrcSkuxRVYjuX4CZbjBlyDNbgJN0kyLZZIkiRJsuBmZLEdjpvwF7Ip7o1747GSJEmSJMmiG2QU/CX+VJIkSZIkyYQYZFS8E4dgpSRJkiRJkjE3yCj5CJ6O6yRJkiRJkoyxQUbN5/B4XCVJkiRJkmRMDTKKvoHdcL4kSZIkSZIxNMiougx74bOSJEmSJEnGzCCj7FocgDdKkiRJkiQZI4OMutX4cxyIGyRJkiRJkoyBQcbFJ7Abvi1JkiRJkmTEDTJOvolH4xOSJONukCRJkkywQcbNtTgQf4SbJEnG1b6SJEmSCTbIuHovHoULJUnG0YskSZIkE2yQcfZNPBpvw1pJknHyZGwpSZIkmVCDjLubcCieiB9IkoyLzbCPJEmSZEINMilOxUPwDqyRJBkHj5QkSZJMqEEmyXV4KR6LCyVJRt2DJUmSJBNqkEl0Fh6B1+JmSZJRtY0kSZJkQg0yqVbir7ALTpIkGUV3kyRJkkyoQSbdt/FUPA3fkSQZJfeQZNz9XJIkuV2DTIsT8RD8L1wtSZJkvCyTJEnGyiDTZCXejgfgPVgpSbKYNpdktrY0mm6UJElu1yDT6Kd4Me6P92G1JMliuIsks7W50bRCkiS5XYNMs8vwQuyED2O1JMlC2hJ3kmQ2tjaa1kqSJLdrkPAv+F08FB/FSkmShbK1JOtzd8wYTVdLkiS3a5D80kV4PnbEEbhGkmS+bSPJ+mxjNC2XJEnWaZD8usvxZ9gWh+GHkiTz5b6SrM99jablkiTJOg2SdbsWR2JHHIgvYK0kyVzaXpL12cFoWi5JkqzTIFm/VfgEnoz7429wpSTJXNhBkvXZ0WhaLkmSrNMg2TCX4NXYDr+FT+NmSZKNtYsk6/Ngo+lKSZJknQbJxlmF43EA7oWD8TmskiTZEA+VZH12MZoukyRJ1mmQbLqrcRT2xTZ4AT6HmyVJ1mdr3EeSdbkHtjOaLpUkSdZpkMytf8MHsC/+Ew7A3+MHkiTrsrsk67K70XWpJEmyToNk/lyPT+NF2B4742U4ET+XJLnVnpKsy55G1/clSZJ1mpEsnItwEd6KAQ/CXtgTe2JHSTKd9pJkXfYymm7AlZIkyTrNSBbHGnwT38R73WIbPAIPxS7YBQ/CjCSZbI/E1lguyW1ticcaTd/EWkmSZJ1mJKPjKpyIE/3SMuyMnbEDdsT22AHbYUaSjL8BT8YxktzWE7GZ0XS+JElyh2Yko20lzsN5ft1S3AfbYmvcC1tja2yNe+LubnF3LMEWuBOW4q6STJtluLPR9BQcI8ltPdXoukCSJLlDM5LxtRqX4TJJMju740yj6RnYDDdL8gtLcYDRdZ4kSXKHBkmSTI9zsNJo2gpPkeRWe+PeRtd5kiTJHRokSTI9VuBco+tASW71bKPrIvxMkiS5Q4MkSabL142uZ+IektwZzzG6TpMkSdZrkCTJdDnD6NoCz5Pk2bib0XW6JEmyXoMkSabLKUbbCyV5odF2hiRJsl6DJEmmy4/xLaNrFzxJMr12x+5G1xX4riRJsl6DJEmmz6lG26GS6XWY0fZ5SZJkVgZJkkyfLxhtT8XDJdPngXim0XaCJEkyK4MkSabPKVhhtP2FZPq8HkuMrtU4WZIkmZVBkiTT5zqcYrQdgEdLpsfOeLbRdgZ+LkmSzMogSZLpdLzR9xbJ9HgLlhhtx0uSJLM2SJJkOv0T1hptj8czJZPvKXia0XesJEkya4MkSabTlfiq0XcENpdMrmV4u9F3Fi6TJElmbZAkyfQ62ujbAX8hmVyHYyej72OSJMkGGSRJMr2Oxc1G359hV8nk2QmvNvrW4jhJkmSDDJIkmV4/wwlG31J8CJtJJscMPojNjL6T8CNJkmSDDJIkmW4fMh4ejr+WTI5XYQ/j4QOSJMkGGyRJMt0+i8uNh8PwJMn4eyxeYzxchU9LkiQbbJAkyXRbjfcZD0twNLaVjK9tcCyWGg8fxkpJkmSDDZIkyQewyni4Fz6JzSTjZwb/G79hPKzFeyVJko0ySJIkP8InjY/d8D4skYyXd+LxxsencIkkSbJRBkmS5BeOMF4OwWsk4+MwvMh4easkSbLRBkmS5BfOxheNl9fhEMnoey7ebLycgTMkSZKNNkiSJLd6s/HzQRwoGV3PwIexxHg5UpIk2SSDJElyq8/jXONlwFF4hmT0PAnHYpnxci7+UZIk2SSDJElyq7V4pfGzDMfhOZLR8QycgM2Mn9dhjSRJskkGSZLktk7CWcbPMhyN35MsvoNwHJYZP9/A8ZIkySYbJEmSX/Uq42nAB/F6LJEsjsNxFJYZT6/CWkmSZJMNkiTJrzoFnze+XoOPYHPJwtkM78Mbja8v4yRJkmRODJIkye05DKuNr4PwVdxXMv9+A1/C/zC+1uKlkiTJnBkkSZLbcwHeb7w9Cv8X+0rmzxPwDexhvP0DzpUkSebMIEmSrMtrcbXxtjVOxDuwuWTubIa/xSnYxni7Bq+WJEnm1CBJkqzLT/FKk+FPcDZ2k2y6h+MsvBxLjL+/xE8kSZI5NUiSJHfkvTjTZHgwzsTbsKVkw22BN+HreJjJcDbeKUmSzLlBkiS5I2vwQqwyGQa8FN/G72CJZHYOxEV4BZaaDKvwB1gtSZLMuUGSJFmfC/Bmk+U++CjOxN6SddsdX8HHcV+T5S04X5IkmReDJEkyG6/HeSbPY3AqTsYekl/aDSfhTDzO5LkYr5ckSebNIEmSzMYKPB83m0xPxBk4DQdgkGm0BPvhVJyFp5hMN+N5uEmSJJk3gyRJMlsX4DUm2574R3wHh+O/yDS4F16Gi/EZ7G2yvQbnSJIk82qQJEk2xBE4xeS7H96IH+Kf8DzcRSbJXfAcfAqX4wg80OT7Io6QJEnm3YwkSbIh1uB5OBf3NvlmsD/2x034Ak7Eifi+jJvtsC/2xb7YwnT5VxyMNZIkybybkSRJNtRP8Fx8EYPpsTmejqe7xfdwOk7HmbgYK2VUzGAnPAZ7Yk880PRagwNxhSRJsiBmJEmSjfFlvBpvML3uh/vhYLdYhW/hW/gevo/LcBWWYzlulLmyObbGf8a9sB12wPZ4CB6EzeRWh+OLkiTJgpmRJEk21puwC54jvzCDXbCLO7YSN8jG2gKbyYb4JI6QJEkW1IwkSbKx1uL38QA8UmZrGe4uWRjn4fewVpIkWVCDJEmyKW7EAfixJKPmR9gf10qSJAtukCRJNtUVeBqukWRUXIf9cLkkSbIoBkmSZC6cg2dhpSSLbQ3+O86VJEkWzSBJksyVk3GwJItpDQ7GSZIkyaIaJEmSufRx/E9JFstLcLQkSbLoBkmSZK79HV4syUI7DH8nSZKMhEGSJJkP78ErJVkor8SRkiTJyJiRJEnmy5twM46UZD4dirdJkiQjZZAkSebTW/ECrJFkrq3Bi/A2SZJk5AySJMl8+wCei5WSzJVVOBh/L0mSjKRBkiRZCJ/AfrhGkk11DfbD0ZIkycgaJEmShfIF7IHLJNlYP8Re+LwkSTLSBkmSZCF9C4/B2ZJsqHOwOy6QJElG3iBJkiy0H+O/4SOSzNbH8Dj8SJIkGQuDJEmyGG7EIfgTrJRkXVbhpfgdXC9JkoyNQZIkWUzvwj64QpJfdRX2wTskSZKxM0iSJIvtNOyK4yW51QnYBV+VJEnG0iBJkoyC5fgtvBgrJNNrBf4Y++MnkiTJ2BokSZJR8h48DGdJps95eATejbWSJMlYGyRJklFzMfbEy7FCMvlW4FV4NL4lSZJMhEGSJBlFq/EWPAynSibXV7Ar3oCVkiTJxBgkSZJRdjH2wUH4sWRy/BR/iL3xbUmSZOIMkiTJODga/xVvxUrJ+FqJt+EBeD/WSpIkE2mQJEnGxTV4GXbCJyTj5zN4CA7F1ZIkyUQbJEmScXMJDsRu+JJk9H0Ze+Dp+I4kSTIVBkmSZFx9HU/A4/E5yeg5HU/A3viaJEkyVQZJkmTcfQX7Yg98Fmsli+sE7IO98CVJkmQqDZIkyaT4GvbHTngPbpAsnBX4AHbGfjhVkiSZaoMkSTJpvoMXY1schosk8+c7eAW2wwtwkSRJkv9vkCRJJtXPcCR2xl74EK6XbLqb8FE8ATvhzfiJJEmS2xgkSZJpcDp+H/fEc/Ep3CSZvZvxGRyEe+L5+BLWSpIkuR0zkiTJNLkRH8fHcTc8HfthX2wl+Y+uxsk4Hp/G1ZIkSWZpRpIkmVbX4GgcjaXYA0/DPngUlsq0WYPzcRJOxBlYJUmSZCPMSJIkYTVOw2lucRfsjr3xGDwSW8mkuR5n4XScjjNxjSRJkjkwI0mS5Nddh5Nxsl/aEY/ErtgZD8QDsUxG3Sr8ABfiPFyA8/E9rJYkSTIPZiRJkszOJbgEx/qlpdge22FbbIvtcE/cA1thK2yFJbgrBtlUK3CTW/wcy/FvWI7luAqX4VJciiuwWpIkyQL6fy3BzI7jkxSDAAAAAElFTkSuQmCC;" parent="1" vertex="1">
                    <mxGeometry x="637.98" y="366" width="53.04" height="60" as="geometry"/>
                </mxCell>
                <mxCell id="48" value="" style="rounded=0;whiteSpace=wrap;html=1;fontSize=14;fillColor=#99CCFF;strokeColor=#6c8ebf;verticalAlign=top;" parent="1" vertex="1">
                    <mxGeometry x="624" y="551" width="410" height="177" as="geometry"/>
                </mxCell>
                <mxCell id="49" value="成果物を生成する&lt;br&gt;&lt;br&gt;■Input Params&lt;br&gt;・messages: [ { role, content } ]&lt;br&gt;&lt;br&gt;■Output Params&lt;br&gt;・inference&lt;br&gt;・execute_result" style="text;html=1;strokeColor=none;fillColor=none;align=left;verticalAlign=top;whiteSpace=wrap;rounded=0;labelBackgroundColor=none;sketch=0;hachureGap=4;jiggle=2;curveFitting=1;fontFamily=Helvetica;fontSize=16;fontColor=#000000;" parent="1" vertex="1">
                    <mxGeometry x="711.5" y="560" width="306" height="131" as="geometry"/>
                </mxCell>
                <mxCell id="50" style="edgeStyle=orthogonalEdgeStyle;sketch=0;hachureGap=4;jiggle=2;curveFitting=1;html=1;entryX=0;entryY=0.5;entryDx=0;entryDy=0;fontFamily=Helvetica;fontSize=16;fontColor=#000000;exitX=1.018;exitY=0.214;exitDx=0;exitDy=0;exitPerimeter=0;" parent="1" source="30" target="43" edge="1">
                    <mxGeometry relative="1" as="geometry">
                        <mxPoint x="574.74" y="273.78" as="sourcePoint"/>
                    </mxGeometry>
                </mxCell>
                <mxCell id="51" style="edgeStyle=orthogonalEdgeStyle;sketch=0;hachureGap=4;jiggle=2;curveFitting=1;html=1;entryX=0;entryY=0.5;entryDx=0;entryDy=0;fontFamily=Helvetica;fontSize=16;fontColor=#000000;exitX=1.029;exitY=0.462;exitDx=0;exitDy=0;exitPerimeter=0;" parent="1" source="30" target="47" edge="1">
                    <mxGeometry relative="1" as="geometry">
                        <mxPoint x="575.26" y="285.96000000000004" as="sourcePoint"/>
                        <mxPoint x="690.98" y="234.0000000000001" as="targetPoint"/>
                    </mxGeometry>
                </mxCell>
                <mxCell id="56" value="Action実行&#10;専門家C" style="shape=image;verticalLabelPosition=bottom;labelBackgroundColor=none;verticalAlign=top;aspect=fixed;imageAspect=0;image=data:image/png,iVBORw0KGgoAAAANSUhEUgAAAd0AAAKHCAYAAADEwJJiAAAAAXNSR0IArs4c6QAAAARnQU1BAACxjwv8YQUAAAAJcEhZcwAADsMAAA7DAcdvqGQAAMluSURBVHhe7P0HdFzZdp+JWy/p5SRpbDn9PbYsWeORxv+Rg2yPR1aypJdjv9wvdDPngEQwAWDORA7MGYEgwRyRAxMIgAQJMAAgCQIgiByr7j1hz9rnVoHgBbubzSbAKuD3rfUtstkAWag6Z+970j7/6B8BAAAAAAAAAAAAAAAAAAAAAAAAAAAAAAAAAAAAAGACQUS/pbX+Pa/X+0dE9Emi1s9LaS+RUk7VUs7XWs5XSq1SSi0XPpVSUUqpGK3lHC3lPCnldCntOb6/7/Ner/ePu7q6vuz+twAAAIAJDSddIvrS4ODgv/B6vX8ohPhrqaRXSHFba62kFJVaycdEWpMPrbWUUtRLKW7x1wgpbkklG71e77/TWv+B1vr3tdafc/9bAAAAAHCS7ydt2/6PWlv/XmulpbSbpJaXOvsGah60dnjuNT6lmoZW471HT/Wjtq6engFPldLyqpR2p5ZWExF9xbKs/9v9dwMAAAATGt8I95NE9Anfrx/r6en5nX6PlXH/cRdlX6iUK5PPDIZtPiZDNxyjuWtyaPbqo8b5a3ModOMxWrTluL1h58XBM8U1+kFzl8djWWt9f/fHXX/3b7n/fQAAAGBCwNPJtm0flMLqlNK+LaWUj5u7bh7LvdERnXyWpkdn0tSoDJrm+/X99H/NrJWHacPOXJV36W5zZ1f/bTMDLe1q27aeWJZYjcQLAABgQtLX1/ePhRAdRJraunrpdNEtitx6nCYtz6IpwxIp//oy+r+Wv3dqdDatSjtLpZV11OfxkNZSW5a4iqQLAABgQqK1/oItBvbffdhOG3bn0ztLM2lyVCZNjc6g6dFZI5Lqy8rfy3/HpKhMmhaTTduzL9PDls5BIhHtfg0AAADAuITXVm2t/6O0bT7as6x/wLMhp6C6LXzTcfp1ZDpN5aQZk0nTOFly4ozKoOkxzq/uxOr2+a/Ncv6OGB71ZtK7SzIoOumMKrhWd5dIL5XSXiwt65derf/I/RoBAACAcQEf3xHK2iilddnj9VaeKrmn567OoXeXHqKpJlG++uj2PY3KoinRWTRp2SFaHHuGSm80WqTlFSG8BVJ657tfIwAAADAuIKJPa2mHDHq87btyLndOic6kycuzaGoMj1RHL+ny383/Bv9bc9cclScLq9uJ1F2t5Vvu1wgAAAAELb4jQZ/iqWWt9WcsoTZdrm3Rc1bn0KTl6TSNp4OXH3aSY/QHTyN/WM3fycl8+WEz9TxpeSYtTThHtxqe9hPRDH6NWuvf5tfnfu0AAABAUEFE/8QWVr+Usl5KWVN177EO3XSMfrPsEE1fPjJJjrpRWfRuVDqt3naRHjS3CSJ9UwpRJ5Sow85mAAAAQU1fX9//JqUs1lrtae3ops178+mdyEM0PZqP9YzCdPIHyOu7ZrPV8kzad+IaDQwOdhJRuFKqGkkXAABAUMMjXaVU96DHup2Te6Np6orDZkfxdN86qzspjrZTzO5oPgecSfPWH5NF1+8/0Ercl0LeQNIFAAAQ1HDVKa10dkePTSuSz9M7Sw7Q9BjnWA+Pdt1JcfT1HylKpynL0yk5/RJ5vdKjld6ApAsAACCoIaIvD3jt00XlD+idRQde6sztWMlJd/6qI1R1p8VLRHFIugAAAIIanl5u6+qRG3c5a7mjsUP5VTWlJpdn0q6cq2QLuxZJFwAAQNDhvzmIf8932j580q2nrcigKcszzFquO/m9Kfm18GuKjDtJTzt7G32v23/rERIwAACAwIav5iOifyWl/A0R/dPK+y3/28UrdfrXS3iUy5uYAmeky6+FN1TNWXuUSioaHnKi1Vr/eynlr7TWX3X/bAAAAEBA4iuG8Uenim/+m23Zl/WkpVwIgy8jCJyka44tLc+kWSuzaXfOpUdcMcvr9f4hRrkAAACCDiL6bPOTrvjoxPM02dx7y1PLgZN0+bXwa5q+4jBt2JHbR6TnuX8GAAAAIKDRmr4obTlTKbHhcVtX0by1x2iy76hOIO1e9t9IxOeFlyWc9drKPqGUiJKW/BlGuwAAAAIeIvq4Pdj7P5RtH1FKDdx92HKHLzZwrusLUKMyKXTzCau7v/+O1rpLWVaC9vbg2j8AAACBDe/8FcLzd8Ky1kphtdTcf1zPR3Omv4HqUy9tTCaFbjxudXT13NNK3LVt73wi/Z/dPxsAAAAQUPA6rtZqlVLylJB24536ZjU1kEe55iaiTFq05QR1dvd4tRZ3lJKZWsvZ7p8NAAAACCh4pCul/pGw7TYp5NW79U/ypq3INjWPzRndAFrT5ddizurGZFLYxmOe3t6+s0qqG8IWNbat/6v7ZwMAAAACCj52I205X0l1VmsZeu/B09Wh63NosrnTNgA3UvFrijlMy2NPdkkpQ5RSUUqqU1rqH7t/NgAAACDg4MQrhPgrIvu/tLZ37VuVdoEmLeNL6jnZBU5FKrNzmc/rxhyhrXvzBon0aq2tP7Vt+39g9zIAAICAx1dG8Xe11v+9u7v7K23dA9MPnLlBv16aYTYsOWd13cnvzcivhZPujFVH6UhuNd+r+w+dnZ1f4teutf6c+2cDAAAAAhouA3m6qPbRu8u4AtTIxBcIzl59VJVUPszD6BYAAEBQ09PT8zu36lvKF647ZuocB1pFqmkxhykq/oz9pLsnA0kXAABAUENa/05XV39V6uGrxJceTI8+/ILk94bk6eUVWZRx5obQUh5G0gUAABDUEOnf11rrSzce0JRl6TQlgNZ0pyzPotANx6jucTsRSb7wAEkXAABA8MKX2CspBp887RSr0s71vcO3Db0gAY61XLBjclSGTs0s7R0cHJRaiWokXQAAAEGN1n3/WAj7qRDSyr92v33OmhyavOzNJ17n8vrTqvp+Cw9zLSGsS0i6AAAAghoi+opt20eVUoefdPTu3p5VRpOWZRBfgvAmdjPzvzmZdyyvyqbMs9d7hFLJSqkcy7KSkXQBAAAENZzI+vv7/4kQ4juS6Ic1D54UbNxfSu8sPkBT3kChDE64XP4x7cg1q62n9xCfzRVC/EN7e/sX3a8dAAAACDpaW1s/b9v2f9Za/6ElxJZrNx+p0A0naNKSsT8+xAUxVqdeVLX1T3gN9yda6//dtu0/I6JPuF83AAAAEFQ4V/2Jv/N6vT/QWn9BabFeCGvg0s1Gmrv6CE1ePnaJl9dxl8SdodoH7ZpIPJBSTm1pafmcZVm/sG0bFxwAAAAIfojoY77ykJ+WUi+QUpTb0u65fKOB5q/LoSlLs8zxHVOWMSqdpkfz7T+vfp6Xv5f/Dv67+O/kv5svNlieeJbu1LdoIvlUSnlBSv2TYa/vY+7XDQAAAAQtWuvPSG0vkVKUSjFYT0RUfe8JLU08Q5NjMmkyJ0dTPCOLpn6EEbDzvc7fxX/n9NWHadOefHrc2ktEWkoxeEtKeUZq6133awQAAADGBVrr35bSniaEaJRSPJZC1Elhe3r6Ldp/skLMXJVlTVnuTAPz5QjuZPrSxjh/x5TlmTp0U451puSOFFKRklavFOKelKJJCFEltPfr7tcIAAAAjAuI6FNa9H9DysGfSm3PFEL/pSU9vyatl3V3D8zIPluxJ25vAc1YwaPULJoe4+xudt/By//9oj/jX53vyaJ5a49QSnpR77mimk1Symlay6WWHPyREPQ3UttzpBz8IQnxP92vEQAAABj38CjYtu0Zdx+0ihkrDtJPFm6jSUsP+Uau/rt4X5x0zf/zJWg+ivTTkG20JP4YtXf2NhHpr+H8LQAAADAM3mSltZzZ0Nha+4uw7Z5vTI+j789JpB/NT6Wfhe6gXy7aS79ZvJ8mLTtIk5enG/n3/GdvR+w2SfqH81Pou7MS6Fsz4vSCtRk9A15vEZH+rvvfAgAAACY0PNIlohmPWjsHJi3ZS38/ZTN9c3osJ1D69ow4+s7MeMdZCc/r+3P+Gv7ab0yPpa9Pj6VFm4/qActqIK2/4f63AAAAgAkNF6fQWv9DY2vn4xkx6fR3kzebJPph5UTNiXd5wgnV7/VcIaJ/7/63AAAAgAmNL+n+fWNLx+tJuvEnVP/gIJIuAAAA4AZJFwAAABgjkHQBAACAMQJJFwAAABgjkHQBAACAMQJJFwAAABgjkHQBAACAMQJJFwAAABgjkHQBAACAMQJJFwAAABgjkHQBAACAMQJJFwAAABgjkHQBAACAMQJJFwAAABgjkHQBAACAMQJJFwAAABgjkHQBAACAMQJJFwAAABgjkHQBAACAMQJJFwAAABgjkHQBAACAMQJJFwAAABgjkHQBAACAMQJJFwAAABgjkHQBAACAMQJJFwAAABgjkHQBAACAMQJJFwAAABgjkHQBAACAMQJJFwAAABgjkHQBAACAMQJJFwAAABgjkHQBAACAMQJJFwAAABgjkHQBAACAMQJJFwAAABgjkHQBAACAMQJJFwAAABgjkHQBAACAMQJJFwAAABgjkHQBAACAMQJJFwAAABgjkHQBAACAMQJJFwAAABgjkHQBAACAMQJJFwAAABgjkHQBAACAMQJJFwAAABgjkHQBAACAMQJJFwAAABgjkHQBAACAMQJJFwAAABgjkHQBAACAMQJJFwAAABgjkHQBAACAMQJJFwAAABgjkHQBAACAMYKIPqa1/uvW9u6HM1ek0/+atMkk0A/rN6Ztpa9P20pRCSelUqJEa/2H7n8LAAAAeF+I6JNCeL8lhBUrpT3FK+1lWstfSq1ndPdZa8uqHqw6eOLqqsS9xatid+eu2rI7P2jcvLtg5aZdBSsyT189dCS3qnda1AH64bxU+snCba/kjxdso5D1h/WZ0ttN+45dTtm0Iy/K/W8Gvrmrkg+WrMo8V7Gq4k7zao9HrdRaT9JavsOfvZT2DCGsjbY9+N/cbQUAAMBHhKjh00qJ5VprrZTtEUKqO4+e9h/NvenZeeIGbdxfRjHb82hJUi4tTrxISxKCz/AtZ2nO6hyaGpVBU6Izza+vIn/v9OhMmrf2OC2KPT/i3wkG+TNcmpxLK3cW0NZDV2jvqZv6XGnNQGNb9wCRlkrZlta6R0rrbXdbAQAA8BHJy6NPCKH/QSm7uddr0Z7jl2lx7EmaviKb3llykCYvPURTlmXS1GVZNG3ZYZoclRV0crKcHJVB02KyaGoUOzKhvpxZ5u/gv8v5O0f+W4Euf4b8WfJnyp/tu0sP0azVRykm+SwdK7xJlpJKaXFFa/oTd1sBAADwChDRb2mtP0NEn9Za/7ZQYu3dx916ScJJmrY8nSYvS6dp0ZlOkorOMr+fGp1BU6MP01Tz+2Azi6bHHKZpUZnOz/VRjMo0fxf/nSP/nWCQX3uG+VnMZxvjfL78mc+MyaRN+/Kp8WlvLxFN9rWVz3I7cbchAAAAL4nW+veEtAalsD2W12o8WVLbELrpBL2zlIOxE4ThxJNH8pOXZ9LyxDPi8u1H90mKJ0LatlT2DX5Qc7cjAAAAL4HWPb+jlH3NFqL82u0mWrAmh95ZlklTYtLNmqU7GMOJIX/2k6PTadKywxSTeI7uPmqziNQlKa0cJF0AAHhFtNb/WEohb95rfrg0/jT9ZslBs0Y5LSadpvG63wsCMpwAmjXrdJoclUlTlmfShp158nFr10NNshRJFwAAXhI+FqS1+K6U9lRew9Va//8HLUtvy75Mv150iKbxJiOTbJFwYZZpC1OX81JDNh3NrVZSiVLS3V8lot+V0jtXa/FX7jYGAADABydaTri2zWdw9d9Zkn5YUduspyzjwPqaNhjB8WUUr/FmUvim41Tf3NlCRH8hhPiuECJKCO8P3G0MAACADx7pSil/JaWslVI0Pmrq+OnmvQX63aU8neg7CuMOunBCa45WRWfQjBVHKTmjqImIfiGE3S+lLBRC/K27jQEAAPBBRJ+ybXu2FLa2hX27tr7p/IyVvuNAPKLBtDJ0ObxthG/OGejs6jkjlXiopHgqhPimu40BAADwwWdylVIrbSmPCWuwrqiqgSYt9Z3FhfB95KIgC9fn0K2GFkHKe9MW6qBty5nuNgYAAMCHb3r5LaXUDo9lZew6ckVMNhtlRgZZCIfLBTXmrD5CObk3O4hol1IqTgjxl+42BgAAwIdvpLuVSD3u6RuIWrP9Qj92KsOXddaqwzo5vaiBiFYqKR9rree62xgAAAAfvqS7WUih+z3eS6u2nRU8bcgB1f8rhG79bWPmyixKzirh0pDXhBB9UspZ7jYGAADAx6NHjzjpbiQi8liC1u64+Ky+MoTvI08vz1iRRbtyLpMmIq11r5RyhruNAQAA8IGkC1/V4UmX4aSrNZIuAAC8J0i68FVF0gUAgA/JByXdD7OuO+KOWXPl37P14eF/NvJaOTg6+t5v3/vvJMvn/2z4/3sZn/09SLoAAPCh+KCkOzzQslOi0mnKewTqqXz/6oosc8n99FXZNGPVEZrJrj7q+/1R8/tZa47RrLVwTFxzzLzn/N6bz8D8/oj5PX9G/FnxZ2Y+uxd+3s5n/sLPG0kXAAA+HA0NDZ9+r6TrHgVNj8lykqlJnDk0e+1xmrvhJM3fdJoWbD5DCzefo4VbzlPo1gsUFnuRwuPzKCIhnyLi82hRYj4tSiwwRiYV0qKkAjgGmvfa977zZ8CfBX8m/NnwZ8SfFX9m/NnxZ8ifJX+m/NnyZ8yftUnOvqTsbhPupCulnO5uYwAAMO5pb2//opTeJYOD+v/nFfqbUtqLpLbnKCVWKOVZK1hhLZfSnqGUrNBa3Rz02BXrdpzXZgSzMptmrzlKc9Ydo/kbT9HCzWcpZMs5Co27SGHxuRTBSZQDe3IhRb5Ad/CHgan7czOfne/z48+YP2v+zPmz5zYwf+NJ0ya4bUxfcZhmrcqm7dllg0R0RSlZrZTMk9J6RwhrJbczR7Gc256UcqGt6S+01n8spTfU3WYBACBoIaKvKGUfEUKsllJ0SyWlVMIrpTdPSulVSvUSqXwen3T2DDZfutl09WjhrcfLUvN1aOx5Co27QOH+5DoskSKhTjyf++yTC02b4LbBbSQs7gKt3lNkn718r67yTmt5/6C3kydNtFYFWilLStklpbdQa6WlkkJKeV8IEa2UnYp7eAEA4wZfecefSimrzNSfkjz9pyxhtTzt6JTl95qs/ecqn6Qdv0mrdpd6YnaV2cu3lQ2NYJ1Ay8l2ZBCGE1unTTw/oxG1rUyv2H3Ju3bfJe+OkzfU4YLqJ7cePJFdvT1eoUSrM/+suA3aUsqztm3/hbvNAgBAwMHJtLW19fP8KxF9XD969BneDMW3BTVda/os/0pEnyYi/v13bFvt7O7zNta39NLJsnuUnF1OMTtKaUlqsTE8IY8ikvIpPDGPFsUXUIRZB/SvATrrgO6gCye4z63PO22G2w63IW5LvGbsb1+rdpfRjuOVlHv9IT162if7B6xblkds0Fr/D26/vrY61HZNW25o4D/j//cpX1v/hLsfAADAqEPU8GlS1hqlpBJKxAsl1vOVfELazUrJOzySFcK+3dM/2PmguauyvLZJ7j99U63cUaojfCPWiMRnjgimEL5G3W0tMqWQ1u29rI/k1arq+rb+x097KvsHPZ1C2He11lJKUSOk3S6F3WFLe5lQ4pDWckBr6113XwAAgFFHa/3bWsv5SlkXtRRlUokarVWf1qK4q6/fftjaQ6U3HtPOE1UUva2EFibkURiPXk3gw4gVvlm5DXJbDI0voNDEfFqz+xIdOn+brt9ppab2PuobHOwmkqVaq34p7RtKWiVKWUe11j929wUAABh1OOkqpTaZxVklmj2WR9c9bveeLqu7mXjkevOqXVdoYWwehcTlUVgST/XxlF++M+WXhKQL36z+dui0yQLTRk1bTSigtXuuyu0nqhryrz+sbXzSpYW0bK3lE36olFLjGBIAYHQgoo8R0b/SXv1vtdZhSoktSlmbpdTztNbfVUreaG7r6z5/uf7+vtM31Pq9VygiuYjCEguddVmeRk7ks5nPjn4MrcG9IBBCOGYO3yPAbXOonTrrwdyGF6cW05ZD1yjzwi1PSVXj/Y4+TyeRPiuE/nsp7cVCeeO0UhuIaLIe0P9ca/3P3X0IAABeGh7NSi0jhRR1SlqnpRC1WqmzXmk13GvsfHr2ciNtTS+nZdtKKTQ2n8J4IxQSKhwnclsO48IdcQUUs/MSpRytovyKJtXY1tMstekL56QQt5W0zkklq6SWP3f3IQAAeGl4N6fWmp/kSWp1sWNgoOXi5brHiRnXB1bvvWaSbChPyWEzFBzHmuTL679xPHtTSOv3l+vtRyt7rlQ/auy3vQ+01sVa6wGt5TR3HwIAgBHwMQi+QJ5Htv5jE76E+9teYcU9ae9qO1Vyp3PTgSu0NK2Uwnh9NsGZOubSfpFmam5ksIJwXMjHkXxtnds8t/3w5EKK2nGJ4jOvqsKKhvauvt46W8v53J+4L/mO0fHyDPcn9mPufgcAmIA4hSvsqUJYXintcqVEl1aqxLaFfvCkUx7Or9XL0wp0uG/XMUa0EDr6d+Lzr2v2lOjz1xrUk85eJW3bo6Q8pZRKlFLckcJq0sLzd+6+BwCYgJika9tTpbR5h2b5wKCnr7quveZI4T2K2l5C4fGFFJ5UZHZ6mkIVEMIhnYIc+U4fSSiktfsu0+lL9XZdU1etVKpba1Ulpd0ikHQBAAxPLUspJw94Pd7Ke82PD5yrESt2ltFCc9SnkCKSeR2Ln+Z51zFqHUP4nIlO/WfTR5LzKDSxkMLi82n9/it0tLDOc7exvdm2rUat9d+6+x4AYJxiSjRq/Z+EEN+ybRmulFpFRL/SWv/GtuXsazXN5w+cq1Yr91ymhbG5xFPJkclFzvVrfKbWrGcV0SKcr4XQJc8AcV8p9PWVfNN3whL4VqR82pBeTtn5tb01D9oPEtG7Wutfa6mnKKXWSCnncDLWWv97d58FAAQxppCFEOuFbdlKSQ/f5qOUaK951F2RXVQvt2ZWUWj8RQrlzVFIrBC+FjkJhyY4o+CUnFt06srD/qb2vgoi2csnApQUHmFbrdK2sesZgPEETyELIb4npexQStQ+aespP1F8T0dvLxiISCmiUL5MnNekeESbjKQL4euQ+xL3Ke5b3McWpRTq9ftKBvOvPxzs7Ru8rJRokFLesm37P7r7LAAgCPDdhvKJYUcV/Lf8fIpIrekf9Dbll9e3r9pVJPjSgYhETrQcIDjR8rQY/5o3InhACF/FPF+fcnR2OxdRZEoBbTl0yVte2/RUSHGLSE/l/us7avQp39E97sOmL7v7OQAgAMjLy+PR7P8SSmwQSmwRUvRIKSq0llpIIW/ef9Kw5eClp5GpJah9DOEblus9L00rkTuOX29qbO1+pBklBoUUlUKKx0KJlUKIaCL6M3dfBwAEAPxEPGjb/1VySToppVkzUppaOnrpeMldWrat2OysNCPbYRd+QwjfgMlcn5wrXRXS2r2XKL/iAXX3ebjbGqSUvUJ4d3R7PP/a3dcBAAGC1vqPpJSVWuvenv4BeeX2Y4rNuErzYy9QWEIRRfqKvPOlBCOCAIRwzDR9kHc6m+sFCyk04SLtOF5FtxtayWNZNhG1SymPEtGX3P0cAPCG0Fp/zlLWeqFElNT2Qn4yVlI9rm9sbz14tlosTimk0LhnU8kRfO6Wf4/7bCF8s/quFOQ+yf9t7vaNy6eYnSV0vOiO90l7TwtpVSuEZ7PU9gKebralHeqOAQCAMYSIflcqpYUQd5RSB/sGrNN8cfym9HIKjfcVtHB3dghhwOrc71tEqcdvUuWdlgHbsg8rpY4IKZulUnfdMQAAMIaYpKuVVsL78O7jjoJtJ250LNteaqarsFkKwuCUEy8vB63YXaYO5dY2tnb1FZKy2m0p77ljAABglPHdXvJZ5yiQ/meWsHVFXZtet++SWJRcbK7b407rVJAa2aEhhIEt910n8ebTktRinXykQtS39pHWopZjgO9GMD5e9Al3fAAAvEZMZSmt1prjBVKq7r4Bz4GzNyqXp5WanZBYq4VwnGmmmwtp5Y5S75myeze8lqVM/9e6S5Kc7I4RAIDXiEm6SplL5eub2uwdx25SKHfKBN6QwVWlXtBpIYRBq7PZKs/c4bsktYiyLtTq1s4eqYl6pJQoHwnAaMLVarr7+zdcudncH7WtaMCMbrmSlP+WE99OSAjh+ND06WRfH+crBBPz9aaDV/pr69oaPZ6BGe4YAQD4kBDRb3k8nn8lpfVLIQa+KYTnL4XgKWW1urG1Z8Wekzcur91fYW4w4TN+zpMw1m8hHM+a2uj8e9Pni2jjwQpvdm7N6d7BwaVaq7W2lItt3fvfhRj4npTWW7299Lvu2AIAeAFO7VW5TCrRIpTaJKWs4VuBegYEZRc30pLtl5zi6S/omBDC8a8505uQT6v2XafcG09J8GSz1raUskQolSiVeKC1/KU7tgAAXgBfWmBr+8+VEqul8Nzh9dv7zd20Ob3SVzB9ZCeEEE48eS/H4uRi2n6ihlo7B4mIE6+3TJOe69XeP3LHFgDAMHxHgfhGIJ5e/p9Sem5zwq2sbaYVO0soLMG5XH4R1m0hhGwi12/Oo4iEPIpNv0YPmro48QopB894vd4/5LjiO1r0cXe8AWBCc62p6bODlpUibKtTKbVLKbHdY4m+ospGWppc7Eu2EEL4YjlGrN19marutWop5WOtVTzXbrYsb+ugbYe5Yw4AE5rOzs4vCeG9IYSo11pWdvd5Cy+WN5kyjuEv6GAQQug2LLGAVuwqpSu3Oc/Ki1rLW0LYDbbtOeqOOQBMaLTWX/UdeNetPb1de05Ut0cmF1JoYq7vqMDIDgYhhM+ZmG9ixvJtxfJY0f2n/Zan17niU91xxxwAJhRcvk0I7w+klL+RWv5Y2nKWkuJBR/cg7Tl9g8KS+TB8HkXymk0yki6E8IPlWMExg0vBLt1eSMeL71L/gFdqKS5LS/5CavkTKeWvhfD8rTsmATCu4Y0NROJvhJDlUsoqZdndza2dbSk51yk0IQ+3A0EIP5Km/npKIR28UC17+vr5XFGblPK6lOqU1ta/d8ckAMY11dXVn7Jtvv9WPBLC7mjp6KeEwxUUFpdnLrNGOUcI4UeRbxkLjb9IkUmFdOBcDXX3e5VSslUIed2yrLfcMQmAcQnXTvYdC/qYEOLbSlnnGp50D8ZllFMY109OLKRFiaUU+YJOBCGELysnW44l4YmFFJlcRLtPVuv2nsE2rey9tm3/uS8e8XGiT7njFADjAiL6vFLyslSqXUp5XCpReu9xe2d81nVzhZe700AI4euQZ84iU4poz6mbqrWrt4lI5UqpzkulOpUS+92xCoBxQRd1fVlIeVdKeYlI5bf3CIrNukYh8bkUic1SEMJRlS9Eyad952po0KsGidQ5XuO1pTzrjlUAjAu01l+0LG+e1jq9s1/puMyrFBqXa3YphyfjwgII4ejJMSaMa7Yn5tOBc7dp0NJ9Wqv9Xq9nnztWARCU8Lqtbdv/UQmxRgixWWm1WStZ2Pikuyvp6HVaGJdHkXwHbnIhRSZhpAshHD05xnCsWcRlI3lz1flbqqtnsJm0PCWUWscxStp2uNb637hjGQBBAW9QUEKsErZlc6Up3qncNeClbcduUEgsV5pCooUQjr1hfCQxsYiy8++SJYU/Pj2Wwn4qLetddywDICjgncpKqU1K6UZbeBq7evv7tuVUUUg8X1jgrK+4OwOEEI62HHtMLYDkEjqcW6ss29slpPeRUnRLaz3THcsACFj4hiCtWz6ntf4cF8AQwvt1La3zPX2DV/ecuiXCkvIpMqHQ96Q5sjNACOGom+gb7SYU0pJtRXSs6H6vUqJYK/ugTfafcSzTuu0LRA2fdsc4AAIKrbu/qrSlpLQHpBRFStn7BjzenqOFdc4ZXHfjhxDCNygfJ4reUUZ5FY1aKfFIKXu3lKJCKlsK6alxxzgAAgq+uEBK6RFC7FdKneTLLS9ebaCIlHyKSEDShRAGnuEJBbRyTwlV3m3l+xH6lVLptm2fxEUJIOAhoi9LyU+LotayvW3ld5opKq3YFL/ASBdCGIhybOIYtengVbrX2C61Fk1KirtS2nnuGAdAQEHU+SWlxBN+XLz7uINW7y6hkIQ8WpxYSBEogAEhDEA5NvHtRKGJeZR4uJxauwZ4kk5LaeW7YxwAAQURfUkK68GTzgHaeqicQmJzRzRwCCEMRHlHc0RCPu09dZt6B71SK/uMO8YBEFBwfeXO7sGy/adv0vyEi9ihDCEMKsO5DnxaAR0rqLW8XrHbHeMAeOM4d+PSZ7kYxoN+/fvHCmpUWCLfZ8lPjiMbNYQQBqocszh+8Y7ms2X3b3GM45oDvhuJPuaOfwCMKdeIPmlLOUPYVr+0RVXZzUbv4pRi3IcLIQxqOYat2XtZ1zx42k1aVdvCfuAV4uvuGAjAmGJKPSq1QSnZdb+xo2/VrjLfTmVsmoIQBq9mfTexgBKyytXTrv5eIl0vpZzhjoEAjClE9Emt9VpNRInZ1ygs/vlki+QLIQwmh8csTrqRyQWUlVfDBzK6tNZT3DEQgFHHWd+Q0y3LitK2PcvjsU9lXayxFiUVmUPmL2q8EEIYLA6PXRzToreX0YUr9R1EtFfb9jRLWMu1lm+5YyMAo4JTAMNSSgmltPReqW7sDUnIHeSt9ubqrBc0YgghDEY5poXF5+qYXSX99xrb+4ikrbUkKe2b7tgIwKhgzuJKUaqUOvKke5A2HrxCC+L5Tlxn84G70UIIYbBqYlpiAYUmFdGuUzepZ9DqI62zhBDp7tgIwGvDt2X+t3nLPG+d11pO7enr1QfP36b5cXweN4/Ck4soEkeEIITjSI5pHNsiEnJpUUoBnbvSQLbwPCbSf8+xkY9M+uOjO24C8ErwDmUt7cVKymNCqHVSiFIp5aVrta0UmoCzuBDCiSGv767YfYnuNHZ6iHShtO3zQqj1SsojWlq/ccdOAF4JviPX4/H8gW3bWUopJZW4d/dRZ8n6A9coPB7HgyCEE0OOdZFJhZR0pHLwaVd/EWnZJKXstyxrA+91ccdOAF4JnlIeHLT/Qkr5QErR3tHTdzQu83pdaGIRRfKUchI2T0EIx78m1vFUc3KRve/srSqp7FNKyV4pZZHHo//AHTsBeCWI6BNSymlCCCGFaLl8q0UuTi12bg1K9jXEFzRQCCEcTzpJ17mVaN2+K3TnUaeXtHxqC9GktbPGC8BHxqzpar2WT4e3dvTTun1O1Sl3g4QQwokg72hm03IqyWMpUziDiCa7YycAr4Qp9aiVSboHzt2iEFfVKQghnGjyBtIlKcV04cpDk3RtaSPpgo9GdTV9iq/q4y3xti3nltc+saN2FjtXX72gEUII4USSN1ZtybhKdx50NBLRtzluaq2/kJdHn3DHUwDeFz6LK4SKk1JUKa0qO3sGVHJOBYXE5dGiJCRdCCF0Tm4UUmZeDXkta5BIXRNCXJJSL3THVADeF97+binrFBH9jZTi2plL9a2LU0tR/AJCCIcZmVhIK3ddllduNzUSqRyhxTe8ynvAHVMBeF+I6CtSSq21fPiopbMlNrOCFsblm80DXO7R3fAghHCiybEwnCtWcYnI09Wyq6fvsdbyiVKqxh1TAXhfOOnyjQZe23p84fJDWrD1otkqH57k1Fh2Nz4IIZxomqSbVEgRSfm0PK2Irt5uEZpki1DyljumAvC+aK2/qLSsvvO4rWvlzhIKR9UpCCF8TznxxmZdla09vd1ESLrgQ0LU9eX+wcGBzLw7NI83TyHpQgjhe8qnOiJTiqig6jFpKTG9DD4YrjxFTU2fJaLP9Pf3//795i4dyTuVE507Jd2NDEII4TN5o+mmQ1epqb33ji+mflY/evQZPnbpjrdgguOUerTekVJ4tFai3+Mp3nWiksLifbWVE5F0IYTwPeUYmVhIS1JK6UjB7X4ieUlrrYW064Tw/I075oIJzjW69klbeucI6fVIYanrt5trIpLytLlHMimPIlBfGUII31OOkRwrOWau2l3iedDceZdIkS28DV4xYApnADCEKfWo1EY+kzvg8TbvPXWbQhPzKdw3vYyNVBBC+N6aGJlYQGFJ+bQ0rZiOF92XRLJBSpknpZzjjrlgguPUV9brlRAt5TWN3cvTSs1uvEVmLZef4EY2MgghhI5OjORbiJx4uWH/VXX/cVsnka7RWk93x1wwwTFrurY9Ryql95yqRn1lCCF8Rc1lCKlFdLrsAV+G0CKE95vumAsmOET0SaFU9IPWQYrZfolC43NHNCQIIYQfLNdkDovPo/jDN+lJp4dHu790x1wwASGi3+It7eaoENEnPZbYcObaE5ofz5cajGxI8L2NTC58Tvf/hzAYRbt+dXmNd+mOUiq++bSLSE/zxVy+m/wz7lgMJgjd3d1fFVLcllJOUkoM3Lz/5OH6A9fMTUIo9fje+oMP/8pPtOEJeRQWn0shsRdo4dbzNH/zGZq78RTNWneCZq49DmHQyW2X2zC3ZW7T3La5jXNb5zY/vA8gGb+HZgNqASUdvWE3Pe16RKTu27Y9U0iR747FYILA9z4qpY5rrWJ54eFE8X1aEJtPkYl8sQE60nAXpxSZ4MJTRhyE5m06TTPW5NC7UZn0duR++nHIDvrBvBT6zuwE+vbMePrm9K0+YyEMQp32y235O7MT6Yfz0+inYbvoV0sO0uSYwzRr3XGTkDkZ8/ol9w3uI+5+M5E1R4gS8mlJagldvtViLrpXSmxSSqW6YzGYIBA1fVYpTzYf4G582kWbDl42o9xwU8h7Yidd/xM8B5Kw+IvmqX/qymz61ZID9OOQ7fTd2QkmOH196hb6xrSt9K0ZsfStGXHD5P92/xmEweKL2m+saevc5vn335+bRD8N20m/WXaIZqw5apIwj4T9D6gTfQTMMTSMZ8IS82nnySrqGfQQaT2glLXGHYvBBIFHukJ6rljCbiy++ZhC43KJyz7yE9pEujfXuYj62a8cNCIS82jOhpP0blQG/Sx8F31/brIJPBx0/KMB/m//r87o1h2knnfkaALCwNHdXt1tl9v48Dbv/z7uE/z/fjg/hX6xaC9NWXHYJODIZKcvvaiPTQQ5hpoZw8Q8WrGjhG42tAmtRb0tPLhrd6KiNX1Ba3G3taune9uxKloYO/F2LA8PAvxkHhp30YxohydafrL/oKAE4UT3+QScSm9H7qUZa46b0e/wUe9ESrys/+fNyqtVg9Zgu1b2SXcsBhMEIvqSVPZATWOHWcc11ade0GjGs/5psNC4CzQpKp1+tHCbCSD+Ea07sEAIP1h/Av7OrAQzBT19VfZQ8p2I0848zbxu32Vq6e4nInnVHYvBOIaIPuY7KsT+S68t9OGCWloQzwl34iVdk2yjs+j7c1OGgoV/Km34NJo7qEAI31v3FDT3p7cWbKfpq3MoPGHizajxuu7itGIqrGokrdUdjr++eMxx+GPuOA3GCfwBa63/hdb6q7Zt/5mUsv5pl5didhZSWALfJjSysYwH3VPIzi5kZxqZp8HcAQNCODpy8v1J6A6z+9l/9GiiTD2HJRRSYvY1GvRKqbW6MDg4+C+I6Kta63/qjtVgHJGRkfFxfrLS2v5PrV39/6Gk+rEOi+UF//FZEMOdcPm/Z68/Yaa8/E/h7sAAIRw9uc/xtPMvFx+g+ZvPmg1XEyHxhifm0aqdl6nifss9Iv3PLcv6U39MdsdpME7gylNa6+9KKd/SWv9eW1vvlKSjlZpHuWZqeZyutXAn5l2UPJX8m2Xp9N3ZiSN2Ift3ZkIIR8fhu5/9a758tn3KiixzWsA5NTA+E665BCExn5akldKuU1V8aPfvtNa/L6X8hdb6r92xGowTfNf3bbCl6FHKim3vtfqWpBT7NlCN75uEeHTLBSy+Me1ZosUoF8I3o7sP8lGjBVvOjjhiNF7030DEsXZLerkWRA1K2Wm2FG1SSlMiEoxDeKRrSzmXi2FIpel4yT0KMxuoRjaS8SJXhJmyIts8USPJQhi4ctEZLkE5ngvzcPWuqG3FVHLzMVeoIqnkE68QuOB+vMJJ19LyHSEs74AlacOBy+PuCj//2pCzWSrXlK17thMZSRfCwNSZgfrenCRTZnJ4Xx5v8obV3adumqQrhFUvCNPL4xZzZ660JkkpPdWP2mhJKq8zjGwUwax/RyTXR/5p2O5n67YzkXQhDFydPurfZPXrpYeGzvWOu6nmxALaeOgyNXb0EpG+L7T4W3esBuMEJ+nKSVKpqsyLNQORyeOvQDnvhOQSdD9auP0FHRtCGAx+e2aCWeflzY/cp939PNiN2V6ic681dBLRBa31P7hjNRgnOLuX5ewBj9CJmVcpNGFkYwhm+amYb//hs7fOJQQjOzOEMDjkUS+XY3US7/iZajazi8mFlHHhNmmiFq3FN92xGowTzO5lrde29BKt2F5ipm/cDSJY5U45d+NpemvBtqEr9dydGEIYPPr3Yfw8Yo+5QnC8JF7eyRyRkEdJ2VXU7aUuIprsjtVgnMBJVyi9tuxOF4Ul5tGiIN5ENXyth38/f9MZemshJ1wkWwjHmz9ftIfC4i4OJV7/3g13XAgWI+LzaNXey1T1oBdJdzzDSbe7z7P2aEkzLYi9QIuCfBOVP+ku3HqBfrRwB0a4EI5Dn53l3T902iLYN1fxz7F0WzGdu9rSJUki6Y5XqqurP1VU+Xht2un7FBqfOy6KYfCxIF73wRouhONbPvr3m2UHg3qE65cvQFiSVky7z93vulLdjKQ7nvBdcvA5rfVnJqdc+2Taseub12XeonBTFCP4Gy+fw8UIF8Lxr/840eSY7KHKVcFqRGIhRaaU0IbMG907T1bM4Fjtj9PuGA6CDCL6stZaCSU6PZZ9N6ekQc/fctFMzwTzFA2/9qkrj5ijBe7OCSEcv/I1nLPXnwzqES/Hr7CEPFqSUkRFN5q9pOVdW9oeqWStO4aDIIMvqhdKDCgtRGtXX2/q0QpaGJsb1AmXO9ucDafou7OTMMKFcILJfZ7P4XMBnGBOvLyuy0t8GRdvqwGPt09zUUiS19wxHAQZPF2hbCtTKmndrGttXLXnCoXFB+9RIe5kfHzgJ6H+dVwkXQgnlly5Kp5+ufhgUO9i5vO6bFxmhWh62vOYSHUpYa1yx3AQZOi2ti9IISu5zuel2020MPZiUG+g4k72zvL0Z+UdkXQhnGA6fZ+v6Jy26kjQJl02LDGfYnYU071mPjlEtrDFIXcMB0GG1vqLUqrbAwPeuhOl92nBlgsjPvjg0bmA/ntzEjGtDOEE15lmTjNXAgZr4jVHh1IKqPjGI1tLeVdKdcwdw0GQwWu6Ssnetu6+gZSjVRQSmzvigw8GnUvoL9LPwnfT16duGdEBIYQTU74cwR8j3HEj0PXvrUm/WKstyxogrS67YzgIMoi6ePeyfvy0m2K2X6LwxOB8IuTGOWPNMfrWDP81fSM7H4RwYsmxgHczz914JnhHu4lFlJBVSQNei4jUbXcMB0GG78iQvlHXSiFb8ygyKXh2LQ/fYc07Fd9akDZsLXdkB4QQTiyfVava81wt+WA6ncF1mFfuKKXmjj5e10XSDXZ4etkWov/i1Ye0cMvFER94MMgdaMqKbFSdghC+QC6akUiz1p0IytEur+suTy2iirtPeaR71R3DQZBBRJ/uGezPSM+976znBsn08vAnVT4i9P25qRjhQgjf05+G7X4ubgTLaDcioYCWpRbTybKGfq3FCncMB2MEEX1Ma/2flVIbpPSGai2naKVWaa1na62XDtoyrLvfs7mze2D9/caOf3jaPbD+aXf/Bret3YObHz7pvLIl/RqFJRRSZJBccjC8w0yOOTyUcJF4IYTD9ccEPkI0c+3xoQ1VwZJ0+eKZyJRi2n6s0tvR03++vc9a447jbd39G5929i+997DzWx09g7HdvZ4NlqU2aq3Xaa2nay3f4Rwhpb1YSrlMa/1v3TkFfAB84bxt29Nty2rWyj5oS7v90ZM+fbrwpmf/qesi/lCJlZZ9nZIzr+ml8WcakzKu6pSscnqRm/aVUWQKj3ALg2pNl+ULDfhSendHgxDC4fKFCD+P2B10U8xOTC6kZWlFFHvwEqW+IIazsQfK7Oik803bjlZSSvZV2n2igo7m3tS5ZTWehsedA1LZ9aRllm1ZtV6v9+vunAI+AE66SlnRUimdd6nmybodF1XoxhM0Y2U2TV5+mN5dmknvLDlE7yw9SFOiM2nS0vT3dNqKHFrq+4DDg2Sk63f66pwRnQtCCF/k9+cm09yNp4Pq+BDH5Ej+fVwuTY7KHhG//U5elk5TY7Lo3aWHTOx/d2kGTVmeRXPXHKPI2HMUv7/IW1nzsF1r2am1fNudU8AL4BuBWltbP09En9RSvtPS7tVb9xbS7FVHaUpUFk1dmklTl2fStKhMmh6dZZwWlUHTotNpanTmezp/wylTXJsrUUUG0c1CvBvxZ+F7sIEKQvhSOtf/pQdV0uWYzLGZr1uds/Y4TYnKGBHD/U6P5nif4cT/qEyayi7LpGnLMmlK9GFauP447T9xnTq6rSdE+q+dvNL0WXeuAT6IOr8khKVsIQau3GzU4VtO06Rlh2hadOarG5NFC7acMx9u0Kxx+Gosz9t0xlxqMCGS7kynpOXwtWv+udlvTo+jb0x79t/OnzlfO/y94Xq0/LUj/m4Y1PJnyp+t/7/dn/8z+c+c/+//Guf7feVSTRsb+fePJ/nn/nHIDlNIJ5immTk2s3M3nqKpZiD1glj+EvL3ctLesLOQ6h93DRCpCiG8le5cA3yY4z2W5b1wpfYOP7FM5ieYF7yxH8qYLLP71//Buj/sQJU7zDvLM0Z0qnGrCayx9PWpW40cPPju0B/MSzHnk38css34k9Dt9KOF28yff39ukvka/lqu0sVOiAeUCab78/3u7ATz2XMb4LbAbcLfPrit8BQrj/ic73M0iXeCPJB9b04STVt1lJakFo+IK4GqP+nO33TmIyVdlke/PDO6NPGsVVX7qIFIVrlzDfDR3t7+xZq6Jh2++QRNMgn3o7357IwVh4Mq2frlDVR8BGA8JxH/SOVrU7aYIMnB852ogzRz7WEKiT1Fi1MuUPTOIlq9r4zWHbxM6w9dpXUHr9Ka/ZcpZlcxLUnNpfCEczRnwzGaEpNOb0fuoe/PT/b9nZux0zuI5c+OP0P+/Q8XptKvlu6jaauyaP6mE7Qo8SIt25ZPK/eUmrbAbcJpG5fNny3fzn3oHC3YcoKmr86kXy3dT28tcI7ccVsbPgoen8ab0pDBNNL1Gxp7YUQMfxU58fLen4278qn+cestd66ZsBDRx7UQ37KVvV1rOfPOg/ZZK1Ival4kn2HevKwRb+bL6n9amrEqmxYlB98od86Gk+ZJnjtRsAYI9+v+9sw4+qaZQo4zow/+s18s2kWzNxyjxSm5JoDG5VRT6uk7tP3cfdp29t6QaWfuGvn/8a/+P99+ro62n71PScdv0+bMCorZXUwhcadpUvRBM+L5+rQtvinnWPom//s+3a8Vvhmf/0x808PTt5pC/pwwI5LO06p9ZbT1cBWlnKylbWfvm898eLvwt4nh7cJpG/cp+WQtbcm+YZJxROJ5mrb6sBkR+0fBZup6Rqxpm8+9riDuc84D7E5auPUcRSYHz9oux+jw+ItmdnJ4DH8Vp/MeoOUZNDXmMG3aXdg0OCjf1lqGCWHFka3/3J2LJgy8Q1lLO8IWdpdUoivjfIWHd6a538BXcbrv15lrjtKioHviK6QpKw6P6FDB6lAAm+lMBfOU8OSYLFq+vYg2ZlynxJO3advZu7TdBNE7lHKq9sN7utYEXw62/Gvc0RtmhLxw6yn6SegO19Tzs/VB+KZ1Pgv/6POXi/fSoqQLZuSacKx6KIHyZ8qf8YjP/SXkNmXa1tk7FH+82oyMFyXl0i8X76dv+fcFzEwwryNYk61bnmKetY7P7AbPFDMbnpBL01cefi6GfxR5fXfOmsO66Pq9fiLVI4S4p6X8iTsXTRi4AIYQnr9RUtR29HooIvaEsy2cd6/5dL+JL+Pw75u7/viIDzbQ5V3Lb0fuC/rbhJ4lW+eShm/PSKDJ0Rm0av8lij92a2iEknKqxgTH5JPOr69D/rtZHulszrpOoXFn6K2FaRNgajG49H8WP1+0m5am5ZmHJf9nZxLtCz7bV/FZ26rxtbk7tPXIDVq+vZB+GbmXvjnN91pmOg8BwdxG/K/93ajMoJti5tg3a83RF8byD6M/f5id0FEZtHV/IVlCClLqnFf3/h/uXDRh4OllS8p3pBSei1fu0dQVh81cvPsN/LD6Pyj+df6mUyM+2ECWOwnvtv7Rwu1Bn3SHy4f2o7cXUtKJGko1o9KRgXFkgPzwvleg5j/flHWdZq0/Qt+djZuaAkH+DN5akEIhcWco/tjN9/3s3H/2sr5fW/K3w/ij1RSRcI5+ON95KHO/zmCT31f+OX6xaB+FxecFVeKNSMyjOeuP09Tl6c/F8o/ilKhMith6im7eeyKJdIHX2/OH7lw0YTDncZWKIiIdf6CAJi/76G/wcPkgtf+4UDDIaxp8vo7Xc3l3ZrAnhm/MiKXvzk2k2etzKO7ozRFB700Zs6uQfhq+04xuvm5GNyNfOxwlZzrvOc96/Gb5AVp/6Ipv5DnycxpLeUZkQ3o5TYo+RN+cGWva7ojXHkRy7OC1a17X5ZgSLHtaXsexIbc8kJu5MpsOn6/kW4wahBB/685FEwazpqvlzPbuPh2deIbe5epRL3jTXlk+LrT1/IgPNlDlBsdPpdNWHQnqhOt/0uZOvzglj5JPvvpI5XXLIx8eOW3OqqBJMelmTXE8jG6CRX6vvzc3yew4T/AtMbzfaHSsjc+5RQu2nKLvzUkM+qUIXtflB3g+OhRMSXf+ptNmWnhEPH9FTQKPyqTkzGLtFeIG0cTeSPVJrfXq7gFNoRtP0qRlry/pTucdcDFZZgu6+4MNZLnRTYrOCuqp5W/M2Eo/jdhhdhLzblNeP3MHt7HWP0XpD/CpZ+5QfM5NM93Mr/mbSLyjLr/HvKM8NP7M0Gfw3GfyEaaRX5epp++ah0TeNe0/fub+OYJBs4diZjzN4BKJQTW9nE8LNp0xSdfE8BfE9g+rs7abSRv3FNKT9o4aIvp/3LlowsBJVym9+nG7h+atP0GTucTjC960D6v/yWbaiixz3tX9wQaq3ODC4i/SLxcH7yYq7ux83paPeTi7TkcGtkAx7fQds0OWR13Oa8dxotHQHAmaHkffn5dM4YnnnQ10AZBg30t/m+Vz4LzM840gHO36R+iTojNHxJlAd+GWczSFazSYMo8ffcTrnNnNpLU7CqlnQHQS0bvuXDRh8CfdRk66647R5OWv58nGL289D5ZpFb8Lt543SStYnrD9nZt/ZX+4II1W7r1EaWfuB3TC9csJgKc5p6/NNudDg3k6MVDl9/S7cxLNhikeSQbCiPaDdF7jHYpMuUjfnuVsvBve1t0/YyDKI91fLTlgdgQH02iXZyenxoyM56+qk3SzaO2OfOocsJF0RzPpzlx1JKiSrrNz+ay5yi9YOrZf7uC8hsRruMESWP2mnb5rii/8euleU7/X/bPBj+a3ZybQjDWHKfmE81673//A1Fn7Tzx+m+ZvPjk0Xev+2QJdPjXAO4KDKemGxV2g6SteXy5A0h3GaCVd/1qASbov+FADWeeSg8SgSbrDX+fMtTkmYJkzlpzMAmAt92VMPnnb/Lpm/5WgfOAJbOPp7ci9tDWbz98+e68DX15nvm3a8tbsSvrNsoNDSz7B0j74df44ZLtZYguqpBt/cSiGv451XSTdYYxW0vU7e9UxCguikS7Ld2F+Z1ZwPVFz5+Yp8a3ZVUE1wh0ub+bhYyOhsaeHpvaDcWQTaPLsR/SOAtp27p7vvQ6cncofRq5uxhctBEvC9csPkf4LX4LFkLiLNHPFkRHx/FVF0h3GqCfdNccpLCl4ki4/jc5ef3JExwl0OTlFJucGbcL1y4mXKyL9LGJn0KypB6r+6djJK9IDYvf6R5XX/eduPD50CUOw+P25KbRgy/mgul83JP4izVz5rCrVRxVJdxijm3QzzIXI4UE20p259viIjhPYxppLC7Yeee+KQoGvs2nGGe3W0OLUXN9UIo90g2tkExjypiNe40+mVfsuPTuLe5KXHYK3jazef5l+OI+PEQVPm+AjWvM3nw2qpMuX2c9axUn3o+9cZpF0hzGaSXdqdAbNXXcyqDZSsTPXHguqURYHoJDYs0G3eep5nRrN/Hted9x8uMLc0+q/CQl+ePmIEK+DJvvWRf3vM98UNPL9D3z5Z4jPqabpq4/Q30/aNOLnDUTNrvHZiTR/85mgSrrhnHRXHzMx3B3XX0Uk3WGMatKNyqC565F0R1Pu1Hz9IF/Jx2dy3YEqWOUdq7PXH6N/mBwcwTXQ9E8tRyReCIgSj6/TJal5Qz+j++cONIM66a459lrO6LJIusMY7aQ7b/0pikhA0h0tuVP/eul+szOVk24glfP7KPLPsWx7AX1tKt/FG/jBNdDk887fm5dEaw9eDeLZj+c1u/HP3KU1By6b8qbBULwmaJNuXJ7ZjzM16vVUKETSHcaoJt3oDJq34TSS7ij6zWmxNGt9DiWd5CnE8ZFwWU4Uqw9coh/MTzbTpO6fG76/35wRR7+I3EVbjlTRtnE00uU2viW7kt6JOkhfmxz4G6qCNunG59HstSeQdEcDJN2R8sXTgT668r8+fjgIiT09dMn4eBnpshszys0GsWB5AAokvz0zjqasyDBroO73NVjlts0j3cTjt2j66iz6+0kbzc8a6H2Vj2xxwR0kXSRdA5Lu8/qPDAXL+VA+T7wo6QJtPzf+ku6Ww1X0zvKDQXdE5E3LSYidtS7H3J3sfl+DVX/S5eIeXKs7GKaXWd5zEWxHhpB0RxEk3eflpMt3SXIyC/QnaP/U1dK0fNpxvm7oyjx3sApGnSpEN2hSdAb9QxBMIwaSTtKNo7kbT5gd4eOpTfh/XbDlpNnZHgx99Ifz0ygk9nxQVaRC0h1FkHSf10m6p4OiDCRPu35nVqLZzbmdk+4LAlWwyoE19sgNmhyTgZHuh9TfbudtGl9J1+i7BGH+5hP0tSnBkXR/tHC7qUiFpIuka0DSfV7/hQdvLQiO+r/Dp5c5KI2X6WVOFFsOV2J6+RV8fnp5+Bnd4NY/k8O/BtP0Ml94EJ4QXLWXkXRHESTd5+WOwU+lPwvfFRSdmqcR/Rup3EEqmOXgujmrgn4esQtJ90Nq7iSevtXMEvB55/GSdFn+WZyNVIeHlh0C/eH410sPmloFSLpIugYk3ZHyU2mgX2LvDzQ8xWyubAuam2NeTg6uaw9cou/PDfxp/kCU37OfR+yk2CNV4644xtbsCnMFJBdO4Q2Pgdo+/K+LL7GPTB4ZZwJZJN1RBEn3xXJHCYYRFndsLo6x+XClE1xPjp9RzdJthQH94BPI8kiXj6qsPVA+fpIu140+fYdW7Ssz1+UFetvwJ90Za44F1c5lFkl3FEHSfV7/NND01UeDotA+d+zvz02iVXvLaPu5+0P1i4NdPl86c+0R7Fx+Rf0BPyz+3Li4YcjRSbqRyRfMQ0WgjnCHy32TT0MsSS0OqnK4SLqjCJLuSPmplDsKjxSCoWPza1yw5ZQJSONh/Y5/hk3p132X2Y/8eeEH67xv8fSrxXsp6fj4OErGP0Pc0Zs0dWVWUNTk5n7JI3I+LoSRLpLuEEi6z8tPo9xBQraepx+H7BiqhhTIyZdf28/Cd9LmLJ5idoKr/4o8d+AKZP2vl3fcRiSep69P2xI0RUoC1e/NSaSYXSVDSTcY28Tw17xyT6kZPQZ6f/T/+svI/UMxBSNdJF0Dku7zDu8Yv1pyYGjdKJA7+bdmOrV2Q+PO+s4xvjhgBbLOtLjz2vmo0I9Dtwf2ex4k8kML1yl+1g6eXaEY6Lrbb1xONc1Yc4T+gfdazBz5swaKTrtl42nKisNDo1wkXSRdA5Luezt1ZXZA7458Jp/L3Eo/WrCNNmZUDI12/YHLHcwCUt8GsOQTd2juxuNmhuHbM+Lpmxy8AjjABqzmQSzWvIc82o1MzqXtZ+uee68DXXfb5RG7aRPTefYpsPuks9cimWavPxF0U8ssku4ogqQ7Uv90EK/rct3UgC+4PywpTV2RMSJYBYOpp+5S6qk7tGJ3MX3frKU7P4+TdAM7wAakM2Od9863vvvz8J20KbOctp25Z95r9/sf6PLsx9uLdj/riwH+IMZJ96dhO4fWc4NplMsi6Y4iSLrvbVh8Lv0sfE/AH00Y7ndmJVBo/FlKO+tfwxsZwALN5FO3zV2pWzIr6BeLdgb+Q04Q6tw6lE5Jx5z3mt9z9+cQaJq2e7qWEo47O9mDp104Dzu/WZYeVAUxhoukO4og6b633GGmrMg2azOBP8XsyGu735+XTMu3F5nzmYG8a9U/IufXGZt9kyZHp5vAih3Lr19+T7lk6NwNx830sv/sbiDPinDb5U11IbFnzaid27b75wpEOVZ8b04yzVp3whwVcseVYBBJdxRB0n1vOenO33zWdKBgSbrsN6bH0lsL0ih6VzGlBnji5eAff6SaZq4+bNbqnNFMwoifCX5UE8x7y+u7IVtPU+qwxBuImnKPJ2ooPOG8mb3hNj3yZwpM+QHnJ6E7zUwZRrq+XICk+wwk3feX12J+sWhfEE1txdE3ZsSa1/vWwjRati3fbKxKPc3B7Fny5fXTlDc09ewfXW0/c5e2ZlfR9FVZ5qHm2YMNjgm9fp331BmFJdKCzSfNXbv8GQz/TMZcvgXpueIdTltNOnHL1BT/zmznYYHb9MifKTDlzZfvRmUE7SiXRdIdRZB031tn80MhzVx7IigTAQerH8xLppC4M5Q0LMGaADvsiM5YmXqaA7sT3Hkks37/Ffr1kn2uhAtHW36vefQ4fVUmxR2uorSz/hEvF9EY6+TrPPwNT/pbj9ygGeuO0HdmxgfVw67f789NMTNkSLrDcgGS7jOQdD/Y8IQ8+tHCbSM6V6DrT2bfmZlAU1dmmN2rb3Kq2Rlt87GgWopMukA/WpBK3+Byfny0BUUwxkznGBz/fqvZEbxiVwmlnXZuqfJ/Rm9CTryr9pbSLxfvpW+Zm5KC72GM39u3I/cG5dnc4SLpjiJIui/ntFXZQRcA2G+a85pOkP1RSBpFJJ4z171xkBvLBMz/VvKJGlp34CpNiko3oxj/7AES7lgbT9+e+WzdnI9ozV6XQ1uyqsxU71i3C/6VlxnmbzpG3zPVpnxtNsCPBb1ILh07d+PJoF3L9YukO4og6X6w/LQaGneR3lqwLSifvp83nt5evIeW7Sg0dWx5ZOO/i9cdbN3//WHk73WspcRjt2jDoWs0Z8PxoKlnPdHkz4Rnc/iChC1ZleYBiT87/+fo/nxfVvf3+v+b2xyPbPl2rLDEc/TjkG30jWnB2y78bfoXi/YOxQx3HAkmkXRHESTdl5OnmKevzhkHSdc/bRdHv1y8hxYlXaB1B69S/LFqSjt919xU5FS0erUSkrwjlgMqb9LhS+hjdpfQzLVHTXUef1DFyDbw9H8m3C64SD9foLF6/2UzAuV1V/5MX2W3s9OGakyb4rbFf1fs0Ru0et8lWrj1FP0klK/oC44bg95Pfv38QDlnw+kRsSMYRdIdRZB0X97QuAu+J/Lg29zxIjkJfmPaFvpRSCpNW5VJEQnnacXuUtp8uIIST9w2oxJ/Et1+7p751e9282f3jf5RC1+YvvbgFVq6rcCUcuS1LQ7mXFxk+JGP4CitOXHkz2L4gxB/VvyZcRJ5Z/lBWrj1NEXtLKYN6dcoPodnR5wk7P/8uS081zZ8bcUk6dN3zAPdhoxyitpRRCGxZ+jdqAP0/XlJ9PUpW4J6dDtcfg95LXpR0viIdUi6owiS7ocxn2atO/5c0nAHrEDXKTLAr/1ZeUX+Gb42ZbOz23l+ipl+nroyk+ZsOEahcWcoMiWXlm7Lp+idReaWlxW7SyhqZxEtScujsISztGDLSZqx5jD9Ztk++knotmeJdpozojb/9rD1OSTcwPO5z8T3WfFnx58hf5bfnZ1IPwvfYRLmrHVHzHGeiKTztGx7gWkL3Ca4bfDvl6Zxf79oRrKz1h2lyTHp9LOIXSaJcztjh/490wadNukvWxkMumMAl4udv/kMLU4J7rVcv0i6owiS7svLmyN4mvntyP1mhOjuiONBDiCcfJ2k6fyMHHB5gwsn5B8uSDX33HLVq+/OSTRHT/h7+Ou/No5GLnCk/NnyZ8yfNX/m/NlzG+C2wG2C2wa3EW4r3GY4mXIbctpS8E8hv1h+6I6jd6OyTHwI9g1UfpF0RxEk3Zf32UUIp82TLQeRYBvpvqzDn+KdROzoH/2YHaZDOl8zPoMqHK77s/a3geFtw/n98K8Zf+1i+EjXudjgQlBebPBeIumOIki6H97I5AKaHJNpOtx4DCjsBz1IvNe67Iv+DI4PX/TZvujP3H5QWwpW+WfnKfOZa3NoSWrwXd/3fiLpjiJIuq9ioTlC9LPw3aa4Q6BfMwYhfM3OdB4mfr300FBMGBknglck3VEESffVfDbNnDpudjNDCF9OHuX+NGzX0LSyOz4Eu0i6owiS7kdzxpqj9J1ZvGlkZMeEEI5PeePY3I2nxmXCZZF0RxEk3VeXN02w70ZlDm0ocjrlB69zQQiDyWebwr47O8kUyuGdyuNl45RbJN1RBEn31fQnXO54fG/mr5YcwHEZCMe5XLN6ckyWiQH+pDseEy+S7iiCpPtq+s/j+X/ltZ2fR+wZOsPo7qwQwuDV36d/s+zQUJJ1x4DxJJLuKIKk+3rkjrdgyzn6SeguJF0Ix50J9MvFB8ys1nhMsm6RdEcRJN3Xo78jPku82NEM4fgwfijhDu/r41kk3VEESff1yh1y/uaz5jiBvzLPyE4MIQx0ue/yGi7v1+Bz+RMh2fpF0h1FkHRfj8/qrvLP6kw18xovki6EwSnXluY1XGeE6/TtZ/18ZAwYTyLpjiJIuqMjn9/z72rmDuw8NfvvLH12/MDd0SGEY6e7L/rLm/KFDf5dyuP1LO77iaQ7iiDpjo7+40R8K9HkmMPmbJ+7g0MIA8PhffOH89Noxppjph/7jwW5+/d4F0l3FEHSHV39iXfm2mP0w/kpKBkJYYDKCZdvDJq36fRQ33X354kiku4ogqT7+h3ZWZ11oAVbzvrWeTHahTBQ5L7IpVyd9Vv/hqnn+/DIPj2+RdIdRZB0x1b/dDPfx+vv8O4gACEcff37LH4csn1oOhk6IumOIki6Yy8/Nc/bdIZ+sWiv2bDBnR/JF8Kx0d/f+MGXR7dcTW6ijWQ/SCTdUQRJd6x1pq78GzT4AuyfR+w25wG/PhXrvRCOptzH+OL5Xy3Zb24JenYEaOSU8kQWSXcUQdJ9Ez7r3JHJztEivrWEC2rwE7h/sxVGvxB+NP19iPsUn7t9O3I/zV530ne6YPhRICTc4SLpjiJIuoEhP22HxJ6nmWuP+ka+8SZQIPFC+Gr6H2Cdke0+mrPh+LCNUiP7IHwmku4ogqQbOPqnusITcs2a76+XHqDvz00eCiDuoAIhHKl/g9RbC9JockwmLdx6niIS84ZNJY/se/B5kXRHESTdwHD4AfxngSHfbPKYseY4vR25l743J3GoqpU/uCAZw4nqs/b/rJoUn4X/9dJDNHv9KV/5RqdfDU+2E7HYxYcVSXcUQdINHrno+sy1x01Q+XHIDvrenGSz+9lfug7CiSJvPOS2/4N5qaagxbtRmTRnwylzJM/db+CHF0l3FEHSDT79T+08bTZz7QmaFJ1Jb0fuMxuxOBm/tWCbOQ7BU9Msl6B0TIQwCHTaq7/9clvmNs1t+2fhu00986krs2n2+pPmQXR4n4CvRyTdUQRJNzj0T4n5g8vwX1l/UXZ+0ucpab5ekJ/8Z68/Yaan+fA/75CGMNDltsptltsut2Fuy6GxF4ZGsdzWWX/bd/cJTB9/dJF0RxEk3fHl8EA0PCFDGHS+oC372zkS6+iKpDuKIOlCCCEcLpLuKIKkCyGEcLhIuqMIki6EEMLhIumOIki6EEIIh4ukO4og6UIIIRwuku4ogqQLIYRwuEi6owiSLoQQwuEi6Y4iSLoQQgiHi6Q7iiDpQgghHC6S7ijiS7qrHrUh6UIIIUTSHVWI6OOWlL+suN04ELrpFE1aNvINe1WRdCGEMPgcraS7bieSLifdjwkh/urKzUcPI2LP0KRlGOlCCOFEdjSS7pSoLFq7K586+yd40mX6+/Xvl5bXlSxOvEDvLs0Y8Ya9qki6EEIYfI5O0j1sppfvN7Y/IKK/c+ehCQMR/ZZlWX9y407TzSUJ52ny0tfzJrNIuhBCGHyORtKdFp1F63cXqMaW9qtE9B/cuWjCwBuptNarpSaK3HqCJmGkCyGEE9rRSLpTojIpMb2UiKhDa/lrdy6aMPBIV2v9p7aUNxMPFtPk5Ui6EEI4kR2NpDt79RHKPFtpE1EOaf177lw0YeDdy1LLt5SyO08U1NC0qAztTAV8dJF0IYQw+HzdSXfK8gwK3XhMX656qIn0DVvbf+7ORRMG30j3/1TKrq5/0H5z5sosD08DTOU3K+owTY969ZEvki58aZMLKCIpnyITC4wj/j/8SPrfV36P+b12/38Ih/s6kq7JHVGHTS6ZEpWpoxLOdvf2eKuI5Cki+l13LpowOMUx1FqttbakVXPgZLl4h6eYzWg3w0m+ryiSLnx58ymCO3tSMYUnFlIEJwj42uT3lN9bfo/5vR75/kP4zNeRdJ3ckUFTlmfS7HVH6VzJnX4iui2FaJZSTnHnogmDL+mu06TJtj09j9u7+iLjjtPkpc4TytSoVz+3i6QLX1ozus2jrVkVtPfMLdpzpga+Rnedqqb1B69RWPxF33sN4Xv7WpJuVJbZPDUtKps278tVfV5Pt1JWsxCiUkv5jjsXTRi4OIZt6/9m295FWnh/YEnrx1eq6/WcNUdp8vJMmh6dRdN5ioCTb8zIN/aDnLfhFEUkIunC99cZgRVQet59qnrQQ1UPeuFr9Oq9Ttp24haFxOYOvdcQvpfh8bk0e+1x3uMzIqa/rzFOsuWcwUeEOIdEp5ynmobHD/lsrpTyF7a0Jw8M6H/qzkUTFiL68oDX4808X3F35uojNMX3pjtTBfxGvuCNfh/nrj+JpAs/ULPWmFRIaceq6HpdF1XUd9P1Ovg65Pey5PZT2nzoKoXF8zQ++iN8fznpzlpz7MMn3WhnhpR/PyU6kxZuOm4VXr9fr7Sscuca4IOo80tSWbrfa3suXrlH81YfoanLeJogy7fO+/Ly9DI/LSHpwg+U1x6T8mnTwat07R6S7uuU38uCG60Us6OEwnipB9PL8AMMi8+lmauOmhjujuvvq6/c47RlWbQs7gxdr32sbSWF0vZNd64BPojoS17b06+keCiEuFxe+0CtSDpNU5cfNtu+eeT7skeK+Iln1prjFI6kCz/IxHwKT8qj6G3FVHzrKVU2jEwe8NU9c+WxWafj95jf6xHvP4TDDI27SDNWctIdGddfpFP8gjdNZdDMFdkUty+f7j9+0qeVuiyE/dQjPNfcuQYMg48R+fykJooSWlPm+esDyxPPqDmrj5qnmUlL0undZWwGvbvU+fWdpelDTlqWTpOWHqKpK45iIxX8YM2O5TxanFxEJ0ofUFVdD5Xf76IKHqnVdY1IIvD95feM37vr97uo/G4nHbxwh0Li8sx7zO/1iPcfwmGGbL1Ik6MOmxjOsXx4bB8e8zkHTF6Sbvb+zF+XQ6u3X5C512q9XHWKtH57WC75LXeeAS+AiD4hpWeWUoKUUnVtPT0dpVWP6MDJq7RxTy6tTLtA0cnnKCr57NCvQyadoxVpFykm9TwtSkEnh++vs87oPJxtO1ZFlQ29VG4SSA9V1PWMSCrw/XXesx7zHl6q7aAtZj03z3c0Cw/B8P2NTCmgFannTQznWD48tg+P+au2XaDY/QV0+HwlXb/TLHsHB54Q6UYp7KdCiK+7cwr4AHikS0RruFimsD29SlsntFZSKc3nrUjxnxMR1/XiX/1KIuod8Orm1vauB00d9qpdpZhihu9rRLLTPsKTCmjV7jK6dKfLjNLMSLe+d0RSge8vv2f83vFswcXKVopMdt7b4e81hC82n5IPl+u2jh5Py9POHo8tTUwfHuP9MV9zHlBKK6UHiGS3Ut4zwvZyaujWWk9y5xTwATjHiez/LqX8ldDerw/aPf/VtuVUIvqh1vZcrfWsFzhTaz1Va52nlJVr2aIp8Ug5hWOKGb6vTvvgUdjS1GI6XFRPVb7EwbuZ3UkFfpDOA8vVu120+2yN2UD1bISLvghfLBdSWZJSSOkXazin3lHKPqu0yiGiX2mtZ4+M93K21vYMrfVblmX9esDu+XOhvd+TUv7csvSfuHMKGCWI6FNK6w1SyVpLWEV7zlQp/jDdHzCE72XsoXIq5x3M9Z1UUY/p5Q+rec/qO82mtNU7yyg8YeR7DKFbPsO9LI33VdzvJaIbtrCeSimnumM8CDBM0lVqo6VkoZD2nbzrj3BsCL60/IAWta2UTlx+SFUPe6n8/sikAj/Y8vouOpR3lxYlOGU13e8zhG65nazYWULldx5LIunVWndZ2sI0caDDSVcIsVFqfV5K+1HNoy5ML8MPZ3I+JR6uoEqeYsaZ3Q8tv2dlt9tp3b5LFM47lt3vL4QvkAdHa/deosftfWbFVmvdqfUELtkYLDi7nuWvpZSDvOGqpa3bG5laROGmAEIhbpGBHygfM4vaVkw5xY/oxkPeSMXTpZhm/kDre3zT8V104Nw9cyYXR/bgB+ncQFVIYYkFtOnQFT0w6LE4dksp7wsh/tId40GAwWey+vvpP0ipzgthP+7sGzyz6cAlCuOzmHw4/wUfOoTPywEgn7ZklFNpTQfdeMBJpYuuYyfze2s2nnVRVUM3XahoMbvAQ8wxIRzZgx8sF06JTCmi7ceu92pSZ4WwG4VQO7TWv++O8SDAIMr7hNbyLaVEopTWpJ6egdnZeTU6JL6AIn01dt0fOITDjUziB7R8Uyxj//laqmzgSxC6qRw7md9Tfm/4Pbp0p4NSc25QWLzvjmL0N/iBFppZkeXbyuhs6b1mIv22lPYcpcQWIcRfuWM8CDCI6ONai78mkj/kp6Qer/ffltc80SFxfMNJPkWgIg78QH3ndhMKKGZnMZ26/JiqGniK2ZVo7k/cJDziZ693/iwzv44WJ+cP27GM6WX4/nJM5rX/1bvLqLah/Q4RfV5r/W+0tn6itf2f3DEeBDh8c1FjW49elsLruryTEkEAvrxcWGXDgctUdKudquqdRDMi4Uxg/e8FTy2fLW+m6B1FFIp1XPgh5JjMsTkhs5w6+vpvu2M4CDK6urq+3OsZ1Gk5FRSawKNcBAT48oYn8WUIBZSQXUmX7/K5Xd851BckoIkovxf8nuTfaKV1+69QSAJfbIA+Bl9eTrqRKSWUU3SXbGkh6QY7fHOR5fVY5689oPlbLuKWE/ih5LKF4UlFtDipgNJO3qBrJvEi6frl96K4upW2ZF6j8HjnvUKpR/hh5BuolqYWUcX9VtLSW+mO4SDIIGr4tBID2x486aPFKcVDNWAh/LBGphTSztPVdO1+rykTef3+xJxqNj/z/W7zHhTf7qCEw9fNbm/3+wXhy8gxeUv6dXra1d9LNBjmjuEgyOBFeaXt8qdd3WprxtXeEDPFPPKDh/Bl5Ae3Xadu0pW7nVTVMHGPEPHPXljdSomHy816nPt9gvBl5CpU4UlFav/Zm30DngEvkdjvjuEgyOCkK6W4almerqz8u5URSUUjPngIX1YOEpHJRbTtWDWV1rQ5u5pfkJTGs5X13ZRb2UxxGdcpLMF5T9zvE4QvZyEtSyvxFlU9qiJtdSqFpBv0mJGukmVKqa6q+08q1x3w3e2JnczwFYxMKjBTqfxrfNZ1yr/xxFSt4uvszLQrH52p6xoXZ3qHfg7fcSBzZV9DN5250uiUeEzIG3ov3O8ThO8nx17/8c2E7Ovex209VXz5vBBijzuGgyCDdy9LKVqUkif6BgbsfWdv04KtuaYspLshQPjyOoVW1u29QicvPaLK+h6q9F1pd/2+r3TkCxJZcNljfhb+mfhnu3qvizLz7lP0dr6j2v8euN8XCF9OvvKRi6ecvlRPStrtSskzUspSdwwHQQYRfVYpEauU3sb1PC9XNxHXYjYbP7AWBT+inHyWpxXRvrO1dPVOJ1WZAhqd46NWs/kZnJ+p+GYbpR69YUa1eGCFH1Ue5XIMXrvvMt1v7OTQ3K2UjtVaRrhjOAgytNa/rbVeLaTVI7XsausesJKOVNLCrVyhCrWY4UfTlIzkB7iUAtqYfoXOXmui8vFyQUJ9D12520U5JQ9o5Z4Ss8vUnKlEaUf4EeUKVLwXIP1irfbY9qAi2S2k9YCIJrtjOAhC+BIEn5+ypYwsrm6hRSlFuAEFvlb56X1pWjHtOHWbCm8+NdOyVeZC9x5n2pk3Xd3vpooAOmZkXgvfGdzge431PeY1l9/rpPPXmykxu9JMo6N8Knyd8nWra/dfpet3W9uJ6Cf+GO2O3SDI4brMQni//6S9q31LRiWFxOaOaAwQvrq+zSHxBbRqZxkduHiXCm40O8n3wYBzN29954jE98atdwp+8Gs0yba8kXaeukXLU4spnC8uMAkXD6jw9ehsoiqg3adv676BgUrS9n92x2owTuCRrtZ6LS8gnC27b0a6OO4AX5tDbYnbVZ5JWGt2X6HdZ2vpXPljKr/XQTcf8EgycM738mu58aCHLte20YlLDynteDVFby+j0Die/uPlF1+yRT+Br0m+DGPFjhIqr23mUNyFKeVxjLmBSOpfSCH6+r2C1u2/ZDaFmIvtk53r3NwNBMKXl9sPb9Dj33N74uNFeRSWkEcrdpZScs5NOlxYR0W3WqmqoY9uPOgz1wZer+PjRj1mLbick6FvSto5fuS7UrCed0Y7v7oT5/D/5xzzcW798f89zt/ryP/N/yb/2xV1PZRb1UwHc+9RbFYlLU8rNnfg8mvm1+5cuTbs5xrx80L4cprYmuxvTwW069QNTrgkhajVmv6HO1aDcQInXSnlj7VSPUKKuqKqRxZPnXGAcRIuAgscHXlKLSy+kJamFNHavZcpJecGHS2sp5JbbebsK1d44qITZl3Vd9yIk2K5SaSceP1XC74g6frP0vqSNn8Pf6/z/5y12kozxd1rknJB1RPKuHiX4g5X0spdZbQ4qci8Npxbh6Mpx1ge5KzcVaZvNTztI9INSuk7tm3/N3esBuME35ruN7zCu01I0WhZilIOX6dQ/45MbBaBo2VyrpmuNck3Ic8sbSzbVkQrdpfR5vRrtPtsDZ24/JBKbj+l8jrfbUZ87re+y5eM+fdOIuYk+rzOTT/8NeZrfSNf/rOr9zqo4OYTOlLSQNtOVtP6A5cpemcpLUl1NhKa12LW2PLMaxzxuiF8Hfpia2RqAWXn1jqDXGlXe4RntW0P/Bd3rAbjhDyiT0itfyGleOT1ehOFJVbeedRpyvrxtAeml+FoacqPcuDxJVz/9DPv4uSHvkXJRbQ4uZCWpxbRmj1lFJdVSTtP11BG/n06cbmRLlQ0U8GNJ1R0s5VKbj0v/xlXxjpX3kzHyh7Swdy7lHbyFm3JuE6rdpXQUt/fHZFcSKG81sx7GczrKnReS4KvQhtKpMJRkmMr75/ZdPAaNbX3PNXSjvR6vYeUkjdtrf9fd6wG44xhR4i+3D84MHis8D6FxPFTPpIuDAydJY9nOz39G/4Wp/CxpCIzUmX59/xn5nt8X2e+x/f97r8Xwjchz6QsSyuikqomUspbPjwOu+MzGMcQ0RekEvdau/to68HLtCAWxTJg4DuUWH0J2f3/IQwkuY1yycd9p29Qn2dQai2Pu2MxmCDwBfe2sL28wFD7sIuWpZaYNS53o4HwTRnJOz59v3+WaJ/NyLzoz4Z/D4RvUrODPyGPthwsp9aOQbNj2Rb2dXcsBhMEIvqk1zvwfa3t6X0D9rYjhbXaOSbB61+YaoYQwlfVxNDEQlqxq4wuXmvoIK3Xam39xuPp+2t3LAYTkPZ2/cXah+0b4rPKZThfdI/RAoQQvrIRSYW0JKWYdpy40drWPTDdHXPBBMW3mP8lrfW/sKT8dW39U2vtgSsUznfuvqAhQQgh/AC56FBSPqUcr6Km1q46IvpbrfXvaa0/547BYALhnNsVf2NZ1o+c5CsnC2HfKKp4MLBsexmuMIMQwlcwPKmQ1u+/qqvvP+kk0heE0P/AN75ZlvW2bdv/yR2LwQSE+AyvtN6RUnil0nS8pI4WpfiqVSVzqUhMN0MI4XvJMZJjJW/qW7m7jEqrm5xSj1LUC+H5G3fMBRMc3lSlpVwghGgUwtPSP+Bp33fyZldoYpFvxIukCyGE7yWv4fLF9JGpJepU8b0OKe02KbzNQohKkvKH7pgLJjh8A5FQapUQ9iMhZZGSoqytu7/k4IW7FBLnK5P3goYGIYSQL6bPp6WpJXSyrGHQa1l5WslSIeVlIewaS8pJ7pgLJjjLltHHenu9fyyld7aU1k8saf1ISpHf3NHdvONkNS2MzaVwUz+Xy/nhOBGEEHIs5EtjwpK4ol8RHS64I3sHBuu0Vule4f2GlNbblmW9OzCg/6k75gLwHET0FVvYT5SS1zr6vJSUXUEhsU4RgvDkFzQ+CCGcYHIs5FreixKLKCO3ljy27SEty4UUJe6YCsD70tnZ+SUhZLmSKkcreaHXoygtp4oWmgLxWN+FEMKIhEKKSCmi7IJ7ZEsaIK2OSVuesaR9xB1TAXhfiOjzSsqLQtoNUskspazclo7+rl0nbphbYXD3KIRwIstruIvTiuhI/h3V57Eek7ZPSSVPCGk/0EqlumMqAB/IsNuIPqW1Wsfb3zt7B+T+M7dNo+OnPBwlghBOJM3RoIRCit5WQidL68hr25qIurSWU4bFTNweBF4dTrqkVYwUss22rSeDHotOlTZQZGo+hcQX0GIcJ4IQTgA54YbE59PKPSVUVt1CUthC2HaLFPKultZv3LETgFeCK1dZ0vqJkKJXKZWnlerzWt7W0pvNtG7fFVoYh+NEEMLxrf+KvqQjVXSz7qnUym7VSrUrpYqFFPWD9uB/dcdOAF4Jnirp7+//fcsafFsLz19KKacrKa9Zlu2pvNfSmHKs0uzgi0jIp8hhDdT8ituKIIRBpD9m+WMYxzSOb0tSi2jfuWrR0NT5WCnZq6Q8rbX8sRaev7aswR+2t7d/0R07AXgtENFnhRIHSSsSwu593N7bvP/c7Y4lqcXmHC+XjgxPynNKomHqGUIYRHLM4thlYphJvkUUvaNUHi+te9o14G3RSgxy0hVKxLhjIwCjAtdptqT1CynFA22Qdwa9VnPV/Q5avecyRcRz4i2mCFwPCCEMQjl2RSQW0+KEYkrMrqT6lh4hFMc72eCrp1xq2/ZfuGMjAKMCEX3atu0Qr7QjhRIJSsmzSqsTQonHLZ39vYcu3qYl5omxCOUjIYRBJccsjl0rdpTQ6Ut1qq/fapBaHpNSVnEdZUuJNV7bjrAs69fu2AjAqDN8izyru7u/anm93qs1zXrLgStWZEoRhSbkm0sTwk2pNGf06yRjrPdCCN+Ez9eT59jEU8lhCQW0NK1Qbztaad9t7CSlRKU7xuE4EAgotNZfEFJc0dJq6Rjw5pfd6aAtGeUUmphLC+PznJJpIzoAhBC+GXlHsolNSXmUcuwGVdZ3D3oska+l9cQW9gF3jAMgoCCiL0kpaqSSfVJ6i5USjQ+bu3sLK5vV9pN3TeMOjccoF0L4Zo1IyqeQuDyKTCmmQxcf0I2GXurzSK9S4q6U1iWp5ICUMscd4wAIKPheXimtt6S05/Gv9qD9X7XW39Jav1tY/iCs6GYLbTlUTqFx+UazuzmZD507mxeeTT8jKUMIX91nMYR3I3P1vAITa/hWII49fCvQtuM3qay66en12ifvEtF0rfXP7MHB/yql9Usp7TmCBC6fB8GL1vpzUlo5Hf0eunK7hdKO3qDFKc4ZOF7zjRx+vMh3Rg5CCF/JYTGEY4vZV5KQT9Hbi+nAmVq6/aCDegYGB7SyNrhjFQDjAl7vlUoWaq36tRb3LKX17br2u1kX7vdt2HeZFiUXUVhiEYUnOAfSR3QiCCF8SZ2iFgUmpixJK6bY9HJ1ovhBR8OTnnpJWmot7mutuoQS292xCoBxgdb6q1KIZqVEoZRWjVKyQgi72xZ2R8+gt/P63ab+Qxdu0Zr9l2n59lJTAcbc32tGwrzbkNdhRnYuCOHE1Slg4dz642zUzKelacUUvaOMNqZfo5yiWnXnUXvvgGV32sLuFMJuU0qUS2lXKyUuSyFK3bEKgHGDe+v9MD+ltZ7JpTb6Bgftm3VPn2YX1nalHi3XGw5eo5W7L5uOxOszoQl5FBKfazZksWGJhRTuqyQTmcSlKLnj5ZknXXPf5RtykbmNxJnmenYbk3NUwaw38fQXhG9IboPDj+6ZNsp/btrsyPY8ljozXdyHnf5sjvNw7ePEgqF+zzEgLCGPIpMLafn2Elq99wptTr9GO05UitOX7rfXNXW2W7bFtSzatNZfe0HMwREgMHFxNmDpqVpJkkr1Km0f0FofkEoNtnUPtN+81/zkTOmdlvSLt3t2nb5FyUdu0KZD5bTh4HVavecKxey4RMtSSyksPpciUosoclsZhfBTb2rxmzOthMKTiygipZhC4p2HABPc+OEgucgECwjfnEXP7aPgNsptldsst90R7XmM5EvhQ/hBdVsZRaQUUnhCHkVtu2T6OPf1jQev0+b065SWc5N2n7mlsvJud168erfl7qP2J72D3k7SulVrtV1peUIqpZQULULov3PHHAAmNFrrzyglomxlZymlcoXgjiJqhZBPLKXalLRblZKtSlntUgrR0+dt6Oy3+yrutdaU3mrpvlj+qPlieePDqoceOlLcUL/j+K2K81dbrG3HKirTjlaOudtyKivScq5f3X+2unHPyZt3j+TXifC487Rw02lasPEMLdh0luZvOgPhG5PbILdFbpPRaQV0vLB+cNfJG7X7ztx4mHrk+iV3mx4bKyp3n7pZe+7qk8HtJ6qvnbryuKWiYUCfv/KoPvf6o9ZLt590VDe03+0ZFH09fd5HSgmplPXUxAZpt9pKtQkhm4Sw70opH0klT9vK3qelnOqOOQBMaCorKz8npZzr8eh/o7X+x9KSP5SWfFsL8Q0p5Qyt7dlS23Oklr/U2vqp1uKvtdY/1Vr/F63117XWf6W1/lsiPVdr/ReW1n9CRL/S2vrTN+CfWJb1f/INJFLrt22t/9PTju6ckE0nacryDJoalUHTojNpKoRvUNMGuS3GZFFMyvlBIh1HRH+qtX5HCPEdrb1/ZI1s26Mq/3u2tv8LEf3Cq/Ufc98m0rO5TxPR32it/15r/d+1lj8lEn+jtfW21PI3UtvzOEZoqSeZmGHJXwqv+AfeR2Lb9GdSyinumAMAGEfwdLkW+mtk0X/g3z941L4kbNNJPSUqi6ZGc9J1Ei+Eb84M0xanx2TT0vhTXfwQy21X2/q/a6H/0t2mAQAgYHEn3bqHLTGhm04Qki4MHJ8l3eUJp7uktH7FbRdJFwAQdIxIuo1IujDQRNIFAIwTkHRh4IukCwAYJyDpwsAXSRcAME7wJd1vE9GfIenCwPQ9kq7W/68W+m/dbRoAAAIWIvqY1vqfO0eH9GcamtqiQjYdN0mXg930GHcAhHBsddogt8XDZvcyJ10i+rhlWf+X1vr33G0aAAACFi4tx+eNieh/EtFXGhrblof4RrpIujAQfFHS1Vp/kdss/+pu0wAAEND46kl/hn+te9gWjZEuDCTdSZek/qWv3X6WiD7hbs8AAPDK8PRvd3f3V7XWv81rrq3U+nmt9e9wBRu/3Wy3/mp7e/sXj+RVfDn9TOlXL5Te+WcdXX0rO7r6otvex46uvpiW1q5ft7R3z2zvGVjzoKmrYOGGYzQ1+rAJdjNWZNH0GAjfnE4b5OSbTdFJZzx9/XZOe2//kidt3VOa27ont3f1rXa3a3cb7+joW7Bs66kvct84f63uS1q3f5H7zfB+pLXpZ19t8iVzX5/7tLtPAgDGMZxgpRS1WssIIawtUspbWiuttRJCSt034NVPu/r1/aZeef5aw4Ps/Jq29It3dFpOhY7NKqdNB6/Sxv1XaMP+q7ThwJUXuv7AFb1+/2WW1u4rM9eO8YUMEAaakckFtP7AZeK2atrsgSva3Z6H3O+0/c2HrlJ8drnecfyGzsq7I48V3mkuqmp83Ng2qDu6+3W/x9JCSE2khNbSo5QsVkptUkotl3JgurtPAgDGMVrrLyhh79dKHtda3hkc9HQ2NLc9vFLd1H+y9D4lZldQdFo+hSXkOleK8WXYCXxnJ18vludcJWju8Cx8f5OeaW4Y8t3w4r4TFMI34fD2OLytjmjHLk3bN9ft5Tl9wtc/uK9EJObSqh1FtP34DTp3uV5X3m3pamrreuC1rE6tVYdS3jNKeTbhSj0AJhA83aW03dk9aOm8igf3E7PLq7cerqDw+FxaEJdrrgXk4MP3eC5KLqLwpCITaPg+Xydg5dOiZP/dpM7duS+S7yj16w9y5i7dFwRACMdabov+pPtcW31fuU/w9/vbsT8JF5m+wn2G+05IQh4tiL9IS1IKKDa7wko7UVV5+VZTo1cqIrLK3H0SABDkENHnhRCpSnn2SikXCKF/oLWe57Xt2WW3HqcczL31JD6jnJakFVGYuU+UL/XmAMSBZ1hg8o9S+b+HJV4OLhFDgQfCiSG3efMwanSSsP+uaH9fYf19iP8sND6fwpMLKHp7CSUfuS4PF9bW3r7XvE5rvkFMz5RSvyWlvUwp7wEhRJS7LwMAgoDe3t7fk1K2CSE2SWk3K61u1D/uak4/V2PHZVXryJRiEww4KDwLIhDC0dA8pCYWUmhcPi3bXkYpR2/rE4X3Bls7+h4SqWop7LtCiAQp5Q13XwYABAFE9CUpvdeV8jZ29XrtUyX3xeodZWJRSgmFJ+aZKbFIng4z61AjgwSE8PXp72f+PheemE+LU0r05v1XREllo/BaYlBrb72SVqa7LwMAAhQ+E0vO8Z/PEXn+tdfrse487KQt6ZfMFDJv+ohIyDO7Nfm/IxLzTEDwr7lCCEdHfx/jPsd9j/sg90Xuk5GphbTzeAU1tw+QLTx3uDIWEX3Zd2b4k+5+DgAIADjhSmnPlcKql0oWdvd5Bg6eq7m5fFsJhZm1Jqy/QhiY5lNYUhGt3l1KJRWPPAMDnptai3YpvJeFFt9z93UAQADAh+6VUhuJiGoftN1OPVohuCPzOpJZT8JRHQgD0gge9ZqZqEKKTCmiQ+dr+p6099USUZ+Ucpq7rwMAAgAe6VqWZ2PlvZbBNXsvDYQlFpkOHek7ojN8ZyWEMHB8dkLA2RkdllSkE49U9Nc9bm8isme4+zoA4A3Bx4K8Xu92pdSG/kFv2LmrDdUb0ytpYXy+c6Zw6GgPH/fB9DKEgejQg/HQiLeAwpOLKP7ITbuspilfS3uO1HquLe2l7hgAABhD+AYfIcQDj9duvFzTKtfsveact31Bx4YQBo9c8Yqnm+Ozburaxm6vFLbQSt11xwAAwBjC5RwHvZ5LpVXNNm+YCom/aDZlOJV2RnZkCGHga3Y2Jzr9OCQ+jzYdKqd7jR1CaivbHQMAAKMMr9223737Rd3d/dXWbs8fVN5t00vTiimMp6j867im3KJzHAhCGFxy3x0qT2nKTObTxkPldPdRJx8n+gx1P/xKa2vr53GcCIBRxtxRK+15trSrpbRa7zV16BW7S51iF2ZNCOu2EI4nuU87y0X5FJd9nZ529Qmt7cdCiQLS4gfuGAEAeI3wsSChRLTW8t7DJz1XNu67pMLjuUPyCBdncSEcf3Kf5r5dZEa9qUeu9/f2ey8RqQpLWu+6YwQA4DXC00lay9C+AW/bvjO3vOYmIDMN5TsOhHKOEI4vh/q009eXpZXokyV1g0qZ+7B/4o4RAICPCBF9WmsZopTYKKWcZEt1sbyu1ynlmMDTyvwk7Ixw+Ul4RKeFEAatz/o0TzPnU3hCAa3dd4Uq7j7tIKJYKWmyUmKz1vKX7tgBAHgF+O5bIS2ltSaphHX3UbtYu/cShcbxpQWYToZwQskV5hLzdXxW+UBrR18PkRJchU5Ku9odOwAArwAnXa21FkJ09wx472fl19H82HwK493JmE6GcELJI9/QxDxanFZMF6432kKK+0IIr1R2nTt2AABeAeeKPnmTn2av3W6US1KKTLKNMMeDMNKFcCLpHCEqNDcUrd1XRnWN7YpI20qpg+7YAQB4Bfwj3c6eAdp2vIpCYnNHdEQI4cTSLC0lFtCRgntk2UJoUiicAcDrgJMuL+her22msPhcTClDCI0RCfm0cmcpPWjuISKNEpEAvA446Q54hU7NuUELY1FlCkLoyBcj8FGi7Pz7JKS8544dAICXgIg+IYT+vlL2PqFUmi3t8PLa5rqI5CJalOC7MQhCOOGN4KSbWEArd10S9U3dZUQ6RCi1Rykrybb1/3DHFgDAC+CqU1rrdbyOq7Q677Wtrt3Hq7pCE3AGF0L4vHwb0aKUInW88G4nkWpWWhdqrfu11lPdsQUA8AI46Sot1pmzd8Juf/C0uzJqezGZ6lP+DRQv6HwQwomluYnI3JddSJsOXfH0ejyVSooBrXWP1PYUd2wBICghoo8R0e/yNLDPrzQ1NX1Wa/2Znp6e3+nupq9w4uwk+pLW+nfYHp/8e/56rfXn+AL67u7ur3DFKaKuLw/7+z8ppZzptS1pC48uqHgoQhPyKdJUpMFoF0L4TBMTEvMpekeJvlnfKohsbQvxUGv9tWEx5eNad3/1kdaf6R4Wf3wnI56LTz6/wHGpp0f/Tnd391cfPXr0mZaWFv6eL3H8883GfXUoKAIwmpiL46W4ZdtyppSe6UpJPiN3QSqZJ5XUWso2pa24Ps9gc9+grRuf9ul7jzv1ncdturGtX3f09vYKr6dAK1GsteyR0j4mpV1DRL/Ff7/ToNVqpUSNxyuKUnKuS7N284IOByGE7NLUIkq/eKuXiIqVEneklLP8MUtrzx8IYbUoJU8rZfcK4S0bGBioaOvu8z562qfvNLbp+01duqVjQPd5vLLfM1itlEhVUlpCyQGl1Gml1CWlZIuU8ieWJaJtaec+FxgBGC14dCul/JmU6oqUdq9U9hOthUdpabf3DNLth089p0vv12dcvE/r91+lyOQiCksooPCEfFqcnE9bMq7qk8X325uf9rTwFLIQnh4hRaE/6fJIl6Q9WSv7QHuv1bJmT6n5XncngxDCZ+ZT0uFrWkjq08qq1doaqsVMRP9SKrtBCK9HKU0PW7rpSNE9Wr23lCISck184RjF93Jvzaig7Pw6O+9a3YN7jztkd7+XiJSltOgXym6V0u6QUp4QQvzP5wIjAKMFT7tIaUdqLRdordZ3dfc9ulbT1Hqk4M5g0tHrpuFyUfKQ+DwKTcijcLPukk/hSc6dt9y4w+LzKTbjOt2sb1VSWA+JNCdgf9L9lCQZLqQ9UF7zWC5OKXZ2KY7oZBBC6MgxYt2+K/ToaR+f2W33Cu/3/TFLa/2HRJr6PYONpbeaaMWOMlq4NY/CuLLdUGzKN7GKYxbHLq56FbOzjLadqNQnyu733ap72tLfP3BDa7mUY5+UNjZqgdGBR7aW1feWEJ61tm3PktIOVUqWN7X15Z8qqbt0MLeOYnaU0ML4PFrou4TASZLO+qv/AmrnNqBCivT9WUhcHq3afYnuPOrUSolrw6eXlVKbbCHvZZy71b6Ik+4LOhmEEPrlGBG1vVReuFzXTERXpJRzhsWwf+XxWk8v326lRclFJvbw93AsMlcG+m4qexZnuNQknwPONzEtLCGf1u+/QpkFdZ78aw8Kuvs8PDNXopTYYHvtuUJZKzyevr96LnAC8KrwdK9t26FKWJwcb/T0e3pLbzZTUk41Re+6SqFxzvSMuxN8oOZqvgKKzbwmn3YNHh0a6VZXf0pLe6HHtpqSsis83PBHfC+EEA6TE+bilAKdebG2n0hXau39gT+GtQ8M/LOaB12Va/de8SXcDx9TwuKd5Ltq33XadaaWbta18Yi6RymrRAhPhWVZuNsXvB54ulcrK4bXX6/WPPHGZVzTkcmFphHyNPLQBfIfUl7r5YPt4SnFdO5S3eNh/97HtRb/q6Pf+zjhcBWFcunHF3w/hBD65Rk2vmP7wLkaZWnJhTL+D39MKb758N8cKbxHc+PyKdJ83avFLI51HPM49i1LK6ZtRyrVnYftFpHu0rL/10NBE4CXwWxgIvoyEX2Wf+/bOv/VysqWz91t7Ig7e7WZeH3VWQfxJc2haWN34/xgnb+jkCJSiin5SJWWUlY4r6H181qr2F4v0apdZWaNxf29EEI4XI4nPCuWmnOThKYereVsX1z7d0+7BtrWHiinMDNAcKaO3d//MvqnoTn2Of9eHq3Zd5kKbjR1P3zaY6az+Thlt9ZfbaXWzxN1fomPKuXl5X3CHW/BBMd39uwvpJK1QljJSogUrghlS6mr6lr1xoPXzOYCdyN8HfIT6spdZdQ14CH+NxkpRV/l3WbPyp2XzN2Z7u+BEMLhmiSYlE9x6eW6oaVjgMhUpdJKKX2/qdMsgY1GYR1O4Pxvbzt+Uze0dDkBTEmPlOKKlKJWKVmvtfieO+aCCY45BqStn0kpKm1bHtNaDXo8HrpwpZ6WpRVRyLA129fVcJ0NV87fFbWtmJra+IidJqmkLYQ4cP7K3Wur9141T6/u74UQwhEmF9Km9HLvtdsP84h0jqlqpyRV3mulkDhnmWp43Pmo+v8eszE0IZ/W7btEV283kZA2DyCUlOqhV3gPCO39tjvmggmOUwXKG2me0oioo7uPMvJuUyiv2/J0irk0/vU1Vr/+v295WhHdbTTXc2ml5CPbFtvPlNTdX76zDFf5QQhfSr7gfu2+y6Ks4tF1ItqjlOySiqj0ZovZ8MlfMxoxzKwnJxZQWGI+LUstonPX6sjj9XLiFVKpUwMDA//MHXPBBIQTrRDib/v7+/9JT0/PvxVCbOORZlv3IO06eYNC4i9SRCIfAfKVWntBg3td8qaEK7ebPVKLBltIr5Dq8bmyei/fLBSBiw4ghC8hx4oVu8r01VtN/UTULKQcGPB6H5y+VCd457H761+nHCPNMaOEXIpMKaCcwns0aAkiLQeFEGkej+cPBgcH/6Vt23/hjsVggsC1ki1hbVDKzpJS3Ndaetq6+iktp4pC4y6OaFSjbcz2QrEm7UxX7MESSjhQTKvSCigiuRjTyxDCl5JjxeLkYlq3o4CSDhXTln2FamXq6e6obYXK/bWjqRlNJ+dTVt5dGvRYPOKVXOpWKHu317bnu2MxmCCYohfSete32eBGc1tv6YELd81hcOdy6DE0sYDmbjhN05YeocnLDtO7S9Np7vqTtNh3X+aIr4cQQreJBRSZkEez1hyjdxanm1gyPeooLdh87iMcE3o1eWS9JKWYTpQ1DPZ5vAWkdZ1Sqt0jPH/tjsVggkBEn5NSXubNBl29ffLguWo7NI4b7qsdHv+oLtxylqZFH6JpKzJo2vIsmrf+NIUn82h37F8LhDD45FjByW7OmhM0bXmGiSUzVmRSaNyFEV872vLxorCEXFqeUkxnyu54bduqISW7lRL73LEYTBD4miopxaAlBJ2/2mAayaueX3sdLthyjqZEpdO06EyaGpVJ8zacGpXNWxDC8SnHivCEPJq99jhN9cWSaSuy3shymV+eNVyxq4Su1Zr7XUhKcc0di8EEQWv9RVtYd27ea6elqYVvfO00ZOt5mhaV4Uu6GWZ6GUkXQviy+pMuTy9zDOFYMmPFYQp7w1XtOLZuPHiVHjT3CNJ2jjsWgwlCF9GX23o8evOhS7Qw/s0nt9DYCzTVl3DZOetOmA70pl8XhDA45FgRFneRZq3OoanL000cmbEym8JHqbDPy8qFOcKTCmjvmWrqG7Rr3LEYjFN89+D+UAixTihra1/vwJ5D52ppQdxFCk/k7e5vNrnx0+j0mMPOE2pUhnlafdOvCUIYXPJU8oyVR0wM4Vgya9XRNx5HzMNAQgEtTi2kkyV1XUQqQShrsxBiuRACtxONV5wCGHa4EKJeCKum5lGvjByqI+q/3mpkgxkrwxLyaMaKI8+mhVZlmwumneu3IITw/eVYERp73qzj+veGzF597I1fDWr2y/jqPq/bf5maOzyDpMQtIUSFlLidaNzCI10trUlCyqudPZ6nmw5doZD4QlqUWOi7vGBkYxlLwxLzaNaqnKGkO91MC/FazNhu9YcQBquFZm/I1Bgn6bJz156giGT31429ZnCTUEjhSUW082SVlFI1SiVPa+H9mjtWg3GCb3r5N1J5B/KuPjDlHcOT8sx1WLzewMdz3A1lLOWky0+l/jXdaSsOU3j8m9t1CCEMPkO2nqMpvr0hnHTnrTv5xpMux1aOsRxrOc6t3FVKlXee8F7me0IInNsdr/BNQkT0P592DDQkHr4RcFfm8WaHOWtPDHWWaTFZZnPVm16PgRAGhxEJebRg81ma4o8h0Zk0f8PpgCqww8cyI1OKaN/ZWunxWPlE+t+6YzUYJ3DSHRy0/59jhffqlu8qM5un3A3ijZqYT3PXn6Kp0cOS7tbzSLoQwpfSJN1NZ54l3ZgsWrDp7JhXo/ogI5KKaM3+y/Li5fpcIvrX7lgNxgkZRB+/Vff0N1sPlXtCuREmvvl13OdMLKB5G07T1Oh0Z+dhdAYt3Hx25NdBCOEL5Af0eRtO0pTlh5wz/zFZtHDzOXPln/tr36QRiUUUmVZMqUeq7rd19WF6eTxBRJ+1lb1XKWuNV4ivF1Q15W3MuGFKpb3pYhgvkp9KTdKNzqQpMRk0f+PpEV8DIYQvkpMun++fEnXoWTWqrWNfAvKD5HO7i1KKKeFItaeqrmMPEX1NKRFvKWu9O4aDIIOIPs+3CJG0Mga8AxVHCu/Qgrhc86QVkRRYa7rswi3nh6aGpkZnBdx6DIQwcI3gusvD94VwNSrfPboBpTm3W0hLUooo72q9l8gqUspOF0pscsdwEGRorT+nlDynpOhufNor47IqacFWHuFy0n1BY3iD8gXUpipVjLMBgqeX+ak10F4nhDAw5SOGphqVb18In/XnDZocW9xf+0blO8oTCyk8oZD2n71N3X0DltayQ0pV6I7hIMjQWn9BSlkqlbpT3dDuO6TtTCuHveFt9C8yNPbic0mXC5e7vwZCCF8kV7WbueroiKTr/ro3LR8fWsTHiBLzacOBy/T4aY9FpKqFEAfcMRwEGUT0ZaWltizRf+7yQ1qwJQCnWobJV3BNHaomk0EzV+YE3lMqhDAg5QQ7PSb7WVW71UcoPCFwYx6v7S5NLaarNU8UaeVVStxyx3AQZHDSldr2dvb03dt7uoYWbg3cBshy0uWn02dJ9yjWdCGELyWv3w7Vb4/JpNlrcwI66fLGr8ikIjpRVGfZtrdBkbjhjuEgyCDq+rLWSre0D9C6PZcplHfNveDDDxSd6aFh9ZdXHDFn79xfByGEbnlPyLTow77lqUyaszawL03hQhnstpwb5LU1X7eLG4iCHX/Svfe4ixYl8HruyA8+kOSn0llrhtVfjuHdhygFCSH8YBduOWcuOTA7l7nu8voTtOgNX+TyQZq7dvdfpvYezyCRiHXHcBBkcNLlNd1rta20YAufVwvs9VG+P5d3LLtLQbq/DkIInzMxf2QJyCA4588xL3p7IdU3d0kiecodw0GQQURfsm1bXyx/SPO38ogxsJ/6eCp53oZTNG1YKciFW8+N+DoIIRyuqUa16fRQ0p3OJSCDoKJdeGIeLU0roht17USkb7tjOAgy+MhQ/+Bg1fGyOpofm0eLEgN7fZQ7Dj+dmhJuvC4Tk0kLtgR+x4EQvlk5dszdeIqmRDkV7Tjp8nRz4C+p5dGSbSVUdKPR5gIZ7hgOgoyurq4veyypD56voYVxfCF8AI90eSdfciHN33TGSbpRTseZt/HkyK+FEMJhRiTy0tQxms5ruhw7Vhw2d+uayw4CeDMVD4QWpxTSxfJHpLTCSDfY0Vp/sWfA+2DP6WoKMZVZArnx5ZvC5DwlNJR0o7N8myECey0aQvhm5aWp2Wtynk+6vB8k4JNuPi1OLaITJfek1Oq0O4aDIENr/dut3f1bD5y/QwvjAzxx8T2TyYVmSmg6r+f6diHOXncs4G4JgRAGljxNO3P1ESduRGXSjJXZFBp30TfSHfn1gSIfGVqSVkZHC+9221rOcsdwEGQQ0SeedPTNP3jxnl6YwPWNR37ogSK/Nu4gPCU0dMCdk+6aoyO+FkIIh2vO+K/0ndGNyqBZq46aP+OYEshxzyTd7WWUXXivTQjvd9wxHAQZRPTxhscdP87Mr9chQZB0eUQbuvWiKYrh38E8a9WREV8LIYTD5QQ7Y4WTdM3D+upjTt3lAE+6PApftv0SHS283zIwMPDn7hgOggyeXu7sHNhwpKCeFsTlBfROPifpOqXcZq08OjTSnbkyO6CrykAI37w8lcwbL03SjcqkuWuOm6v+OKYEctINS8ynpWkldPbSgy4t5VR3DAdBBifdnp7+lFOXHtJCPjL0gg89YOSSaP7ruVZxVapnW/95vWbE10MIoU9elhoqqhOdQXPXnjCblMxAI4DXdLki1fJtpVRY8bhHS7nQHcNBkMGX2Hss69LFikaatyU/sHfx+c7acYKdtebYsFKQWUMXUXMH8l9NCCGc2DpXlTq/d0pAPqtGNXe9c9Qw0GfJwuN5pFtG1+628PV+u90xHAQZ5j5dJe9VNnTSvC0XAj5hmaSbmG/u0R2edPkpduhrXvB9EMKJpz8WmKI6m848l3S5sh2v5wZ60g0zZSBLqOFpnyTSx9wxHAQZ5j5dpbzX77feWJxSFBQJy19/2V+ViktBLtjilII0T7bJI78HQjjx5FhgYoKpRnX62YN6kNRdZjkmr95T5n3wtLuGiG66YzgIMojoU1LrtyvqmpI2HqqksISRH3qgyZse5m44RVOjM0wn4iu65m88NeLrIISQ5aQ7Z91xmrI83XeXrlN3OTKlaMTXBpKccCNTiik+u6r7YVtHDBF9zR3DQZDB53SltN590t3XG5ddQSFxgT3VwvK5Oi5czsnWf+buuapUAbwpAkI4hvpiAVejGn4l6LQVh81FKaYwhvt7Akhzn25SIe2/cJv6LauWtPhbdwwHQQbfMqSUbGzr6cvOyL9H82ID/25aU39585mhtRmWn2KHqlIh6UII2eFJd/XRoXgxfWU2hcT66i67vyeA5P0rkalFdOryg16P5TmmlCx2x3AQZJg1Xa3UoGV1nyitp3lbgiPpLth8hqbHPEu6s9cOKwWJpAshZH2xwJSAXMUFdZx4MWNVNoUGQ9JNyDeXHZRUN2lFwlZa3XLHcBBkENFXtFLtQnn3XLvbSgu2OkdvAll/KUhelzHTyzHPqlIF+k5ECOHYak48+KpRcaxwku6RoRKQ7q8PJDnpxmwvoZoH7QNEVCSUt9Idw0GQwUeGlBLVSsmH1fVPzSalgE9cXAoy9gJNW+nUX+aOxE+xGOFCCF8kn+PnW4U4VnDMmLnm6FAJSPfXBpKcdDceuESP2/r6iShXKYWkG+xorT+jlNhLRFTX1EWr9pRSGJdGe0EDCCTD4i6ap1X/7mW+McT/sBDwDw0QwjHRHwu4BCTPjHGsYHk5itd53V8fSPImKl7TTTpSTh09g0SkLaXULncMB0EGb6SSUvZqLfsan3Y/Sjx6g0L4MvsAHzXyGo0/6ZrpohWHKSw+8NejIYRjL+9U9q/n+pOu+2sCTj6+mcw7l2vsnsHBRk2qTyqV5Y7hIMjgS+yllPVaK9nT7+nZffYWLdh6MeCnavkJcObqZ0cAOOnybkRcZg8hHC6PGIefduCky8V1gmFqmX89XnZfCSl6tVa2Le0z7hgOggxnetlaQ1od0UR0pPAOzY+9QIuSigJ6mpZf2/D6y3zubsGWMwG/MQJCOPbO3Xhy6Fw/y3WXAzlWOOVuC2lxSgGV3HzMq399Wtt7pPTOdsdwEGQQNXxayp4QpQdWCKnKL1ypF/xhhyVyTdLAXfPgSi1cf9nfiaatyKL5m4OjrBuEcOw01ag2nBi6f5trtXPd5UCuRsWxNzSxkFbsLKPy2828ieq81P2RUvb82h3DQRBTXU2f2nPqxrqt2bUUHhfYNYy5nuqc9aec6SLfZqp5vlKQgTxChxCOnRwL2NnrjtNUXwnI6TGHaf4mLgEZwCPdpAJaklJCcdm3uvafrZhCRL/ljtdgHJBRXf2pi1cerk07eY/C4gL/irx5G06bwuUm6UZl0Jz1JygSa7oQwmHyLuWZXALSl3RnxGTTws3naFEAJ13es7I0tYx2nb7bVVLxcLI7VoNxQnV19adqHnau3XehnhbEjmwIASWXgtz4fCnI2euOmaSLkS6EkDUjXU66q59Vo5oek00hW84H9Eaq8MQCikwto6zC+q7mtm4k3fEK3zjU02etPVLSRAtjA78y1YJNzjEAvm3IJN01OebPg+F6Qgjh6MuxgKtRzVyZPRQrTN1lPqHxgq8PFPlhYVlaKZ292tJFREi64xVOupZQay9WtFFoPCfdwH0S5KfUkK0XaKo58O4k3Vmrc5yzbe6vhRBOWMNic03xHH/SdUpABnY1Kj7mFLOzjMpudyDpjmc46Qql116/102LknmKI3AbJb++0K0XzFEhf2eaueooRQRBNS0I4dgZGnvRKQHpezifuZpLQOaaGOL+2kAxLLGA1u2/QrWPepF0xzOcdJXSax88tWnpthIKSwjgpOuvp7oye2gjFT/NBnpnghCOockFQ5ej+OME36sbyA/nPCXOsTc2q5JauwWS7niGiD6ptV7U1uOlNXvLKSzQa5Mm5NH0VdnmCdYUMV/J13VdCOhpIwjh2MkJbMHms+ZsrnM5SgbNWssbLkd+baDoHHMqoO0naqh30NtBRD9yx2owTiCij2st/q65s+fy2r2XZFiAHxnixjlj9ZGhSjMzVgT+rkQI4djJSdc55fDsGlA+sxvQ1aj41+QCSjl6vb/f9mSTtv4vd6wG4wSeXtZaRA14PfvX7Citj0wpGdEgAkbeUp9YQLPWHh0qkDEj5jAt3BTY5+8ghGMnF/iZt/40TYtyYgSPeOduOEFLkosCt758ciFFphSL1KzySiKdqrU91R2rwTiBiD6htfVzW4gbe05VWYsSA7hMmm8UPmvtcTNl5GymyqT5m04j6UIIjZx0uWgOF8Yw53RXZNLcDadocUpRQBf/WZ5Wok+W3O0lonNCeP7SHavBOIHXdKWUC4WUT05euu+JTOZLD0Y2iEAwwhTBKKA5XH+Zn2L50HvUEZq//iwt5qfYF3wPhHBiGZlYSHPWnKJpUbx7OZOmR2fR/A2naBHHtgA9EslxbcWuMn2ppolrLt+QJH/ojtVgnODsXlYbpZIXS6ofPVq+syxgky53psjkApq98SRNiT5Mk6Kc87qzNx7Hmi6E0BiWlEcz1x2lKcsznBixIpvmbTljppc5hri/PjAspPUHr4rah+21RHRMSjnXHavBOMGXdNdLabc8aOrtjjJJNzCnYPhhgF9bfPoVOl96h86V3KNzxbfk7pxKD6/1oioVhBNbjgFRqYU6/fRNz/mS2+p86X06VVRL6/eWUli8s0PY/T2BIL/urZnXVWePt5O0rJFSTnfHajBOcDZS6bV8eWNnd69cs7PMFN52N4pAMTypgA5euE1C2JbWWkup7ueXPzi6et+1gH7dEMIxMLmQNh0q76950JZNRC1aa9Xe1deSfLSSFsYF8HHIxHxKy75OQpiwhnO64xmzpqvteUrJ64Neqzspu5zCA7WsYmIBhScXUNqxKmvQa6UQKZJStlfdeVK9Zu9VCgvgw+8QwtHVP9MVn3XdanzSfZNI9Ukl+h80tZ2Oy6qk0ISCgLyRjEffS1IKKfPibUVErUrLc0J7f+CO1WCc4Oxelm8LaT2yhFAHz98K2BEjr8dEJBdS3MFyq6vbs5tH50opz/3Gjs6NB65RKNdWfcH3QQjHv2b5KamAtuXcUO1dAx1E2pZayYdPu56u3Flqku6iAFzT5de9fFsxnb9aT0TaEtJ7WWuN3cvjlWdruqJBKG97fkWjaZz+dV1eK3U3kjemWdMtoPV7L9HAoCWlVve1tlsbHndeTcmpppAguCUJQjg6OjGrkPafq/F29vRfIZJdSil1r7HzybLUEmcwEUADCn9sDU/INxcdVN5rlUTiiRDiutZ6pjtWg3GCM70s5wkh9khpPapp7DaNgBtDoG06cMq4FVL09hLq7LOUItmttNXU1N5bsudsDS2IDeyruyCEoycnXT7dcKTw3qDH4ynUZLfzbFh9ay+FxPkGEcmBk3RZ/+bQNXsv0+P2fklaNEspL0tpz3LHajBO8I1010ppnVHaPtnc1q8jU5wnRjagdjL7nmSXpJZY1Q1P9pjpZW13dPcM3N5/oZbmB/h9mRDC0dNfv/hE6T1tS1tokiSk7Dxz+cHByNRLtCipKMDqL/NDglN7YHP6FRrw2N1ae44ppc7jyNA4xlx4oFSUlPZNpWVmz4C3ZeXuS2ZthA+ShwdSBReTdItocUqpqKhtOi+l1SaVJQY9nsH03Bqat/lCYD0kQAjHTL6shfv/+asPtFbCktIWXq/VcKq0tiAiucwZSARQfIhIzjcxlhNvck6l1FpclXJwvlRWlpZymjtWg3EGEf0Wu/NIw5eTsq/rsAQ+SO4kXndjeWPyfb9JRbQotdA+mn8/lkj/sVZqjyXtIycu1dO8rbyRKt9sthrxvRDCcSv3+fDEPFqcWkKFNx71E6n9pPWG+0/6/mTXyeqji9JKndgRQFeAmtiaWEBL08ooJfsaF8X4LX8sdsdnMI5paGj4ck5BvQ7hK/4CbE3X1E3lqjKpBXTpVqtHaz1fa+8fDnrtxUfzax4sSilxppgC6UEBQjjq+kvERu0ok3lX668R0W9Ie/+4u19svXi9Wc+P4+s/A6/2Mt/xG7WjjE4W1dW6YzGYILS16S+cLat7HJqQ60tegdNInXN4/LRaRGdL6ga11ou11n/Y1Dn4L7Pzagtidl81HS88wB4WIISjq+nzyUW0Zt9V75mSezuJ6EtE9J/bOgdSs/Pu0wKzkYqT7sjvfXPmU3hiIUVtL1TFFY/Ou2MxmCC0a/3FynutT8LinYYRWDuYnY1UkSlFdPDs7S4i/X8T0b/LyKj+VPq5msRNGdUUGoAjdAjh6GriVEoRbc282Zt1oWYBxzKtrT+tqWv9/t4ztdqc0Q20QYTvCOTKnaW6rqkzzx2LwQShi+jLT7q82lz4bM61jWwsb05+PYWm1FvSkesd/+gfOWsfp07d/e2jubXrE3PuUkh8XoDtUIQQjrp813ZKMaUer+0+Xnh3aBPSnpzqP0g5fkuHDRXGCJyka+oOJOTT1vTr1DMoap4LxGDiQERf7uj1an+B8EBKumZqyHScIorLuDJAJH/Or/nU3bu/fa68YV3aiXu0kKeRAmiHIoRw9OXkxXs6dp26011Q+dBcAE9En7vX2Ba1OZ1L2/IgojCgppfN6Dwxn3afvEEeW952x2IwQWighk+3dnen7T97h0I46QbSpiSz85DXZYpoa8Y1LaW4TVT9KY/H87+X32lJWLf3kicsqXjk90EIx7XmiGNyMcVnXG2ub+kI48GD1+v9d087+/tW7LpEfBrD2Q8y8nvflBGJhbQkrYSO5N/rteVgqDsWgwmC1voLHmvgzqnSB7RgK1eBCsxR4+o9l2nAY3Fp1WKt7YNdvV4dm3mdFnCBjAAanUMIR18e6XKZx4Pna8njFX1a23uVFFVNbQMUHkgDh2HySYulqWVUdrNZkPbkuGMxmCBorb8ohH3nwpVHXQsDuKziil1l1NbV1621tVlpK7mrb6A3JeeGSbpY04VwgmmqUeVTZm6tFtJ+qElssG3vrtoHbSpQTzM4SbdQVd5tayNSJ9yxGEwQtNafEUJsq7z7tCU84aK5v9bdWN6k/opTUduLqflpD1+X+VQpWSUV0Z5T1TQv9qKp9OL+Pgjh+DU8Kc+cwT1ZWsfVYb1KyUopZffN+60UEudchBJo1erCEvNp1a5i+fBJby2RXuSOxWCCwOfblJJdj5/28VNYwJ55XZZWRHcaO/gqLO5k0hbqRtKRiocRyc/u1YQQTgy5psCSlCKRlVt7j4i4uhPZQlDJzccUEqCX13Ns3Zp+lXoHLI5jJe5YDCYIRPQVpZTV3NZ7bytf/Bygd9TyA8G1Oy3ct0hrLWypjqUcrri2PK0MFakgnGgmF1H09jLv4Qu1BUR0keOCZUs6e7l+aKQbSJqdy8mFtOv0bat/YLCBSN90x2IwQXCSrmxvedK7Oz23juYH6B21S1IK6fzVugEidUtJq8sSInn/2eob0dsvY6QL4UQzuZBW77ps/X/tnQdw3Pd15xPbUTR2HMtxEmcud2mWz77LXJLJxMlckitzyeWSc3KOk0lcYrmk2Oc4uVhiAUiQFEkVihQpNnSAIAn23kBSbMBiFx1YgOi997qLrf//7/d+7928/wKytKQckQSxK+J9Zz62R8ICP8/+fu/9yitFFd0eIixEY4eCkWj76Tvtykl9jP/5BMNBXxtyy6iofMAfDUdPEKE33haLVogWrpcjobANlzw99Pze5HS6G3LceLa0fYqICo22jQYTvF3XCxtzyilloR+wIAgrA17zrx2uJm/XqCKiMILy+QLRY/lXG6KpTjWq5IKdLlfW8zSOkAEDALo+3haLVogQ8cfRhPbw9UxJ3SCt2pOcTjctx01nS7sMEbYbY78BYO6WNw77NhdU0TpOhL/PZwRBeDJZl+mhncfrTFvf1AQRlRpjpwej9uiBq620Ngk34akZLnoxt4xaemfY1PoRg9+Lt8WiFSInetlYx4wxoYauybcaQ8dPmkTDaUGHrjUhEYwCQDnP3Ja+Kdp8YKGS1n0+IwjCkwfbJz7pcuWp0ekAm4KoMVDmC0dm957xUkoSxqWw033tSCX1T8xzVErINtGX422xaIWIiD5sjD5sjGnonfDTSwfLnAkSP2kSj4uyznudOCpjYNgYdaV7eGZq+9H6pI1WFARh6VnsLJZ9odlMzQX6iMxVQjM7H1b06qHypLNfTvWsTBeln6ujCV/QEJkBg/Yr8bZYtELExTHA2LXGGO+UP0p7TntpjdMWq5TSnLrH906iRMCTds+pGlIGOFd3EsB2j0zMzu067qW16cl5JS4IwtIT66HtogOXm00gGBxBhDIkMz/pD9PmfE9SOV22oYvdhY7cbKOQpaKEpkIbfSreFotWiNjpGgPdxphwIGRTQVErrd7H7fKSqw4zL7RdJ6opGI3OG8RaRDMXsYB2naillIVNgiAITz6xxgGlVHi9lW++jDEwBsbUD07MWZvzk+2mzh1rzpDlocuePtLaOTTMG2Ouxtti0QpRf3//08boHCe5HAydLemkVUlYDnJdViluzC+b7h/1nTRovMaY0pCth944Xh1IxjdoQRAeH2nZpebwtcY5Iuo2Blw26CrP3eGLazNdEafRwX0+kyicdKEcN5U2DC/WGZgHUGvibbFohYiIfhQRPwNghQFg4kZlb5iDFJwrnJxkOumW0paCMuwbnlVEYIFWEVvpcPb5Bp0qgVSCsGJgW7Ahy03nijucdCEDOqJBW7WtI3ptpguTaRPONpRP3lsOlGFN62iQCKcBok2I+JF4WyxaYWLne/p0y1N5l7yv7zrXRqn7ubbpvZMoUfBCeulgBXUMzQMR1RmDnqgNRdnn64fTcivu+XlBEJ5U3LQpv1Kfvt3WTkSXAUylraG1qm3aOVUmldPNLKWN2WX0xtlm36Ei73fYzjLx9le0QnW6peWpq+XdO7KvdjrvpBysED+JEgVP3q0FlVjeODRNhDcA4K7S0H6muM1al51c10mCIDxethyowNt1/Zx/02yMqY1YqriorDuUllOeVE6XNwEbcyoo/3qHr9jb9+14myta4Wppoafudk/tKLzTS6s5DSeJunTwqfulgmpzxdPB0RNr0ZhtYLDe1ThO67LdSXUqFwTh8cGd0F4prKb6nhnuHHAHETf45qOvHL/RPLYpryqpbAEHUW3IK6dTpb2+vmG/OF3RO0VET035gzvOlg0vBFMlz5susym3jK5W9moiumGMKdBgrMrmMacOazLtbgVBeHxwju62I9XUMcBxVDSOxuQEQ1bVyTudlGzxHTzWjXlldK1m1AegxOmK3il2ulFb77jpnaA1e287zix+EiWStCw3nXdzKUjqsQ3c1lq3NHRORDbmJteVkiAIjw9e6zuO1eDAmN9HZOoUmpJgRI0WXGt9q8ZAssCn7i35ZVTeOu0jInG6oneKna6tzY7qjjlam1lC65KoOAaTll2KeVcafUjUrUH3GoCbnUOzIaf+sjhdQVgRcCvP3ae9ODUXmiA0N8Howdmg3bvzeHUo2ewAN194tbCKWvrmxemK7hUR/ZgxuLV1YJ425ZdTSvq9kyiR8ILKulhvA2IQUFugYXZoJhDcmCvXy4KwUuC1/saJWvCHIwE0MGfIRKd94ej2Q5WQTDaLx8nj2X26gfrGAnwX/o14myta4SKiD2od/kLbwPjUa0cbkq+8YqYHtxVWDPjD1h0k3WDQfqN3fHrLhlxPONmuwgVBeExwL93DlQOWiqQg6XxjdGNb/9SZ1Iw7wxvzyu/9+QQRax7joqwLLWZ4ctpLhL8Zb3NFK1x8vYyIL1mG6LXCqqRzuhwJuP9sHQUtTtV1KrvouUD41quHqiLJFvQlCMLjIS3LjZnnGqaIsBgREYyJNvVOla3LKplNpvRBdripGSV08GoLm6s5IpSTruid4pMukf7zsKWmsi/W05oka5HFk3j36XozOOYbRNTdPJNtBbTvtDfJ6q0KgvA44MCkDdluOnGL62LwxtsorVVH28Ds+CtHamhtEnUcY3u1PruUzpS0cfCnl9CWk67onWKni4h/oZQ9e/x2O6Vk3DuREglP4h1Ha7C9f2qKiEYJUUUtVZh1vj4oJ11BWBlsyvXg8ZutXMj4lFMzXsNQ+d2huS3cWzuJbBa/6b6YV043qvuQCO8i4ufiba5ohcsJpEKzlfeP1yr6nM4YyZRozmw/WmOqmgc7ieiK1nZoPhT95pGrzZNpSXStJAjC42NLfrk5X9xeT0TfA1AqaqtLb1Z2j2wpqHKiheN/PlFwEY+XD1ZRbfuEc70MCHK9LHqn+E3XIO7gGVLROIRpOZ6kigpel+mhlw/XwM2qvnJ2ukSoI5aVcb60c369OF1BWBFsPVCOd+oG+okonxB1KKLOnbzZ1rT5YA2tSyKny7Zz+5Eq6hqcZZPqA0kZEsWLna7W2nG6zX1TTamZpXZSnXQz3bQxvwxvVvWNcEuv2JuuMq7GIafG6T0/LwjCEwU7spcPlVNj7xQhAl/bqnBUdZ640Tq9LqfMsRHxn0kUbJO2FVbMT0wH24gooADE6YreqVj0su043dlgkF46yJWekseZrctwO+kCN2tHODBhALSaRiSq7ZiglIWgr2QaryAIS0csBaeUXjlUQT3jfjZTYIweC4btwWO3OmkNd0ZjG3GfzyaK7Av1xtbRABrdB6D+Md7mila4+E0XUW0AbVsRW9l7T1UnVVRwWqbzxoxnijtCRCbgrDoEah+cc5zuosMVxysITxaLa5pTcLYdrqRxX9iJXiZCyx+KVu46Xt23Pqc8aU66sSjrUjp2o4lP4xrAHkGw/ybe5opWuBynC2qNBstna6WOvtmUVNe2XHs5JdOFh6+1zIFR0wurjgYnAk5zBnG2gvBkw4eAncdqaD7MDYacXH014Q+27ThaPZaa5aG0+3wmEcQilz10rbKLna4FEO0EgL+Kt7miFS4nkMqYnQC6U2s9fbtuKC4aMLG7SHaqa/fz7pG7+5FC1PsQ8Wv+oB3efKDciRZ0fi7B4xQEYWlZXNO8xtPPeJGIuhDheSTTH7aA0s/W0wt7k6EdaWyc7HRfOlhJdZ2TQGTGAKAGAP453uaKVrhiTle/rsC2QOtwfc/MW043FsWcWGfGC47z8I7f6VJTvkgWEX2IiJ6emg0U7DhSs+B0XUmX5iQIwqMRW9Mu4oyKjFO1QUKVQogfJTLHwkD0+vEqWrWvOAnWfqwOPLOtsJp6x+eRECIK7HFE+L/xNle0wrVQBtIJpOIApZGpIKVmcSnIRO8eF+BAigw3HbndazX2TK5ZGPMH+yd8X9x7yospCxVg1iXLeAVBWBKcNZ1dShtyPZRx2jtGRL/G6380EPjp2s6JU3nXumn13uIkOOnGWJdZQq8fr6RQlNt/O9fg0mVIdK/4TVchblLK1krbE7PzoaktBRXOBEqG91Kuvcy5uhkXm6Clb7qIiD6JOP6RiBVtKbjSQmsySt7aEcd/VhCE9zMu5yaLG8IXXLnbQ0Q/yvhC9m/WtI97d59ppJT9MRtx72eXFyfKOstF+895AUCNK23PKqXGgehr8TZXJHK0OKEPXuh/Zv+ZOkzNdlMaRwVmJ3pCu4gLmmdfarUul/TwSfdHebznq9s+cfJmO65lp8xX4EmwQRAEYQnh5gFZbtqcX0FnbrVxjr6z9m/d6v3YheKezMxLncTrP+EbbraRmW7adKCc0s/Udrz4In1g0Z7G21mR6B419PueOXWrE1MyY5HD90yw5YbfSrI8tPtMk3XqZvv6xXG2jYx84s2qIXTy9DLdSRPBKAjC0sBrmuNLuL7y7ZrBHzjdut6PHS5qLnjjbFus7nJSVNBzE5ekPF/cxV0ZxNmK3rt8Pt8zrvphXM3XNtk8mRK7i4w5fg+9WlgLt2t67xDRL/A4Gxr6n7la0TOaklHi7IblpCsITxqxk+6WfLe54x0o4XVPRB8YnQ383qXSzo4tB2udE2biDwcuSsniyOVqqmwZEacrejCRj55p6Z/B1ft5IvMpMn6CLT9O0nleGd7xDnLt1WNE+DdK6YMVzWMza/bz9bNLTrqC8ISRxtfLmbFmB80D092IuJMIvxWM2G+eLemYSkmS5ixsI1MzS2hbYR31jc2J0xU9mHxEz4xMB9HZPWYWJ4XTZdZluvBmXW+USy8bYwoATGNTz3TnugxuesBON9G7XUEQlhR+WspwOdWoZuajCtFUEuJJbRBP3G6JcrrQPZ9JAE4QVUYx7TlZT3PBiDhd0YOJiJ6ZDUTxtcOVtDYzORLPeTe7Nr2E3qzmgy4pY3Sm1nrb8FTA2uhcgcd+5t7PCoLwfiXmzEpp94kq8kfsGUTYhGhOccuDozda6ft77iz8bGI33DzO1CwXFVxppqhS4nRFDyZ2uqGIxuzzjbQmvTgWwXyfibZccJAU5+pxwMQld7eyo5ELiLoXEP5lej6MOwqrnIUZe38WBOFJgTfSaRkeKrh8lyytRxFhlTFqcHxy7ho3O3hhTzGlcY5+gm3Ueg7myi6lC64eAgBxuqIHEzvdcCQye664m17YlzxvpalZpSbvcuNA0LIW6i8jzIfC8weuNNPadL5mSvDCEwRhSeGnrbScUrpQ2mVA22GMCUZnA2M7jtWMpCba2S7A49yQU04ltYOIRpeJ0xU9kBDxx0OR0J7y5il6/q3rm8TDHYUOX2umYEQRkSFtlI5EreYTt9vnOG0o/ucFQXh/E3O6bnOjqn+UEDy87hGNUzVv76laWrUvOewTN2TYnF9Od7tm/AhhqbUsejAR9T+ttZXeOhigNfu42lOi33RjpGS4KOu8F8fm5seJTJSrn9sarBvV/YOrFiKY4z8jCML7F7Y9G3PLdF3XWD8amOA1D0YHWwemJncer6E1+5MjkCols4RePVxNAxOheSL1/XibKhL9UPFJ1+jo7pGZMG3I9iRFKUiG2w3uPlmLQxM+vl62jQHbGHWtfzLsdCFKlihrQRCWBk4Xeq2whmYDVpjI3OZHJa0h0tA5PvvyoSpam54ktinDRXtOeskXjPgJ1ffibapI9EOFiD9pUI9NzgWdHpaxMmv3TrTlhp3ua0eqaHgqaAgN96msM6g7B8bme14/WkcpSbIABUF4dGLZCG7KPt+kfMFIBxK0A4BXAww0983xtXNS9P3mcTIHi5opFIkgEXABH3nTFb13cSAVRyv4g1HKv3SXVifNe6mbthXW6MrW0StE9LLW9jQAuEamAkeP3eym1fuSZZyCIDwqTnBSdhldKO0NRCxdYAzUAaheW+vN16r6yrcerHFOwvGfW24W259ecHU6XdqIUKKXRQ8mIvo4O91QxA5ecHXT97l11n0m23LDu8lNOW5q7Z+1iegAgApqraLhiBW97O5x0gfiPyMIwvsTPsVuyHJTWdOoMcbMaW3PI8JQ1NJHq9qmcPXeO0mRm++ctrM9VFo/ZABMhIjaxOmKHkh80gXQbVEVLqpomqDn9966Z6IlAmdHmeGmpt5ZTWRKtFYBMPYdDeaut2vaKZ4h77qC8GTAjQ5eOlhBrYPT3JP2kNZWJoDyR23weBon6Pu7kiRyOZMjlz3U3DMTIooWGQPXxemKHkiI+BFj1BkANdzQNUXcUCAZnBnvalMzSrHE2z8HRl3XoAIG1R0wUD84EaRXDlUkzfuzIAgPz+I7aeb5Bj0yPT9ARAGt9SAYPe0Lhm+cd3VGX9ibHM9JHET16uEK6h/zayJoN8beIU5X9EDi62UAiBjE2r6xIBcbdyZW/GRLBCkZLiwq7R5VoEc1aAUAd8GYuWBEU/7lJlq1Nzl2v4IgPDxO+cdMF10s7SHFNR8XZIyx5wLhocNXmic5TTD+c4mAbeP+0/U07Y9GifCuMaZJnK7ogcROV2s7Ygyc7Rqe9maca6FY8YnETnKn/nKGi96sGoCobdcAwgQAfMkYzLO1/eql0k5ak77Yfzc5KtUIgvBg8Nrlsq4v5ldQcW0/pwduNMbsBYANYCA47Y94Txf30Pf33L7ns8tNLJ3SQ4XX261Jn7+UCN/UWrWK0xU9kBDxpwAgaFAdnpwJ1R5xIoO521BinS7DBTJOFndBJGLVIuKYUvjb3PjAtuGrF0o7M/ecb6OU/cWx/rr3+bwgCMkNRyRzfYD0i63zd2r7NxPRcwCw0bKsPzHGRIYn/A35V9toVRIEeKZmlFBajoculvVbkbB9B1GdB4AWcbqiB9Ji9DIYGyK2NqeL2+n5vYu7ysQ6Xl6QB4taKBAKW8aYm1zIIxqNfgoRv9U9MFuw80RVOMVpkMDt/u79vCAIyc06LsiT7cbsS/WjM3Ph14nwi6FQ6OeI6FcAoGNowucUolidnug3Xe71y5HLLir28rOzMQYV/6ekDIkeTBy9rDRMabAmNejxoore0Jr0EmdXl3Cny8ny5+6SLxCy0JjtC+P9JUT9R1HbbH2zbtS5gk6GwC9BEB4cjlrecrCSSpvGOGr5e4j4e4j4M2yXDJjTI9MBeu1wdRIETbqcevCb8stMRfNogMiMa7CnNRiPOF3RA4snDXP6dMtTOefqd+w620Lr0hPfs5bfe3adqIPJWV8NIo4sTm4i+hAAfq2qeSiw5WCV864b/1lBEJKfNF7jJ+uouXu0k4j+26JNQsRnjTHR5u6x+pcLa52npvjPLie8sd+YU0m7zjT58i54v7NoM8Xhih5Jp1tanrpc2r0963InpXBTgUS/62aW0quFlWZ42t9HCONvd7oI9ldmQhH//tMNxCfzez4rCEJSw46MN9bH3mxDZXQbqcjvL9oidrpaa2zoGh/YkFuW8I01Ry1vzKmg3KIO363ynm+/w3CKRA+rlhZ66m7nxPbDN/ti5SCTwOm+mOuh0Zkwv53MLDpdp0mDMbuUBnXuTlt0XZYn4adyQRAeDF6zW/LL0e0diBLRJAD806ItYqfLsSaN3dO0iluOJtjprstw0Ybccjp5p8/XMzgtTle0NCKipybmwttPl444vSsT/Va6LsNNG7JLaWAiTIbgLafLJ13btr9mjB5s6pzuXpdeCrHPLL7vSjSzICQn7oU1Glurrx2qDI9NBjuJoFYpfNv1ctRxurUdM/T87lu0PsEN7J2Tbm4ZFVWN+aIqKk5XtDRip2vbZvubtVO0dt/tpDg9bsj1qJu1Q1cMweDbnO5TClQqgBoNhK2JjNNeSsngLiR8OnYnfFcsCMK7sLBGU7hhfXYZHb/eoolwFEA12wBfWbRFiNanI9r2H7nR+eb6nPJ7f88yw5HLWw+Ukad5lgO+xOmKlkaO09Vme2Wbn9YmSTnI9bnl9sErjTlgdN/bnO7Txpg3jMExDba/tmPcqcWclu2htCxP4q/FBUG4P5mu2BrNctPLh8qpe3iW2+PNAiC38vuXt2wR4rOBcHTylUNVhzYeqEl8JkWGi145XE3NvQFxuqKlEztdbXB7+5BF67PdTjh//ORbVrJdxHm4t6v7QGk19jan+2MA8E2uF61VdHxwamrHjmNVzsJIdXL/ErtABUG4P7w2eY2mZbsp/WzttG3Cu7SKBgF0HSL+j0VbhBj9VChi4albbeb5fbyhTuyaTskopddPeGlo0hanK1o6sdNFxJdHZy3acqCCUtMTWwWGr4uZy54eAFBvxofnL4bst42MfOJ6ZWd4DW8SsjnVKbELVBCE+8NrkyOWNx8oJ5e3p+HdUm8I8edn/aGOozc66IV9xYntpZvpotT0Eso410hzQXuOCL/19rGKRA8tIvogEf7F8JRvdtcJL61NeEN7fqd10fGb7bZtv3s3D06kH5zy979WWElrneurxAZdCILwbrhpXTZ3FPLCXDB844es6Z8emZo/e6CojVbt481/4ta088yWWUoFRc3oD4bvEuHn4scrEj2UOCqYKPrt+VBIpZ+9S2vSE31idFNqtovyLzZb88HIC/HjXRQ73ahlTdyo6adV+0qSIgBMEIR74U30i3llVNU6imi0+4c43Y91DsxmZJ5vpdV845bA6GUnnzjbQ6dudxIYewC1/3/Fj1ckeijFKj1FntOgg0eudyS+9JqTPF9Me0/VUSCi3gqkihc3bTBk/KOzAXrlcBWt5e5Db7UMS9xiFQSB1yGnCfG1MjtdN2VevEvBaJSQsObd1nQ0Gv2VwcmA5sb2KZnFlHaf37tcsNPdlFtG1yu55jJ2KBX4r/HjFYkeShygRASpSqvhcyVdIecq6D6TcLnga2JerNuPVFEoqt7K040XEf2EMfp4xLb7b3iH6QU+7b71BiROVxASS2wNcqDjprxyqu6c1IjQbIze9m5rmotjTAc0Op/l9KIErmO2gVvzy9FVPzRPhA0A8NX48YpEDyV+09Vaf0EB3PbUD4Y25pQnNm1o4aS6taBCtQ9Nv/EjP/KuC/QTWtmTBk1J76hvYM/Zu7R2/2KD+wSf1gVhxbNYUtZFBdda9aw/1E5oyrW23/WkOxoI/LSnZfDCpvxq53ck+qS7vbAaW3qnJonwqFLqd+LHKxI9lDh62RjzGhFRQ/dk/bpMj0rkSTe2UN30Ym4ZDU7OTb7bAnWcrlYzXCzDVtbo9er+0LpsN6Wku5zc3fjfKwjC8sF5ubwWXzpYgZWto/NEMKy1mtDarnq3NT3pj36qbXAOV+1lG5DY3HuOnH71UM38yFSAe+cGAODv48crEj2UnJQhY15GtG9PzIZGthVWx3pI3mciLgcxh19GG3M82Ngz1fhuC5S1mHbQQvRUfefo+pxLLbQ2YyHy8D6/WxCE5cFpVJ9bTgeuNPkGx2e/9G5pQm9X+7jvl9yNo3Nr0/lauSyhz1xM9vm72rZVF5G6gADfjR+vSPRQ4jddRHjBGF0ZiqrZfae8zjtM/ARcThYiB/UVT0fBu10vv10cDBaJ2M+VeAcCnAuY8GAwQVjBsLPkko+vH6um2vaxd7Tv+2G6Xdn7yeM3WopTsxP7xMXj35DtpqPXWw0RjRqjriLCl+LHKxI9lLh7DyK+gWgu2lr1HrnWkdA+lmlO9LKL1ud4yNs5Of3DdsaLWtg4fM8fCptDV1tobcLTngRh5cIOc2OOh66UdZM2apQQPx+/Zu+n7u7JZ8tbp/F5J0fX5diC+N+9HPD4+XmryNOviEyTMeYEIq6KH69I9FByUoYIvmIM1CvbtovKB5yTLr+tpmXzJFxeB8a7THa6abll5Gkcetfo5bcrlvZkfxmM8g1NhWnLAe7FGVu0XAmHS0vG/x1BEJaQ7FjVKcdRZrpo3xkv+cMKDUGrUvi78Wv2fmrpHnq25O4YvrCf8+5j6Ub3/J3HSszmsf3beqCcKpq5nTfwe+51hUpShkRLI+eUCGoNt9QyBqmqZSLupLu8Dosr1/Bi25jrobqOsffqdD9oWaE/1QATSqneG1W9imtIx/IEl3f8grBS4bXGDuulA+VY0z4SIsIeMKYB7eCvxa/Z+6l7aPLZitZJXL2/OLb5djb9y0nMVrDdeOVQJXUN+Tm+lBDNDGrrL+PHKxI9lBZqL2+PTS6igfEApWYmrhSkk5vH1zt5HuoanH5PTre/v/9pY/SrALZHa9XnD4Zacy400JrMEtqQ43YKrcf/HUEQlg5eY846y3XTydutljGqCUB3A9jXEOEf49fs/TQ56X+2uW8WV/P1cgLzdNnp7jhaRf6QWnC6KA0PREsnPukqgE1K2bYCNTbri0y+mMeBDLFd33I7LE414GuqVw5X0ORs8D05XX6X1sZs1WBFbAM3lNYDHf2zIQ6qivXZXd7/D4Kw8ohtlnedrMXx6aDfGGi3jXZpsKZsgG/Gr9n7ye+PPjswFcIU54bKvdAOMP7vPD4WbR3bvn2nvBoAxmywp7VWo4D4tfjxikSPpMVw/mNFgx/Pu9SMqzP5XaVs+VvmcbPrLBflXr5L4Uj0PTndBb2VkoCIH4lE7bMVrZPEubt81bzcmwdBWCnw2uJSj9uOVNPd7ukwGs03Z/9qilC8otHos76QQm7ZuYafuJa5nCtfZ6dmeWhDfhkVXGriqOsH/v8gEj2wBgcHP17aNIyr93Iw1fI3EuC+mykZpVhU3jejlfWuxTF+mLhwBhgd8QXCdv6VZh8bhMWTuyAISwuvrQ15HnPR3eWzlaW10Xcfct0+G4pEsfBq++yq/bEevPF/63Hi1InOKKGXCqqoqmO0I358ItFjkd/v//jI5DxuyuOrneVvHsDh+i8XVJqeodlhIpx4mMXLHYgAuM6rwYGxmcmdR6ujie+eJAhPHrxeUzNcmHehIewLhaaISAHAhYdat4ifBoNU2Tw86hTHWOaUoZitc9H+s/U06wuK0xUtj4jo45YCPFPSSav23lmeEyK/4fD1b6bLybE9U9xDBimCiM/Fj++9iN+pLW39GWD0W5YV/qKrfvjkvnOttHr/7Vh5ufi/LwjCA+N0EspyUfal9lB99+RuIv15G6LfQvVw6TX8LISIWy1DlHuhiV7Yw52GfmAb4v/+UsOn3A05pVTSMELGQGf8+ESixyJE/EkFuq1/3E9bD3goZRlOuuuyOFq62Ck/+erhKtPYM9FDhJUAkb+KH9+DiqOzg1b4+yV1Q7Qpnxvec+L9vWMQBOG9w1exazNLaMexeqprGxsnwi88zOn27UIc/wiA9YLSuq24bmB4U17FQiYFpxA93oyKxRaE6WfqaNof0ojmfPz4RKLHIr6aNaC1BqDrlb20et+dZXjX9dAGJ6/WTVc83aS0rYyBWgA4+6gLmfr7nyajt4Uj9vixG02B9Vnl9/n7giA8KFvyK8z1yi4foWlDUI9cmzgcDv88ALiN0a3+YJgOX22m1ftcjm143DdUvOF/Mc/NZSudNCFjoDF+fCLRYxFfLwPofjDq1pQvEDl4rZWcvLn7TNSlwkmEzyyl3KutMDzla0KjG5W2RrWmP4wf34OKT7pKRf9ZAzTNBSNzh4qaKCXj8e6aBeFJJtbg3U0XXJ1GgZ4AgBJthb8Yv/YeVET0NAB+R4M9r7XyNvdPdu4920hr0h9vQOdiZ7MLnh6MWNEpNHBHa+2KH59I9Ni0ECb/Qa3x//SO+O19p+/Smv0lTh7e0rzx8u9YDNKKVbHZfdJresfnLSJcs5Rh+vy+C2D/vTE6orXuGp+eV+nn6mldhtt5K3qci1kQniRiJVrdtDG7jI7caKVAOBoyRvcYA4Na4x/Er72H1ULa309GLJ3dMhSgrQcqYW06b5R/YDOWolKeU7GOb9iy3FR4vYMm5yJdRPQbS2l/RKIHUsxh4YbeiQDuPu6NXTU7TeYfdcLzwo1VnOHAqZ0n6qC2c6zDKRsHsD5+HI8iXjy2jb8GAK0L1WWof8yvXz5YNsNXVssdISkI71dia8UDGee8M7P+KHfgIWMMF5G4OjER/GT82nsU8TMXosmylRq9Udvb+0phNa3ZV0IbF2zHoxa8YRvGgVO84T9U1Eajs8FZIvpq/DhEomVVS0vLU5ayXuTFNTWv6VTpAK3eV+LUZnYc78M6rEwXpXA+bnopZZ+rx46hmRlEPayU6lNK/b/4cTyKYhsHeA5AFQFAGYCeNcbYLf0THVvzy6a5cMY94xME4R5SMkrM7pM1o2Oz891EqAH0CAAUa62Oa63/Z/zaexTxSVdrvUtrNWkre6SiZXj+jWO1tGpfSSx/92E3/gu3dbzZ35hbRje84xSxnfrKPhtsqTolSqyI6AOI+Dki+DYiPNfaM/3dosou3JJfRqvTF5oJLHYiyvTEUn+c7iA/+HdpiwuEr3P5f2eX0pr9xbS1oIKulPXR2LRvHhH/CMB+LhrV/zOCkV+MH8ejiDsQIar/wtdGkUjkF7SlPw9gu3l73tI7MbP7ZF1sE5HN43+03bMgPHFwWpBTV9lFeZcbYXjSN4NkwlpbJ1Hhb0cikX9HRJ9DVL8Vv/YeRbxuLcv6rGXpPwOwvxq1o98ang7g8ZsdlJbjdmwI2xLHpmTEUoocW+P8s7fZIOdwEKs5wP+OA6a42tXO4zV0s7Z7Ymjc/2Ui+CYCfIOIPhs/DpEooULEnwJjsGt4lk7c7nB6Tq7lyjEZbkrNKonl7TmOKxZpuNiei0nJKqG1GSW0Od9DJ250mubu8V4FVggR5pbz/cRpA2hH/pqDJZCI7nZNDL6YVzGTmulJaKMHQUhG2EmlZLrNrhO144PjPg7ttdHoY0pFHioX92FFhJ/mTmjBSMhX2Tg8cLCozdkIsE1h27JoZ37QVYyfjmL2iG1TarqbUtJdtO1wFV0p76OxuRABgFPqMf5viURJI77yAbBa+Lo5atkTfWP+IVf9EGWerXec6cY8N23MddOG3DJKyymjDXnlzq50S0E5ZVxo4NKOvt7RuW5+WgXQLcbobBvsa8s58Ynow9rol40yZwjt20RA7QNT1s5jNZTCu+f7GB5BWIk4b7iZLsq9eBfHZ/w2kYoi2FeMMkcB4Xvxa+txKkKRXwBjczpRASIMKg3Q2DXRfba4O7TnTB1xBT22NTGbU+bYILZFbJNePlhGB4uaqaplVI/OBAe01rPcyBQgem45bY9I9MCaxumPKmMd1Ua/BMB5tLoadLQpatmTw9PB620Ds+OVjSPjd+oGxu/U9Y5XNg+O320fuTk2HR6MKntCaWscwJ40Rp80xqRzuTijVMFyTvzR0dEPK6VSjDGvajuShVoV8lVZ1+DU0N7TC1fND/tWLQhPCKncWi/bTQeKmmBqZr6FUB3WllWojb3PGLPVtu2/j19bj1PhcPjfGKUuA5jTbDuMgWsAts/W9ljQsscHJ4Kd1S2DxWWN/bO3anrHi72D43WtY+PdQ3N9k3PhW5ZtTxuwvABQ7bxDG73VNtE3ltP2iEQPpcVJuhhWvxTE/43lUqwloN7C11ZKq/ahiVmVe6mJ1mWWUQo3exDnK6wweM7z3H8xt5JO3u6guflA0BjoRsSADfbXE7le4+3Go7D4++L/hkgkeoziQDGF6rf41L6QTmSmZoMjWRe8s+uzy7jb0T1GSRCeZHjOb8wrMydutU5GIjY3HOF1YQPAuTCG/238GhKJRKL3LN7pRjH6y9ro1zXoWgNqCrQ1HYzY855WH209WEtr9t95+PQEQXifsC6D02hKaPepJmrqCxil1RyvBQ1qTIG6A6BW+8j3TPwaEolEovcsdrrT09MfRcTPWIj/UWv9hwDRvyOib075I185X9xzfc+pRlqdXhzLSXbSEWKdVeKNliC8n4hlFrhjc5rb82W7Kf1sY/RqZf8hIvpzRPxbgMjXlVK/byF+hnvd9vf3Px2/hkQikWhJxHVgbW3vmosQ7T5e4+T2pWWVUFoGpydwg23J6RXen/Dc5TnMc3k9p9Nku6nwWiuFbAogqH+Ut06RSLTs4iArRPy+AnV1cm5u8nxJD63OKjHc/ovbjEnNZuH9SiyftYRSuHFBQZm5XTNo5kPz/cboo4jwlfi1IBKJRI9dTmSzjm5WyuLozTdt2+695ulq2JpfBk6jhAy5YhbenzhzN8dNO45UhiqbhrxodKcxUKyUNWHb9tfj14JIJBItmxZTDBCDP6uVrdr6J1qzztXojXnlCxVv7jVqgpCM8Fzld9wtBRV09M3G4MiUrxuN4s46H3h7Ko1IJBIlXIj4s4gGAezOqKWbSuqH7K35nmhqhodSuPbrfYycICQLPEdTM9y483h1pKFrKmiM8Rpj1XNrPnG2IpEo6RQIBH5GaduvwfYBqEYw6sLgZNB3o2GSth6sprX75Z1XSD64shTXHN51soHK2mdwfC40TGjOgVYdAKrN1la1OF2RSJR04haBiPpPAKLfVqh+lxT9PqI5NjMf/peyhoG2/CvNtHb/bS4O/4PuSgt9O+MNoSA8Dhbn2mK3HafQRbaLjt5oU96O0RIF8M+IJh9t/HWN+g8Aot9VKvJ78XNdJBKJkk5E9MFwOPw7APBVRPzufDhKlS2jtPt4rdN5id/P0vgNjVsG3sdACsJSw3ON5xyfbnn+5V5spJa+aQqGw1OE+NcA8FfBYPBX4+eySCQSJb3Y6dq2/Z8iiL/IRTUQoBXADkzMBXo8jcP0ysEySsmqiPUYlmAr4TET6whUSutyKmjPiWqq7xpXgXCk2xg1jwA3Q7b969Fo9Je4R238XBaJRKKkViyaGX/Rtu1/IKKfC6vw7yhQLxpuPQaqAQBaghFD1zw9ge1HqnBDjodSM7jvsFw1C0vL4rx6Ma+M9p326vKGkaCtSaHR9QaU1xj7mgL1T4j4H6LR6KcA4G+J6OPxc1okEoned1pIu/gQAHzZGPABmMvTc5HxYu8wpZ+tp5cOcs9elxPYsj7L7bROc8pLOu9wEgEt3J+35sZCuz2eOzyH1mWU0rYjdZR/uYmqWsYhGLK7jTHXAfSAUvifJQ1IJBI98Vo4BT8LYJdyhxZjgFMyKBAM+9yNQ71nSrpp+9Fqp33a2v3FlJpRTCkLQTCLwVeCsAjPCZ4bPEd4rvCcWZ9TSntOe+mCp0c3dI13R207RITaGOhzulRq6zAifjR+bopEItETJ65kpSyVAgBuY9Qx0Go21h4N5oxRXREb7LE5y6rrDdDp0iF6+WA1vbC3mNZwypFEOgtx8JxYvb+E1ux30c4T9VRUM0bNgyGcCaiorSHEcwrRhLgntNaq3xhVCAA37Yj9tfi5KRKJRE+c+HoZEX9Xa/0HPp/vGdL03xHhG0DwTUD4O0T8U0T8SwD8es+w/zsN3WO97sYRyrvURJtyPbRm3x1am17snITXZ7sc1mVxBDTXfOZUEDdxGUq+cnSctBMlLVfTyY7zHTlRxXyjEfsOne/S+ff83563vm/nFiQ9dqp96SBXj2qnypYRaOwdrxiZjXwZEZ9DxC8i4hcA4R94fiHCV1Hhb83P4ye01n9CRL8RPzdFIpFoRQsRP4lGzRmwOy2laWDCT+XNY3TkRju9eriC1vIpJ50L07OR5lNwcayUX6aHUrm9YLZr4Y1P0pKSH0/su8rmDlUc0e5ZiGovdr5b/o75u07NLqWdx6rpjKub6jsnaXw2SLZSiucIom6QN1qRSCR6SPG7m1KR00R6DhDOGQSvbdt3bKXGwpqoe3SeblX14aFrLfTaoSrcnFdBG3I9lJZXRmmcjpRVRqmckuQY8cXauvHGXkgUTjeft74Xl/Nd8XfG3x1/hxtzPbQ1v4J2HavBE7faydMwjEMzEYpqA7ZSPUrZtwxCjUFVhKhmbDu8XZyuSCQSPaSCweDPAui72kQ3A0AFAFQB6Hql9YTSehzANNpa74vYdrE/GD3TNzbvr2waGbtY2jmefbHOt/1QZejVwhralOdRG7PdwNfTaVwNyzn9xq4y2dAvppUIjxknJ3uhKhQ/AWSXOk8G/N1szi/T2wqrceeRqsCByw1z18p7R+s7xsdHJgNjobB13LLtm7bWWQCmV2k9qbQeAdA1sTkBt7SJvgIAxeJ0RSKR6BG0aEQX0zveIx/jIK2IBbf84Sj1jE73tPRN+WraJ+hWTS9d9vTQ2eIOOnm7nY7d7qSCq82Ud6mBcpmLd4UlJO9yg0N+USMdudlGp2930LmSDioq76E73n6q7ZwwbQNTU4MTswPBcNRWCi4gmp33+U7/FX7E+e/4+SMSiUSixyzH6aJ9BoweMQYCAKrFGD1kDAARcrA0IWIUEdsBtRdQB51/KHpsQkQAowcRTTf/74V/yiljUe7kA6A6jIEQGNVpMLpLHKhIJBK9TzQ5OfkTxphdAOA1ALVKqUNodDkueFx2vlrbMxp0rzIqDxA2GGO2am22AwBfWVYLSwZf/7YaYywuSgGgu7W2/cYY57tARBvAvqGVPmIAmgDAg4jPx3+nIpFIJEpSEdGHEdT3EfVfIEZ/GdH+VY3WX9qI37IRnwOAL2mt/zcifAdR/zH//MI15Ycsiz5rWfgZYWlAtP49kf0biPqLCPAPCPC3Wus/5kYYNuLXAfEbGq3PW9b8p4mszyLCcwjwd/HfqUgkEolEIpFIJBKJRCKRSCQSiUQi0QrV/wc/2bRHDD67VwAAAABJRU5ErkJggg==;" parent="1" vertex="1">
                    <mxGeometry x="637.98" y="574" width="55.3" height="75" as="geometry"/>
                </mxCell>
                <mxCell id="57" style="edgeStyle=orthogonalEdgeStyle;sketch=0;hachureGap=4;jiggle=2;curveFitting=1;html=1;entryX=0;entryY=0.5;entryDx=0;entryDy=0;fontFamily=Helvetica;fontSize=16;fontColor=#000000;exitX=1.006;exitY=0.71;exitDx=0;exitDy=0;exitPerimeter=0;" parent="1" source="30" target="56" edge="1">
                    <mxGeometry relative="1" as="geometry">
                        <mxPoint x="575.26" y="302.76" as="sourcePoint"/>
                        <mxPoint x="690.98" y="380" as="targetPoint"/>
                    </mxGeometry>
                </mxCell>
                <mxCell id="70" value="・・・" style="text;html=1;strokeColor=none;fillColor=none;align=left;verticalAlign=middle;whiteSpace=wrap;rounded=0;sketch=1;hachureGap=4;jiggle=2;curveFitting=1;fontFamily=Helvetica;fontSize=20;fontColor=#000000;horizontal=0;" parent="1" vertex="1">
                    <mxGeometry x="770" y="751" width="102" height="64" as="geometry"/>
                </mxCell>
            </root>
        </mxGraphModel>
    </diagram>
</mxfile>